%FSLAX46Y46*%
G04 Gerber Fmt 4.6, Leading zero omitted, Abs format (unit mm)*
G04 Created by KiCad (PCBNEW (2014-10-27 BZR 5228)-product) date 05/01/2015 12:45:55*
%MOMM*%
G01*
G04 APERTURE LIST*
%ADD10C,0.100000*%
%ADD11R,2.032000X1.524000*%
%ADD12R,1.524000X2.032000*%
%ADD13R,1.397000X0.889000*%
%ADD14R,1.397000X1.397000*%
%ADD15C,1.397000*%
%ADD16R,1.198880X1.198880*%
%ADD17R,1.700000X3.150000*%
%ADD18O,2.286000X1.574800*%
%ADD19R,2.286000X1.574800*%
%ADD20R,1.727200X2.032000*%
%ADD21O,1.727200X2.032000*%
%ADD22R,1.727200X1.727200*%
%ADD23O,1.727200X1.727200*%
%ADD24R,2.032000X1.727200*%
%ADD25O,2.032000X1.727200*%
%ADD26R,2.032000X2.032000*%
%ADD27O,2.032000X2.032000*%
%ADD28R,1.500000X1.300000*%
%ADD29R,1.300000X1.500000*%
%ADD30C,1.800000*%
%ADD31R,2.032000X3.657600*%
%ADD32R,2.032000X1.016000*%
%ADD33C,4.500000*%
%ADD34C,0.889000*%
%ADD35C,0.254000*%
G04 APERTURE END LIST*
D10*
D11*
X200914000Y-117983000D03*
X200914000Y-114681000D03*
D12*
X213741000Y-108966000D03*
X217043000Y-108966000D03*
D13*
X209296000Y-75628500D03*
X209296000Y-73723500D03*
X209296000Y-69151500D03*
X209296000Y-71056500D03*
X207010000Y-73723500D03*
X207010000Y-75628500D03*
D14*
X190500000Y-112776000D03*
D15*
X198120000Y-112776000D03*
D16*
X226156520Y-115951000D03*
X224058480Y-115951000D03*
D17*
X196164000Y-117094000D03*
X193064000Y-117094000D03*
D18*
X212090000Y-91440000D03*
X212090000Y-88900000D03*
X212090000Y-86360000D03*
X212090000Y-83820000D03*
X212090000Y-81280000D03*
X212090000Y-78740000D03*
X212090000Y-76200000D03*
X212090000Y-73660000D03*
X212090000Y-71120000D03*
X212090000Y-68580000D03*
X212090000Y-66040000D03*
X212090000Y-63500000D03*
X212090000Y-60960000D03*
D19*
X212090000Y-93980000D03*
D18*
X204470000Y-60960000D03*
X204470000Y-63500000D03*
X204470000Y-66040000D03*
X204470000Y-68580000D03*
X204470000Y-71120000D03*
X204470000Y-73660000D03*
X204470000Y-76200000D03*
X204470000Y-78740000D03*
X204470000Y-81280000D03*
X204470000Y-83820000D03*
X204470000Y-86360000D03*
X204470000Y-88900000D03*
X204470000Y-91440000D03*
X204470000Y-93980000D03*
D20*
X216408000Y-120142000D03*
D21*
X218948000Y-120142000D03*
X221488000Y-120142000D03*
D22*
X205740000Y-54610000D03*
D23*
X205740000Y-52070000D03*
X208280000Y-54610000D03*
X208280000Y-52070000D03*
X210820000Y-54610000D03*
X210820000Y-52070000D03*
D24*
X214630000Y-91440000D03*
D25*
X214630000Y-88900000D03*
X214630000Y-86360000D03*
X214630000Y-83820000D03*
X214630000Y-81280000D03*
X214630000Y-78740000D03*
X214630000Y-76200000D03*
D24*
X201930000Y-76200000D03*
D25*
X201930000Y-78740000D03*
X201930000Y-81280000D03*
X201930000Y-83820000D03*
X201930000Y-86360000D03*
X201930000Y-88900000D03*
X201930000Y-91440000D03*
X201930000Y-93980000D03*
D26*
X214630000Y-73660000D03*
D27*
X214630000Y-71120000D03*
D24*
X201930000Y-60960000D03*
D25*
X201930000Y-63500000D03*
X201930000Y-66040000D03*
X201930000Y-68580000D03*
X201930000Y-71120000D03*
D24*
X214630000Y-68580000D03*
D25*
X214630000Y-66040000D03*
X214630000Y-63500000D03*
X214630000Y-60960000D03*
D28*
X221949000Y-110236000D03*
X219249000Y-110236000D03*
D29*
X218948000Y-115650000D03*
X218948000Y-112950000D03*
X216408000Y-112950000D03*
X216408000Y-115650000D03*
X221488000Y-112950000D03*
X221488000Y-115650000D03*
X217043000Y-102028000D03*
X217043000Y-104728000D03*
D30*
X228818000Y-112597000D03*
X224318000Y-112597000D03*
X228818000Y-106097000D03*
X224318000Y-106097000D03*
D31*
X204724000Y-121666000D03*
D32*
X211328000Y-121666000D03*
X211328000Y-119380000D03*
X211328000Y-123952000D03*
D22*
X209550000Y-103124000D03*
D23*
X207010000Y-103124000D03*
X209550000Y-105664000D03*
X207010000Y-105664000D03*
X209550000Y-108204000D03*
X207010000Y-108204000D03*
X209550000Y-110744000D03*
X207010000Y-110744000D03*
X209550000Y-113284000D03*
X207010000Y-113284000D03*
X209550000Y-115824000D03*
X207010000Y-115824000D03*
D33*
X197970140Y-103378000D03*
X191970660Y-103378000D03*
X194970400Y-108077000D03*
D34*
X209423000Y-66040000D03*
X200660000Y-112522000D03*
X208153000Y-60579000D03*
X205549500Y-57912000D03*
X214249000Y-98869500D03*
X215709500Y-97282000D03*
X205105000Y-98679000D03*
X207518000Y-83820000D03*
D35*
X196445000Y-116205000D02*
X196215000Y-115975000D01*
X197053000Y-117983000D02*
X200914000Y-117983000D01*
X196164000Y-117094000D02*
X197053000Y-117983000D01*
X203200000Y-119380000D02*
X211328000Y-119380000D01*
X201803000Y-117983000D02*
X203200000Y-119380000D01*
X200914000Y-117983000D02*
X201803000Y-117983000D01*
X205105000Y-78740000D02*
X207010000Y-76835000D01*
X204470000Y-78740000D02*
X205105000Y-78740000D01*
X209867500Y-76200000D02*
X212090000Y-76200000D01*
X207010000Y-76835000D02*
X207010000Y-75628500D01*
X209296000Y-69151500D02*
X209423000Y-69024500D01*
X209423000Y-69024500D02*
X209423000Y-66040000D01*
X200660000Y-114427000D02*
X200914000Y-114681000D01*
X200660000Y-112522000D02*
X200660000Y-114427000D01*
X224058480Y-112856520D02*
X224058480Y-115951000D01*
X224318000Y-112597000D02*
X224058480Y-112856520D01*
X223965000Y-112950000D02*
X221488000Y-112950000D01*
X224318000Y-112597000D02*
X223965000Y-112950000D01*
X220599000Y-112061000D02*
X220599000Y-109347000D01*
X220599000Y-109347000D02*
X220218000Y-108966000D01*
X220218000Y-108966000D02*
X217043000Y-108966000D01*
X221488000Y-112950000D02*
X220599000Y-112061000D01*
X216408000Y-109601000D02*
X216408000Y-112950000D01*
X217043000Y-108966000D02*
X216408000Y-109601000D01*
X209296000Y-75628500D02*
X209867500Y-76200000D01*
X204470000Y-73660000D02*
X206946500Y-73660000D01*
X217043000Y-104728000D02*
X217043000Y-105664000D01*
X217043000Y-105664000D02*
X213741000Y-108966000D01*
X218948000Y-112950000D02*
X218948000Y-110537000D01*
X218948000Y-110537000D02*
X219249000Y-110236000D01*
X205740000Y-52070000D02*
X204089000Y-53721000D01*
X207010000Y-69596000D02*
X207010000Y-73723500D01*
X208153000Y-68453000D02*
X207010000Y-69596000D01*
X208153000Y-60579000D02*
X208153000Y-68453000D01*
X204089000Y-56451500D02*
X205549500Y-57912000D01*
X204089000Y-53721000D02*
X204089000Y-56451500D01*
X214630000Y-78740000D02*
X216344500Y-80454500D01*
X213741000Y-99377500D02*
X213741000Y-107569000D01*
X214249000Y-98869500D02*
X213741000Y-99377500D01*
X216344500Y-96647000D02*
X215709500Y-97282000D01*
X216344500Y-80454500D02*
X216344500Y-96647000D01*
X207010000Y-73723500D02*
X208153000Y-74866500D01*
X208153000Y-76835000D02*
X210058000Y-78740000D01*
X208153000Y-74866500D02*
X208153000Y-76835000D01*
X213741000Y-108966000D02*
X213741000Y-107569000D01*
X213741000Y-108966000D02*
X213741000Y-112649000D01*
X213741000Y-112649000D02*
X215392000Y-114300000D01*
X206946500Y-73660000D02*
X207010000Y-73723500D01*
X211328000Y-121666000D02*
X212090000Y-121666000D01*
X217598000Y-114300000D02*
X215392000Y-114300000D01*
X215392000Y-114300000D02*
X214122000Y-115570000D01*
X214122000Y-115570000D02*
X214122000Y-116713000D01*
X214122000Y-116713000D02*
X214122000Y-118872000D01*
X214122000Y-118872000D02*
X211328000Y-121666000D01*
X218948000Y-112950000D02*
X217598000Y-114300000D01*
X210058000Y-78740000D02*
X212090000Y-78740000D01*
X212090000Y-78740000D02*
X214630000Y-78740000D01*
X212026500Y-73723500D02*
X212090000Y-73660000D01*
X212090000Y-73660000D02*
X214630000Y-73660000D01*
X209296000Y-73723500D02*
X212026500Y-73723500D01*
X212026500Y-71056500D02*
X212090000Y-71120000D01*
X212090000Y-71120000D02*
X214630000Y-71120000D01*
X209296000Y-71056500D02*
X212026500Y-71056500D01*
X197716140Y-103327200D02*
X197716140Y-106428540D01*
X198120000Y-106832400D02*
X198120000Y-112776000D01*
X197716140Y-106428540D02*
X198120000Y-106832400D01*
X190500000Y-114530000D02*
X193064000Y-117094000D01*
X190500000Y-112776000D02*
X190500000Y-114530000D01*
X226156520Y-115951000D02*
X226156520Y-111221520D01*
X225171000Y-110236000D02*
X221949000Y-110236000D01*
X226156520Y-111221520D02*
X225171000Y-110236000D01*
X212090000Y-91440000D02*
X214630000Y-91440000D01*
X210947000Y-91440000D02*
X210439000Y-91948000D01*
X212090000Y-91440000D02*
X210947000Y-91440000D01*
X210439000Y-91948000D02*
X210439000Y-96520000D01*
X210439000Y-96520000D02*
X212598000Y-98679000D01*
X212598000Y-98679000D02*
X212598000Y-107061000D01*
X212598000Y-107061000D02*
X212217000Y-107442000D01*
X212217000Y-107442000D02*
X212217000Y-115316000D01*
X212217000Y-115316000D02*
X211709000Y-115824000D01*
X211709000Y-115824000D02*
X209550000Y-115824000D01*
X212090000Y-88900000D02*
X214630000Y-88900000D01*
X210820000Y-88900000D02*
X209804000Y-89916000D01*
X212090000Y-88900000D02*
X210820000Y-88900000D01*
X209804000Y-89916000D02*
X209804000Y-93980000D01*
X209804000Y-93980000D02*
X205105000Y-98679000D01*
X212090000Y-86360000D02*
X214630000Y-86360000D01*
X212090000Y-83820000D02*
X214630000Y-83820000D01*
X212090000Y-81280000D02*
X214630000Y-81280000D01*
X210058000Y-81280000D02*
X207518000Y-83820000D01*
X212090000Y-81280000D02*
X210058000Y-81280000D01*
X212090000Y-68580000D02*
X214630000Y-68580000D01*
X212090000Y-66040000D02*
X214630000Y-66040000D01*
X212090000Y-63500000D02*
X214630000Y-63500000D01*
X212090000Y-60960000D02*
X214630000Y-60960000D01*
X216979500Y-100076000D02*
X216979500Y-101964500D01*
X216979500Y-101964500D02*
X217043000Y-102028000D01*
X228818000Y-106097000D02*
X227115000Y-104394000D01*
X219409000Y-104394000D02*
X217043000Y-102028000D01*
X227115000Y-104394000D02*
X219409000Y-104394000D01*
X228818000Y-112597000D02*
X228818000Y-106097000D01*
X210820000Y-54610000D02*
X216471500Y-60261500D01*
X216471500Y-60261500D02*
X216471500Y-79248000D01*
X216471500Y-79248000D02*
X216979500Y-79756000D01*
X216979500Y-79756000D02*
X216979500Y-100076000D01*
X216979500Y-100076000D02*
X216979500Y-100139500D01*
X216979500Y-100139500D02*
X212090000Y-95250000D01*
X212090000Y-95250000D02*
X212090000Y-93980000D01*
X201930000Y-60960000D02*
X204470000Y-60960000D01*
X201930000Y-63500000D02*
X204470000Y-63500000D01*
X201930000Y-66040000D02*
X200025000Y-64135000D01*
X206375000Y-50165000D02*
X208280000Y-52070000D01*
X203835000Y-50165000D02*
X206375000Y-50165000D01*
X200025000Y-53975000D02*
X203835000Y-50165000D01*
X200025000Y-64135000D02*
X200025000Y-53975000D01*
X201930000Y-66040000D02*
X204470000Y-66040000D01*
X206502000Y-66548000D02*
X204470000Y-68580000D01*
X201930000Y-68580000D02*
X204470000Y-68580000D01*
X206502000Y-55372000D02*
X206502000Y-66548000D01*
X205740000Y-54610000D02*
X206502000Y-55372000D01*
X207264000Y-68326000D02*
X207264000Y-55626000D01*
X204470000Y-71120000D02*
X207264000Y-68326000D01*
X201930000Y-71120000D02*
X204470000Y-71120000D01*
X207264000Y-55626000D02*
X208280000Y-54610000D01*
X201930000Y-76200000D02*
X204470000Y-76200000D01*
X201930000Y-81280000D02*
X204470000Y-81280000D01*
X201930000Y-83820000D02*
X204470000Y-83820000D01*
X201930000Y-86360000D02*
X204470000Y-86360000D01*
X201930000Y-88900000D02*
X204470000Y-88900000D01*
X201930000Y-91440000D02*
X204470000Y-91440000D01*
X201930000Y-93980000D02*
X204470000Y-93980000D01*
X216408000Y-115650000D02*
X216408000Y-120142000D01*
X215138000Y-123952000D02*
X211328000Y-123952000D01*
X218948000Y-120142000D02*
X215138000Y-123952000D01*
X218948000Y-115650000D02*
X218948000Y-120142000D01*
X221488000Y-115650000D02*
X221488000Y-120142000D01*
G36*
X205887000Y-52197000D02*
X205867000Y-52197000D01*
X205867000Y-52217000D01*
X205613000Y-52217000D01*
X205613000Y-52197000D01*
X204406183Y-52197000D01*
X204285042Y-52429026D01*
X204330778Y-52579814D01*
X204457316Y-52844944D01*
X204633146Y-53080293D01*
X204694165Y-53135208D01*
X204691177Y-53135803D01*
X204575615Y-53183670D01*
X204471611Y-53253163D01*
X204383163Y-53341611D01*
X204313670Y-53445615D01*
X204265803Y-53561177D01*
X204241400Y-53683858D01*
X204241400Y-53808942D01*
X204241400Y-55536142D01*
X204265803Y-55658823D01*
X204313670Y-55774385D01*
X204383163Y-55878389D01*
X204471611Y-55966837D01*
X204575615Y-56036330D01*
X204691177Y-56084197D01*
X204813858Y-56108600D01*
X204938942Y-56108600D01*
X205740000Y-56108600D01*
X205740000Y-59872104D01*
X205637812Y-59786359D01*
X205394546Y-59652622D01*
X205129937Y-59568683D01*
X204854063Y-59537739D01*
X204834203Y-59537600D01*
X204105797Y-59537600D01*
X203829518Y-59564689D01*
X203563762Y-59644926D01*
X203448863Y-59706018D01*
X203439237Y-59691611D01*
X203350789Y-59603163D01*
X203246785Y-59533670D01*
X203131223Y-59485803D01*
X203008542Y-59461400D01*
X202883458Y-59461400D01*
X200851458Y-59461400D01*
X200787000Y-59474221D01*
X200787000Y-54290630D01*
X204150630Y-50927000D01*
X204780602Y-50927000D01*
X204633146Y-51059707D01*
X204457316Y-51295056D01*
X204330778Y-51560186D01*
X204285042Y-51710974D01*
X204406183Y-51943000D01*
X205613000Y-51943000D01*
X205613000Y-51923000D01*
X205867000Y-51923000D01*
X205867000Y-51943000D01*
X205887000Y-51943000D01*
X205887000Y-52197000D01*
X205887000Y-52197000D01*
G37*
X205887000Y-52197000D02*
X205867000Y-52197000D01*
X205867000Y-52217000D01*
X205613000Y-52217000D01*
X205613000Y-52197000D01*
X204406183Y-52197000D01*
X204285042Y-52429026D01*
X204330778Y-52579814D01*
X204457316Y-52844944D01*
X204633146Y-53080293D01*
X204694165Y-53135208D01*
X204691177Y-53135803D01*
X204575615Y-53183670D01*
X204471611Y-53253163D01*
X204383163Y-53341611D01*
X204313670Y-53445615D01*
X204265803Y-53561177D01*
X204241400Y-53683858D01*
X204241400Y-53808942D01*
X204241400Y-55536142D01*
X204265803Y-55658823D01*
X204313670Y-55774385D01*
X204383163Y-55878389D01*
X204471611Y-55966837D01*
X204575615Y-56036330D01*
X204691177Y-56084197D01*
X204813858Y-56108600D01*
X204938942Y-56108600D01*
X205740000Y-56108600D01*
X205740000Y-59872104D01*
X205637812Y-59786359D01*
X205394546Y-59652622D01*
X205129937Y-59568683D01*
X204854063Y-59537739D01*
X204834203Y-59537600D01*
X204105797Y-59537600D01*
X203829518Y-59564689D01*
X203563762Y-59644926D01*
X203448863Y-59706018D01*
X203439237Y-59691611D01*
X203350789Y-59603163D01*
X203246785Y-59533670D01*
X203131223Y-59485803D01*
X203008542Y-59461400D01*
X202883458Y-59461400D01*
X200851458Y-59461400D01*
X200787000Y-59474221D01*
X200787000Y-54290630D01*
X204150630Y-50927000D01*
X204780602Y-50927000D01*
X204633146Y-51059707D01*
X204457316Y-51295056D01*
X204330778Y-51560186D01*
X204285042Y-51710974D01*
X204406183Y-51943000D01*
X205613000Y-51943000D01*
X205613000Y-51923000D01*
X205867000Y-51923000D01*
X205867000Y-51943000D01*
X205887000Y-51943000D01*
X205887000Y-52197000D01*
G36*
X214593770Y-59461400D02*
X214469612Y-59461400D01*
X214178532Y-59489941D01*
X213898540Y-59574475D01*
X213640299Y-59711784D01*
X213413647Y-59896637D01*
X213403645Y-59908727D01*
X213257812Y-59786359D01*
X213014546Y-59652622D01*
X212749937Y-59568683D01*
X212474063Y-59537739D01*
X212454203Y-59537600D01*
X211725797Y-59537600D01*
X211449518Y-59564689D01*
X211183762Y-59644926D01*
X210938653Y-59775253D01*
X210723525Y-59950707D01*
X210546574Y-60164604D01*
X210414539Y-60408798D01*
X210332449Y-60673987D01*
X210303432Y-60950070D01*
X210328592Y-61226531D01*
X210406971Y-61492840D01*
X210535583Y-61738854D01*
X210709531Y-61955201D01*
X210922188Y-62133641D01*
X211098214Y-62230412D01*
X210938653Y-62315253D01*
X210723525Y-62490707D01*
X210546574Y-62704604D01*
X210414539Y-62948798D01*
X210332449Y-63213987D01*
X210303432Y-63490070D01*
X210328592Y-63766531D01*
X210406971Y-64032840D01*
X210535583Y-64278854D01*
X210709531Y-64495201D01*
X210922188Y-64673641D01*
X211098214Y-64770412D01*
X210938653Y-64855253D01*
X210723525Y-65030707D01*
X210546574Y-65244604D01*
X210414539Y-65488798D01*
X210392631Y-65559570D01*
X210380754Y-65530753D01*
X210263600Y-65354423D01*
X210114428Y-65204207D01*
X209938921Y-65085825D01*
X209743761Y-65003788D01*
X209536384Y-64961219D01*
X209324689Y-64959741D01*
X209116738Y-64999410D01*
X208920452Y-65078715D01*
X208743308Y-65194634D01*
X208592054Y-65342753D01*
X208472450Y-65517431D01*
X208389052Y-65712012D01*
X208345037Y-65919087D01*
X208342081Y-66130767D01*
X208380297Y-66338990D01*
X208458230Y-66535825D01*
X208572910Y-66713773D01*
X208661000Y-66804993D01*
X208661000Y-68072000D01*
X208534958Y-68072000D01*
X208412277Y-68096403D01*
X208296715Y-68144270D01*
X208192711Y-68213763D01*
X208104263Y-68302211D01*
X208034770Y-68406215D01*
X208012707Y-68459478D01*
X208018080Y-68406577D01*
X208025926Y-68336639D01*
X208025980Y-68328802D01*
X208025995Y-68328660D01*
X208025982Y-68328526D01*
X208026000Y-68326000D01*
X208026000Y-56083123D01*
X208251825Y-56108454D01*
X208272749Y-56108600D01*
X208287251Y-56108600D01*
X208578331Y-56080059D01*
X208858323Y-55995525D01*
X209116564Y-55858216D01*
X209343216Y-55673363D01*
X209529647Y-55448006D01*
X209549088Y-55412050D01*
X209558774Y-55430578D01*
X209742040Y-55658515D01*
X209966089Y-55846515D01*
X210222388Y-55987416D01*
X210501173Y-56075852D01*
X210791825Y-56108454D01*
X210812749Y-56108600D01*
X210827251Y-56108600D01*
X211118331Y-56080059D01*
X211190607Y-56058237D01*
X214593770Y-59461400D01*
X214593770Y-59461400D01*
G37*
X214593770Y-59461400D02*
X214469612Y-59461400D01*
X214178532Y-59489941D01*
X213898540Y-59574475D01*
X213640299Y-59711784D01*
X213413647Y-59896637D01*
X213403645Y-59908727D01*
X213257812Y-59786359D01*
X213014546Y-59652622D01*
X212749937Y-59568683D01*
X212474063Y-59537739D01*
X212454203Y-59537600D01*
X211725797Y-59537600D01*
X211449518Y-59564689D01*
X211183762Y-59644926D01*
X210938653Y-59775253D01*
X210723525Y-59950707D01*
X210546574Y-60164604D01*
X210414539Y-60408798D01*
X210332449Y-60673987D01*
X210303432Y-60950070D01*
X210328592Y-61226531D01*
X210406971Y-61492840D01*
X210535583Y-61738854D01*
X210709531Y-61955201D01*
X210922188Y-62133641D01*
X211098214Y-62230412D01*
X210938653Y-62315253D01*
X210723525Y-62490707D01*
X210546574Y-62704604D01*
X210414539Y-62948798D01*
X210332449Y-63213987D01*
X210303432Y-63490070D01*
X210328592Y-63766531D01*
X210406971Y-64032840D01*
X210535583Y-64278854D01*
X210709531Y-64495201D01*
X210922188Y-64673641D01*
X211098214Y-64770412D01*
X210938653Y-64855253D01*
X210723525Y-65030707D01*
X210546574Y-65244604D01*
X210414539Y-65488798D01*
X210392631Y-65559570D01*
X210380754Y-65530753D01*
X210263600Y-65354423D01*
X210114428Y-65204207D01*
X209938921Y-65085825D01*
X209743761Y-65003788D01*
X209536384Y-64961219D01*
X209324689Y-64959741D01*
X209116738Y-64999410D01*
X208920452Y-65078715D01*
X208743308Y-65194634D01*
X208592054Y-65342753D01*
X208472450Y-65517431D01*
X208389052Y-65712012D01*
X208345037Y-65919087D01*
X208342081Y-66130767D01*
X208380297Y-66338990D01*
X208458230Y-66535825D01*
X208572910Y-66713773D01*
X208661000Y-66804993D01*
X208661000Y-68072000D01*
X208534958Y-68072000D01*
X208412277Y-68096403D01*
X208296715Y-68144270D01*
X208192711Y-68213763D01*
X208104263Y-68302211D01*
X208034770Y-68406215D01*
X208012707Y-68459478D01*
X208018080Y-68406577D01*
X208025926Y-68336639D01*
X208025980Y-68328802D01*
X208025995Y-68328660D01*
X208025982Y-68328526D01*
X208026000Y-68326000D01*
X208026000Y-56083123D01*
X208251825Y-56108454D01*
X208272749Y-56108600D01*
X208287251Y-56108600D01*
X208578331Y-56080059D01*
X208858323Y-55995525D01*
X209116564Y-55858216D01*
X209343216Y-55673363D01*
X209529647Y-55448006D01*
X209549088Y-55412050D01*
X209558774Y-55430578D01*
X209742040Y-55658515D01*
X209966089Y-55846515D01*
X210222388Y-55987416D01*
X210501173Y-56075852D01*
X210791825Y-56108454D01*
X210812749Y-56108600D01*
X210827251Y-56108600D01*
X211118331Y-56080059D01*
X211190607Y-56058237D01*
X214593770Y-59461400D01*
G36*
X216217500Y-98299869D02*
X213315967Y-95398337D01*
X213418223Y-95377997D01*
X213533785Y-95330130D01*
X213637789Y-95260637D01*
X213726237Y-95172189D01*
X213795730Y-95068185D01*
X213843597Y-94952623D01*
X213868000Y-94829942D01*
X213868000Y-94704858D01*
X213868000Y-93130058D01*
X213843597Y-93007377D01*
X213815108Y-92938600D01*
X215708542Y-92938600D01*
X215831223Y-92914197D01*
X215946785Y-92866330D01*
X216050789Y-92796837D01*
X216139237Y-92708389D01*
X216208730Y-92604385D01*
X216217500Y-92583212D01*
X216217500Y-98299869D01*
X216217500Y-98299869D01*
G37*
X216217500Y-98299869D02*
X213315967Y-95398337D01*
X213418223Y-95377997D01*
X213533785Y-95330130D01*
X213637789Y-95260637D01*
X213726237Y-95172189D01*
X213795730Y-95068185D01*
X213843597Y-94952623D01*
X213868000Y-94829942D01*
X213868000Y-94704858D01*
X213868000Y-93130058D01*
X213843597Y-93007377D01*
X213815108Y-92938600D01*
X215708542Y-92938600D01*
X215831223Y-92914197D01*
X215946785Y-92866330D01*
X216050789Y-92796837D01*
X216139237Y-92708389D01*
X216208730Y-92604385D01*
X216217500Y-92583212D01*
X216217500Y-98299869D01*
G36*
X218087193Y-114300000D02*
X217997215Y-114337270D01*
X217893211Y-114406763D01*
X217804763Y-114495211D01*
X217735270Y-114599215D01*
X217687403Y-114714777D01*
X217678000Y-114762048D01*
X217668597Y-114714777D01*
X217620730Y-114599215D01*
X217551237Y-114495211D01*
X217462789Y-114406763D01*
X217358785Y-114337270D01*
X217268806Y-114300000D01*
X217358785Y-114262730D01*
X217462789Y-114193237D01*
X217551237Y-114104789D01*
X217620730Y-114000785D01*
X217668597Y-113885223D01*
X217678000Y-113837951D01*
X217687403Y-113885223D01*
X217735270Y-114000785D01*
X217804763Y-114104789D01*
X217893211Y-114193237D01*
X217997215Y-114262730D01*
X218087193Y-114300000D01*
X218087193Y-114300000D01*
G37*
X218087193Y-114300000D02*
X217997215Y-114337270D01*
X217893211Y-114406763D01*
X217804763Y-114495211D01*
X217735270Y-114599215D01*
X217687403Y-114714777D01*
X217678000Y-114762048D01*
X217668597Y-114714777D01*
X217620730Y-114599215D01*
X217551237Y-114495211D01*
X217462789Y-114406763D01*
X217358785Y-114337270D01*
X217268806Y-114300000D01*
X217358785Y-114262730D01*
X217462789Y-114193237D01*
X217551237Y-114104789D01*
X217620730Y-114000785D01*
X217668597Y-113885223D01*
X217678000Y-113837951D01*
X217687403Y-113885223D01*
X217735270Y-114000785D01*
X217804763Y-114104789D01*
X217893211Y-114193237D01*
X217997215Y-114262730D01*
X218087193Y-114300000D01*
G36*
X219837000Y-111611678D02*
X219783223Y-111589403D01*
X219660542Y-111565000D01*
X219535458Y-111565000D01*
X219233750Y-111565000D01*
X219075000Y-111723750D01*
X219075000Y-112823000D01*
X219095000Y-112823000D01*
X219095000Y-113077000D01*
X219075000Y-113077000D01*
X219075000Y-113097000D01*
X218821000Y-113097000D01*
X218821000Y-113077000D01*
X218801000Y-113077000D01*
X218801000Y-112823000D01*
X218821000Y-112823000D01*
X218821000Y-111723750D01*
X218662250Y-111565000D01*
X218360542Y-111565000D01*
X218235458Y-111565000D01*
X218112777Y-111589403D01*
X217997215Y-111637270D01*
X217893211Y-111706763D01*
X217804763Y-111795211D01*
X217735270Y-111899215D01*
X217687403Y-112014777D01*
X217678000Y-112062048D01*
X217668597Y-112014777D01*
X217620730Y-111899215D01*
X217551237Y-111795211D01*
X217462789Y-111706763D01*
X217358785Y-111637270D01*
X217243223Y-111589403D01*
X217170000Y-111574837D01*
X217170000Y-110617000D01*
X217864000Y-110617000D01*
X217864000Y-110823458D01*
X217864000Y-110948542D01*
X217888403Y-111071223D01*
X217936270Y-111186785D01*
X218005763Y-111290789D01*
X218094211Y-111379237D01*
X218198215Y-111448730D01*
X218313777Y-111496597D01*
X218436458Y-111521000D01*
X218963250Y-111521000D01*
X219122000Y-111362250D01*
X219122000Y-110363000D01*
X219102000Y-110363000D01*
X219102000Y-110109000D01*
X219122000Y-110109000D01*
X219122000Y-110089000D01*
X219376000Y-110089000D01*
X219376000Y-110109000D01*
X219396000Y-110109000D01*
X219396000Y-110363000D01*
X219376000Y-110363000D01*
X219376000Y-111362250D01*
X219534750Y-111521000D01*
X219837000Y-111521000D01*
X219837000Y-111611678D01*
X219837000Y-111611678D01*
G37*
X219837000Y-111611678D02*
X219783223Y-111589403D01*
X219660542Y-111565000D01*
X219535458Y-111565000D01*
X219233750Y-111565000D01*
X219075000Y-111723750D01*
X219075000Y-112823000D01*
X219095000Y-112823000D01*
X219095000Y-113077000D01*
X219075000Y-113077000D01*
X219075000Y-113097000D01*
X218821000Y-113097000D01*
X218821000Y-113077000D01*
X218801000Y-113077000D01*
X218801000Y-112823000D01*
X218821000Y-112823000D01*
X218821000Y-111723750D01*
X218662250Y-111565000D01*
X218360542Y-111565000D01*
X218235458Y-111565000D01*
X218112777Y-111589403D01*
X217997215Y-111637270D01*
X217893211Y-111706763D01*
X217804763Y-111795211D01*
X217735270Y-111899215D01*
X217687403Y-112014777D01*
X217678000Y-112062048D01*
X217668597Y-112014777D01*
X217620730Y-111899215D01*
X217551237Y-111795211D01*
X217462789Y-111706763D01*
X217358785Y-111637270D01*
X217243223Y-111589403D01*
X217170000Y-111574837D01*
X217170000Y-110617000D01*
X217864000Y-110617000D01*
X217864000Y-110823458D01*
X217864000Y-110948542D01*
X217888403Y-111071223D01*
X217936270Y-111186785D01*
X218005763Y-111290789D01*
X218094211Y-111379237D01*
X218198215Y-111448730D01*
X218313777Y-111496597D01*
X218436458Y-111521000D01*
X218963250Y-111521000D01*
X219122000Y-111362250D01*
X219122000Y-110363000D01*
X219102000Y-110363000D01*
X219102000Y-110109000D01*
X219122000Y-110109000D01*
X219122000Y-110089000D01*
X219376000Y-110089000D01*
X219376000Y-110109000D01*
X219396000Y-110109000D01*
X219396000Y-110363000D01*
X219376000Y-110363000D01*
X219376000Y-111362250D01*
X219534750Y-111521000D01*
X219837000Y-111521000D01*
X219837000Y-111611678D01*
G36*
X232360000Y-104106495D02*
X231898177Y-108816525D01*
X230540031Y-113314924D01*
X228334008Y-117463850D01*
X227390960Y-118620140D01*
X227390960Y-116612982D01*
X227390960Y-116487898D01*
X227390960Y-115289018D01*
X227366557Y-115166337D01*
X227318690Y-115050775D01*
X227249197Y-114946771D01*
X227160749Y-114858323D01*
X227056745Y-114788830D01*
X226941183Y-114740963D01*
X226918520Y-114736455D01*
X226918520Y-111221520D01*
X226911650Y-111151456D01*
X226905517Y-111081350D01*
X226904399Y-111077502D01*
X226904008Y-111073513D01*
X226883655Y-111006101D01*
X226864026Y-110938538D01*
X226862182Y-110934982D01*
X226861024Y-110931144D01*
X226827963Y-110868966D01*
X226795587Y-110806506D01*
X226793088Y-110803375D01*
X226791206Y-110799836D01*
X226746719Y-110745289D01*
X226702806Y-110690280D01*
X226697304Y-110684701D01*
X226697213Y-110684589D01*
X226697109Y-110684503D01*
X226695336Y-110682705D01*
X225709815Y-109697185D01*
X225655400Y-109652487D01*
X225601505Y-109607264D01*
X225597997Y-109605335D01*
X225594897Y-109602789D01*
X225532831Y-109569510D01*
X225471184Y-109535619D01*
X225467363Y-109534407D01*
X225463833Y-109532514D01*
X225396535Y-109511939D01*
X225329429Y-109490652D01*
X225325445Y-109490205D01*
X225321615Y-109489034D01*
X225251627Y-109481924D01*
X225181639Y-109474074D01*
X225173802Y-109474019D01*
X225173660Y-109474005D01*
X225173526Y-109474017D01*
X225171000Y-109474000D01*
X223324162Y-109474000D01*
X223309597Y-109400777D01*
X223261730Y-109285215D01*
X223192237Y-109181211D01*
X223103789Y-109092763D01*
X222999785Y-109023270D01*
X222884223Y-108975403D01*
X222761542Y-108951000D01*
X222636458Y-108951000D01*
X221247923Y-108951000D01*
X221238067Y-108931985D01*
X221235566Y-108928852D01*
X221233686Y-108925316D01*
X221189216Y-108870791D01*
X221145286Y-108815760D01*
X221139784Y-108810181D01*
X221139693Y-108810069D01*
X221139589Y-108809983D01*
X221137815Y-108808184D01*
X220756815Y-108427185D01*
X220702400Y-108382487D01*
X220648505Y-108337264D01*
X220644997Y-108335335D01*
X220641897Y-108332789D01*
X220579831Y-108299510D01*
X220518184Y-108265619D01*
X220514363Y-108264407D01*
X220510833Y-108262514D01*
X220443535Y-108241939D01*
X220376429Y-108220652D01*
X220372445Y-108220205D01*
X220368615Y-108219034D01*
X220298627Y-108211924D01*
X220228639Y-108204074D01*
X220220802Y-108204019D01*
X220220660Y-108204005D01*
X220220526Y-108204017D01*
X220218000Y-108204000D01*
X218440000Y-108204000D01*
X218440000Y-107887458D01*
X218415597Y-107764777D01*
X218367730Y-107649215D01*
X218328000Y-107589754D01*
X218328000Y-105540542D01*
X218328000Y-105013750D01*
X218169250Y-104855000D01*
X217170000Y-104855000D01*
X217170000Y-105954250D01*
X217328750Y-106113000D01*
X217630458Y-106113000D01*
X217755542Y-106113000D01*
X217878223Y-106088597D01*
X217993785Y-106040730D01*
X218097789Y-105971237D01*
X218186237Y-105882789D01*
X218255730Y-105778785D01*
X218303597Y-105663223D01*
X218328000Y-105540542D01*
X218328000Y-107589754D01*
X218298237Y-107545211D01*
X218209789Y-107456763D01*
X218105785Y-107387270D01*
X217990223Y-107339403D01*
X217867542Y-107315000D01*
X217742458Y-107315000D01*
X216916000Y-107315000D01*
X216916000Y-105954250D01*
X216916000Y-104855000D01*
X215916750Y-104855000D01*
X215758000Y-105013750D01*
X215758000Y-105540542D01*
X215782403Y-105663223D01*
X215830270Y-105778785D01*
X215899763Y-105882789D01*
X215988211Y-105971237D01*
X216092215Y-106040730D01*
X216207777Y-106088597D01*
X216330458Y-106113000D01*
X216455542Y-106113000D01*
X216757250Y-106113000D01*
X216916000Y-105954250D01*
X216916000Y-107315000D01*
X216218458Y-107315000D01*
X216095777Y-107339403D01*
X215980215Y-107387270D01*
X215876211Y-107456763D01*
X215787763Y-107545211D01*
X215718270Y-107649215D01*
X215670403Y-107764777D01*
X215646000Y-107887458D01*
X215646000Y-108012542D01*
X215646000Y-109601000D01*
X215646000Y-110044542D01*
X215646000Y-111574837D01*
X215572777Y-111589403D01*
X215457215Y-111637270D01*
X215353211Y-111706763D01*
X215264763Y-111795211D01*
X215195270Y-111899215D01*
X215147403Y-112014777D01*
X215138000Y-112062048D01*
X215138000Y-110044542D01*
X215138000Y-109919458D01*
X215138000Y-109251750D01*
X215138000Y-108680250D01*
X215138000Y-108012542D01*
X215138000Y-107887458D01*
X215113597Y-107764777D01*
X215065730Y-107649215D01*
X214996237Y-107545211D01*
X214907789Y-107456763D01*
X214803785Y-107387270D01*
X214688223Y-107339403D01*
X214565542Y-107315000D01*
X214026750Y-107315000D01*
X213868000Y-107473750D01*
X213868000Y-108839000D01*
X214979250Y-108839000D01*
X215138000Y-108680250D01*
X215138000Y-109251750D01*
X214979250Y-109093000D01*
X213868000Y-109093000D01*
X213868000Y-110458250D01*
X214026750Y-110617000D01*
X214565542Y-110617000D01*
X214688223Y-110592597D01*
X214803785Y-110544730D01*
X214907789Y-110475237D01*
X214996237Y-110386789D01*
X215065730Y-110282785D01*
X215113597Y-110167223D01*
X215138000Y-110044542D01*
X215138000Y-112062048D01*
X215123000Y-112137458D01*
X215123000Y-112262542D01*
X215123000Y-113762542D01*
X215147403Y-113885223D01*
X215195270Y-114000785D01*
X215264763Y-114104789D01*
X215353211Y-114193237D01*
X215457215Y-114262730D01*
X215547193Y-114300000D01*
X215457215Y-114337270D01*
X215353211Y-114406763D01*
X215264763Y-114495211D01*
X215195270Y-114599215D01*
X215147403Y-114714777D01*
X215123000Y-114837458D01*
X215123000Y-114962542D01*
X215123000Y-116462542D01*
X215147403Y-116585223D01*
X215195270Y-116700785D01*
X215264763Y-116804789D01*
X215353211Y-116893237D01*
X215457215Y-116962730D01*
X215572777Y-117010597D01*
X215646000Y-117025162D01*
X215646000Y-118491000D01*
X215481858Y-118491000D01*
X215359177Y-118515403D01*
X215243615Y-118563270D01*
X215139611Y-118632763D01*
X215051163Y-118721211D01*
X214981670Y-118825215D01*
X214933803Y-118940777D01*
X214909400Y-119063458D01*
X214909400Y-119188542D01*
X214909400Y-121220542D01*
X214933803Y-121343223D01*
X214981670Y-121458785D01*
X215051163Y-121562789D01*
X215139611Y-121651237D01*
X215243615Y-121720730D01*
X215359177Y-121768597D01*
X215481858Y-121793000D01*
X215606942Y-121793000D01*
X216219369Y-121793000D01*
X214822369Y-123190000D01*
X212926108Y-123190000D01*
X212906730Y-123143215D01*
X212837237Y-123039211D01*
X212748789Y-122950763D01*
X212644785Y-122881270D01*
X212529223Y-122833403D01*
X212406542Y-122809000D01*
X212529223Y-122784597D01*
X212644785Y-122736730D01*
X212748789Y-122667237D01*
X212837237Y-122578789D01*
X212906730Y-122474785D01*
X212954597Y-122359223D01*
X212979000Y-122236542D01*
X212979000Y-121951750D01*
X212979000Y-121380250D01*
X212979000Y-121095458D01*
X212954597Y-120972777D01*
X212906730Y-120857215D01*
X212837237Y-120753211D01*
X212748789Y-120664763D01*
X212644785Y-120595270D01*
X212529223Y-120547403D01*
X212406542Y-120523000D01*
X212529223Y-120498597D01*
X212644785Y-120450730D01*
X212748789Y-120381237D01*
X212837237Y-120292789D01*
X212906730Y-120188785D01*
X212954597Y-120073223D01*
X212979000Y-119950542D01*
X212979000Y-119825458D01*
X212979000Y-118809458D01*
X212954597Y-118686777D01*
X212906730Y-118571215D01*
X212837237Y-118467211D01*
X212748789Y-118378763D01*
X212644785Y-118309270D01*
X212529223Y-118261403D01*
X212406542Y-118237000D01*
X212281458Y-118237000D01*
X210249458Y-118237000D01*
X210126777Y-118261403D01*
X210011215Y-118309270D01*
X209907211Y-118378763D01*
X209818763Y-118467211D01*
X209749270Y-118571215D01*
X209729891Y-118618000D01*
X203515630Y-118618000D01*
X202565000Y-117667369D01*
X202565000Y-117158458D01*
X202565000Y-115505542D01*
X202565000Y-115380458D01*
X202565000Y-113856458D01*
X202540597Y-113733777D01*
X202492730Y-113618215D01*
X202423237Y-113514211D01*
X202334789Y-113425763D01*
X202230785Y-113356270D01*
X202115223Y-113308403D01*
X201992542Y-113284000D01*
X201867458Y-113284000D01*
X201425243Y-113284000D01*
X201481130Y-113230780D01*
X201603161Y-113057790D01*
X201689268Y-112864392D01*
X201736170Y-112657952D01*
X201739546Y-112416150D01*
X201698426Y-112208481D01*
X201617754Y-112012753D01*
X201500600Y-111836423D01*
X201351428Y-111686207D01*
X201175921Y-111567825D01*
X200980761Y-111485788D01*
X200855263Y-111460026D01*
X200855263Y-103095111D01*
X200745370Y-102540109D01*
X200529769Y-102017021D01*
X200216672Y-101545773D01*
X199818006Y-101144314D01*
X199348955Y-100827935D01*
X198827386Y-100608687D01*
X198273164Y-100494922D01*
X197707400Y-100490972D01*
X197151644Y-100596988D01*
X196627064Y-100808932D01*
X196153641Y-101118731D01*
X195749409Y-101514585D01*
X195429763Y-101981416D01*
X195206879Y-102501442D01*
X195089248Y-103054856D01*
X195081348Y-103620579D01*
X195183482Y-104177061D01*
X195391758Y-104703108D01*
X195698245Y-105178682D01*
X195821631Y-105306452D01*
X195273424Y-105193922D01*
X194707660Y-105189972D01*
X194151904Y-105295988D01*
X194131609Y-105304187D01*
X194165158Y-105272240D01*
X194491290Y-104809917D01*
X194721413Y-104293054D01*
X194846760Y-103741336D01*
X194855783Y-103095111D01*
X194745890Y-102540109D01*
X194530289Y-102017021D01*
X194217192Y-101545773D01*
X193818526Y-101144314D01*
X193349475Y-100827935D01*
X192827906Y-100608687D01*
X192273684Y-100494922D01*
X191707920Y-100490972D01*
X191152164Y-100596988D01*
X190627584Y-100808932D01*
X190154161Y-101118731D01*
X189749929Y-101514585D01*
X189430283Y-101981416D01*
X189207399Y-102501442D01*
X189089768Y-103054856D01*
X189081868Y-103620579D01*
X189184002Y-104177061D01*
X189392278Y-104703108D01*
X189698765Y-105178682D01*
X190091787Y-105585668D01*
X190556375Y-105908565D01*
X191074832Y-106135074D01*
X191627412Y-106256566D01*
X192193065Y-106268415D01*
X192750248Y-106170169D01*
X192822701Y-106142066D01*
X192749669Y-106213585D01*
X192430023Y-106680416D01*
X192207139Y-107200442D01*
X192089508Y-107753856D01*
X192081608Y-108319579D01*
X192183742Y-108876061D01*
X192392018Y-109402108D01*
X192698505Y-109877682D01*
X193091527Y-110284668D01*
X193556115Y-110607565D01*
X194074572Y-110834074D01*
X194627152Y-110955566D01*
X195192805Y-110967415D01*
X195749988Y-110869169D01*
X196277476Y-110664570D01*
X196755177Y-110361411D01*
X197164898Y-109971240D01*
X197358000Y-109697499D01*
X197358000Y-111680932D01*
X197280381Y-111731725D01*
X197093537Y-111914695D01*
X196945791Y-112130473D01*
X196842770Y-112370839D01*
X196788399Y-112626637D01*
X196784747Y-112888124D01*
X196831955Y-113145341D01*
X196928225Y-113388489D01*
X197069888Y-113608308D01*
X197251550Y-113796425D01*
X197466291Y-113945674D01*
X197705932Y-114050370D01*
X197961344Y-114106526D01*
X198222800Y-114112003D01*
X198480340Y-114066592D01*
X198724154Y-113972022D01*
X198944957Y-113831897D01*
X199134337Y-113651552D01*
X199285081Y-113437858D01*
X199391448Y-113198955D01*
X199449386Y-112943941D01*
X199453557Y-112645244D01*
X199402762Y-112388711D01*
X199303107Y-112146931D01*
X199158388Y-111929111D01*
X198974118Y-111743549D01*
X198882000Y-111681414D01*
X198882000Y-106832400D01*
X198875126Y-106762294D01*
X198868996Y-106692229D01*
X198867879Y-106688385D01*
X198867488Y-106684393D01*
X198847126Y-106616952D01*
X198827506Y-106549418D01*
X198825662Y-106545862D01*
X198824504Y-106542024D01*
X198791454Y-106479867D01*
X198759067Y-106417385D01*
X198756566Y-106414252D01*
X198754686Y-106410716D01*
X198710216Y-106356191D01*
X198666286Y-106301160D01*
X198660784Y-106295581D01*
X198660693Y-106295469D01*
X198660589Y-106295383D01*
X198658815Y-106293584D01*
X198567526Y-106202295D01*
X198749728Y-106170169D01*
X199277216Y-105965570D01*
X199754917Y-105662411D01*
X200164638Y-105272240D01*
X200490770Y-104809917D01*
X200720893Y-104293054D01*
X200846240Y-103741336D01*
X200855263Y-103095111D01*
X200855263Y-111460026D01*
X200773384Y-111443219D01*
X200561689Y-111441741D01*
X200353738Y-111481410D01*
X200157452Y-111560715D01*
X199980308Y-111676634D01*
X199829054Y-111824753D01*
X199709450Y-111999431D01*
X199626052Y-112194012D01*
X199582037Y-112401087D01*
X199579081Y-112612767D01*
X199617297Y-112820990D01*
X199695230Y-113017825D01*
X199809910Y-113195773D01*
X199895109Y-113284000D01*
X199835458Y-113284000D01*
X199712777Y-113308403D01*
X199597215Y-113356270D01*
X199493211Y-113425763D01*
X199404763Y-113514211D01*
X199335270Y-113618215D01*
X199287403Y-113733777D01*
X199263000Y-113856458D01*
X199263000Y-113981542D01*
X199263000Y-115505542D01*
X199287403Y-115628223D01*
X199335270Y-115743785D01*
X199404763Y-115847789D01*
X199493211Y-115936237D01*
X199597215Y-116005730D01*
X199712777Y-116053597D01*
X199835458Y-116078000D01*
X199960542Y-116078000D01*
X201992542Y-116078000D01*
X202115223Y-116053597D01*
X202230785Y-116005730D01*
X202334789Y-115936237D01*
X202423237Y-115847789D01*
X202492730Y-115743785D01*
X202540597Y-115628223D01*
X202565000Y-115505542D01*
X202565000Y-117158458D01*
X202540597Y-117035777D01*
X202492730Y-116920215D01*
X202423237Y-116816211D01*
X202334789Y-116727763D01*
X202230785Y-116658270D01*
X202115223Y-116610403D01*
X201992542Y-116586000D01*
X201867458Y-116586000D01*
X199835458Y-116586000D01*
X199712777Y-116610403D01*
X199597215Y-116658270D01*
X199493211Y-116727763D01*
X199404763Y-116816211D01*
X199335270Y-116920215D01*
X199287403Y-117035777D01*
X199263000Y-117158458D01*
X199263000Y-117221000D01*
X197649000Y-117221000D01*
X197649000Y-115456458D01*
X197624597Y-115333777D01*
X197576730Y-115218215D01*
X197507237Y-115114211D01*
X197418789Y-115025763D01*
X197314785Y-114956270D01*
X197199223Y-114908403D01*
X197076542Y-114884000D01*
X196951458Y-114884000D01*
X195251458Y-114884000D01*
X195128777Y-114908403D01*
X195013215Y-114956270D01*
X194909211Y-115025763D01*
X194820763Y-115114211D01*
X194751270Y-115218215D01*
X194703403Y-115333777D01*
X194679000Y-115456458D01*
X194679000Y-115581542D01*
X194679000Y-118731542D01*
X194703403Y-118854223D01*
X194751270Y-118969785D01*
X194820763Y-119073789D01*
X194909211Y-119162237D01*
X195013215Y-119231730D01*
X195128777Y-119279597D01*
X195251458Y-119304000D01*
X195376542Y-119304000D01*
X197076542Y-119304000D01*
X197199223Y-119279597D01*
X197314785Y-119231730D01*
X197418789Y-119162237D01*
X197507237Y-119073789D01*
X197576730Y-118969785D01*
X197624597Y-118854223D01*
X197646323Y-118745000D01*
X199263000Y-118745000D01*
X199263000Y-118807542D01*
X199287403Y-118930223D01*
X199335270Y-119045785D01*
X199404763Y-119149789D01*
X199493211Y-119238237D01*
X199597215Y-119307730D01*
X199712777Y-119355597D01*
X199835458Y-119380000D01*
X199960542Y-119380000D01*
X201992542Y-119380000D01*
X202100829Y-119358460D01*
X202661184Y-119918815D01*
X202715597Y-119963510D01*
X202769495Y-120008736D01*
X202773006Y-120010666D01*
X202776103Y-120013210D01*
X202838129Y-120046468D01*
X202899816Y-120080381D01*
X202903636Y-120081592D01*
X202907167Y-120083486D01*
X202974464Y-120104060D01*
X203041571Y-120125348D01*
X203045554Y-120125794D01*
X203049385Y-120126966D01*
X203073000Y-120129364D01*
X203073000Y-123557342D01*
X203097403Y-123680023D01*
X203145270Y-123795585D01*
X203214763Y-123899589D01*
X203303211Y-123988037D01*
X203407215Y-124057530D01*
X203522777Y-124105397D01*
X203645458Y-124129800D01*
X203770542Y-124129800D01*
X205802542Y-124129800D01*
X205925223Y-124105397D01*
X206040785Y-124057530D01*
X206144789Y-123988037D01*
X206233237Y-123899589D01*
X206302730Y-123795585D01*
X206350597Y-123680023D01*
X206375000Y-123557342D01*
X206375000Y-123432258D01*
X206375000Y-120142000D01*
X209729891Y-120142000D01*
X209749270Y-120188785D01*
X209818763Y-120292789D01*
X209907211Y-120381237D01*
X210011215Y-120450730D01*
X210126777Y-120498597D01*
X210249458Y-120523000D01*
X210126777Y-120547403D01*
X210011215Y-120595270D01*
X209907211Y-120664763D01*
X209818763Y-120753211D01*
X209749270Y-120857215D01*
X209701403Y-120972777D01*
X209677000Y-121095458D01*
X209677000Y-121380250D01*
X209835750Y-121539000D01*
X211201000Y-121539000D01*
X211201000Y-120681750D01*
X211042250Y-120523000D01*
X211613750Y-120523000D01*
X211455000Y-120681750D01*
X211455000Y-121539000D01*
X212820250Y-121539000D01*
X212979000Y-121380250D01*
X212979000Y-121951750D01*
X212820250Y-121793000D01*
X211455000Y-121793000D01*
X211455000Y-121813000D01*
X211201000Y-121813000D01*
X211201000Y-121793000D01*
X209835750Y-121793000D01*
X209677000Y-121951750D01*
X209677000Y-122236542D01*
X209701403Y-122359223D01*
X209749270Y-122474785D01*
X209818763Y-122578789D01*
X209907211Y-122667237D01*
X210011215Y-122736730D01*
X210126777Y-122784597D01*
X210249458Y-122809000D01*
X210126777Y-122833403D01*
X210011215Y-122881270D01*
X209907211Y-122950763D01*
X209818763Y-123039211D01*
X209749270Y-123143215D01*
X209701403Y-123258777D01*
X209677000Y-123381458D01*
X209677000Y-123506542D01*
X209677000Y-124522542D01*
X209701403Y-124645223D01*
X209749270Y-124760785D01*
X209818763Y-124864789D01*
X209907211Y-124953237D01*
X210011215Y-125022730D01*
X210126777Y-125070597D01*
X210249458Y-125095000D01*
X210374542Y-125095000D01*
X212406542Y-125095000D01*
X212529223Y-125070597D01*
X212644785Y-125022730D01*
X212748789Y-124953237D01*
X212837237Y-124864789D01*
X212906730Y-124760785D01*
X212926108Y-124714000D01*
X215138000Y-124714000D01*
X215208113Y-124707125D01*
X215278170Y-124700996D01*
X215282012Y-124699879D01*
X215286007Y-124699488D01*
X215353459Y-124679122D01*
X215420982Y-124659506D01*
X215424537Y-124657662D01*
X215428376Y-124656504D01*
X215490553Y-124623443D01*
X215553014Y-124591067D01*
X215556144Y-124588568D01*
X215559684Y-124586686D01*
X215614230Y-124542199D01*
X215669240Y-124498286D01*
X215674814Y-124492787D01*
X215674931Y-124492693D01*
X215675020Y-124492585D01*
X215676815Y-124490815D01*
X218456207Y-121711422D01*
X218646665Y-121770379D01*
X218937538Y-121800951D01*
X219228810Y-121774444D01*
X219509385Y-121691866D01*
X219768578Y-121556363D01*
X219996515Y-121373097D01*
X220184515Y-121149048D01*
X220217299Y-121089413D01*
X220239784Y-121131701D01*
X220424637Y-121358353D01*
X220649994Y-121544784D01*
X220907269Y-121683892D01*
X221186665Y-121770379D01*
X221477538Y-121800951D01*
X221768810Y-121774444D01*
X222049385Y-121691866D01*
X222308578Y-121556363D01*
X222536515Y-121373097D01*
X222724515Y-121149048D01*
X222865416Y-120892749D01*
X222953852Y-120613964D01*
X222986454Y-120323312D01*
X222986600Y-120302388D01*
X222986600Y-119981612D01*
X222958059Y-119690532D01*
X222873525Y-119410540D01*
X222736216Y-119152299D01*
X222551363Y-118925647D01*
X222326006Y-118739216D01*
X222250000Y-118698119D01*
X222250000Y-117025162D01*
X222323223Y-117010597D01*
X222438785Y-116962730D01*
X222542789Y-116893237D01*
X222631237Y-116804789D01*
X222700730Y-116700785D01*
X222748597Y-116585223D01*
X222773000Y-116462542D01*
X222773000Y-116337458D01*
X222773000Y-114837458D01*
X222748597Y-114714777D01*
X222700730Y-114599215D01*
X222631237Y-114495211D01*
X222542789Y-114406763D01*
X222438785Y-114337270D01*
X222348806Y-114300000D01*
X222438785Y-114262730D01*
X222542789Y-114193237D01*
X222631237Y-114104789D01*
X222700730Y-114000785D01*
X222748597Y-113885223D01*
X222773000Y-113762542D01*
X222773000Y-113712000D01*
X223260750Y-113712000D01*
X223296480Y-113748998D01*
X223296480Y-114736455D01*
X223273817Y-114740963D01*
X223158255Y-114788830D01*
X223054251Y-114858323D01*
X222965803Y-114946771D01*
X222896310Y-115050775D01*
X222848443Y-115166337D01*
X222824040Y-115289018D01*
X222824040Y-115414102D01*
X222824040Y-116612982D01*
X222848443Y-116735663D01*
X222896310Y-116851225D01*
X222965803Y-116955229D01*
X223054251Y-117043677D01*
X223158255Y-117113170D01*
X223273817Y-117161037D01*
X223396498Y-117185440D01*
X223521582Y-117185440D01*
X224720462Y-117185440D01*
X224843143Y-117161037D01*
X224958705Y-117113170D01*
X225062709Y-117043677D01*
X225107500Y-116998886D01*
X225152291Y-117043677D01*
X225256295Y-117113170D01*
X225371857Y-117161037D01*
X225494538Y-117185440D01*
X225619622Y-117185440D01*
X226818502Y-117185440D01*
X226941183Y-117161037D01*
X227056745Y-117113170D01*
X227160749Y-117043677D01*
X227249197Y-116955229D01*
X227318690Y-116851225D01*
X227366557Y-116735663D01*
X227390960Y-116612982D01*
X227390960Y-118620140D01*
X225364132Y-121105276D01*
X221743527Y-124100501D01*
X217610103Y-126335435D01*
X213121292Y-127724955D01*
X208448084Y-128216127D01*
X203768472Y-127790250D01*
X199260702Y-126463541D01*
X195096477Y-124286536D01*
X194549000Y-123846353D01*
X194549000Y-118731542D01*
X194549000Y-118606458D01*
X194549000Y-115456458D01*
X194524597Y-115333777D01*
X194476730Y-115218215D01*
X194407237Y-115114211D01*
X194318789Y-115025763D01*
X194214785Y-114956270D01*
X194099223Y-114908403D01*
X193976542Y-114884000D01*
X193851458Y-114884000D01*
X192151458Y-114884000D01*
X192028777Y-114908403D01*
X191977339Y-114929709D01*
X191262000Y-114214369D01*
X191262000Y-114109309D01*
X191383723Y-114085097D01*
X191499285Y-114037230D01*
X191603289Y-113967737D01*
X191691737Y-113879289D01*
X191761230Y-113775285D01*
X191809097Y-113659723D01*
X191833500Y-113537042D01*
X191833500Y-113411958D01*
X191833500Y-112014958D01*
X191809097Y-111892277D01*
X191761230Y-111776715D01*
X191691737Y-111672711D01*
X191603289Y-111584263D01*
X191499285Y-111514770D01*
X191383723Y-111466903D01*
X191261042Y-111442500D01*
X191135958Y-111442500D01*
X189738958Y-111442500D01*
X189616277Y-111466903D01*
X189500715Y-111514770D01*
X189396711Y-111584263D01*
X189308263Y-111672711D01*
X189238770Y-111776715D01*
X189190903Y-111892277D01*
X189166500Y-112014958D01*
X189166500Y-112140042D01*
X189166500Y-113537042D01*
X189190903Y-113659723D01*
X189238770Y-113775285D01*
X189308263Y-113879289D01*
X189396711Y-113967737D01*
X189500715Y-114037230D01*
X189616277Y-114085097D01*
X189738000Y-114109309D01*
X189738000Y-114530000D01*
X189744874Y-114600113D01*
X189751004Y-114670170D01*
X189752120Y-114674012D01*
X189752512Y-114678007D01*
X189772877Y-114745459D01*
X189792494Y-114812982D01*
X189794337Y-114816537D01*
X189795496Y-114820376D01*
X189828556Y-114882553D01*
X189860933Y-114945014D01*
X189863431Y-114948144D01*
X189865314Y-114951684D01*
X189909800Y-115006230D01*
X189953714Y-115061240D01*
X189959212Y-115066814D01*
X189959307Y-115066931D01*
X189959414Y-115067020D01*
X189961185Y-115068815D01*
X191579000Y-116686630D01*
X191579000Y-118731542D01*
X191603403Y-118854223D01*
X191651270Y-118969785D01*
X191720763Y-119073789D01*
X191809211Y-119162237D01*
X191913215Y-119231730D01*
X192028777Y-119279597D01*
X192151458Y-119304000D01*
X192276542Y-119304000D01*
X193976542Y-119304000D01*
X194099223Y-119279597D01*
X194214785Y-119231730D01*
X194318789Y-119162237D01*
X194407237Y-119073789D01*
X194476730Y-118969785D01*
X194524597Y-118854223D01*
X194549000Y-118731542D01*
X194549000Y-123846353D01*
X191434403Y-121342153D01*
X188413976Y-117742549D01*
X186150239Y-113624826D01*
X184729419Y-109145829D01*
X184202146Y-104445089D01*
X184200000Y-104137653D01*
X184200000Y-99958503D01*
X184218743Y-99767336D01*
X184264532Y-99615678D01*
X184338904Y-99475804D01*
X184439030Y-99353038D01*
X184561093Y-99252059D01*
X184700449Y-99176709D01*
X184851780Y-99129864D01*
X185040782Y-99110000D01*
X197255000Y-99110000D01*
X197255121Y-99109988D01*
X197257420Y-99109996D01*
X197267892Y-99109959D01*
X197297648Y-99106935D01*
X197327554Y-99107144D01*
X197337073Y-99106211D01*
X197628218Y-99075611D01*
X197689054Y-99063122D01*
X197750021Y-99051493D01*
X197759177Y-99048729D01*
X198038833Y-98962161D01*
X198096062Y-98938103D01*
X198153632Y-98914844D01*
X198162076Y-98910354D01*
X198162077Y-98910354D01*
X198419593Y-98771115D01*
X198471065Y-98736395D01*
X198523012Y-98702403D01*
X198530424Y-98696358D01*
X198530426Y-98696356D01*
X198755991Y-98509753D01*
X198799738Y-98465699D01*
X198844096Y-98422261D01*
X198850193Y-98414891D01*
X199035219Y-98188027D01*
X199069580Y-98136309D01*
X199104652Y-98085088D01*
X199109201Y-98076675D01*
X199246638Y-97818194D01*
X199270311Y-97760758D01*
X199294754Y-97703730D01*
X199297583Y-97694593D01*
X199382197Y-97414339D01*
X199394258Y-97353423D01*
X199407164Y-97292707D01*
X199408164Y-97283196D01*
X199436731Y-96991844D01*
X199436730Y-96963112D01*
X199439933Y-96934564D01*
X199440000Y-96925000D01*
X199440000Y-64617743D01*
X199478714Y-64666240D01*
X199484212Y-64671814D01*
X199484307Y-64671931D01*
X199484414Y-64672020D01*
X199486185Y-64673815D01*
X200360577Y-65548207D01*
X200301621Y-65738665D01*
X200271049Y-66029538D01*
X200297556Y-66320810D01*
X200380134Y-66601385D01*
X200515637Y-66860578D01*
X200698903Y-67088515D01*
X200922952Y-67276515D01*
X200982586Y-67309299D01*
X200940299Y-67331784D01*
X200713647Y-67516637D01*
X200527216Y-67741994D01*
X200388108Y-67999269D01*
X200301621Y-68278665D01*
X200271049Y-68569538D01*
X200297556Y-68860810D01*
X200380134Y-69141385D01*
X200515637Y-69400578D01*
X200698903Y-69628515D01*
X200922952Y-69816515D01*
X200982586Y-69849299D01*
X200940299Y-69871784D01*
X200713647Y-70056637D01*
X200527216Y-70281994D01*
X200388108Y-70539269D01*
X200301621Y-70818665D01*
X200271049Y-71109538D01*
X200297556Y-71400810D01*
X200380134Y-71681385D01*
X200515637Y-71940578D01*
X200698903Y-72168515D01*
X200922952Y-72356515D01*
X201179251Y-72497416D01*
X201458036Y-72585852D01*
X201748688Y-72618454D01*
X201769612Y-72618600D01*
X202090388Y-72618600D01*
X202381468Y-72590059D01*
X202661460Y-72505525D01*
X202919701Y-72368216D01*
X203146353Y-72183363D01*
X203156354Y-72171272D01*
X203302188Y-72293641D01*
X203471689Y-72386825D01*
X203452738Y-72394474D01*
X203218560Y-72547875D01*
X203018808Y-72744014D01*
X202861159Y-72975354D01*
X202751672Y-73233004D01*
X202734990Y-73312940D01*
X202857148Y-73533000D01*
X204343000Y-73533000D01*
X204343000Y-73513000D01*
X204597000Y-73513000D01*
X204597000Y-73533000D01*
X205771750Y-73533000D01*
X205835250Y-73596500D01*
X206883000Y-73596500D01*
X206883000Y-72802750D01*
X206724250Y-72644000D01*
X206374042Y-72644000D01*
X206248958Y-72644000D01*
X206126277Y-72668403D01*
X206010715Y-72716270D01*
X205936210Y-72766052D01*
X205921192Y-72744014D01*
X205721440Y-72547875D01*
X205487262Y-72394474D01*
X205467553Y-72386520D01*
X205621347Y-72304747D01*
X205836475Y-72129293D01*
X206013426Y-71915396D01*
X206145461Y-71671202D01*
X206227551Y-71406013D01*
X206256568Y-71129930D01*
X206231408Y-70853469D01*
X206153029Y-70587160D01*
X206128119Y-70539511D01*
X207802816Y-68864815D01*
X207847537Y-68810370D01*
X207892736Y-68756505D01*
X207894664Y-68752997D01*
X207897211Y-68749897D01*
X207930509Y-68687796D01*
X207964381Y-68626184D01*
X207965591Y-68622368D01*
X207967487Y-68618833D01*
X207967802Y-68617801D01*
X207962500Y-68644458D01*
X207962500Y-68769542D01*
X207962500Y-69658542D01*
X207986903Y-69781223D01*
X208034770Y-69896785D01*
X208104263Y-70000789D01*
X208192711Y-70089237D01*
X208214805Y-70104000D01*
X208192711Y-70118763D01*
X208104263Y-70207211D01*
X208034770Y-70311215D01*
X207986903Y-70426777D01*
X207962500Y-70549458D01*
X207962500Y-70674542D01*
X207962500Y-71563542D01*
X207986903Y-71686223D01*
X208034770Y-71801785D01*
X208104263Y-71905789D01*
X208192711Y-71994237D01*
X208296715Y-72063730D01*
X208412277Y-72111597D01*
X208534958Y-72136000D01*
X208660042Y-72136000D01*
X210057042Y-72136000D01*
X210179723Y-72111597D01*
X210295285Y-72063730D01*
X210399289Y-71994237D01*
X210487737Y-71905789D01*
X210516614Y-71862570D01*
X210535583Y-71898854D01*
X210709531Y-72115201D01*
X210922188Y-72293641D01*
X211098214Y-72390412D01*
X210938653Y-72475253D01*
X210723525Y-72650707D01*
X210546574Y-72864604D01*
X210517386Y-72918584D01*
X210487737Y-72874211D01*
X210399289Y-72785763D01*
X210295285Y-72716270D01*
X210179723Y-72668403D01*
X210057042Y-72644000D01*
X209931958Y-72644000D01*
X208534958Y-72644000D01*
X208412277Y-72668403D01*
X208296715Y-72716270D01*
X208192711Y-72785763D01*
X208153000Y-72825474D01*
X208113289Y-72785763D01*
X208009285Y-72716270D01*
X207893723Y-72668403D01*
X207771042Y-72644000D01*
X207645958Y-72644000D01*
X207295750Y-72644000D01*
X207137000Y-72802750D01*
X207137000Y-73596500D01*
X207157000Y-73596500D01*
X207157000Y-73850500D01*
X207137000Y-73850500D01*
X207137000Y-73870500D01*
X206883000Y-73870500D01*
X206883000Y-73850500D01*
X206118101Y-73850500D01*
X206082852Y-73787000D01*
X204597000Y-73787000D01*
X204597000Y-73807000D01*
X204343000Y-73807000D01*
X204343000Y-73787000D01*
X202857148Y-73787000D01*
X202734990Y-74007060D01*
X202751672Y-74086996D01*
X202861159Y-74344646D01*
X203018808Y-74575986D01*
X203200687Y-74754576D01*
X203131223Y-74725803D01*
X203008542Y-74701400D01*
X202883458Y-74701400D01*
X200851458Y-74701400D01*
X200728777Y-74725803D01*
X200613215Y-74773670D01*
X200509211Y-74843163D01*
X200420763Y-74931611D01*
X200351270Y-75035615D01*
X200303403Y-75151177D01*
X200279000Y-75273858D01*
X200279000Y-75398942D01*
X200279000Y-77126142D01*
X200303403Y-77248823D01*
X200351270Y-77364385D01*
X200420763Y-77468389D01*
X200509211Y-77556837D01*
X200613215Y-77626330D01*
X200720727Y-77670862D01*
X200713647Y-77676637D01*
X200527216Y-77901994D01*
X200388108Y-78159269D01*
X200301621Y-78438665D01*
X200271049Y-78729538D01*
X200297556Y-79020810D01*
X200380134Y-79301385D01*
X200515637Y-79560578D01*
X200698903Y-79788515D01*
X200922952Y-79976515D01*
X200982586Y-80009299D01*
X200940299Y-80031784D01*
X200713647Y-80216637D01*
X200527216Y-80441994D01*
X200388108Y-80699269D01*
X200301621Y-80978665D01*
X200271049Y-81269538D01*
X200297556Y-81560810D01*
X200380134Y-81841385D01*
X200515637Y-82100578D01*
X200698903Y-82328515D01*
X200922952Y-82516515D01*
X200982586Y-82549299D01*
X200940299Y-82571784D01*
X200713647Y-82756637D01*
X200527216Y-82981994D01*
X200388108Y-83239269D01*
X200301621Y-83518665D01*
X200271049Y-83809538D01*
X200297556Y-84100810D01*
X200380134Y-84381385D01*
X200515637Y-84640578D01*
X200698903Y-84868515D01*
X200922952Y-85056515D01*
X200982586Y-85089299D01*
X200940299Y-85111784D01*
X200713647Y-85296637D01*
X200527216Y-85521994D01*
X200388108Y-85779269D01*
X200301621Y-86058665D01*
X200271049Y-86349538D01*
X200297556Y-86640810D01*
X200380134Y-86921385D01*
X200515637Y-87180578D01*
X200698903Y-87408515D01*
X200922952Y-87596515D01*
X200982586Y-87629299D01*
X200940299Y-87651784D01*
X200713647Y-87836637D01*
X200527216Y-88061994D01*
X200388108Y-88319269D01*
X200301621Y-88598665D01*
X200271049Y-88889538D01*
X200297556Y-89180810D01*
X200380134Y-89461385D01*
X200515637Y-89720578D01*
X200698903Y-89948515D01*
X200922952Y-90136515D01*
X200982586Y-90169299D01*
X200940299Y-90191784D01*
X200713647Y-90376637D01*
X200527216Y-90601994D01*
X200388108Y-90859269D01*
X200301621Y-91138665D01*
X200271049Y-91429538D01*
X200297556Y-91720810D01*
X200380134Y-92001385D01*
X200515637Y-92260578D01*
X200698903Y-92488515D01*
X200922952Y-92676515D01*
X200982586Y-92709299D01*
X200940299Y-92731784D01*
X200713647Y-92916637D01*
X200527216Y-93141994D01*
X200388108Y-93399269D01*
X200301621Y-93678665D01*
X200271049Y-93969538D01*
X200297556Y-94260810D01*
X200380134Y-94541385D01*
X200515637Y-94800578D01*
X200698903Y-95028515D01*
X200922952Y-95216515D01*
X201179251Y-95357416D01*
X201458036Y-95445852D01*
X201748688Y-95478454D01*
X201769612Y-95478600D01*
X202090388Y-95478600D01*
X202381468Y-95450059D01*
X202661460Y-95365525D01*
X202919701Y-95228216D01*
X203146353Y-95043363D01*
X203156354Y-95031272D01*
X203302188Y-95153641D01*
X203545454Y-95287378D01*
X203810063Y-95371317D01*
X204085937Y-95402261D01*
X204105797Y-95402400D01*
X204834203Y-95402400D01*
X205110482Y-95375311D01*
X205376238Y-95295074D01*
X205621347Y-95164747D01*
X205836475Y-94989293D01*
X206013426Y-94775396D01*
X206145461Y-94531202D01*
X206227551Y-94266013D01*
X206256568Y-93989930D01*
X206231408Y-93713469D01*
X206153029Y-93447160D01*
X206024417Y-93201146D01*
X205850469Y-92984799D01*
X205637812Y-92806359D01*
X205461785Y-92709587D01*
X205621347Y-92624747D01*
X205836475Y-92449293D01*
X206013426Y-92235396D01*
X206145461Y-91991202D01*
X206227551Y-91726013D01*
X206256568Y-91449930D01*
X206231408Y-91173469D01*
X206153029Y-90907160D01*
X206024417Y-90661146D01*
X205850469Y-90444799D01*
X205637812Y-90266359D01*
X205461785Y-90169587D01*
X205621347Y-90084747D01*
X205836475Y-89909293D01*
X206013426Y-89695396D01*
X206145461Y-89451202D01*
X206227551Y-89186013D01*
X206256568Y-88909930D01*
X206231408Y-88633469D01*
X206153029Y-88367160D01*
X206024417Y-88121146D01*
X205850469Y-87904799D01*
X205637812Y-87726359D01*
X205461785Y-87629587D01*
X205621347Y-87544747D01*
X205836475Y-87369293D01*
X206013426Y-87155396D01*
X206145461Y-86911202D01*
X206227551Y-86646013D01*
X206256568Y-86369930D01*
X206231408Y-86093469D01*
X206153029Y-85827160D01*
X206024417Y-85581146D01*
X205850469Y-85364799D01*
X205637812Y-85186359D01*
X205461785Y-85089587D01*
X205621347Y-85004747D01*
X205836475Y-84829293D01*
X206013426Y-84615396D01*
X206145461Y-84371202D01*
X206227551Y-84106013D01*
X206256568Y-83829930D01*
X206231408Y-83553469D01*
X206153029Y-83287160D01*
X206024417Y-83041146D01*
X205850469Y-82824799D01*
X205637812Y-82646359D01*
X205461785Y-82549587D01*
X205621347Y-82464747D01*
X205836475Y-82289293D01*
X206013426Y-82075396D01*
X206145461Y-81831202D01*
X206227551Y-81566013D01*
X206256568Y-81289930D01*
X206231408Y-81013469D01*
X206153029Y-80747160D01*
X206024417Y-80501146D01*
X205850469Y-80284799D01*
X205637812Y-80106359D01*
X205461785Y-80009587D01*
X205621347Y-79924747D01*
X205836475Y-79749293D01*
X206013426Y-79535396D01*
X206145461Y-79291202D01*
X206227551Y-79026013D01*
X206256568Y-78749930D01*
X206249572Y-78673057D01*
X207548815Y-77373815D01*
X207593512Y-77319400D01*
X207638736Y-77265505D01*
X207640664Y-77261997D01*
X207643211Y-77258897D01*
X207676509Y-77196796D01*
X207710381Y-77135184D01*
X207711591Y-77131368D01*
X207713487Y-77127833D01*
X207734088Y-77060448D01*
X207755348Y-76993429D01*
X207755794Y-76989451D01*
X207756967Y-76985615D01*
X207764080Y-76915577D01*
X207771926Y-76845639D01*
X207771980Y-76837802D01*
X207771995Y-76837660D01*
X207771982Y-76837526D01*
X207772000Y-76835000D01*
X207772000Y-76707809D01*
X207893723Y-76683597D01*
X208009285Y-76635730D01*
X208113289Y-76566237D01*
X208153000Y-76526526D01*
X208192711Y-76566237D01*
X208296715Y-76635730D01*
X208412277Y-76683597D01*
X208534958Y-76708000D01*
X208660042Y-76708000D01*
X209297870Y-76708000D01*
X209328685Y-76738815D01*
X209383099Y-76783512D01*
X209436995Y-76828736D01*
X209440502Y-76830664D01*
X209443603Y-76833211D01*
X209505668Y-76866489D01*
X209567316Y-76900381D01*
X209571136Y-76901592D01*
X209574667Y-76903486D01*
X209641964Y-76924060D01*
X209709071Y-76945348D01*
X209713054Y-76945794D01*
X209716885Y-76946966D01*
X209786872Y-76954075D01*
X209856861Y-76961926D01*
X209864697Y-76961980D01*
X209864840Y-76961995D01*
X209864973Y-76961982D01*
X209867500Y-76962000D01*
X210526772Y-76962000D01*
X210535583Y-76978854D01*
X210709531Y-77195201D01*
X210922188Y-77373641D01*
X211091689Y-77466825D01*
X211072738Y-77474474D01*
X210838560Y-77627875D01*
X210638808Y-77824014D01*
X210481159Y-78055354D01*
X210371672Y-78313004D01*
X210354990Y-78392940D01*
X210477148Y-78613000D01*
X211963000Y-78613000D01*
X211963000Y-78593000D01*
X212217000Y-78593000D01*
X212217000Y-78613000D01*
X213143783Y-78613000D01*
X213702852Y-78613000D01*
X214503000Y-78613000D01*
X214503000Y-78593000D01*
X214757000Y-78593000D01*
X214757000Y-78613000D01*
X214777000Y-78613000D01*
X214777000Y-78867000D01*
X214757000Y-78867000D01*
X214757000Y-78887000D01*
X214503000Y-78887000D01*
X214503000Y-78867000D01*
X213702852Y-78867000D01*
X213143783Y-78867000D01*
X212217000Y-78867000D01*
X212217000Y-78887000D01*
X211963000Y-78887000D01*
X211963000Y-78867000D01*
X210477148Y-78867000D01*
X210354990Y-79087060D01*
X210371672Y-79166996D01*
X210481159Y-79424646D01*
X210638808Y-79655986D01*
X210838560Y-79852125D01*
X211072738Y-80005526D01*
X211092446Y-80013479D01*
X210938653Y-80095253D01*
X210723525Y-80270707D01*
X210546574Y-80484604D01*
X210528516Y-80518000D01*
X210058000Y-80518000D01*
X209987849Y-80524878D01*
X209917829Y-80531004D01*
X209913985Y-80532120D01*
X209909993Y-80532512D01*
X209842552Y-80552873D01*
X209775018Y-80572494D01*
X209771462Y-80574337D01*
X209767624Y-80575496D01*
X209705467Y-80608545D01*
X209642985Y-80640933D01*
X209639852Y-80643433D01*
X209636316Y-80645314D01*
X209581791Y-80689783D01*
X209526760Y-80733714D01*
X209521181Y-80739215D01*
X209521069Y-80739307D01*
X209520983Y-80739410D01*
X209519184Y-80741185D01*
X207519928Y-82740440D01*
X207419689Y-82739741D01*
X207211738Y-82779410D01*
X207015452Y-82858715D01*
X206838308Y-82974634D01*
X206687054Y-83122753D01*
X206567450Y-83297431D01*
X206484052Y-83492012D01*
X206440037Y-83699087D01*
X206437081Y-83910767D01*
X206475297Y-84118990D01*
X206553230Y-84315825D01*
X206667910Y-84493773D01*
X206814969Y-84646058D01*
X206988807Y-84766879D01*
X207182802Y-84851633D01*
X207389564Y-84897093D01*
X207601219Y-84901526D01*
X207809704Y-84864765D01*
X208007077Y-84788208D01*
X208185822Y-84674773D01*
X208339130Y-84528780D01*
X208461161Y-84355790D01*
X208547268Y-84162392D01*
X208594170Y-83955952D01*
X208596074Y-83819555D01*
X210373630Y-82042000D01*
X210526772Y-82042000D01*
X210535583Y-82058854D01*
X210709531Y-82275201D01*
X210922188Y-82453641D01*
X211098214Y-82550412D01*
X210938653Y-82635253D01*
X210723525Y-82810707D01*
X210546574Y-83024604D01*
X210414539Y-83268798D01*
X210332449Y-83533987D01*
X210303432Y-83810070D01*
X210328592Y-84086531D01*
X210406971Y-84352840D01*
X210535583Y-84598854D01*
X210709531Y-84815201D01*
X210922188Y-84993641D01*
X211098214Y-85090412D01*
X210938653Y-85175253D01*
X210723525Y-85350707D01*
X210546574Y-85564604D01*
X210414539Y-85808798D01*
X210332449Y-86073987D01*
X210303432Y-86350070D01*
X210328592Y-86626531D01*
X210406971Y-86892840D01*
X210535583Y-87138854D01*
X210709531Y-87355201D01*
X210922188Y-87533641D01*
X211098214Y-87630412D01*
X210938653Y-87715253D01*
X210723525Y-87890707D01*
X210546574Y-88104604D01*
X210484438Y-88219521D01*
X210467446Y-88228556D01*
X210404986Y-88260933D01*
X210401855Y-88263431D01*
X210398316Y-88265314D01*
X210343769Y-88309800D01*
X210288760Y-88353714D01*
X210283185Y-88359212D01*
X210283069Y-88359307D01*
X210282979Y-88359414D01*
X210281185Y-88361185D01*
X209265185Y-89377185D01*
X209220487Y-89431599D01*
X209175264Y-89485495D01*
X209173335Y-89489002D01*
X209170789Y-89492103D01*
X209137510Y-89554168D01*
X209103619Y-89615816D01*
X209102407Y-89619636D01*
X209100514Y-89623167D01*
X209079939Y-89690464D01*
X209058652Y-89757571D01*
X209058205Y-89761554D01*
X209057034Y-89765385D01*
X209049924Y-89835372D01*
X209042074Y-89905361D01*
X209042019Y-89913197D01*
X209042005Y-89913340D01*
X209042017Y-89913473D01*
X209042000Y-89916000D01*
X209042000Y-93664369D01*
X205106929Y-97599440D01*
X205006689Y-97598741D01*
X204798738Y-97638410D01*
X204602452Y-97717715D01*
X204425308Y-97833634D01*
X204274054Y-97981753D01*
X204154450Y-98156431D01*
X204071052Y-98351012D01*
X204027037Y-98558087D01*
X204024081Y-98769767D01*
X204062297Y-98977990D01*
X204140230Y-99174825D01*
X204254910Y-99352773D01*
X204401969Y-99505058D01*
X204575807Y-99625879D01*
X204769802Y-99710633D01*
X204976564Y-99756093D01*
X205188219Y-99760526D01*
X205396704Y-99723765D01*
X205594077Y-99647208D01*
X205772822Y-99533773D01*
X205926130Y-99387780D01*
X206048161Y-99214790D01*
X206134268Y-99021392D01*
X206181170Y-98814952D01*
X206183074Y-98678555D01*
X209677000Y-95184630D01*
X209677000Y-96520000D01*
X209683874Y-96590113D01*
X209690004Y-96660170D01*
X209691120Y-96664012D01*
X209691512Y-96668007D01*
X209711877Y-96735459D01*
X209731494Y-96802982D01*
X209733337Y-96806537D01*
X209734496Y-96810376D01*
X209767556Y-96872553D01*
X209799933Y-96935014D01*
X209802431Y-96938144D01*
X209804314Y-96941684D01*
X209848800Y-96996230D01*
X209892714Y-97051240D01*
X209898212Y-97056814D01*
X209898307Y-97056931D01*
X209898414Y-97057020D01*
X209900185Y-97058815D01*
X211836000Y-98994630D01*
X211836000Y-106745369D01*
X211678185Y-106903185D01*
X211633487Y-106957599D01*
X211588264Y-107011495D01*
X211586335Y-107015002D01*
X211583789Y-107018103D01*
X211550510Y-107080168D01*
X211516619Y-107141816D01*
X211515407Y-107145636D01*
X211513514Y-107149167D01*
X211492939Y-107216464D01*
X211471652Y-107283571D01*
X211471205Y-107287554D01*
X211470034Y-107291385D01*
X211462924Y-107361372D01*
X211455074Y-107431361D01*
X211455019Y-107439197D01*
X211455005Y-107439340D01*
X211455017Y-107439473D01*
X211455000Y-107442000D01*
X211455000Y-115000369D01*
X211393369Y-115062000D01*
X210837862Y-115062000D01*
X210798216Y-114987436D01*
X210613363Y-114760784D01*
X210388006Y-114574353D01*
X210352050Y-114554911D01*
X210370578Y-114545226D01*
X210598515Y-114361960D01*
X210786515Y-114137911D01*
X210927416Y-113881612D01*
X211015852Y-113602827D01*
X211048454Y-113312175D01*
X211048600Y-113291251D01*
X211048600Y-113276749D01*
X211020059Y-112985669D01*
X210935525Y-112705677D01*
X210798216Y-112447436D01*
X210613363Y-112220784D01*
X210388006Y-112034353D01*
X210345466Y-112011351D01*
X210560293Y-111850854D01*
X210756817Y-111632488D01*
X210906964Y-111379978D01*
X211004963Y-111103027D01*
X210884464Y-110871000D01*
X209677000Y-110871000D01*
X209677000Y-110891000D01*
X209423000Y-110891000D01*
X209423000Y-110871000D01*
X209403000Y-110871000D01*
X209403000Y-110617000D01*
X209423000Y-110617000D01*
X209423000Y-110597000D01*
X209677000Y-110597000D01*
X209677000Y-110617000D01*
X210884464Y-110617000D01*
X211004963Y-110384973D01*
X210906964Y-110108022D01*
X210756817Y-109855512D01*
X210560293Y-109637146D01*
X210346809Y-109477651D01*
X210370578Y-109465226D01*
X210598515Y-109281960D01*
X210786515Y-109057911D01*
X210927416Y-108801612D01*
X211015852Y-108522827D01*
X211048454Y-108232175D01*
X211048600Y-108211251D01*
X211048600Y-108196749D01*
X211020059Y-107905669D01*
X210935525Y-107625677D01*
X210798216Y-107367436D01*
X210613363Y-107140784D01*
X210388006Y-106954353D01*
X210352050Y-106934911D01*
X210370578Y-106925226D01*
X210598515Y-106741960D01*
X210786515Y-106517911D01*
X210927416Y-106261612D01*
X211015852Y-105982827D01*
X211048454Y-105692175D01*
X211048600Y-105671251D01*
X211048600Y-105656749D01*
X211020059Y-105365669D01*
X210935525Y-105085677D01*
X210798216Y-104827436D01*
X210613363Y-104600784D01*
X210606428Y-104595046D01*
X210714385Y-104550330D01*
X210818389Y-104480837D01*
X210906837Y-104392389D01*
X210976330Y-104288385D01*
X211024197Y-104172823D01*
X211048600Y-104050142D01*
X211048600Y-103925058D01*
X211048600Y-102197858D01*
X211024197Y-102075177D01*
X210976330Y-101959615D01*
X210906837Y-101855611D01*
X210818389Y-101767163D01*
X210714385Y-101697670D01*
X210598823Y-101649803D01*
X210476142Y-101625400D01*
X210351058Y-101625400D01*
X208623858Y-101625400D01*
X208501177Y-101649803D01*
X208385615Y-101697670D01*
X208281611Y-101767163D01*
X208193163Y-101855611D01*
X208123670Y-101959615D01*
X208078934Y-102067615D01*
X208073363Y-102060784D01*
X207848006Y-101874353D01*
X207590731Y-101735245D01*
X207311335Y-101648758D01*
X207020462Y-101618186D01*
X206729190Y-101644693D01*
X206448615Y-101727271D01*
X206189422Y-101862774D01*
X205961485Y-102046040D01*
X205773485Y-102270089D01*
X205632584Y-102526388D01*
X205544148Y-102805173D01*
X205511546Y-103095825D01*
X205511400Y-103116749D01*
X205511400Y-103131251D01*
X205539941Y-103422331D01*
X205624475Y-103702323D01*
X205761784Y-103960564D01*
X205946637Y-104187216D01*
X206171994Y-104373647D01*
X206207949Y-104393088D01*
X206189422Y-104402774D01*
X205961485Y-104586040D01*
X205773485Y-104810089D01*
X205632584Y-105066388D01*
X205544148Y-105345173D01*
X205511546Y-105635825D01*
X205511400Y-105656749D01*
X205511400Y-105671251D01*
X205539941Y-105962331D01*
X205624475Y-106242323D01*
X205761784Y-106500564D01*
X205946637Y-106727216D01*
X206171994Y-106913647D01*
X206207949Y-106933088D01*
X206189422Y-106942774D01*
X205961485Y-107126040D01*
X205773485Y-107350089D01*
X205632584Y-107606388D01*
X205544148Y-107885173D01*
X205511546Y-108175825D01*
X205511400Y-108196749D01*
X205511400Y-108211251D01*
X205539941Y-108502331D01*
X205624475Y-108782323D01*
X205761784Y-109040564D01*
X205946637Y-109267216D01*
X206171994Y-109453647D01*
X206207949Y-109473088D01*
X206189422Y-109482774D01*
X205961485Y-109666040D01*
X205773485Y-109890089D01*
X205632584Y-110146388D01*
X205544148Y-110425173D01*
X205511546Y-110715825D01*
X205511400Y-110736749D01*
X205511400Y-110751251D01*
X205539941Y-111042331D01*
X205624475Y-111322323D01*
X205761784Y-111580564D01*
X205946637Y-111807216D01*
X206171994Y-111993647D01*
X206207949Y-112013088D01*
X206189422Y-112022774D01*
X205961485Y-112206040D01*
X205773485Y-112430089D01*
X205632584Y-112686388D01*
X205544148Y-112965173D01*
X205511546Y-113255825D01*
X205511400Y-113276749D01*
X205511400Y-113291251D01*
X205539941Y-113582331D01*
X205624475Y-113862323D01*
X205761784Y-114120564D01*
X205946637Y-114347216D01*
X206171994Y-114533647D01*
X206207949Y-114553088D01*
X206189422Y-114562774D01*
X205961485Y-114746040D01*
X205773485Y-114970089D01*
X205632584Y-115226388D01*
X205544148Y-115505173D01*
X205511546Y-115795825D01*
X205511400Y-115816749D01*
X205511400Y-115831251D01*
X205539941Y-116122331D01*
X205624475Y-116402323D01*
X205761784Y-116660564D01*
X205946637Y-116887216D01*
X206171994Y-117073647D01*
X206429269Y-117212755D01*
X206708665Y-117299242D01*
X206999538Y-117329814D01*
X207290810Y-117303307D01*
X207571385Y-117220729D01*
X207830578Y-117085226D01*
X208058515Y-116901960D01*
X208246515Y-116677911D01*
X208279299Y-116618276D01*
X208301784Y-116660564D01*
X208486637Y-116887216D01*
X208711994Y-117073647D01*
X208969269Y-117212755D01*
X209248665Y-117299242D01*
X209539538Y-117329814D01*
X209830810Y-117303307D01*
X210111385Y-117220729D01*
X210370578Y-117085226D01*
X210598515Y-116901960D01*
X210786515Y-116677911D01*
X210837043Y-116586000D01*
X211709000Y-116586000D01*
X211779113Y-116579125D01*
X211849170Y-116572996D01*
X211853012Y-116571879D01*
X211857007Y-116571488D01*
X211924459Y-116551122D01*
X211991982Y-116531506D01*
X211995537Y-116529662D01*
X211999376Y-116528504D01*
X212061553Y-116495443D01*
X212124014Y-116463067D01*
X212127144Y-116460568D01*
X212130684Y-116458686D01*
X212185230Y-116414199D01*
X212240240Y-116370286D01*
X212245814Y-116364787D01*
X212245931Y-116364693D01*
X212246020Y-116364585D01*
X212247815Y-116362815D01*
X212755815Y-115854816D01*
X212800510Y-115800402D01*
X212845736Y-115746505D01*
X212847666Y-115742993D01*
X212850210Y-115739897D01*
X212883468Y-115677870D01*
X212917381Y-115616184D01*
X212918592Y-115612363D01*
X212920486Y-115608833D01*
X212941064Y-115541523D01*
X212962348Y-115474429D01*
X212962794Y-115470447D01*
X212963966Y-115466616D01*
X212971075Y-115396622D01*
X212978926Y-115326639D01*
X212978980Y-115318802D01*
X212978995Y-115318660D01*
X212978982Y-115318526D01*
X212979000Y-115316000D01*
X212979000Y-110617000D01*
X213455250Y-110617000D01*
X213614000Y-110458250D01*
X213614000Y-109093000D01*
X213594000Y-109093000D01*
X213594000Y-108839000D01*
X213614000Y-108839000D01*
X213614000Y-107473750D01*
X213455250Y-107315000D01*
X213313358Y-107315000D01*
X213322060Y-107286535D01*
X213343348Y-107219429D01*
X213343794Y-107215445D01*
X213344966Y-107211615D01*
X213352075Y-107141627D01*
X213359926Y-107071639D01*
X213359980Y-107063802D01*
X213359995Y-107063660D01*
X213359982Y-107063526D01*
X213360000Y-107061000D01*
X213360000Y-98679000D01*
X213353125Y-98608890D01*
X213346996Y-98538829D01*
X213345879Y-98534985D01*
X213345488Y-98530993D01*
X213325126Y-98463552D01*
X213305506Y-98396018D01*
X213303662Y-98392462D01*
X213302504Y-98388624D01*
X213269443Y-98326446D01*
X213237067Y-98263986D01*
X213234568Y-98260855D01*
X213232686Y-98257316D01*
X213188199Y-98202769D01*
X213144286Y-98147760D01*
X213138787Y-98142185D01*
X213138693Y-98142069D01*
X213138585Y-98141979D01*
X213136815Y-98140185D01*
X211201000Y-96204370D01*
X211201000Y-95402400D01*
X211343838Y-95402400D01*
X211362877Y-95465459D01*
X211382494Y-95532982D01*
X211384337Y-95536537D01*
X211385496Y-95540376D01*
X211418556Y-95602553D01*
X211450933Y-95665014D01*
X211453431Y-95668144D01*
X211455314Y-95671684D01*
X211499800Y-95726230D01*
X211543714Y-95781240D01*
X211549212Y-95786814D01*
X211549307Y-95786931D01*
X211549414Y-95787020D01*
X211551185Y-95788815D01*
X216217500Y-100455130D01*
X216217500Y-100665468D01*
X216207777Y-100667403D01*
X216092215Y-100715270D01*
X215988211Y-100784763D01*
X215899763Y-100873211D01*
X215830270Y-100977215D01*
X215782403Y-101092777D01*
X215758000Y-101215458D01*
X215758000Y-101340542D01*
X215758000Y-102840542D01*
X215782403Y-102963223D01*
X215830270Y-103078785D01*
X215899763Y-103182789D01*
X215988211Y-103271237D01*
X216092215Y-103340730D01*
X216182193Y-103378000D01*
X216092215Y-103415270D01*
X215988211Y-103484763D01*
X215899763Y-103573211D01*
X215830270Y-103677215D01*
X215782403Y-103792777D01*
X215758000Y-103915458D01*
X215758000Y-104442250D01*
X215916750Y-104601000D01*
X216916000Y-104601000D01*
X216916000Y-104581000D01*
X217170000Y-104581000D01*
X217170000Y-104601000D01*
X218169250Y-104601000D01*
X218328000Y-104442250D01*
X218328000Y-104390630D01*
X218870184Y-104932815D01*
X218924597Y-104977510D01*
X218978495Y-105022736D01*
X218982006Y-105024666D01*
X218985103Y-105027210D01*
X219047129Y-105060468D01*
X219108816Y-105094381D01*
X219112636Y-105095592D01*
X219116167Y-105097486D01*
X219183464Y-105118060D01*
X219250571Y-105139348D01*
X219254554Y-105139794D01*
X219258385Y-105140966D01*
X219328372Y-105148075D01*
X219398361Y-105155926D01*
X219406197Y-105155980D01*
X219406340Y-105155995D01*
X219406473Y-105155982D01*
X219409000Y-105156000D01*
X223101886Y-105156000D01*
X222966361Y-105353930D01*
X222847773Y-105630617D01*
X222785186Y-105925067D01*
X222780983Y-106226067D01*
X222835324Y-106522150D01*
X222946140Y-106802040D01*
X223109210Y-107055075D01*
X223318322Y-107271617D01*
X223565512Y-107443419D01*
X223841364Y-107563935D01*
X224135371Y-107628577D01*
X224436334Y-107634881D01*
X224732789Y-107582608D01*
X225013446Y-107473748D01*
X225267613Y-107312449D01*
X225485610Y-107104854D01*
X225659132Y-106858869D01*
X225781572Y-106583866D01*
X225848265Y-106290317D01*
X225853066Y-105946486D01*
X225794595Y-105651190D01*
X225679882Y-105372874D01*
X225535790Y-105156000D01*
X226799369Y-105156000D01*
X227334838Y-105691469D01*
X227285186Y-105925067D01*
X227280983Y-106226067D01*
X227335324Y-106522150D01*
X227446140Y-106802040D01*
X227609210Y-107055075D01*
X227818322Y-107271617D01*
X228056000Y-107436807D01*
X228056000Y-111261113D01*
X227851509Y-111394928D01*
X227636432Y-111605547D01*
X227466361Y-111853930D01*
X227347773Y-112130617D01*
X227285186Y-112425067D01*
X227280983Y-112726067D01*
X227335324Y-113022150D01*
X227446140Y-113302040D01*
X227609210Y-113555075D01*
X227818322Y-113771617D01*
X228065512Y-113943419D01*
X228341364Y-114063935D01*
X228635371Y-114128577D01*
X228936334Y-114134881D01*
X229232789Y-114082608D01*
X229513446Y-113973748D01*
X229767613Y-113812449D01*
X229985610Y-113604854D01*
X230159132Y-113358869D01*
X230281572Y-113083866D01*
X230348265Y-112790317D01*
X230353066Y-112446486D01*
X230294595Y-112151190D01*
X230179882Y-111872874D01*
X230013295Y-111622141D01*
X229801180Y-111408540D01*
X229580000Y-111259351D01*
X229580000Y-107431511D01*
X229767613Y-107312449D01*
X229985610Y-107104854D01*
X230159132Y-106858869D01*
X230281572Y-106583866D01*
X230348265Y-106290317D01*
X230353066Y-105946486D01*
X230294595Y-105651190D01*
X230179882Y-105372874D01*
X230013295Y-105122141D01*
X229801180Y-104908540D01*
X229551616Y-104740206D01*
X229274108Y-104623553D01*
X228979228Y-104563023D01*
X228678206Y-104560921D01*
X228410599Y-104611969D01*
X227653815Y-103855185D01*
X227599400Y-103810487D01*
X227545505Y-103765264D01*
X227541997Y-103763335D01*
X227538897Y-103760789D01*
X227476831Y-103727510D01*
X227415184Y-103693619D01*
X227411363Y-103692407D01*
X227407833Y-103690514D01*
X227340535Y-103669939D01*
X227273429Y-103648652D01*
X227269445Y-103648205D01*
X227265615Y-103647034D01*
X227195627Y-103639924D01*
X227125639Y-103632074D01*
X227117802Y-103632019D01*
X227117660Y-103632005D01*
X227117526Y-103632017D01*
X227115000Y-103632000D01*
X219724630Y-103632000D01*
X218328000Y-102235369D01*
X218328000Y-101215458D01*
X218303597Y-101092777D01*
X218255730Y-100977215D01*
X218186237Y-100873211D01*
X218097789Y-100784763D01*
X217993785Y-100715270D01*
X217878223Y-100667403D01*
X217755542Y-100643000D01*
X217741500Y-100643000D01*
X217741500Y-100139500D01*
X217741500Y-100076000D01*
X217741500Y-98447096D01*
X217764300Y-98469738D01*
X217807739Y-98514096D01*
X217815109Y-98520193D01*
X218041973Y-98705219D01*
X218093690Y-98739580D01*
X218144912Y-98774652D01*
X218153325Y-98779201D01*
X218411806Y-98916638D01*
X218469241Y-98940311D01*
X218526270Y-98964754D01*
X218535407Y-98967583D01*
X218815661Y-99052197D01*
X218876576Y-99064258D01*
X218937293Y-99077164D01*
X218946804Y-99078164D01*
X219238156Y-99106731D01*
X219266887Y-99106730D01*
X219295436Y-99109933D01*
X219305000Y-99110000D01*
X231511496Y-99110000D01*
X231702663Y-99128743D01*
X231854321Y-99174532D01*
X231994195Y-99248904D01*
X232116961Y-99349030D01*
X232217940Y-99471093D01*
X232293290Y-99610449D01*
X232340135Y-99761780D01*
X232360000Y-99950782D01*
X232360000Y-104106495D01*
X232360000Y-104106495D01*
G37*
X232360000Y-104106495D02*
X231898177Y-108816525D01*
X230540031Y-113314924D01*
X228334008Y-117463850D01*
X227390960Y-118620140D01*
X227390960Y-116612982D01*
X227390960Y-116487898D01*
X227390960Y-115289018D01*
X227366557Y-115166337D01*
X227318690Y-115050775D01*
X227249197Y-114946771D01*
X227160749Y-114858323D01*
X227056745Y-114788830D01*
X226941183Y-114740963D01*
X226918520Y-114736455D01*
X226918520Y-111221520D01*
X226911650Y-111151456D01*
X226905517Y-111081350D01*
X226904399Y-111077502D01*
X226904008Y-111073513D01*
X226883655Y-111006101D01*
X226864026Y-110938538D01*
X226862182Y-110934982D01*
X226861024Y-110931144D01*
X226827963Y-110868966D01*
X226795587Y-110806506D01*
X226793088Y-110803375D01*
X226791206Y-110799836D01*
X226746719Y-110745289D01*
X226702806Y-110690280D01*
X226697304Y-110684701D01*
X226697213Y-110684589D01*
X226697109Y-110684503D01*
X226695336Y-110682705D01*
X225709815Y-109697185D01*
X225655400Y-109652487D01*
X225601505Y-109607264D01*
X225597997Y-109605335D01*
X225594897Y-109602789D01*
X225532831Y-109569510D01*
X225471184Y-109535619D01*
X225467363Y-109534407D01*
X225463833Y-109532514D01*
X225396535Y-109511939D01*
X225329429Y-109490652D01*
X225325445Y-109490205D01*
X225321615Y-109489034D01*
X225251627Y-109481924D01*
X225181639Y-109474074D01*
X225173802Y-109474019D01*
X225173660Y-109474005D01*
X225173526Y-109474017D01*
X225171000Y-109474000D01*
X223324162Y-109474000D01*
X223309597Y-109400777D01*
X223261730Y-109285215D01*
X223192237Y-109181211D01*
X223103789Y-109092763D01*
X222999785Y-109023270D01*
X222884223Y-108975403D01*
X222761542Y-108951000D01*
X222636458Y-108951000D01*
X221247923Y-108951000D01*
X221238067Y-108931985D01*
X221235566Y-108928852D01*
X221233686Y-108925316D01*
X221189216Y-108870791D01*
X221145286Y-108815760D01*
X221139784Y-108810181D01*
X221139693Y-108810069D01*
X221139589Y-108809983D01*
X221137815Y-108808184D01*
X220756815Y-108427185D01*
X220702400Y-108382487D01*
X220648505Y-108337264D01*
X220644997Y-108335335D01*
X220641897Y-108332789D01*
X220579831Y-108299510D01*
X220518184Y-108265619D01*
X220514363Y-108264407D01*
X220510833Y-108262514D01*
X220443535Y-108241939D01*
X220376429Y-108220652D01*
X220372445Y-108220205D01*
X220368615Y-108219034D01*
X220298627Y-108211924D01*
X220228639Y-108204074D01*
X220220802Y-108204019D01*
X220220660Y-108204005D01*
X220220526Y-108204017D01*
X220218000Y-108204000D01*
X218440000Y-108204000D01*
X218440000Y-107887458D01*
X218415597Y-107764777D01*
X218367730Y-107649215D01*
X218328000Y-107589754D01*
X218328000Y-105540542D01*
X218328000Y-105013750D01*
X218169250Y-104855000D01*
X217170000Y-104855000D01*
X217170000Y-105954250D01*
X217328750Y-106113000D01*
X217630458Y-106113000D01*
X217755542Y-106113000D01*
X217878223Y-106088597D01*
X217993785Y-106040730D01*
X218097789Y-105971237D01*
X218186237Y-105882789D01*
X218255730Y-105778785D01*
X218303597Y-105663223D01*
X218328000Y-105540542D01*
X218328000Y-107589754D01*
X218298237Y-107545211D01*
X218209789Y-107456763D01*
X218105785Y-107387270D01*
X217990223Y-107339403D01*
X217867542Y-107315000D01*
X217742458Y-107315000D01*
X216916000Y-107315000D01*
X216916000Y-105954250D01*
X216916000Y-104855000D01*
X215916750Y-104855000D01*
X215758000Y-105013750D01*
X215758000Y-105540542D01*
X215782403Y-105663223D01*
X215830270Y-105778785D01*
X215899763Y-105882789D01*
X215988211Y-105971237D01*
X216092215Y-106040730D01*
X216207777Y-106088597D01*
X216330458Y-106113000D01*
X216455542Y-106113000D01*
X216757250Y-106113000D01*
X216916000Y-105954250D01*
X216916000Y-107315000D01*
X216218458Y-107315000D01*
X216095777Y-107339403D01*
X215980215Y-107387270D01*
X215876211Y-107456763D01*
X215787763Y-107545211D01*
X215718270Y-107649215D01*
X215670403Y-107764777D01*
X215646000Y-107887458D01*
X215646000Y-108012542D01*
X215646000Y-109601000D01*
X215646000Y-110044542D01*
X215646000Y-111574837D01*
X215572777Y-111589403D01*
X215457215Y-111637270D01*
X215353211Y-111706763D01*
X215264763Y-111795211D01*
X215195270Y-111899215D01*
X215147403Y-112014777D01*
X215138000Y-112062048D01*
X215138000Y-110044542D01*
X215138000Y-109919458D01*
X215138000Y-109251750D01*
X215138000Y-108680250D01*
X215138000Y-108012542D01*
X215138000Y-107887458D01*
X215113597Y-107764777D01*
X215065730Y-107649215D01*
X214996237Y-107545211D01*
X214907789Y-107456763D01*
X214803785Y-107387270D01*
X214688223Y-107339403D01*
X214565542Y-107315000D01*
X214026750Y-107315000D01*
X213868000Y-107473750D01*
X213868000Y-108839000D01*
X214979250Y-108839000D01*
X215138000Y-108680250D01*
X215138000Y-109251750D01*
X214979250Y-109093000D01*
X213868000Y-109093000D01*
X213868000Y-110458250D01*
X214026750Y-110617000D01*
X214565542Y-110617000D01*
X214688223Y-110592597D01*
X214803785Y-110544730D01*
X214907789Y-110475237D01*
X214996237Y-110386789D01*
X215065730Y-110282785D01*
X215113597Y-110167223D01*
X215138000Y-110044542D01*
X215138000Y-112062048D01*
X215123000Y-112137458D01*
X215123000Y-112262542D01*
X215123000Y-113762542D01*
X215147403Y-113885223D01*
X215195270Y-114000785D01*
X215264763Y-114104789D01*
X215353211Y-114193237D01*
X215457215Y-114262730D01*
X215547193Y-114300000D01*
X215457215Y-114337270D01*
X215353211Y-114406763D01*
X215264763Y-114495211D01*
X215195270Y-114599215D01*
X215147403Y-114714777D01*
X215123000Y-114837458D01*
X215123000Y-114962542D01*
X215123000Y-116462542D01*
X215147403Y-116585223D01*
X215195270Y-116700785D01*
X215264763Y-116804789D01*
X215353211Y-116893237D01*
X215457215Y-116962730D01*
X215572777Y-117010597D01*
X215646000Y-117025162D01*
X215646000Y-118491000D01*
X215481858Y-118491000D01*
X215359177Y-118515403D01*
X215243615Y-118563270D01*
X215139611Y-118632763D01*
X215051163Y-118721211D01*
X214981670Y-118825215D01*
X214933803Y-118940777D01*
X214909400Y-119063458D01*
X214909400Y-119188542D01*
X214909400Y-121220542D01*
X214933803Y-121343223D01*
X214981670Y-121458785D01*
X215051163Y-121562789D01*
X215139611Y-121651237D01*
X215243615Y-121720730D01*
X215359177Y-121768597D01*
X215481858Y-121793000D01*
X215606942Y-121793000D01*
X216219369Y-121793000D01*
X214822369Y-123190000D01*
X212926108Y-123190000D01*
X212906730Y-123143215D01*
X212837237Y-123039211D01*
X212748789Y-122950763D01*
X212644785Y-122881270D01*
X212529223Y-122833403D01*
X212406542Y-122809000D01*
X212529223Y-122784597D01*
X212644785Y-122736730D01*
X212748789Y-122667237D01*
X212837237Y-122578789D01*
X212906730Y-122474785D01*
X212954597Y-122359223D01*
X212979000Y-122236542D01*
X212979000Y-121951750D01*
X212979000Y-121380250D01*
X212979000Y-121095458D01*
X212954597Y-120972777D01*
X212906730Y-120857215D01*
X212837237Y-120753211D01*
X212748789Y-120664763D01*
X212644785Y-120595270D01*
X212529223Y-120547403D01*
X212406542Y-120523000D01*
X212529223Y-120498597D01*
X212644785Y-120450730D01*
X212748789Y-120381237D01*
X212837237Y-120292789D01*
X212906730Y-120188785D01*
X212954597Y-120073223D01*
X212979000Y-119950542D01*
X212979000Y-119825458D01*
X212979000Y-118809458D01*
X212954597Y-118686777D01*
X212906730Y-118571215D01*
X212837237Y-118467211D01*
X212748789Y-118378763D01*
X212644785Y-118309270D01*
X212529223Y-118261403D01*
X212406542Y-118237000D01*
X212281458Y-118237000D01*
X210249458Y-118237000D01*
X210126777Y-118261403D01*
X210011215Y-118309270D01*
X209907211Y-118378763D01*
X209818763Y-118467211D01*
X209749270Y-118571215D01*
X209729891Y-118618000D01*
X203515630Y-118618000D01*
X202565000Y-117667369D01*
X202565000Y-117158458D01*
X202565000Y-115505542D01*
X202565000Y-115380458D01*
X202565000Y-113856458D01*
X202540597Y-113733777D01*
X202492730Y-113618215D01*
X202423237Y-113514211D01*
X202334789Y-113425763D01*
X202230785Y-113356270D01*
X202115223Y-113308403D01*
X201992542Y-113284000D01*
X201867458Y-113284000D01*
X201425243Y-113284000D01*
X201481130Y-113230780D01*
X201603161Y-113057790D01*
X201689268Y-112864392D01*
X201736170Y-112657952D01*
X201739546Y-112416150D01*
X201698426Y-112208481D01*
X201617754Y-112012753D01*
X201500600Y-111836423D01*
X201351428Y-111686207D01*
X201175921Y-111567825D01*
X200980761Y-111485788D01*
X200855263Y-111460026D01*
X200855263Y-103095111D01*
X200745370Y-102540109D01*
X200529769Y-102017021D01*
X200216672Y-101545773D01*
X199818006Y-101144314D01*
X199348955Y-100827935D01*
X198827386Y-100608687D01*
X198273164Y-100494922D01*
X197707400Y-100490972D01*
X197151644Y-100596988D01*
X196627064Y-100808932D01*
X196153641Y-101118731D01*
X195749409Y-101514585D01*
X195429763Y-101981416D01*
X195206879Y-102501442D01*
X195089248Y-103054856D01*
X195081348Y-103620579D01*
X195183482Y-104177061D01*
X195391758Y-104703108D01*
X195698245Y-105178682D01*
X195821631Y-105306452D01*
X195273424Y-105193922D01*
X194707660Y-105189972D01*
X194151904Y-105295988D01*
X194131609Y-105304187D01*
X194165158Y-105272240D01*
X194491290Y-104809917D01*
X194721413Y-104293054D01*
X194846760Y-103741336D01*
X194855783Y-103095111D01*
X194745890Y-102540109D01*
X194530289Y-102017021D01*
X194217192Y-101545773D01*
X193818526Y-101144314D01*
X193349475Y-100827935D01*
X192827906Y-100608687D01*
X192273684Y-100494922D01*
X191707920Y-100490972D01*
X191152164Y-100596988D01*
X190627584Y-100808932D01*
X190154161Y-101118731D01*
X189749929Y-101514585D01*
X189430283Y-101981416D01*
X189207399Y-102501442D01*
X189089768Y-103054856D01*
X189081868Y-103620579D01*
X189184002Y-104177061D01*
X189392278Y-104703108D01*
X189698765Y-105178682D01*
X190091787Y-105585668D01*
X190556375Y-105908565D01*
X191074832Y-106135074D01*
X191627412Y-106256566D01*
X192193065Y-106268415D01*
X192750248Y-106170169D01*
X192822701Y-106142066D01*
X192749669Y-106213585D01*
X192430023Y-106680416D01*
X192207139Y-107200442D01*
X192089508Y-107753856D01*
X192081608Y-108319579D01*
X192183742Y-108876061D01*
X192392018Y-109402108D01*
X192698505Y-109877682D01*
X193091527Y-110284668D01*
X193556115Y-110607565D01*
X194074572Y-110834074D01*
X194627152Y-110955566D01*
X195192805Y-110967415D01*
X195749988Y-110869169D01*
X196277476Y-110664570D01*
X196755177Y-110361411D01*
X197164898Y-109971240D01*
X197358000Y-109697499D01*
X197358000Y-111680932D01*
X197280381Y-111731725D01*
X197093537Y-111914695D01*
X196945791Y-112130473D01*
X196842770Y-112370839D01*
X196788399Y-112626637D01*
X196784747Y-112888124D01*
X196831955Y-113145341D01*
X196928225Y-113388489D01*
X197069888Y-113608308D01*
X197251550Y-113796425D01*
X197466291Y-113945674D01*
X197705932Y-114050370D01*
X197961344Y-114106526D01*
X198222800Y-114112003D01*
X198480340Y-114066592D01*
X198724154Y-113972022D01*
X198944957Y-113831897D01*
X199134337Y-113651552D01*
X199285081Y-113437858D01*
X199391448Y-113198955D01*
X199449386Y-112943941D01*
X199453557Y-112645244D01*
X199402762Y-112388711D01*
X199303107Y-112146931D01*
X199158388Y-111929111D01*
X198974118Y-111743549D01*
X198882000Y-111681414D01*
X198882000Y-106832400D01*
X198875126Y-106762294D01*
X198868996Y-106692229D01*
X198867879Y-106688385D01*
X198867488Y-106684393D01*
X198847126Y-106616952D01*
X198827506Y-106549418D01*
X198825662Y-106545862D01*
X198824504Y-106542024D01*
X198791454Y-106479867D01*
X198759067Y-106417385D01*
X198756566Y-106414252D01*
X198754686Y-106410716D01*
X198710216Y-106356191D01*
X198666286Y-106301160D01*
X198660784Y-106295581D01*
X198660693Y-106295469D01*
X198660589Y-106295383D01*
X198658815Y-106293584D01*
X198567526Y-106202295D01*
X198749728Y-106170169D01*
X199277216Y-105965570D01*
X199754917Y-105662411D01*
X200164638Y-105272240D01*
X200490770Y-104809917D01*
X200720893Y-104293054D01*
X200846240Y-103741336D01*
X200855263Y-103095111D01*
X200855263Y-111460026D01*
X200773384Y-111443219D01*
X200561689Y-111441741D01*
X200353738Y-111481410D01*
X200157452Y-111560715D01*
X199980308Y-111676634D01*
X199829054Y-111824753D01*
X199709450Y-111999431D01*
X199626052Y-112194012D01*
X199582037Y-112401087D01*
X199579081Y-112612767D01*
X199617297Y-112820990D01*
X199695230Y-113017825D01*
X199809910Y-113195773D01*
X199895109Y-113284000D01*
X199835458Y-113284000D01*
X199712777Y-113308403D01*
X199597215Y-113356270D01*
X199493211Y-113425763D01*
X199404763Y-113514211D01*
X199335270Y-113618215D01*
X199287403Y-113733777D01*
X199263000Y-113856458D01*
X199263000Y-113981542D01*
X199263000Y-115505542D01*
X199287403Y-115628223D01*
X199335270Y-115743785D01*
X199404763Y-115847789D01*
X199493211Y-115936237D01*
X199597215Y-116005730D01*
X199712777Y-116053597D01*
X199835458Y-116078000D01*
X199960542Y-116078000D01*
X201992542Y-116078000D01*
X202115223Y-116053597D01*
X202230785Y-116005730D01*
X202334789Y-115936237D01*
X202423237Y-115847789D01*
X202492730Y-115743785D01*
X202540597Y-115628223D01*
X202565000Y-115505542D01*
X202565000Y-117158458D01*
X202540597Y-117035777D01*
X202492730Y-116920215D01*
X202423237Y-116816211D01*
X202334789Y-116727763D01*
X202230785Y-116658270D01*
X202115223Y-116610403D01*
X201992542Y-116586000D01*
X201867458Y-116586000D01*
X199835458Y-116586000D01*
X199712777Y-116610403D01*
X199597215Y-116658270D01*
X199493211Y-116727763D01*
X199404763Y-116816211D01*
X199335270Y-116920215D01*
X199287403Y-117035777D01*
X199263000Y-117158458D01*
X199263000Y-117221000D01*
X197649000Y-117221000D01*
X197649000Y-115456458D01*
X197624597Y-115333777D01*
X197576730Y-115218215D01*
X197507237Y-115114211D01*
X197418789Y-115025763D01*
X197314785Y-114956270D01*
X197199223Y-114908403D01*
X197076542Y-114884000D01*
X196951458Y-114884000D01*
X195251458Y-114884000D01*
X195128777Y-114908403D01*
X195013215Y-114956270D01*
X194909211Y-115025763D01*
X194820763Y-115114211D01*
X194751270Y-115218215D01*
X194703403Y-115333777D01*
X194679000Y-115456458D01*
X194679000Y-115581542D01*
X194679000Y-118731542D01*
X194703403Y-118854223D01*
X194751270Y-118969785D01*
X194820763Y-119073789D01*
X194909211Y-119162237D01*
X195013215Y-119231730D01*
X195128777Y-119279597D01*
X195251458Y-119304000D01*
X195376542Y-119304000D01*
X197076542Y-119304000D01*
X197199223Y-119279597D01*
X197314785Y-119231730D01*
X197418789Y-119162237D01*
X197507237Y-119073789D01*
X197576730Y-118969785D01*
X197624597Y-118854223D01*
X197646323Y-118745000D01*
X199263000Y-118745000D01*
X199263000Y-118807542D01*
X199287403Y-118930223D01*
X199335270Y-119045785D01*
X199404763Y-119149789D01*
X199493211Y-119238237D01*
X199597215Y-119307730D01*
X199712777Y-119355597D01*
X199835458Y-119380000D01*
X199960542Y-119380000D01*
X201992542Y-119380000D01*
X202100829Y-119358460D01*
X202661184Y-119918815D01*
X202715597Y-119963510D01*
X202769495Y-120008736D01*
X202773006Y-120010666D01*
X202776103Y-120013210D01*
X202838129Y-120046468D01*
X202899816Y-120080381D01*
X202903636Y-120081592D01*
X202907167Y-120083486D01*
X202974464Y-120104060D01*
X203041571Y-120125348D01*
X203045554Y-120125794D01*
X203049385Y-120126966D01*
X203073000Y-120129364D01*
X203073000Y-123557342D01*
X203097403Y-123680023D01*
X203145270Y-123795585D01*
X203214763Y-123899589D01*
X203303211Y-123988037D01*
X203407215Y-124057530D01*
X203522777Y-124105397D01*
X203645458Y-124129800D01*
X203770542Y-124129800D01*
X205802542Y-124129800D01*
X205925223Y-124105397D01*
X206040785Y-124057530D01*
X206144789Y-123988037D01*
X206233237Y-123899589D01*
X206302730Y-123795585D01*
X206350597Y-123680023D01*
X206375000Y-123557342D01*
X206375000Y-123432258D01*
X206375000Y-120142000D01*
X209729891Y-120142000D01*
X209749270Y-120188785D01*
X209818763Y-120292789D01*
X209907211Y-120381237D01*
X210011215Y-120450730D01*
X210126777Y-120498597D01*
X210249458Y-120523000D01*
X210126777Y-120547403D01*
X210011215Y-120595270D01*
X209907211Y-120664763D01*
X209818763Y-120753211D01*
X209749270Y-120857215D01*
X209701403Y-120972777D01*
X209677000Y-121095458D01*
X209677000Y-121380250D01*
X209835750Y-121539000D01*
X211201000Y-121539000D01*
X211201000Y-120681750D01*
X211042250Y-120523000D01*
X211613750Y-120523000D01*
X211455000Y-120681750D01*
X211455000Y-121539000D01*
X212820250Y-121539000D01*
X212979000Y-121380250D01*
X212979000Y-121951750D01*
X212820250Y-121793000D01*
X211455000Y-121793000D01*
X211455000Y-121813000D01*
X211201000Y-121813000D01*
X211201000Y-121793000D01*
X209835750Y-121793000D01*
X209677000Y-121951750D01*
X209677000Y-122236542D01*
X209701403Y-122359223D01*
X209749270Y-122474785D01*
X209818763Y-122578789D01*
X209907211Y-122667237D01*
X210011215Y-122736730D01*
X210126777Y-122784597D01*
X210249458Y-122809000D01*
X210126777Y-122833403D01*
X210011215Y-122881270D01*
X209907211Y-122950763D01*
X209818763Y-123039211D01*
X209749270Y-123143215D01*
X209701403Y-123258777D01*
X209677000Y-123381458D01*
X209677000Y-123506542D01*
X209677000Y-124522542D01*
X209701403Y-124645223D01*
X209749270Y-124760785D01*
X209818763Y-124864789D01*
X209907211Y-124953237D01*
X210011215Y-125022730D01*
X210126777Y-125070597D01*
X210249458Y-125095000D01*
X210374542Y-125095000D01*
X212406542Y-125095000D01*
X212529223Y-125070597D01*
X212644785Y-125022730D01*
X212748789Y-124953237D01*
X212837237Y-124864789D01*
X212906730Y-124760785D01*
X212926108Y-124714000D01*
X215138000Y-124714000D01*
X215208113Y-124707125D01*
X215278170Y-124700996D01*
X215282012Y-124699879D01*
X215286007Y-124699488D01*
X215353459Y-124679122D01*
X215420982Y-124659506D01*
X215424537Y-124657662D01*
X215428376Y-124656504D01*
X215490553Y-124623443D01*
X215553014Y-124591067D01*
X215556144Y-124588568D01*
X215559684Y-124586686D01*
X215614230Y-124542199D01*
X215669240Y-124498286D01*
X215674814Y-124492787D01*
X215674931Y-124492693D01*
X215675020Y-124492585D01*
X215676815Y-124490815D01*
X218456207Y-121711422D01*
X218646665Y-121770379D01*
X218937538Y-121800951D01*
X219228810Y-121774444D01*
X219509385Y-121691866D01*
X219768578Y-121556363D01*
X219996515Y-121373097D01*
X220184515Y-121149048D01*
X220217299Y-121089413D01*
X220239784Y-121131701D01*
X220424637Y-121358353D01*
X220649994Y-121544784D01*
X220907269Y-121683892D01*
X221186665Y-121770379D01*
X221477538Y-121800951D01*
X221768810Y-121774444D01*
X222049385Y-121691866D01*
X222308578Y-121556363D01*
X222536515Y-121373097D01*
X222724515Y-121149048D01*
X222865416Y-120892749D01*
X222953852Y-120613964D01*
X222986454Y-120323312D01*
X222986600Y-120302388D01*
X222986600Y-119981612D01*
X222958059Y-119690532D01*
X222873525Y-119410540D01*
X222736216Y-119152299D01*
X222551363Y-118925647D01*
X222326006Y-118739216D01*
X222250000Y-118698119D01*
X222250000Y-117025162D01*
X222323223Y-117010597D01*
X222438785Y-116962730D01*
X222542789Y-116893237D01*
X222631237Y-116804789D01*
X222700730Y-116700785D01*
X222748597Y-116585223D01*
X222773000Y-116462542D01*
X222773000Y-116337458D01*
X222773000Y-114837458D01*
X222748597Y-114714777D01*
X222700730Y-114599215D01*
X222631237Y-114495211D01*
X222542789Y-114406763D01*
X222438785Y-114337270D01*
X222348806Y-114300000D01*
X222438785Y-114262730D01*
X222542789Y-114193237D01*
X222631237Y-114104789D01*
X222700730Y-114000785D01*
X222748597Y-113885223D01*
X222773000Y-113762542D01*
X222773000Y-113712000D01*
X223260750Y-113712000D01*
X223296480Y-113748998D01*
X223296480Y-114736455D01*
X223273817Y-114740963D01*
X223158255Y-114788830D01*
X223054251Y-114858323D01*
X222965803Y-114946771D01*
X222896310Y-115050775D01*
X222848443Y-115166337D01*
X222824040Y-115289018D01*
X222824040Y-115414102D01*
X222824040Y-116612982D01*
X222848443Y-116735663D01*
X222896310Y-116851225D01*
X222965803Y-116955229D01*
X223054251Y-117043677D01*
X223158255Y-117113170D01*
X223273817Y-117161037D01*
X223396498Y-117185440D01*
X223521582Y-117185440D01*
X224720462Y-117185440D01*
X224843143Y-117161037D01*
X224958705Y-117113170D01*
X225062709Y-117043677D01*
X225107500Y-116998886D01*
X225152291Y-117043677D01*
X225256295Y-117113170D01*
X225371857Y-117161037D01*
X225494538Y-117185440D01*
X225619622Y-117185440D01*
X226818502Y-117185440D01*
X226941183Y-117161037D01*
X227056745Y-117113170D01*
X227160749Y-117043677D01*
X227249197Y-116955229D01*
X227318690Y-116851225D01*
X227366557Y-116735663D01*
X227390960Y-116612982D01*
X227390960Y-118620140D01*
X225364132Y-121105276D01*
X221743527Y-124100501D01*
X217610103Y-126335435D01*
X213121292Y-127724955D01*
X208448084Y-128216127D01*
X203768472Y-127790250D01*
X199260702Y-126463541D01*
X195096477Y-124286536D01*
X194549000Y-123846353D01*
X194549000Y-118731542D01*
X194549000Y-118606458D01*
X194549000Y-115456458D01*
X194524597Y-115333777D01*
X194476730Y-115218215D01*
X194407237Y-115114211D01*
X194318789Y-115025763D01*
X194214785Y-114956270D01*
X194099223Y-114908403D01*
X193976542Y-114884000D01*
X193851458Y-114884000D01*
X192151458Y-114884000D01*
X192028777Y-114908403D01*
X191977339Y-114929709D01*
X191262000Y-114214369D01*
X191262000Y-114109309D01*
X191383723Y-114085097D01*
X191499285Y-114037230D01*
X191603289Y-113967737D01*
X191691737Y-113879289D01*
X191761230Y-113775285D01*
X191809097Y-113659723D01*
X191833500Y-113537042D01*
X191833500Y-113411958D01*
X191833500Y-112014958D01*
X191809097Y-111892277D01*
X191761230Y-111776715D01*
X191691737Y-111672711D01*
X191603289Y-111584263D01*
X191499285Y-111514770D01*
X191383723Y-111466903D01*
X191261042Y-111442500D01*
X191135958Y-111442500D01*
X189738958Y-111442500D01*
X189616277Y-111466903D01*
X189500715Y-111514770D01*
X189396711Y-111584263D01*
X189308263Y-111672711D01*
X189238770Y-111776715D01*
X189190903Y-111892277D01*
X189166500Y-112014958D01*
X189166500Y-112140042D01*
X189166500Y-113537042D01*
X189190903Y-113659723D01*
X189238770Y-113775285D01*
X189308263Y-113879289D01*
X189396711Y-113967737D01*
X189500715Y-114037230D01*
X189616277Y-114085097D01*
X189738000Y-114109309D01*
X189738000Y-114530000D01*
X189744874Y-114600113D01*
X189751004Y-114670170D01*
X189752120Y-114674012D01*
X189752512Y-114678007D01*
X189772877Y-114745459D01*
X189792494Y-114812982D01*
X189794337Y-114816537D01*
X189795496Y-114820376D01*
X189828556Y-114882553D01*
X189860933Y-114945014D01*
X189863431Y-114948144D01*
X189865314Y-114951684D01*
X189909800Y-115006230D01*
X189953714Y-115061240D01*
X189959212Y-115066814D01*
X189959307Y-115066931D01*
X189959414Y-115067020D01*
X189961185Y-115068815D01*
X191579000Y-116686630D01*
X191579000Y-118731542D01*
X191603403Y-118854223D01*
X191651270Y-118969785D01*
X191720763Y-119073789D01*
X191809211Y-119162237D01*
X191913215Y-119231730D01*
X192028777Y-119279597D01*
X192151458Y-119304000D01*
X192276542Y-119304000D01*
X193976542Y-119304000D01*
X194099223Y-119279597D01*
X194214785Y-119231730D01*
X194318789Y-119162237D01*
X194407237Y-119073789D01*
X194476730Y-118969785D01*
X194524597Y-118854223D01*
X194549000Y-118731542D01*
X194549000Y-123846353D01*
X191434403Y-121342153D01*
X188413976Y-117742549D01*
X186150239Y-113624826D01*
X184729419Y-109145829D01*
X184202146Y-104445089D01*
X184200000Y-104137653D01*
X184200000Y-99958503D01*
X184218743Y-99767336D01*
X184264532Y-99615678D01*
X184338904Y-99475804D01*
X184439030Y-99353038D01*
X184561093Y-99252059D01*
X184700449Y-99176709D01*
X184851780Y-99129864D01*
X185040782Y-99110000D01*
X197255000Y-99110000D01*
X197255121Y-99109988D01*
X197257420Y-99109996D01*
X197267892Y-99109959D01*
X197297648Y-99106935D01*
X197327554Y-99107144D01*
X197337073Y-99106211D01*
X197628218Y-99075611D01*
X197689054Y-99063122D01*
X197750021Y-99051493D01*
X197759177Y-99048729D01*
X198038833Y-98962161D01*
X198096062Y-98938103D01*
X198153632Y-98914844D01*
X198162076Y-98910354D01*
X198162077Y-98910354D01*
X198419593Y-98771115D01*
X198471065Y-98736395D01*
X198523012Y-98702403D01*
X198530424Y-98696358D01*
X198530426Y-98696356D01*
X198755991Y-98509753D01*
X198799738Y-98465699D01*
X198844096Y-98422261D01*
X198850193Y-98414891D01*
X199035219Y-98188027D01*
X199069580Y-98136309D01*
X199104652Y-98085088D01*
X199109201Y-98076675D01*
X199246638Y-97818194D01*
X199270311Y-97760758D01*
X199294754Y-97703730D01*
X199297583Y-97694593D01*
X199382197Y-97414339D01*
X199394258Y-97353423D01*
X199407164Y-97292707D01*
X199408164Y-97283196D01*
X199436731Y-96991844D01*
X199436730Y-96963112D01*
X199439933Y-96934564D01*
X199440000Y-96925000D01*
X199440000Y-64617743D01*
X199478714Y-64666240D01*
X199484212Y-64671814D01*
X199484307Y-64671931D01*
X199484414Y-64672020D01*
X199486185Y-64673815D01*
X200360577Y-65548207D01*
X200301621Y-65738665D01*
X200271049Y-66029538D01*
X200297556Y-66320810D01*
X200380134Y-66601385D01*
X200515637Y-66860578D01*
X200698903Y-67088515D01*
X200922952Y-67276515D01*
X200982586Y-67309299D01*
X200940299Y-67331784D01*
X200713647Y-67516637D01*
X200527216Y-67741994D01*
X200388108Y-67999269D01*
X200301621Y-68278665D01*
X200271049Y-68569538D01*
X200297556Y-68860810D01*
X200380134Y-69141385D01*
X200515637Y-69400578D01*
X200698903Y-69628515D01*
X200922952Y-69816515D01*
X200982586Y-69849299D01*
X200940299Y-69871784D01*
X200713647Y-70056637D01*
X200527216Y-70281994D01*
X200388108Y-70539269D01*
X200301621Y-70818665D01*
X200271049Y-71109538D01*
X200297556Y-71400810D01*
X200380134Y-71681385D01*
X200515637Y-71940578D01*
X200698903Y-72168515D01*
X200922952Y-72356515D01*
X201179251Y-72497416D01*
X201458036Y-72585852D01*
X201748688Y-72618454D01*
X201769612Y-72618600D01*
X202090388Y-72618600D01*
X202381468Y-72590059D01*
X202661460Y-72505525D01*
X202919701Y-72368216D01*
X203146353Y-72183363D01*
X203156354Y-72171272D01*
X203302188Y-72293641D01*
X203471689Y-72386825D01*
X203452738Y-72394474D01*
X203218560Y-72547875D01*
X203018808Y-72744014D01*
X202861159Y-72975354D01*
X202751672Y-73233004D01*
X202734990Y-73312940D01*
X202857148Y-73533000D01*
X204343000Y-73533000D01*
X204343000Y-73513000D01*
X204597000Y-73513000D01*
X204597000Y-73533000D01*
X205771750Y-73533000D01*
X205835250Y-73596500D01*
X206883000Y-73596500D01*
X206883000Y-72802750D01*
X206724250Y-72644000D01*
X206374042Y-72644000D01*
X206248958Y-72644000D01*
X206126277Y-72668403D01*
X206010715Y-72716270D01*
X205936210Y-72766052D01*
X205921192Y-72744014D01*
X205721440Y-72547875D01*
X205487262Y-72394474D01*
X205467553Y-72386520D01*
X205621347Y-72304747D01*
X205836475Y-72129293D01*
X206013426Y-71915396D01*
X206145461Y-71671202D01*
X206227551Y-71406013D01*
X206256568Y-71129930D01*
X206231408Y-70853469D01*
X206153029Y-70587160D01*
X206128119Y-70539511D01*
X207802816Y-68864815D01*
X207847537Y-68810370D01*
X207892736Y-68756505D01*
X207894664Y-68752997D01*
X207897211Y-68749897D01*
X207930509Y-68687796D01*
X207964381Y-68626184D01*
X207965591Y-68622368D01*
X207967487Y-68618833D01*
X207967802Y-68617801D01*
X207962500Y-68644458D01*
X207962500Y-68769542D01*
X207962500Y-69658542D01*
X207986903Y-69781223D01*
X208034770Y-69896785D01*
X208104263Y-70000789D01*
X208192711Y-70089237D01*
X208214805Y-70104000D01*
X208192711Y-70118763D01*
X208104263Y-70207211D01*
X208034770Y-70311215D01*
X207986903Y-70426777D01*
X207962500Y-70549458D01*
X207962500Y-70674542D01*
X207962500Y-71563542D01*
X207986903Y-71686223D01*
X208034770Y-71801785D01*
X208104263Y-71905789D01*
X208192711Y-71994237D01*
X208296715Y-72063730D01*
X208412277Y-72111597D01*
X208534958Y-72136000D01*
X208660042Y-72136000D01*
X210057042Y-72136000D01*
X210179723Y-72111597D01*
X210295285Y-72063730D01*
X210399289Y-71994237D01*
X210487737Y-71905789D01*
X210516614Y-71862570D01*
X210535583Y-71898854D01*
X210709531Y-72115201D01*
X210922188Y-72293641D01*
X211098214Y-72390412D01*
X210938653Y-72475253D01*
X210723525Y-72650707D01*
X210546574Y-72864604D01*
X210517386Y-72918584D01*
X210487737Y-72874211D01*
X210399289Y-72785763D01*
X210295285Y-72716270D01*
X210179723Y-72668403D01*
X210057042Y-72644000D01*
X209931958Y-72644000D01*
X208534958Y-72644000D01*
X208412277Y-72668403D01*
X208296715Y-72716270D01*
X208192711Y-72785763D01*
X208153000Y-72825474D01*
X208113289Y-72785763D01*
X208009285Y-72716270D01*
X207893723Y-72668403D01*
X207771042Y-72644000D01*
X207645958Y-72644000D01*
X207295750Y-72644000D01*
X207137000Y-72802750D01*
X207137000Y-73596500D01*
X207157000Y-73596500D01*
X207157000Y-73850500D01*
X207137000Y-73850500D01*
X207137000Y-73870500D01*
X206883000Y-73870500D01*
X206883000Y-73850500D01*
X206118101Y-73850500D01*
X206082852Y-73787000D01*
X204597000Y-73787000D01*
X204597000Y-73807000D01*
X204343000Y-73807000D01*
X204343000Y-73787000D01*
X202857148Y-73787000D01*
X202734990Y-74007060D01*
X202751672Y-74086996D01*
X202861159Y-74344646D01*
X203018808Y-74575986D01*
X203200687Y-74754576D01*
X203131223Y-74725803D01*
X203008542Y-74701400D01*
X202883458Y-74701400D01*
X200851458Y-74701400D01*
X200728777Y-74725803D01*
X200613215Y-74773670D01*
X200509211Y-74843163D01*
X200420763Y-74931611D01*
X200351270Y-75035615D01*
X200303403Y-75151177D01*
X200279000Y-75273858D01*
X200279000Y-75398942D01*
X200279000Y-77126142D01*
X200303403Y-77248823D01*
X200351270Y-77364385D01*
X200420763Y-77468389D01*
X200509211Y-77556837D01*
X200613215Y-77626330D01*
X200720727Y-77670862D01*
X200713647Y-77676637D01*
X200527216Y-77901994D01*
X200388108Y-78159269D01*
X200301621Y-78438665D01*
X200271049Y-78729538D01*
X200297556Y-79020810D01*
X200380134Y-79301385D01*
X200515637Y-79560578D01*
X200698903Y-79788515D01*
X200922952Y-79976515D01*
X200982586Y-80009299D01*
X200940299Y-80031784D01*
X200713647Y-80216637D01*
X200527216Y-80441994D01*
X200388108Y-80699269D01*
X200301621Y-80978665D01*
X200271049Y-81269538D01*
X200297556Y-81560810D01*
X200380134Y-81841385D01*
X200515637Y-82100578D01*
X200698903Y-82328515D01*
X200922952Y-82516515D01*
X200982586Y-82549299D01*
X200940299Y-82571784D01*
X200713647Y-82756637D01*
X200527216Y-82981994D01*
X200388108Y-83239269D01*
X200301621Y-83518665D01*
X200271049Y-83809538D01*
X200297556Y-84100810D01*
X200380134Y-84381385D01*
X200515637Y-84640578D01*
X200698903Y-84868515D01*
X200922952Y-85056515D01*
X200982586Y-85089299D01*
X200940299Y-85111784D01*
X200713647Y-85296637D01*
X200527216Y-85521994D01*
X200388108Y-85779269D01*
X200301621Y-86058665D01*
X200271049Y-86349538D01*
X200297556Y-86640810D01*
X200380134Y-86921385D01*
X200515637Y-87180578D01*
X200698903Y-87408515D01*
X200922952Y-87596515D01*
X200982586Y-87629299D01*
X200940299Y-87651784D01*
X200713647Y-87836637D01*
X200527216Y-88061994D01*
X200388108Y-88319269D01*
X200301621Y-88598665D01*
X200271049Y-88889538D01*
X200297556Y-89180810D01*
X200380134Y-89461385D01*
X200515637Y-89720578D01*
X200698903Y-89948515D01*
X200922952Y-90136515D01*
X200982586Y-90169299D01*
X200940299Y-90191784D01*
X200713647Y-90376637D01*
X200527216Y-90601994D01*
X200388108Y-90859269D01*
X200301621Y-91138665D01*
X200271049Y-91429538D01*
X200297556Y-91720810D01*
X200380134Y-92001385D01*
X200515637Y-92260578D01*
X200698903Y-92488515D01*
X200922952Y-92676515D01*
X200982586Y-92709299D01*
X200940299Y-92731784D01*
X200713647Y-92916637D01*
X200527216Y-93141994D01*
X200388108Y-93399269D01*
X200301621Y-93678665D01*
X200271049Y-93969538D01*
X200297556Y-94260810D01*
X200380134Y-94541385D01*
X200515637Y-94800578D01*
X200698903Y-95028515D01*
X200922952Y-95216515D01*
X201179251Y-95357416D01*
X201458036Y-95445852D01*
X201748688Y-95478454D01*
X201769612Y-95478600D01*
X202090388Y-95478600D01*
X202381468Y-95450059D01*
X202661460Y-95365525D01*
X202919701Y-95228216D01*
X203146353Y-95043363D01*
X203156354Y-95031272D01*
X203302188Y-95153641D01*
X203545454Y-95287378D01*
X203810063Y-95371317D01*
X204085937Y-95402261D01*
X204105797Y-95402400D01*
X204834203Y-95402400D01*
X205110482Y-95375311D01*
X205376238Y-95295074D01*
X205621347Y-95164747D01*
X205836475Y-94989293D01*
X206013426Y-94775396D01*
X206145461Y-94531202D01*
X206227551Y-94266013D01*
X206256568Y-93989930D01*
X206231408Y-93713469D01*
X206153029Y-93447160D01*
X206024417Y-93201146D01*
X205850469Y-92984799D01*
X205637812Y-92806359D01*
X205461785Y-92709587D01*
X205621347Y-92624747D01*
X205836475Y-92449293D01*
X206013426Y-92235396D01*
X206145461Y-91991202D01*
X206227551Y-91726013D01*
X206256568Y-91449930D01*
X206231408Y-91173469D01*
X206153029Y-90907160D01*
X206024417Y-90661146D01*
X205850469Y-90444799D01*
X205637812Y-90266359D01*
X205461785Y-90169587D01*
X205621347Y-90084747D01*
X205836475Y-89909293D01*
X206013426Y-89695396D01*
X206145461Y-89451202D01*
X206227551Y-89186013D01*
X206256568Y-88909930D01*
X206231408Y-88633469D01*
X206153029Y-88367160D01*
X206024417Y-88121146D01*
X205850469Y-87904799D01*
X205637812Y-87726359D01*
X205461785Y-87629587D01*
X205621347Y-87544747D01*
X205836475Y-87369293D01*
X206013426Y-87155396D01*
X206145461Y-86911202D01*
X206227551Y-86646013D01*
X206256568Y-86369930D01*
X206231408Y-86093469D01*
X206153029Y-85827160D01*
X206024417Y-85581146D01*
X205850469Y-85364799D01*
X205637812Y-85186359D01*
X205461785Y-85089587D01*
X205621347Y-85004747D01*
X205836475Y-84829293D01*
X206013426Y-84615396D01*
X206145461Y-84371202D01*
X206227551Y-84106013D01*
X206256568Y-83829930D01*
X206231408Y-83553469D01*
X206153029Y-83287160D01*
X206024417Y-83041146D01*
X205850469Y-82824799D01*
X205637812Y-82646359D01*
X205461785Y-82549587D01*
X205621347Y-82464747D01*
X205836475Y-82289293D01*
X206013426Y-82075396D01*
X206145461Y-81831202D01*
X206227551Y-81566013D01*
X206256568Y-81289930D01*
X206231408Y-81013469D01*
X206153029Y-80747160D01*
X206024417Y-80501146D01*
X205850469Y-80284799D01*
X205637812Y-80106359D01*
X205461785Y-80009587D01*
X205621347Y-79924747D01*
X205836475Y-79749293D01*
X206013426Y-79535396D01*
X206145461Y-79291202D01*
X206227551Y-79026013D01*
X206256568Y-78749930D01*
X206249572Y-78673057D01*
X207548815Y-77373815D01*
X207593512Y-77319400D01*
X207638736Y-77265505D01*
X207640664Y-77261997D01*
X207643211Y-77258897D01*
X207676509Y-77196796D01*
X207710381Y-77135184D01*
X207711591Y-77131368D01*
X207713487Y-77127833D01*
X207734088Y-77060448D01*
X207755348Y-76993429D01*
X207755794Y-76989451D01*
X207756967Y-76985615D01*
X207764080Y-76915577D01*
X207771926Y-76845639D01*
X207771980Y-76837802D01*
X207771995Y-76837660D01*
X207771982Y-76837526D01*
X207772000Y-76835000D01*
X207772000Y-76707809D01*
X207893723Y-76683597D01*
X208009285Y-76635730D01*
X208113289Y-76566237D01*
X208153000Y-76526526D01*
X208192711Y-76566237D01*
X208296715Y-76635730D01*
X208412277Y-76683597D01*
X208534958Y-76708000D01*
X208660042Y-76708000D01*
X209297870Y-76708000D01*
X209328685Y-76738815D01*
X209383099Y-76783512D01*
X209436995Y-76828736D01*
X209440502Y-76830664D01*
X209443603Y-76833211D01*
X209505668Y-76866489D01*
X209567316Y-76900381D01*
X209571136Y-76901592D01*
X209574667Y-76903486D01*
X209641964Y-76924060D01*
X209709071Y-76945348D01*
X209713054Y-76945794D01*
X209716885Y-76946966D01*
X209786872Y-76954075D01*
X209856861Y-76961926D01*
X209864697Y-76961980D01*
X209864840Y-76961995D01*
X209864973Y-76961982D01*
X209867500Y-76962000D01*
X210526772Y-76962000D01*
X210535583Y-76978854D01*
X210709531Y-77195201D01*
X210922188Y-77373641D01*
X211091689Y-77466825D01*
X211072738Y-77474474D01*
X210838560Y-77627875D01*
X210638808Y-77824014D01*
X210481159Y-78055354D01*
X210371672Y-78313004D01*
X210354990Y-78392940D01*
X210477148Y-78613000D01*
X211963000Y-78613000D01*
X211963000Y-78593000D01*
X212217000Y-78593000D01*
X212217000Y-78613000D01*
X213143783Y-78613000D01*
X213702852Y-78613000D01*
X214503000Y-78613000D01*
X214503000Y-78593000D01*
X214757000Y-78593000D01*
X214757000Y-78613000D01*
X214777000Y-78613000D01*
X214777000Y-78867000D01*
X214757000Y-78867000D01*
X214757000Y-78887000D01*
X214503000Y-78887000D01*
X214503000Y-78867000D01*
X213702852Y-78867000D01*
X213143783Y-78867000D01*
X212217000Y-78867000D01*
X212217000Y-78887000D01*
X211963000Y-78887000D01*
X211963000Y-78867000D01*
X210477148Y-78867000D01*
X210354990Y-79087060D01*
X210371672Y-79166996D01*
X210481159Y-79424646D01*
X210638808Y-79655986D01*
X210838560Y-79852125D01*
X211072738Y-80005526D01*
X211092446Y-80013479D01*
X210938653Y-80095253D01*
X210723525Y-80270707D01*
X210546574Y-80484604D01*
X210528516Y-80518000D01*
X210058000Y-80518000D01*
X209987849Y-80524878D01*
X209917829Y-80531004D01*
X209913985Y-80532120D01*
X209909993Y-80532512D01*
X209842552Y-80552873D01*
X209775018Y-80572494D01*
X209771462Y-80574337D01*
X209767624Y-80575496D01*
X209705467Y-80608545D01*
X209642985Y-80640933D01*
X209639852Y-80643433D01*
X209636316Y-80645314D01*
X209581791Y-80689783D01*
X209526760Y-80733714D01*
X209521181Y-80739215D01*
X209521069Y-80739307D01*
X209520983Y-80739410D01*
X209519184Y-80741185D01*
X207519928Y-82740440D01*
X207419689Y-82739741D01*
X207211738Y-82779410D01*
X207015452Y-82858715D01*
X206838308Y-82974634D01*
X206687054Y-83122753D01*
X206567450Y-83297431D01*
X206484052Y-83492012D01*
X206440037Y-83699087D01*
X206437081Y-83910767D01*
X206475297Y-84118990D01*
X206553230Y-84315825D01*
X206667910Y-84493773D01*
X206814969Y-84646058D01*
X206988807Y-84766879D01*
X207182802Y-84851633D01*
X207389564Y-84897093D01*
X207601219Y-84901526D01*
X207809704Y-84864765D01*
X208007077Y-84788208D01*
X208185822Y-84674773D01*
X208339130Y-84528780D01*
X208461161Y-84355790D01*
X208547268Y-84162392D01*
X208594170Y-83955952D01*
X208596074Y-83819555D01*
X210373630Y-82042000D01*
X210526772Y-82042000D01*
X210535583Y-82058854D01*
X210709531Y-82275201D01*
X210922188Y-82453641D01*
X211098214Y-82550412D01*
X210938653Y-82635253D01*
X210723525Y-82810707D01*
X210546574Y-83024604D01*
X210414539Y-83268798D01*
X210332449Y-83533987D01*
X210303432Y-83810070D01*
X210328592Y-84086531D01*
X210406971Y-84352840D01*
X210535583Y-84598854D01*
X210709531Y-84815201D01*
X210922188Y-84993641D01*
X211098214Y-85090412D01*
X210938653Y-85175253D01*
X210723525Y-85350707D01*
X210546574Y-85564604D01*
X210414539Y-85808798D01*
X210332449Y-86073987D01*
X210303432Y-86350070D01*
X210328592Y-86626531D01*
X210406971Y-86892840D01*
X210535583Y-87138854D01*
X210709531Y-87355201D01*
X210922188Y-87533641D01*
X211098214Y-87630412D01*
X210938653Y-87715253D01*
X210723525Y-87890707D01*
X210546574Y-88104604D01*
X210484438Y-88219521D01*
X210467446Y-88228556D01*
X210404986Y-88260933D01*
X210401855Y-88263431D01*
X210398316Y-88265314D01*
X210343769Y-88309800D01*
X210288760Y-88353714D01*
X210283185Y-88359212D01*
X210283069Y-88359307D01*
X210282979Y-88359414D01*
X210281185Y-88361185D01*
X209265185Y-89377185D01*
X209220487Y-89431599D01*
X209175264Y-89485495D01*
X209173335Y-89489002D01*
X209170789Y-89492103D01*
X209137510Y-89554168D01*
X209103619Y-89615816D01*
X209102407Y-89619636D01*
X209100514Y-89623167D01*
X209079939Y-89690464D01*
X209058652Y-89757571D01*
X209058205Y-89761554D01*
X209057034Y-89765385D01*
X209049924Y-89835372D01*
X209042074Y-89905361D01*
X209042019Y-89913197D01*
X209042005Y-89913340D01*
X209042017Y-89913473D01*
X209042000Y-89916000D01*
X209042000Y-93664369D01*
X205106929Y-97599440D01*
X205006689Y-97598741D01*
X204798738Y-97638410D01*
X204602452Y-97717715D01*
X204425308Y-97833634D01*
X204274054Y-97981753D01*
X204154450Y-98156431D01*
X204071052Y-98351012D01*
X204027037Y-98558087D01*
X204024081Y-98769767D01*
X204062297Y-98977990D01*
X204140230Y-99174825D01*
X204254910Y-99352773D01*
X204401969Y-99505058D01*
X204575807Y-99625879D01*
X204769802Y-99710633D01*
X204976564Y-99756093D01*
X205188219Y-99760526D01*
X205396704Y-99723765D01*
X205594077Y-99647208D01*
X205772822Y-99533773D01*
X205926130Y-99387780D01*
X206048161Y-99214790D01*
X206134268Y-99021392D01*
X206181170Y-98814952D01*
X206183074Y-98678555D01*
X209677000Y-95184630D01*
X209677000Y-96520000D01*
X209683874Y-96590113D01*
X209690004Y-96660170D01*
X209691120Y-96664012D01*
X209691512Y-96668007D01*
X209711877Y-96735459D01*
X209731494Y-96802982D01*
X209733337Y-96806537D01*
X209734496Y-96810376D01*
X209767556Y-96872553D01*
X209799933Y-96935014D01*
X209802431Y-96938144D01*
X209804314Y-96941684D01*
X209848800Y-96996230D01*
X209892714Y-97051240D01*
X209898212Y-97056814D01*
X209898307Y-97056931D01*
X209898414Y-97057020D01*
X209900185Y-97058815D01*
X211836000Y-98994630D01*
X211836000Y-106745369D01*
X211678185Y-106903185D01*
X211633487Y-106957599D01*
X211588264Y-107011495D01*
X211586335Y-107015002D01*
X211583789Y-107018103D01*
X211550510Y-107080168D01*
X211516619Y-107141816D01*
X211515407Y-107145636D01*
X211513514Y-107149167D01*
X211492939Y-107216464D01*
X211471652Y-107283571D01*
X211471205Y-107287554D01*
X211470034Y-107291385D01*
X211462924Y-107361372D01*
X211455074Y-107431361D01*
X211455019Y-107439197D01*
X211455005Y-107439340D01*
X211455017Y-107439473D01*
X211455000Y-107442000D01*
X211455000Y-115000369D01*
X211393369Y-115062000D01*
X210837862Y-115062000D01*
X210798216Y-114987436D01*
X210613363Y-114760784D01*
X210388006Y-114574353D01*
X210352050Y-114554911D01*
X210370578Y-114545226D01*
X210598515Y-114361960D01*
X210786515Y-114137911D01*
X210927416Y-113881612D01*
X211015852Y-113602827D01*
X211048454Y-113312175D01*
X211048600Y-113291251D01*
X211048600Y-113276749D01*
X211020059Y-112985669D01*
X210935525Y-112705677D01*
X210798216Y-112447436D01*
X210613363Y-112220784D01*
X210388006Y-112034353D01*
X210345466Y-112011351D01*
X210560293Y-111850854D01*
X210756817Y-111632488D01*
X210906964Y-111379978D01*
X211004963Y-111103027D01*
X210884464Y-110871000D01*
X209677000Y-110871000D01*
X209677000Y-110891000D01*
X209423000Y-110891000D01*
X209423000Y-110871000D01*
X209403000Y-110871000D01*
X209403000Y-110617000D01*
X209423000Y-110617000D01*
X209423000Y-110597000D01*
X209677000Y-110597000D01*
X209677000Y-110617000D01*
X210884464Y-110617000D01*
X211004963Y-110384973D01*
X210906964Y-110108022D01*
X210756817Y-109855512D01*
X210560293Y-109637146D01*
X210346809Y-109477651D01*
X210370578Y-109465226D01*
X210598515Y-109281960D01*
X210786515Y-109057911D01*
X210927416Y-108801612D01*
X211015852Y-108522827D01*
X211048454Y-108232175D01*
X211048600Y-108211251D01*
X211048600Y-108196749D01*
X211020059Y-107905669D01*
X210935525Y-107625677D01*
X210798216Y-107367436D01*
X210613363Y-107140784D01*
X210388006Y-106954353D01*
X210352050Y-106934911D01*
X210370578Y-106925226D01*
X210598515Y-106741960D01*
X210786515Y-106517911D01*
X210927416Y-106261612D01*
X211015852Y-105982827D01*
X211048454Y-105692175D01*
X211048600Y-105671251D01*
X211048600Y-105656749D01*
X211020059Y-105365669D01*
X210935525Y-105085677D01*
X210798216Y-104827436D01*
X210613363Y-104600784D01*
X210606428Y-104595046D01*
X210714385Y-104550330D01*
X210818389Y-104480837D01*
X210906837Y-104392389D01*
X210976330Y-104288385D01*
X211024197Y-104172823D01*
X211048600Y-104050142D01*
X211048600Y-103925058D01*
X211048600Y-102197858D01*
X211024197Y-102075177D01*
X210976330Y-101959615D01*
X210906837Y-101855611D01*
X210818389Y-101767163D01*
X210714385Y-101697670D01*
X210598823Y-101649803D01*
X210476142Y-101625400D01*
X210351058Y-101625400D01*
X208623858Y-101625400D01*
X208501177Y-101649803D01*
X208385615Y-101697670D01*
X208281611Y-101767163D01*
X208193163Y-101855611D01*
X208123670Y-101959615D01*
X208078934Y-102067615D01*
X208073363Y-102060784D01*
X207848006Y-101874353D01*
X207590731Y-101735245D01*
X207311335Y-101648758D01*
X207020462Y-101618186D01*
X206729190Y-101644693D01*
X206448615Y-101727271D01*
X206189422Y-101862774D01*
X205961485Y-102046040D01*
X205773485Y-102270089D01*
X205632584Y-102526388D01*
X205544148Y-102805173D01*
X205511546Y-103095825D01*
X205511400Y-103116749D01*
X205511400Y-103131251D01*
X205539941Y-103422331D01*
X205624475Y-103702323D01*
X205761784Y-103960564D01*
X205946637Y-104187216D01*
X206171994Y-104373647D01*
X206207949Y-104393088D01*
X206189422Y-104402774D01*
X205961485Y-104586040D01*
X205773485Y-104810089D01*
X205632584Y-105066388D01*
X205544148Y-105345173D01*
X205511546Y-105635825D01*
X205511400Y-105656749D01*
X205511400Y-105671251D01*
X205539941Y-105962331D01*
X205624475Y-106242323D01*
X205761784Y-106500564D01*
X205946637Y-106727216D01*
X206171994Y-106913647D01*
X206207949Y-106933088D01*
X206189422Y-106942774D01*
X205961485Y-107126040D01*
X205773485Y-107350089D01*
X205632584Y-107606388D01*
X205544148Y-107885173D01*
X205511546Y-108175825D01*
X205511400Y-108196749D01*
X205511400Y-108211251D01*
X205539941Y-108502331D01*
X205624475Y-108782323D01*
X205761784Y-109040564D01*
X205946637Y-109267216D01*
X206171994Y-109453647D01*
X206207949Y-109473088D01*
X206189422Y-109482774D01*
X205961485Y-109666040D01*
X205773485Y-109890089D01*
X205632584Y-110146388D01*
X205544148Y-110425173D01*
X205511546Y-110715825D01*
X205511400Y-110736749D01*
X205511400Y-110751251D01*
X205539941Y-111042331D01*
X205624475Y-111322323D01*
X205761784Y-111580564D01*
X205946637Y-111807216D01*
X206171994Y-111993647D01*
X206207949Y-112013088D01*
X206189422Y-112022774D01*
X205961485Y-112206040D01*
X205773485Y-112430089D01*
X205632584Y-112686388D01*
X205544148Y-112965173D01*
X205511546Y-113255825D01*
X205511400Y-113276749D01*
X205511400Y-113291251D01*
X205539941Y-113582331D01*
X205624475Y-113862323D01*
X205761784Y-114120564D01*
X205946637Y-114347216D01*
X206171994Y-114533647D01*
X206207949Y-114553088D01*
X206189422Y-114562774D01*
X205961485Y-114746040D01*
X205773485Y-114970089D01*
X205632584Y-115226388D01*
X205544148Y-115505173D01*
X205511546Y-115795825D01*
X205511400Y-115816749D01*
X205511400Y-115831251D01*
X205539941Y-116122331D01*
X205624475Y-116402323D01*
X205761784Y-116660564D01*
X205946637Y-116887216D01*
X206171994Y-117073647D01*
X206429269Y-117212755D01*
X206708665Y-117299242D01*
X206999538Y-117329814D01*
X207290810Y-117303307D01*
X207571385Y-117220729D01*
X207830578Y-117085226D01*
X208058515Y-116901960D01*
X208246515Y-116677911D01*
X208279299Y-116618276D01*
X208301784Y-116660564D01*
X208486637Y-116887216D01*
X208711994Y-117073647D01*
X208969269Y-117212755D01*
X209248665Y-117299242D01*
X209539538Y-117329814D01*
X209830810Y-117303307D01*
X210111385Y-117220729D01*
X210370578Y-117085226D01*
X210598515Y-116901960D01*
X210786515Y-116677911D01*
X210837043Y-116586000D01*
X211709000Y-116586000D01*
X211779113Y-116579125D01*
X211849170Y-116572996D01*
X211853012Y-116571879D01*
X211857007Y-116571488D01*
X211924459Y-116551122D01*
X211991982Y-116531506D01*
X211995537Y-116529662D01*
X211999376Y-116528504D01*
X212061553Y-116495443D01*
X212124014Y-116463067D01*
X212127144Y-116460568D01*
X212130684Y-116458686D01*
X212185230Y-116414199D01*
X212240240Y-116370286D01*
X212245814Y-116364787D01*
X212245931Y-116364693D01*
X212246020Y-116364585D01*
X212247815Y-116362815D01*
X212755815Y-115854816D01*
X212800510Y-115800402D01*
X212845736Y-115746505D01*
X212847666Y-115742993D01*
X212850210Y-115739897D01*
X212883468Y-115677870D01*
X212917381Y-115616184D01*
X212918592Y-115612363D01*
X212920486Y-115608833D01*
X212941064Y-115541523D01*
X212962348Y-115474429D01*
X212962794Y-115470447D01*
X212963966Y-115466616D01*
X212971075Y-115396622D01*
X212978926Y-115326639D01*
X212978980Y-115318802D01*
X212978995Y-115318660D01*
X212978982Y-115318526D01*
X212979000Y-115316000D01*
X212979000Y-110617000D01*
X213455250Y-110617000D01*
X213614000Y-110458250D01*
X213614000Y-109093000D01*
X213594000Y-109093000D01*
X213594000Y-108839000D01*
X213614000Y-108839000D01*
X213614000Y-107473750D01*
X213455250Y-107315000D01*
X213313358Y-107315000D01*
X213322060Y-107286535D01*
X213343348Y-107219429D01*
X213343794Y-107215445D01*
X213344966Y-107211615D01*
X213352075Y-107141627D01*
X213359926Y-107071639D01*
X213359980Y-107063802D01*
X213359995Y-107063660D01*
X213359982Y-107063526D01*
X213360000Y-107061000D01*
X213360000Y-98679000D01*
X213353125Y-98608890D01*
X213346996Y-98538829D01*
X213345879Y-98534985D01*
X213345488Y-98530993D01*
X213325126Y-98463552D01*
X213305506Y-98396018D01*
X213303662Y-98392462D01*
X213302504Y-98388624D01*
X213269443Y-98326446D01*
X213237067Y-98263986D01*
X213234568Y-98260855D01*
X213232686Y-98257316D01*
X213188199Y-98202769D01*
X213144286Y-98147760D01*
X213138787Y-98142185D01*
X213138693Y-98142069D01*
X213138585Y-98141979D01*
X213136815Y-98140185D01*
X211201000Y-96204370D01*
X211201000Y-95402400D01*
X211343838Y-95402400D01*
X211362877Y-95465459D01*
X211382494Y-95532982D01*
X211384337Y-95536537D01*
X211385496Y-95540376D01*
X211418556Y-95602553D01*
X211450933Y-95665014D01*
X211453431Y-95668144D01*
X211455314Y-95671684D01*
X211499800Y-95726230D01*
X211543714Y-95781240D01*
X211549212Y-95786814D01*
X211549307Y-95786931D01*
X211549414Y-95787020D01*
X211551185Y-95788815D01*
X216217500Y-100455130D01*
X216217500Y-100665468D01*
X216207777Y-100667403D01*
X216092215Y-100715270D01*
X215988211Y-100784763D01*
X215899763Y-100873211D01*
X215830270Y-100977215D01*
X215782403Y-101092777D01*
X215758000Y-101215458D01*
X215758000Y-101340542D01*
X215758000Y-102840542D01*
X215782403Y-102963223D01*
X215830270Y-103078785D01*
X215899763Y-103182789D01*
X215988211Y-103271237D01*
X216092215Y-103340730D01*
X216182193Y-103378000D01*
X216092215Y-103415270D01*
X215988211Y-103484763D01*
X215899763Y-103573211D01*
X215830270Y-103677215D01*
X215782403Y-103792777D01*
X215758000Y-103915458D01*
X215758000Y-104442250D01*
X215916750Y-104601000D01*
X216916000Y-104601000D01*
X216916000Y-104581000D01*
X217170000Y-104581000D01*
X217170000Y-104601000D01*
X218169250Y-104601000D01*
X218328000Y-104442250D01*
X218328000Y-104390630D01*
X218870184Y-104932815D01*
X218924597Y-104977510D01*
X218978495Y-105022736D01*
X218982006Y-105024666D01*
X218985103Y-105027210D01*
X219047129Y-105060468D01*
X219108816Y-105094381D01*
X219112636Y-105095592D01*
X219116167Y-105097486D01*
X219183464Y-105118060D01*
X219250571Y-105139348D01*
X219254554Y-105139794D01*
X219258385Y-105140966D01*
X219328372Y-105148075D01*
X219398361Y-105155926D01*
X219406197Y-105155980D01*
X219406340Y-105155995D01*
X219406473Y-105155982D01*
X219409000Y-105156000D01*
X223101886Y-105156000D01*
X222966361Y-105353930D01*
X222847773Y-105630617D01*
X222785186Y-105925067D01*
X222780983Y-106226067D01*
X222835324Y-106522150D01*
X222946140Y-106802040D01*
X223109210Y-107055075D01*
X223318322Y-107271617D01*
X223565512Y-107443419D01*
X223841364Y-107563935D01*
X224135371Y-107628577D01*
X224436334Y-107634881D01*
X224732789Y-107582608D01*
X225013446Y-107473748D01*
X225267613Y-107312449D01*
X225485610Y-107104854D01*
X225659132Y-106858869D01*
X225781572Y-106583866D01*
X225848265Y-106290317D01*
X225853066Y-105946486D01*
X225794595Y-105651190D01*
X225679882Y-105372874D01*
X225535790Y-105156000D01*
X226799369Y-105156000D01*
X227334838Y-105691469D01*
X227285186Y-105925067D01*
X227280983Y-106226067D01*
X227335324Y-106522150D01*
X227446140Y-106802040D01*
X227609210Y-107055075D01*
X227818322Y-107271617D01*
X228056000Y-107436807D01*
X228056000Y-111261113D01*
X227851509Y-111394928D01*
X227636432Y-111605547D01*
X227466361Y-111853930D01*
X227347773Y-112130617D01*
X227285186Y-112425067D01*
X227280983Y-112726067D01*
X227335324Y-113022150D01*
X227446140Y-113302040D01*
X227609210Y-113555075D01*
X227818322Y-113771617D01*
X228065512Y-113943419D01*
X228341364Y-114063935D01*
X228635371Y-114128577D01*
X228936334Y-114134881D01*
X229232789Y-114082608D01*
X229513446Y-113973748D01*
X229767613Y-113812449D01*
X229985610Y-113604854D01*
X230159132Y-113358869D01*
X230281572Y-113083866D01*
X230348265Y-112790317D01*
X230353066Y-112446486D01*
X230294595Y-112151190D01*
X230179882Y-111872874D01*
X230013295Y-111622141D01*
X229801180Y-111408540D01*
X229580000Y-111259351D01*
X229580000Y-107431511D01*
X229767613Y-107312449D01*
X229985610Y-107104854D01*
X230159132Y-106858869D01*
X230281572Y-106583866D01*
X230348265Y-106290317D01*
X230353066Y-105946486D01*
X230294595Y-105651190D01*
X230179882Y-105372874D01*
X230013295Y-105122141D01*
X229801180Y-104908540D01*
X229551616Y-104740206D01*
X229274108Y-104623553D01*
X228979228Y-104563023D01*
X228678206Y-104560921D01*
X228410599Y-104611969D01*
X227653815Y-103855185D01*
X227599400Y-103810487D01*
X227545505Y-103765264D01*
X227541997Y-103763335D01*
X227538897Y-103760789D01*
X227476831Y-103727510D01*
X227415184Y-103693619D01*
X227411363Y-103692407D01*
X227407833Y-103690514D01*
X227340535Y-103669939D01*
X227273429Y-103648652D01*
X227269445Y-103648205D01*
X227265615Y-103647034D01*
X227195627Y-103639924D01*
X227125639Y-103632074D01*
X227117802Y-103632019D01*
X227117660Y-103632005D01*
X227117526Y-103632017D01*
X227115000Y-103632000D01*
X219724630Y-103632000D01*
X218328000Y-102235369D01*
X218328000Y-101215458D01*
X218303597Y-101092777D01*
X218255730Y-100977215D01*
X218186237Y-100873211D01*
X218097789Y-100784763D01*
X217993785Y-100715270D01*
X217878223Y-100667403D01*
X217755542Y-100643000D01*
X217741500Y-100643000D01*
X217741500Y-100139500D01*
X217741500Y-100076000D01*
X217741500Y-98447096D01*
X217764300Y-98469738D01*
X217807739Y-98514096D01*
X217815109Y-98520193D01*
X218041973Y-98705219D01*
X218093690Y-98739580D01*
X218144912Y-98774652D01*
X218153325Y-98779201D01*
X218411806Y-98916638D01*
X218469241Y-98940311D01*
X218526270Y-98964754D01*
X218535407Y-98967583D01*
X218815661Y-99052197D01*
X218876576Y-99064258D01*
X218937293Y-99077164D01*
X218946804Y-99078164D01*
X219238156Y-99106731D01*
X219266887Y-99106730D01*
X219295436Y-99109933D01*
X219305000Y-99110000D01*
X231511496Y-99110000D01*
X231702663Y-99128743D01*
X231854321Y-99174532D01*
X231994195Y-99248904D01*
X232116961Y-99349030D01*
X232217940Y-99471093D01*
X232293290Y-99610449D01*
X232340135Y-99761780D01*
X232360000Y-99950782D01*
X232360000Y-104106495D01*
M02*
