%FSLAX46Y46*%
G04 Gerber Fmt 4.6, Leading zero omitted, Abs format (unit mm)*
G04 Created by KiCad (PCBNEW (2014-10-27 BZR 5228)-product) date 02/12/2014 21:19:55*
%MOMM*%
G01*
G04 APERTURE LIST*
%ADD10C,0.100000*%
%ADD11R,2.032000X1.524000*%
%ADD12R,1.524000X2.032000*%
%ADD13R,1.397000X0.889000*%
%ADD14R,1.397000X1.397000*%
%ADD15C,1.397000*%
%ADD16R,1.198880X1.198880*%
%ADD17R,1.700000X3.150000*%
%ADD18O,2.286000X1.574800*%
%ADD19R,2.286000X1.574800*%
%ADD20R,1.727200X2.032000*%
%ADD21O,1.727200X2.032000*%
%ADD22R,1.727200X1.727200*%
%ADD23O,1.727200X1.727200*%
%ADD24R,2.032000X1.727200*%
%ADD25O,2.032000X1.727200*%
%ADD26R,2.032000X2.032000*%
%ADD27O,2.032000X2.032000*%
%ADD28R,1.500000X1.300000*%
%ADD29R,1.300000X1.500000*%
%ADD30C,1.800000*%
%ADD31R,2.032000X3.657600*%
%ADD32R,2.032000X1.016000*%
%ADD33C,4.500000*%
%ADD34C,0.889000*%
%ADD35C,0.254000*%
G04 APERTURE END LIST*
D10*
D11*
X200914000Y-117983000D03*
X200914000Y-114681000D03*
D12*
X213741000Y-108966000D03*
X217043000Y-108966000D03*
D13*
X209296000Y-75628500D03*
X209296000Y-73723500D03*
X209296000Y-69151500D03*
X209296000Y-71056500D03*
X207010000Y-73723500D03*
X207010000Y-75628500D03*
D14*
X190500000Y-112776000D03*
D15*
X198120000Y-112776000D03*
D16*
X226156520Y-115951000D03*
X224058480Y-115951000D03*
D17*
X196164000Y-117094000D03*
X193064000Y-117094000D03*
D18*
X212090000Y-91440000D03*
X212090000Y-88900000D03*
X212090000Y-86360000D03*
X212090000Y-83820000D03*
X212090000Y-81280000D03*
X212090000Y-78740000D03*
X212090000Y-76200000D03*
X212090000Y-73660000D03*
X212090000Y-71120000D03*
X212090000Y-68580000D03*
X212090000Y-66040000D03*
X212090000Y-63500000D03*
X212090000Y-60960000D03*
D19*
X212090000Y-93980000D03*
D18*
X204470000Y-60960000D03*
X204470000Y-63500000D03*
X204470000Y-66040000D03*
X204470000Y-68580000D03*
X204470000Y-71120000D03*
X204470000Y-73660000D03*
X204470000Y-76200000D03*
X204470000Y-78740000D03*
X204470000Y-81280000D03*
X204470000Y-83820000D03*
X204470000Y-86360000D03*
X204470000Y-88900000D03*
X204470000Y-91440000D03*
X204470000Y-93980000D03*
D20*
X216408000Y-120142000D03*
D21*
X218948000Y-120142000D03*
X221488000Y-120142000D03*
D22*
X205740000Y-54610000D03*
D23*
X205740000Y-52070000D03*
X208280000Y-54610000D03*
X208280000Y-52070000D03*
X210820000Y-54610000D03*
X210820000Y-52070000D03*
D24*
X214630000Y-91440000D03*
D25*
X214630000Y-88900000D03*
X214630000Y-86360000D03*
X214630000Y-83820000D03*
X214630000Y-81280000D03*
X214630000Y-78740000D03*
X214630000Y-76200000D03*
D24*
X201930000Y-76200000D03*
D25*
X201930000Y-78740000D03*
X201930000Y-81280000D03*
X201930000Y-83820000D03*
X201930000Y-86360000D03*
X201930000Y-88900000D03*
X201930000Y-91440000D03*
X201930000Y-93980000D03*
D26*
X214630000Y-73660000D03*
D27*
X214630000Y-71120000D03*
D24*
X201930000Y-60960000D03*
D25*
X201930000Y-63500000D03*
X201930000Y-66040000D03*
X201930000Y-68580000D03*
X201930000Y-71120000D03*
D24*
X214630000Y-68580000D03*
D25*
X214630000Y-66040000D03*
X214630000Y-63500000D03*
X214630000Y-60960000D03*
D28*
X221949000Y-110236000D03*
X219249000Y-110236000D03*
D29*
X218948000Y-115650000D03*
X218948000Y-112950000D03*
X216408000Y-112950000D03*
X216408000Y-115650000D03*
X221488000Y-112950000D03*
X221488000Y-115650000D03*
X217043000Y-102028000D03*
X217043000Y-104728000D03*
D30*
X228818000Y-112597000D03*
X224318000Y-112597000D03*
X228818000Y-106097000D03*
X224318000Y-106097000D03*
D31*
X204724000Y-121666000D03*
D32*
X211328000Y-121666000D03*
X211328000Y-119380000D03*
X211328000Y-123952000D03*
D22*
X209550000Y-103124000D03*
D23*
X207010000Y-103124000D03*
X209550000Y-105664000D03*
X207010000Y-105664000D03*
X209550000Y-108204000D03*
X207010000Y-108204000D03*
X209550000Y-110744000D03*
X207010000Y-110744000D03*
X209550000Y-113284000D03*
X207010000Y-113284000D03*
X209550000Y-115824000D03*
X207010000Y-115824000D03*
D33*
X197716140Y-103327200D03*
X191716660Y-103327200D03*
X194716400Y-108026200D03*
D34*
X209423000Y-66040000D03*
X200660000Y-112522000D03*
X208153000Y-60579000D03*
X205549500Y-57912000D03*
X214249000Y-98869500D03*
X215709500Y-97282000D03*
X205105000Y-98679000D03*
X207518000Y-83820000D03*
D35*
X196445000Y-116205000D02*
X196215000Y-115975000D01*
X197053000Y-117983000D02*
X200914000Y-117983000D01*
X196164000Y-117094000D02*
X197053000Y-117983000D01*
X203200000Y-119380000D02*
X211328000Y-119380000D01*
X201803000Y-117983000D02*
X203200000Y-119380000D01*
X200914000Y-117983000D02*
X201803000Y-117983000D01*
X205105000Y-78740000D02*
X207010000Y-76835000D01*
X204470000Y-78740000D02*
X205105000Y-78740000D01*
X209867500Y-76200000D02*
X212090000Y-76200000D01*
X207010000Y-76835000D02*
X207010000Y-75628500D01*
X209296000Y-69151500D02*
X209423000Y-69024500D01*
X209423000Y-69024500D02*
X209423000Y-66040000D01*
X200660000Y-114427000D02*
X200914000Y-114681000D01*
X200660000Y-112522000D02*
X200660000Y-114427000D01*
X224058480Y-112856520D02*
X224058480Y-115951000D01*
X224318000Y-112597000D02*
X224058480Y-112856520D01*
X223965000Y-112950000D02*
X221488000Y-112950000D01*
X224318000Y-112597000D02*
X223965000Y-112950000D01*
X220599000Y-112061000D02*
X220599000Y-109347000D01*
X220599000Y-109347000D02*
X220218000Y-108966000D01*
X220218000Y-108966000D02*
X217043000Y-108966000D01*
X221488000Y-112950000D02*
X220599000Y-112061000D01*
X216408000Y-109601000D02*
X216408000Y-112950000D01*
X217043000Y-108966000D02*
X216408000Y-109601000D01*
X209296000Y-75628500D02*
X209867500Y-76200000D01*
X204470000Y-73660000D02*
X206946500Y-73660000D01*
X217043000Y-104728000D02*
X217043000Y-105664000D01*
X217043000Y-105664000D02*
X213741000Y-108966000D01*
X218948000Y-112950000D02*
X218948000Y-110537000D01*
X218948000Y-110537000D02*
X219249000Y-110236000D01*
X205740000Y-52070000D02*
X204089000Y-53721000D01*
X207010000Y-69596000D02*
X207010000Y-73723500D01*
X208153000Y-68453000D02*
X207010000Y-69596000D01*
X208153000Y-60579000D02*
X208153000Y-68453000D01*
X204089000Y-56451500D02*
X205549500Y-57912000D01*
X204089000Y-53721000D02*
X204089000Y-56451500D01*
X214630000Y-78740000D02*
X216344500Y-80454500D01*
X213741000Y-99377500D02*
X213741000Y-107569000D01*
X214249000Y-98869500D02*
X213741000Y-99377500D01*
X216344500Y-96647000D02*
X215709500Y-97282000D01*
X216344500Y-80454500D02*
X216344500Y-96647000D01*
X207010000Y-73723500D02*
X208153000Y-74866500D01*
X208153000Y-76835000D02*
X210058000Y-78740000D01*
X208153000Y-74866500D02*
X208153000Y-76835000D01*
X213741000Y-108966000D02*
X213741000Y-107569000D01*
X213741000Y-108966000D02*
X213741000Y-112649000D01*
X213741000Y-112649000D02*
X215392000Y-114300000D01*
X206946500Y-73660000D02*
X207010000Y-73723500D01*
X211328000Y-121666000D02*
X212090000Y-121666000D01*
X217598000Y-114300000D02*
X215392000Y-114300000D01*
X215392000Y-114300000D02*
X214122000Y-115570000D01*
X214122000Y-115570000D02*
X214122000Y-116713000D01*
X214122000Y-116713000D02*
X214122000Y-118872000D01*
X214122000Y-118872000D02*
X211328000Y-121666000D01*
X218948000Y-112950000D02*
X217598000Y-114300000D01*
X210058000Y-78740000D02*
X212090000Y-78740000D01*
X212090000Y-78740000D02*
X214630000Y-78740000D01*
X212026500Y-73723500D02*
X212090000Y-73660000D01*
X212090000Y-73660000D02*
X214630000Y-73660000D01*
X209296000Y-73723500D02*
X212026500Y-73723500D01*
X212026500Y-71056500D02*
X212090000Y-71120000D01*
X212090000Y-71120000D02*
X214630000Y-71120000D01*
X209296000Y-71056500D02*
X212026500Y-71056500D01*
X197716140Y-103327200D02*
X197716140Y-106428540D01*
X198120000Y-106832400D02*
X198120000Y-112776000D01*
X197716140Y-106428540D02*
X198120000Y-106832400D01*
X190500000Y-114530000D02*
X193064000Y-117094000D01*
X190500000Y-112776000D02*
X190500000Y-114530000D01*
X226156520Y-115951000D02*
X226156520Y-111221520D01*
X225171000Y-110236000D02*
X221949000Y-110236000D01*
X226156520Y-111221520D02*
X225171000Y-110236000D01*
X212090000Y-91440000D02*
X214630000Y-91440000D01*
X210947000Y-91440000D02*
X210439000Y-91948000D01*
X212090000Y-91440000D02*
X210947000Y-91440000D01*
X210439000Y-91948000D02*
X210439000Y-96520000D01*
X210439000Y-96520000D02*
X212598000Y-98679000D01*
X212598000Y-98679000D02*
X212598000Y-107061000D01*
X212598000Y-107061000D02*
X212217000Y-107442000D01*
X212217000Y-107442000D02*
X212217000Y-115316000D01*
X212217000Y-115316000D02*
X211709000Y-115824000D01*
X211709000Y-115824000D02*
X209550000Y-115824000D01*
X212090000Y-88900000D02*
X214630000Y-88900000D01*
X210820000Y-88900000D02*
X209804000Y-89916000D01*
X212090000Y-88900000D02*
X210820000Y-88900000D01*
X209804000Y-89916000D02*
X209804000Y-93980000D01*
X209804000Y-93980000D02*
X205105000Y-98679000D01*
X212090000Y-86360000D02*
X214630000Y-86360000D01*
X212090000Y-83820000D02*
X214630000Y-83820000D01*
X212090000Y-81280000D02*
X214630000Y-81280000D01*
X210058000Y-81280000D02*
X207518000Y-83820000D01*
X212090000Y-81280000D02*
X210058000Y-81280000D01*
X212090000Y-68580000D02*
X214630000Y-68580000D01*
X212090000Y-66040000D02*
X214630000Y-66040000D01*
X212090000Y-63500000D02*
X214630000Y-63500000D01*
X212090000Y-60960000D02*
X214630000Y-60960000D01*
X216979500Y-100076000D02*
X216979500Y-101964500D01*
X216979500Y-101964500D02*
X217043000Y-102028000D01*
X228818000Y-106097000D02*
X227115000Y-104394000D01*
X219409000Y-104394000D02*
X217043000Y-102028000D01*
X227115000Y-104394000D02*
X219409000Y-104394000D01*
X228818000Y-112597000D02*
X228818000Y-106097000D01*
X210820000Y-54610000D02*
X216471500Y-60261500D01*
X216471500Y-60261500D02*
X216471500Y-79248000D01*
X216471500Y-79248000D02*
X216979500Y-79756000D01*
X216979500Y-79756000D02*
X216979500Y-100076000D01*
X216979500Y-100076000D02*
X216979500Y-100139500D01*
X216979500Y-100139500D02*
X212090000Y-95250000D01*
X212090000Y-95250000D02*
X212090000Y-93980000D01*
X201930000Y-60960000D02*
X204470000Y-60960000D01*
X201930000Y-63500000D02*
X204470000Y-63500000D01*
X201930000Y-66040000D02*
X200025000Y-64135000D01*
X206375000Y-50165000D02*
X208280000Y-52070000D01*
X203835000Y-50165000D02*
X206375000Y-50165000D01*
X200025000Y-53975000D02*
X203835000Y-50165000D01*
X200025000Y-64135000D02*
X200025000Y-53975000D01*
X201930000Y-66040000D02*
X204470000Y-66040000D01*
X206502000Y-66548000D02*
X204470000Y-68580000D01*
X201930000Y-68580000D02*
X204470000Y-68580000D01*
X206502000Y-55372000D02*
X206502000Y-66548000D01*
X205740000Y-54610000D02*
X206502000Y-55372000D01*
X207264000Y-68326000D02*
X207264000Y-55626000D01*
X204470000Y-71120000D02*
X207264000Y-68326000D01*
X201930000Y-71120000D02*
X204470000Y-71120000D01*
X207264000Y-55626000D02*
X208280000Y-54610000D01*
X201930000Y-76200000D02*
X204470000Y-76200000D01*
X201930000Y-81280000D02*
X204470000Y-81280000D01*
X201930000Y-83820000D02*
X204470000Y-83820000D01*
X201930000Y-86360000D02*
X204470000Y-86360000D01*
X201930000Y-88900000D02*
X204470000Y-88900000D01*
X201930000Y-91440000D02*
X204470000Y-91440000D01*
X201930000Y-93980000D02*
X204470000Y-93980000D01*
X216408000Y-115650000D02*
X216408000Y-120142000D01*
X215138000Y-123952000D02*
X211328000Y-123952000D01*
X218948000Y-120142000D02*
X215138000Y-123952000D01*
X218948000Y-115650000D02*
X218948000Y-120142000D01*
X221488000Y-115650000D02*
X221488000Y-120142000D01*
G36*
X205887000Y-52197000D02*
X205867000Y-52197000D01*
X205867000Y-52217000D01*
X205613000Y-52217000D01*
X205613000Y-52197000D01*
X204406183Y-52197000D01*
X204285042Y-52429026D01*
X204457312Y-52844947D01*
X204714119Y-53126299D01*
X204516702Y-53208073D01*
X204338073Y-53386701D01*
X204241400Y-53620090D01*
X204241400Y-53872709D01*
X204241400Y-55599909D01*
X204338073Y-55833298D01*
X204516701Y-56011927D01*
X204750090Y-56108600D01*
X205002709Y-56108600D01*
X205740000Y-56108600D01*
X205740000Y-59869872D01*
X205404762Y-59645874D01*
X204860433Y-59537600D01*
X204079567Y-59537600D01*
X203535238Y-59645874D01*
X203450271Y-59702646D01*
X203305699Y-59558073D01*
X203072310Y-59461400D01*
X202819691Y-59461400D01*
X200787691Y-59461400D01*
X200787000Y-59461686D01*
X200787000Y-54290630D01*
X204150630Y-50927000D01*
X204793256Y-50927000D01*
X204457312Y-51295053D01*
X204285042Y-51710974D01*
X204406183Y-51943000D01*
X205613000Y-51943000D01*
X205613000Y-51923000D01*
X205867000Y-51923000D01*
X205867000Y-51943000D01*
X205887000Y-51943000D01*
X205887000Y-52197000D01*
X205887000Y-52197000D01*
G37*
X205887000Y-52197000D02*
X205867000Y-52197000D01*
X205867000Y-52217000D01*
X205613000Y-52217000D01*
X205613000Y-52197000D01*
X204406183Y-52197000D01*
X204285042Y-52429026D01*
X204457312Y-52844947D01*
X204714119Y-53126299D01*
X204516702Y-53208073D01*
X204338073Y-53386701D01*
X204241400Y-53620090D01*
X204241400Y-53872709D01*
X204241400Y-55599909D01*
X204338073Y-55833298D01*
X204516701Y-56011927D01*
X204750090Y-56108600D01*
X205002709Y-56108600D01*
X205740000Y-56108600D01*
X205740000Y-59869872D01*
X205404762Y-59645874D01*
X204860433Y-59537600D01*
X204079567Y-59537600D01*
X203535238Y-59645874D01*
X203450271Y-59702646D01*
X203305699Y-59558073D01*
X203072310Y-59461400D01*
X202819691Y-59461400D01*
X200787691Y-59461400D01*
X200787000Y-59461686D01*
X200787000Y-54290630D01*
X204150630Y-50927000D01*
X204793256Y-50927000D01*
X204457312Y-51295053D01*
X204285042Y-51710974D01*
X204406183Y-51943000D01*
X205613000Y-51943000D01*
X205613000Y-51923000D01*
X205867000Y-51923000D01*
X205867000Y-51943000D01*
X205887000Y-51943000D01*
X205887000Y-52197000D01*
G36*
X214593770Y-59461400D02*
X214445255Y-59461400D01*
X213871766Y-59575474D01*
X213395584Y-59893648D01*
X213024762Y-59645874D01*
X212480433Y-59537600D01*
X211699567Y-59537600D01*
X211155238Y-59645874D01*
X210693778Y-59954211D01*
X210385441Y-60415671D01*
X210277167Y-60960000D01*
X210385441Y-61504329D01*
X210693778Y-61965789D01*
X211089198Y-62229999D01*
X210693778Y-62494211D01*
X210385441Y-62955671D01*
X210277167Y-63500000D01*
X210385441Y-64044329D01*
X210693778Y-64505789D01*
X211089198Y-64769999D01*
X210693778Y-65034211D01*
X210385441Y-65495671D01*
X210379158Y-65527254D01*
X210338689Y-65429311D01*
X210035286Y-65125378D01*
X209638668Y-64960687D01*
X209209216Y-64960313D01*
X208812311Y-65124311D01*
X208508378Y-65427714D01*
X208343687Y-65824332D01*
X208343313Y-66253784D01*
X208507311Y-66650689D01*
X208661000Y-66804646D01*
X208661000Y-68072000D01*
X208471191Y-68072000D01*
X208237802Y-68168673D01*
X208059173Y-68347301D01*
X207987200Y-68521057D01*
X208026000Y-68326000D01*
X208026000Y-56063916D01*
X208250641Y-56108600D01*
X208309359Y-56108600D01*
X208882848Y-55994526D01*
X209369029Y-55669670D01*
X209550000Y-55398827D01*
X209730971Y-55669670D01*
X210217152Y-55994526D01*
X210790641Y-56108600D01*
X210849359Y-56108600D01*
X211175997Y-56043627D01*
X214593770Y-59461400D01*
X214593770Y-59461400D01*
G37*
X214593770Y-59461400D02*
X214445255Y-59461400D01*
X213871766Y-59575474D01*
X213395584Y-59893648D01*
X213024762Y-59645874D01*
X212480433Y-59537600D01*
X211699567Y-59537600D01*
X211155238Y-59645874D01*
X210693778Y-59954211D01*
X210385441Y-60415671D01*
X210277167Y-60960000D01*
X210385441Y-61504329D01*
X210693778Y-61965789D01*
X211089198Y-62229999D01*
X210693778Y-62494211D01*
X210385441Y-62955671D01*
X210277167Y-63500000D01*
X210385441Y-64044329D01*
X210693778Y-64505789D01*
X211089198Y-64769999D01*
X210693778Y-65034211D01*
X210385441Y-65495671D01*
X210379158Y-65527254D01*
X210338689Y-65429311D01*
X210035286Y-65125378D01*
X209638668Y-64960687D01*
X209209216Y-64960313D01*
X208812311Y-65124311D01*
X208508378Y-65427714D01*
X208343687Y-65824332D01*
X208343313Y-66253784D01*
X208507311Y-66650689D01*
X208661000Y-66804646D01*
X208661000Y-68072000D01*
X208471191Y-68072000D01*
X208237802Y-68168673D01*
X208059173Y-68347301D01*
X207987200Y-68521057D01*
X208026000Y-68326000D01*
X208026000Y-56063916D01*
X208250641Y-56108600D01*
X208309359Y-56108600D01*
X208882848Y-55994526D01*
X209369029Y-55669670D01*
X209550000Y-55398827D01*
X209730971Y-55669670D01*
X210217152Y-55994526D01*
X210790641Y-56108600D01*
X210849359Y-56108600D01*
X211175997Y-56043627D01*
X214593770Y-59461400D01*
G36*
X216217500Y-98299869D02*
X213320030Y-95402400D01*
X213359309Y-95402400D01*
X213592698Y-95305727D01*
X213771327Y-95127099D01*
X213868000Y-94893710D01*
X213868000Y-94641091D01*
X213868000Y-93066291D01*
X213815108Y-92938600D01*
X215772309Y-92938600D01*
X216005698Y-92841927D01*
X216184327Y-92663299D01*
X216217500Y-92583212D01*
X216217500Y-98299869D01*
X216217500Y-98299869D01*
G37*
X216217500Y-98299869D02*
X213320030Y-95402400D01*
X213359309Y-95402400D01*
X213592698Y-95305727D01*
X213771327Y-95127099D01*
X213868000Y-94893710D01*
X213868000Y-94641091D01*
X213868000Y-93066291D01*
X213815108Y-92938600D01*
X215772309Y-92938600D01*
X216005698Y-92841927D01*
X216184327Y-92663299D01*
X216217500Y-92583212D01*
X216217500Y-98299869D01*
G36*
X218087193Y-114300000D02*
X217938302Y-114361673D01*
X217759673Y-114540301D01*
X217677999Y-114737477D01*
X217596327Y-114540302D01*
X217417699Y-114361673D01*
X217268806Y-114299999D01*
X217417698Y-114238327D01*
X217596327Y-114059699D01*
X217678000Y-113862522D01*
X217759673Y-114059698D01*
X217938301Y-114238327D01*
X218087193Y-114300000D01*
X218087193Y-114300000D01*
G37*
X218087193Y-114300000D02*
X217938302Y-114361673D01*
X217759673Y-114540301D01*
X217677999Y-114737477D01*
X217596327Y-114540302D01*
X217417699Y-114361673D01*
X217268806Y-114299999D01*
X217417698Y-114238327D01*
X217596327Y-114059699D01*
X217678000Y-113862522D01*
X217759673Y-114059698D01*
X217938301Y-114238327D01*
X218087193Y-114300000D01*
G36*
X219837000Y-111611677D02*
X219724310Y-111565000D01*
X219471691Y-111565000D01*
X219233750Y-111565000D01*
X219075000Y-111723750D01*
X219075000Y-112823000D01*
X219095000Y-112823000D01*
X219095000Y-113077000D01*
X219075000Y-113077000D01*
X219075000Y-113097000D01*
X218821000Y-113097000D01*
X218821000Y-113077000D01*
X218801000Y-113077000D01*
X218801000Y-112823000D01*
X218821000Y-112823000D01*
X218821000Y-111723750D01*
X218662250Y-111565000D01*
X218424309Y-111565000D01*
X218171690Y-111565000D01*
X217938301Y-111661673D01*
X217759673Y-111840302D01*
X217678000Y-112037477D01*
X217596327Y-111840302D01*
X217417699Y-111661673D01*
X217184310Y-111565000D01*
X217170000Y-111565000D01*
X217170000Y-110617000D01*
X217864000Y-110617000D01*
X217864000Y-110759691D01*
X217864000Y-111012310D01*
X217960673Y-111245699D01*
X218139302Y-111424327D01*
X218372691Y-111521000D01*
X218963250Y-111521000D01*
X219122000Y-111362250D01*
X219122000Y-110363000D01*
X219102000Y-110363000D01*
X219102000Y-110109000D01*
X219122000Y-110109000D01*
X219122000Y-110089000D01*
X219376000Y-110089000D01*
X219376000Y-110109000D01*
X219396000Y-110109000D01*
X219396000Y-110363000D01*
X219376000Y-110363000D01*
X219376000Y-111362250D01*
X219534750Y-111521000D01*
X219837000Y-111521000D01*
X219837000Y-111611677D01*
X219837000Y-111611677D01*
G37*
X219837000Y-111611677D02*
X219724310Y-111565000D01*
X219471691Y-111565000D01*
X219233750Y-111565000D01*
X219075000Y-111723750D01*
X219075000Y-112823000D01*
X219095000Y-112823000D01*
X219095000Y-113077000D01*
X219075000Y-113077000D01*
X219075000Y-113097000D01*
X218821000Y-113097000D01*
X218821000Y-113077000D01*
X218801000Y-113077000D01*
X218801000Y-112823000D01*
X218821000Y-112823000D01*
X218821000Y-111723750D01*
X218662250Y-111565000D01*
X218424309Y-111565000D01*
X218171690Y-111565000D01*
X217938301Y-111661673D01*
X217759673Y-111840302D01*
X217678000Y-112037477D01*
X217596327Y-111840302D01*
X217417699Y-111661673D01*
X217184310Y-111565000D01*
X217170000Y-111565000D01*
X217170000Y-110617000D01*
X217864000Y-110617000D01*
X217864000Y-110759691D01*
X217864000Y-111012310D01*
X217960673Y-111245699D01*
X218139302Y-111424327D01*
X218372691Y-111521000D01*
X218963250Y-111521000D01*
X219122000Y-111362250D01*
X219122000Y-110363000D01*
X219102000Y-110363000D01*
X219102000Y-110109000D01*
X219122000Y-110109000D01*
X219122000Y-110089000D01*
X219376000Y-110089000D01*
X219376000Y-110109000D01*
X219396000Y-110109000D01*
X219396000Y-110363000D01*
X219376000Y-110363000D01*
X219376000Y-111362250D01*
X219534750Y-111521000D01*
X219837000Y-111521000D01*
X219837000Y-111611677D01*
G36*
X232360000Y-104072533D02*
X230514621Y-113349880D01*
X227390960Y-118024768D01*
X227390960Y-116676750D01*
X227390960Y-116424131D01*
X227390960Y-115225251D01*
X227294287Y-114991862D01*
X227115659Y-114813233D01*
X226918520Y-114731575D01*
X226918520Y-111221520D01*
X226860516Y-110929916D01*
X226860516Y-110929915D01*
X226794354Y-110830896D01*
X226695336Y-110682705D01*
X225709815Y-109697185D01*
X225462605Y-109532004D01*
X225171000Y-109474000D01*
X223334000Y-109474000D01*
X223334000Y-109459691D01*
X223237327Y-109226302D01*
X223058699Y-109047673D01*
X222825310Y-108951000D01*
X222572691Y-108951000D01*
X221233241Y-108951000D01*
X221137815Y-108808185D01*
X221137815Y-108808184D01*
X220756815Y-108427185D01*
X220509605Y-108262004D01*
X220218000Y-108204000D01*
X218440000Y-108204000D01*
X218440000Y-107823691D01*
X218343327Y-107590302D01*
X218328000Y-107574974D01*
X218328000Y-105604309D01*
X218328000Y-105013750D01*
X218169250Y-104855000D01*
X217170000Y-104855000D01*
X217170000Y-105954250D01*
X217328750Y-106113000D01*
X217566691Y-106113000D01*
X217819310Y-106113000D01*
X218052699Y-106016327D01*
X218231327Y-105837698D01*
X218328000Y-105604309D01*
X218328000Y-107574974D01*
X218164699Y-107411673D01*
X217931310Y-107315000D01*
X217678691Y-107315000D01*
X216916000Y-107315000D01*
X216916000Y-105954250D01*
X216916000Y-104855000D01*
X215916750Y-104855000D01*
X215758000Y-105013750D01*
X215758000Y-105604309D01*
X215854673Y-105837698D01*
X216033301Y-106016327D01*
X216266690Y-106113000D01*
X216519309Y-106113000D01*
X216757250Y-106113000D01*
X216916000Y-105954250D01*
X216916000Y-107315000D01*
X216154691Y-107315000D01*
X215921302Y-107411673D01*
X215742673Y-107590301D01*
X215646000Y-107823690D01*
X215646000Y-108076309D01*
X215646000Y-109601000D01*
X215646000Y-110108309D01*
X215646000Y-111565000D01*
X215631691Y-111565000D01*
X215398302Y-111661673D01*
X215219673Y-111840301D01*
X215138000Y-112037476D01*
X215138000Y-110108310D01*
X215138000Y-109855691D01*
X215138000Y-109251750D01*
X215138000Y-108680250D01*
X215138000Y-108076309D01*
X215138000Y-107823690D01*
X215041327Y-107590301D01*
X214862698Y-107411673D01*
X214629309Y-107315000D01*
X214026750Y-107315000D01*
X213868000Y-107473750D01*
X213868000Y-108839000D01*
X214979250Y-108839000D01*
X215138000Y-108680250D01*
X215138000Y-109251750D01*
X214979250Y-109093000D01*
X213868000Y-109093000D01*
X213868000Y-110458250D01*
X214026750Y-110617000D01*
X214629309Y-110617000D01*
X214862698Y-110520327D01*
X215041327Y-110341699D01*
X215138000Y-110108310D01*
X215138000Y-112037476D01*
X215123000Y-112073690D01*
X215123000Y-112326309D01*
X215123000Y-113826309D01*
X215219673Y-114059698D01*
X215398301Y-114238327D01*
X215547193Y-114300000D01*
X215398302Y-114361673D01*
X215219673Y-114540301D01*
X215123000Y-114773690D01*
X215123000Y-115026309D01*
X215123000Y-116526309D01*
X215219673Y-116759698D01*
X215398301Y-116938327D01*
X215631690Y-117035000D01*
X215646000Y-117035000D01*
X215646000Y-118491000D01*
X215418091Y-118491000D01*
X215184702Y-118587673D01*
X215006073Y-118766301D01*
X214909400Y-118999690D01*
X214909400Y-119252309D01*
X214909400Y-121284309D01*
X215006073Y-121517698D01*
X215184701Y-121696327D01*
X215418090Y-121793000D01*
X215670709Y-121793000D01*
X216219369Y-121793000D01*
X214822369Y-123190000D01*
X212926108Y-123190000D01*
X212882327Y-123084302D01*
X212703699Y-122905673D01*
X212470310Y-122809000D01*
X212703699Y-122712327D01*
X212882327Y-122533698D01*
X212979000Y-122300309D01*
X212979000Y-121951750D01*
X212979000Y-121380250D01*
X212979000Y-121031691D01*
X212882327Y-120798302D01*
X212703699Y-120619673D01*
X212470310Y-120523000D01*
X212470309Y-120523000D01*
X212703698Y-120426327D01*
X212882327Y-120247699D01*
X212979000Y-120014310D01*
X212979000Y-119761691D01*
X212979000Y-118745691D01*
X212882327Y-118512302D01*
X212703699Y-118333673D01*
X212470310Y-118237000D01*
X212217691Y-118237000D01*
X210185691Y-118237000D01*
X209952302Y-118333673D01*
X209773673Y-118512301D01*
X209729890Y-118618000D01*
X203515630Y-118618000D01*
X202565000Y-117667369D01*
X202565000Y-117094691D01*
X202565000Y-115569310D01*
X202565000Y-115316691D01*
X202565000Y-113792691D01*
X202468327Y-113559302D01*
X202289699Y-113380673D01*
X202056310Y-113284000D01*
X201803691Y-113284000D01*
X201424646Y-113284000D01*
X201574622Y-113134286D01*
X201739313Y-112737668D01*
X201739687Y-112308216D01*
X201575689Y-111911311D01*
X201272286Y-111607378D01*
X200875668Y-111442687D01*
X200601639Y-111442448D01*
X200601639Y-102755856D01*
X200163350Y-101695114D01*
X199352495Y-100882843D01*
X198292520Y-100442702D01*
X197144796Y-100441701D01*
X196084054Y-100879990D01*
X195271783Y-101690845D01*
X194831642Y-102750820D01*
X194830641Y-103898544D01*
X195268930Y-104959286D01*
X195563064Y-105253934D01*
X195292780Y-105141702D01*
X194145056Y-105140701D01*
X193869509Y-105254554D01*
X194161017Y-104963555D01*
X194601158Y-103903580D01*
X194602159Y-102755856D01*
X194163870Y-101695114D01*
X193353015Y-100882843D01*
X192293040Y-100442702D01*
X191145316Y-100441701D01*
X190084574Y-100879990D01*
X189272303Y-101690845D01*
X188832162Y-102750820D01*
X188831161Y-103898544D01*
X189269450Y-104959286D01*
X190080305Y-105771557D01*
X191140280Y-106211698D01*
X192288004Y-106212699D01*
X192563550Y-106098845D01*
X192272043Y-106389845D01*
X191831902Y-107449820D01*
X191830901Y-108597544D01*
X192269190Y-109658286D01*
X193080045Y-110470557D01*
X194140020Y-110910698D01*
X195287744Y-110911699D01*
X196348486Y-110473410D01*
X197160757Y-109662555D01*
X197358000Y-109187542D01*
X197358000Y-111652460D01*
X196990173Y-112019647D01*
X196786732Y-112509587D01*
X196786269Y-113040086D01*
X196988854Y-113530380D01*
X197363647Y-113905827D01*
X197853587Y-114109268D01*
X198384086Y-114109731D01*
X198874380Y-113907146D01*
X199249827Y-113532353D01*
X199453268Y-113042413D01*
X199453731Y-112511914D01*
X199251146Y-112021620D01*
X198882000Y-111651829D01*
X198882000Y-106832400D01*
X198823996Y-106540795D01*
X198658815Y-106293585D01*
X198658815Y-106293584D01*
X198493008Y-106127778D01*
X199348226Y-105774410D01*
X200160497Y-104963555D01*
X200600638Y-103903580D01*
X200601639Y-102755856D01*
X200601639Y-111442448D01*
X200446216Y-111442313D01*
X200049311Y-111606311D01*
X199745378Y-111909714D01*
X199580687Y-112306332D01*
X199580313Y-112735784D01*
X199744311Y-113132689D01*
X199895358Y-113284000D01*
X199771691Y-113284000D01*
X199538302Y-113380673D01*
X199359673Y-113559301D01*
X199263000Y-113792690D01*
X199263000Y-114045309D01*
X199263000Y-115569309D01*
X199359673Y-115802698D01*
X199538301Y-115981327D01*
X199771690Y-116078000D01*
X200024309Y-116078000D01*
X202056309Y-116078000D01*
X202289698Y-115981327D01*
X202468327Y-115802699D01*
X202565000Y-115569310D01*
X202565000Y-117094691D01*
X202468327Y-116861302D01*
X202289699Y-116682673D01*
X202056310Y-116586000D01*
X201803691Y-116586000D01*
X199771691Y-116586000D01*
X199538302Y-116682673D01*
X199359673Y-116861301D01*
X199263000Y-117094690D01*
X199263000Y-117221000D01*
X197649000Y-117221000D01*
X197649000Y-115392691D01*
X197552327Y-115159302D01*
X197373699Y-114980673D01*
X197140310Y-114884000D01*
X196887691Y-114884000D01*
X195187691Y-114884000D01*
X194954302Y-114980673D01*
X194775673Y-115159301D01*
X194679000Y-115392690D01*
X194679000Y-115645309D01*
X194679000Y-118795309D01*
X194775673Y-119028698D01*
X194954301Y-119207327D01*
X195187690Y-119304000D01*
X195440309Y-119304000D01*
X197140309Y-119304000D01*
X197373698Y-119207327D01*
X197552327Y-119028699D01*
X197649000Y-118795310D01*
X197649000Y-118745000D01*
X199263000Y-118745000D01*
X199263000Y-118871309D01*
X199359673Y-119104698D01*
X199538301Y-119283327D01*
X199771690Y-119380000D01*
X200024309Y-119380000D01*
X202056309Y-119380000D01*
X202103020Y-119360651D01*
X202661184Y-119918815D01*
X202661185Y-119918815D01*
X202908395Y-120083996D01*
X203073000Y-120116738D01*
X203073000Y-123621109D01*
X203169673Y-123854498D01*
X203348301Y-124033127D01*
X203581690Y-124129800D01*
X203834309Y-124129800D01*
X205866309Y-124129800D01*
X206099698Y-124033127D01*
X206278327Y-123854499D01*
X206375000Y-123621110D01*
X206375000Y-123368491D01*
X206375000Y-120142000D01*
X209729891Y-120142000D01*
X209773673Y-120247698D01*
X209952301Y-120426327D01*
X210185690Y-120523000D01*
X209952301Y-120619673D01*
X209773673Y-120798302D01*
X209677000Y-121031691D01*
X209677000Y-121380250D01*
X209835750Y-121539000D01*
X211201000Y-121539000D01*
X211201000Y-120681750D01*
X211042250Y-120523000D01*
X211613750Y-120523000D01*
X211455000Y-120681750D01*
X211455000Y-121539000D01*
X212820250Y-121539000D01*
X212979000Y-121380250D01*
X212979000Y-121951750D01*
X212820250Y-121793000D01*
X211455000Y-121793000D01*
X211455000Y-121813000D01*
X211201000Y-121813000D01*
X211201000Y-121793000D01*
X209835750Y-121793000D01*
X209677000Y-121951750D01*
X209677000Y-122300309D01*
X209773673Y-122533698D01*
X209952301Y-122712327D01*
X210185690Y-122809000D01*
X209952302Y-122905673D01*
X209773673Y-123084301D01*
X209677000Y-123317690D01*
X209677000Y-123570309D01*
X209677000Y-124586309D01*
X209773673Y-124819698D01*
X209952301Y-124998327D01*
X210185690Y-125095000D01*
X210438309Y-125095000D01*
X212470309Y-125095000D01*
X212703698Y-124998327D01*
X212882327Y-124819699D01*
X212926109Y-124714000D01*
X215138000Y-124714000D01*
X215138000Y-124713999D01*
X215429604Y-124655996D01*
X215429605Y-124655996D01*
X215676815Y-124490815D01*
X218442780Y-121724850D01*
X218948000Y-121825345D01*
X219521489Y-121711271D01*
X220007670Y-121386415D01*
X220218000Y-121071634D01*
X220428330Y-121386415D01*
X220914511Y-121711271D01*
X221488000Y-121825345D01*
X222061489Y-121711271D01*
X222547670Y-121386415D01*
X222872526Y-120900234D01*
X222986600Y-120326745D01*
X222986600Y-119957255D01*
X222872526Y-119383766D01*
X222547670Y-118897585D01*
X222250000Y-118698688D01*
X222250000Y-117035000D01*
X222264309Y-117035000D01*
X222497698Y-116938327D01*
X222676327Y-116759699D01*
X222773000Y-116526310D01*
X222773000Y-116273691D01*
X222773000Y-114773691D01*
X222676327Y-114540302D01*
X222497699Y-114361673D01*
X222348806Y-114299999D01*
X222497698Y-114238327D01*
X222676327Y-114059699D01*
X222773000Y-113826310D01*
X222773000Y-113712000D01*
X223262130Y-113712000D01*
X223296480Y-113746409D01*
X223296480Y-114731575D01*
X223099342Y-114813233D01*
X222920713Y-114991861D01*
X222824040Y-115225250D01*
X222824040Y-115477869D01*
X222824040Y-116676749D01*
X222920713Y-116910138D01*
X223099341Y-117088767D01*
X223332730Y-117185440D01*
X223585349Y-117185440D01*
X224784229Y-117185440D01*
X225017618Y-117088767D01*
X225107500Y-116998885D01*
X225197381Y-117088767D01*
X225430770Y-117185440D01*
X225683389Y-117185440D01*
X226882269Y-117185440D01*
X227115658Y-117088767D01*
X227294287Y-116910139D01*
X227390960Y-116676750D01*
X227390960Y-118024768D01*
X225297641Y-121157641D01*
X217489880Y-126374621D01*
X208279999Y-128206580D01*
X199070119Y-126374621D01*
X194549000Y-123353705D01*
X194549000Y-118795310D01*
X194549000Y-118542691D01*
X194549000Y-115392691D01*
X194452327Y-115159302D01*
X194273699Y-114980673D01*
X194040310Y-114884000D01*
X193787691Y-114884000D01*
X192087691Y-114884000D01*
X191977339Y-114929709D01*
X191262000Y-114214369D01*
X191262000Y-114109500D01*
X191324809Y-114109500D01*
X191558198Y-114012827D01*
X191736827Y-113834199D01*
X191833500Y-113600810D01*
X191833500Y-113348191D01*
X191833500Y-111951191D01*
X191736827Y-111717802D01*
X191558199Y-111539173D01*
X191324810Y-111442500D01*
X191072191Y-111442500D01*
X189675191Y-111442500D01*
X189441802Y-111539173D01*
X189263173Y-111717801D01*
X189166500Y-111951190D01*
X189166500Y-112203809D01*
X189166500Y-113600809D01*
X189263173Y-113834198D01*
X189441801Y-114012827D01*
X189675190Y-114109500D01*
X189738000Y-114109500D01*
X189738000Y-114530000D01*
X189796004Y-114821605D01*
X189961185Y-115068815D01*
X191579000Y-116686630D01*
X191579000Y-118795309D01*
X191675673Y-119028698D01*
X191854301Y-119207327D01*
X192087690Y-119304000D01*
X192340309Y-119304000D01*
X194040309Y-119304000D01*
X194273698Y-119207327D01*
X194452327Y-119028699D01*
X194549000Y-118795310D01*
X194549000Y-123353705D01*
X191262358Y-121157641D01*
X186045378Y-113349880D01*
X184200000Y-104072532D01*
X184200000Y-99110000D01*
X198755000Y-99110000D01*
X199017138Y-99057857D01*
X199239368Y-98909368D01*
X199387857Y-98687138D01*
X199440000Y-98425000D01*
X199440000Y-64604694D01*
X199486185Y-64673815D01*
X200347149Y-65534779D01*
X200246655Y-66040000D01*
X200360729Y-66613489D01*
X200685585Y-67099670D01*
X201000365Y-67310000D01*
X200685585Y-67520330D01*
X200360729Y-68006511D01*
X200246655Y-68580000D01*
X200360729Y-69153489D01*
X200685585Y-69639670D01*
X201000365Y-69850000D01*
X200685585Y-70060330D01*
X200360729Y-70546511D01*
X200246655Y-71120000D01*
X200360729Y-71693489D01*
X200685585Y-72179670D01*
X201171766Y-72504526D01*
X201745255Y-72618600D01*
X202114745Y-72618600D01*
X202688234Y-72504526D01*
X203164415Y-72186351D01*
X203468829Y-72389753D01*
X203452738Y-72394475D01*
X203018809Y-72744014D01*
X202751673Y-73233004D01*
X202734990Y-73312940D01*
X202857148Y-73533000D01*
X204343000Y-73533000D01*
X204343000Y-73513000D01*
X204597000Y-73513000D01*
X204597000Y-73533000D01*
X205771750Y-73533000D01*
X205835250Y-73596500D01*
X206883000Y-73596500D01*
X206883000Y-72802750D01*
X206724250Y-72644000D01*
X206437809Y-72644000D01*
X206185190Y-72644000D01*
X205951801Y-72740673D01*
X205930825Y-72761649D01*
X205921191Y-72744014D01*
X205487262Y-72394475D01*
X205471170Y-72389753D01*
X205866222Y-72125789D01*
X206174559Y-71664329D01*
X206282833Y-71120000D01*
X206174559Y-70575671D01*
X206141474Y-70526156D01*
X207802815Y-68864815D01*
X207802816Y-68864815D01*
X207901834Y-68716623D01*
X207962500Y-68625830D01*
X207962500Y-68833309D01*
X207962500Y-69722309D01*
X208059173Y-69955698D01*
X208207474Y-70104000D01*
X208059173Y-70252301D01*
X207962500Y-70485690D01*
X207962500Y-70738309D01*
X207962500Y-71627309D01*
X208059173Y-71860698D01*
X208237801Y-72039327D01*
X208471190Y-72136000D01*
X208723809Y-72136000D01*
X210120809Y-72136000D01*
X210354198Y-72039327D01*
X210523130Y-71870395D01*
X210693778Y-72125789D01*
X211089198Y-72389999D01*
X210693778Y-72654211D01*
X210523129Y-72909604D01*
X210354199Y-72740673D01*
X210120810Y-72644000D01*
X209868191Y-72644000D01*
X208471191Y-72644000D01*
X208237802Y-72740673D01*
X208153000Y-72825474D01*
X208068199Y-72740673D01*
X207834810Y-72644000D01*
X207582191Y-72644000D01*
X207295750Y-72644000D01*
X207137000Y-72802750D01*
X207137000Y-73596500D01*
X207157000Y-73596500D01*
X207157000Y-73850500D01*
X207137000Y-73850500D01*
X207137000Y-73870500D01*
X206883000Y-73870500D01*
X206883000Y-73850500D01*
X206118101Y-73850500D01*
X206082852Y-73787000D01*
X204597000Y-73787000D01*
X204597000Y-73807000D01*
X204343000Y-73807000D01*
X204343000Y-73787000D01*
X202857148Y-73787000D01*
X202734990Y-74007060D01*
X202751673Y-74086996D01*
X203018809Y-74575986D01*
X203282676Y-74788536D01*
X203072310Y-74701400D01*
X202819691Y-74701400D01*
X200787691Y-74701400D01*
X200554302Y-74798073D01*
X200375673Y-74976701D01*
X200279000Y-75210090D01*
X200279000Y-75462709D01*
X200279000Y-77189909D01*
X200375673Y-77423298D01*
X200554301Y-77601927D01*
X200707779Y-77665500D01*
X200685585Y-77680330D01*
X200360729Y-78166511D01*
X200246655Y-78740000D01*
X200360729Y-79313489D01*
X200685585Y-79799670D01*
X201000365Y-80010000D01*
X200685585Y-80220330D01*
X200360729Y-80706511D01*
X200246655Y-81280000D01*
X200360729Y-81853489D01*
X200685585Y-82339670D01*
X201000365Y-82550000D01*
X200685585Y-82760330D01*
X200360729Y-83246511D01*
X200246655Y-83820000D01*
X200360729Y-84393489D01*
X200685585Y-84879670D01*
X201000365Y-85090000D01*
X200685585Y-85300330D01*
X200360729Y-85786511D01*
X200246655Y-86360000D01*
X200360729Y-86933489D01*
X200685585Y-87419670D01*
X201000365Y-87630000D01*
X200685585Y-87840330D01*
X200360729Y-88326511D01*
X200246655Y-88900000D01*
X200360729Y-89473489D01*
X200685585Y-89959670D01*
X201000365Y-90170000D01*
X200685585Y-90380330D01*
X200360729Y-90866511D01*
X200246655Y-91440000D01*
X200360729Y-92013489D01*
X200685585Y-92499670D01*
X201000365Y-92710000D01*
X200685585Y-92920330D01*
X200360729Y-93406511D01*
X200246655Y-93980000D01*
X200360729Y-94553489D01*
X200685585Y-95039670D01*
X201171766Y-95364526D01*
X201745255Y-95478600D01*
X202114745Y-95478600D01*
X202688234Y-95364526D01*
X203164415Y-95046351D01*
X203535238Y-95294126D01*
X204079567Y-95402400D01*
X204860433Y-95402400D01*
X205404762Y-95294126D01*
X205866222Y-94985789D01*
X206174559Y-94524329D01*
X206282833Y-93980000D01*
X206174559Y-93435671D01*
X205866222Y-92974211D01*
X205470801Y-92709999D01*
X205866222Y-92445789D01*
X206174559Y-91984329D01*
X206282833Y-91440000D01*
X206174559Y-90895671D01*
X205866222Y-90434211D01*
X205470801Y-90169999D01*
X205866222Y-89905789D01*
X206174559Y-89444329D01*
X206282833Y-88900000D01*
X206174559Y-88355671D01*
X205866222Y-87894211D01*
X205470801Y-87629999D01*
X205866222Y-87365789D01*
X206174559Y-86904329D01*
X206282833Y-86360000D01*
X206174559Y-85815671D01*
X205866222Y-85354211D01*
X205470801Y-85089999D01*
X205866222Y-84825789D01*
X206174559Y-84364329D01*
X206282833Y-83820000D01*
X206174559Y-83275671D01*
X205866222Y-82814211D01*
X205470801Y-82549999D01*
X205866222Y-82285789D01*
X206174559Y-81824329D01*
X206282833Y-81280000D01*
X206174559Y-80735671D01*
X205866222Y-80274211D01*
X205470801Y-80009999D01*
X205866222Y-79745789D01*
X206174559Y-79284329D01*
X206282833Y-78740000D01*
X206266208Y-78656421D01*
X207548815Y-77373815D01*
X207713996Y-77126605D01*
X207713996Y-77126604D01*
X207772000Y-76835000D01*
X207772000Y-76708000D01*
X207834809Y-76708000D01*
X208068198Y-76611327D01*
X208152999Y-76526525D01*
X208237801Y-76611327D01*
X208471190Y-76708000D01*
X208723809Y-76708000D01*
X209297870Y-76708000D01*
X209328685Y-76738815D01*
X209575895Y-76903996D01*
X209867500Y-76962000D01*
X210530883Y-76962000D01*
X210693778Y-77205789D01*
X211088829Y-77469753D01*
X211072738Y-77474475D01*
X210638809Y-77824014D01*
X210371673Y-78313004D01*
X210354990Y-78392940D01*
X210477148Y-78613000D01*
X211963000Y-78613000D01*
X211963000Y-78593000D01*
X212217000Y-78593000D01*
X212217000Y-78613000D01*
X213143783Y-78613000D01*
X213702852Y-78613000D01*
X214503000Y-78613000D01*
X214503000Y-78593000D01*
X214757000Y-78593000D01*
X214757000Y-78613000D01*
X214777000Y-78613000D01*
X214777000Y-78867000D01*
X214757000Y-78867000D01*
X214757000Y-78887000D01*
X214503000Y-78887000D01*
X214503000Y-78867000D01*
X213702852Y-78867000D01*
X213143783Y-78867000D01*
X212217000Y-78867000D01*
X212217000Y-78887000D01*
X211963000Y-78887000D01*
X211963000Y-78867000D01*
X210477148Y-78867000D01*
X210354990Y-79087060D01*
X210371673Y-79166996D01*
X210638809Y-79655986D01*
X211072738Y-80005525D01*
X211088829Y-80010246D01*
X210693778Y-80274211D01*
X210530883Y-80518000D01*
X210058000Y-80518000D01*
X209766395Y-80576004D01*
X209519184Y-80741185D01*
X207519868Y-82740500D01*
X207304216Y-82740313D01*
X206907311Y-82904311D01*
X206603378Y-83207714D01*
X206438687Y-83604332D01*
X206438313Y-84033784D01*
X206602311Y-84430689D01*
X206905714Y-84734622D01*
X207302332Y-84899313D01*
X207731784Y-84899687D01*
X208128689Y-84735689D01*
X208432622Y-84432286D01*
X208597313Y-84035668D01*
X208597502Y-83818127D01*
X210373630Y-82042000D01*
X210530883Y-82042000D01*
X210693778Y-82285789D01*
X211089198Y-82549999D01*
X210693778Y-82814211D01*
X210385441Y-83275671D01*
X210277167Y-83820000D01*
X210385441Y-84364329D01*
X210693778Y-84825789D01*
X211089198Y-85089999D01*
X210693778Y-85354211D01*
X210385441Y-85815671D01*
X210277167Y-86360000D01*
X210385441Y-86904329D01*
X210693778Y-87365789D01*
X211089198Y-87629999D01*
X210693778Y-87894211D01*
X210462874Y-88239783D01*
X210462873Y-88239784D01*
X210281185Y-88361185D01*
X209265185Y-89377185D01*
X209100004Y-89624395D01*
X209042000Y-89916000D01*
X209042000Y-93664369D01*
X205106869Y-97599500D01*
X204891216Y-97599313D01*
X204494311Y-97763311D01*
X204190378Y-98066714D01*
X204025687Y-98463332D01*
X204025313Y-98892784D01*
X204189311Y-99289689D01*
X204492714Y-99593622D01*
X204889332Y-99758313D01*
X205318784Y-99758687D01*
X205715689Y-99594689D01*
X206019622Y-99291286D01*
X206184313Y-98894668D01*
X206184502Y-98677127D01*
X209677000Y-95184630D01*
X209677000Y-96520000D01*
X209735004Y-96811605D01*
X209900185Y-97058815D01*
X211836000Y-98994630D01*
X211836000Y-106745369D01*
X211678185Y-106903185D01*
X211513004Y-107150395D01*
X211455000Y-107442000D01*
X211455000Y-115000369D01*
X211393369Y-115062000D01*
X210828183Y-115062000D01*
X210609670Y-114734971D01*
X210338827Y-114554000D01*
X210609670Y-114373029D01*
X210934526Y-113886848D01*
X211048600Y-113313359D01*
X211048600Y-113254641D01*
X210934526Y-112681152D01*
X210609670Y-112194971D01*
X210338839Y-112014007D01*
X210756821Y-111632490D01*
X211004968Y-111103027D01*
X210884469Y-110871000D01*
X209677000Y-110871000D01*
X209677000Y-110891000D01*
X209423000Y-110891000D01*
X209423000Y-110871000D01*
X209403000Y-110871000D01*
X209403000Y-110617000D01*
X209423000Y-110617000D01*
X209423000Y-110597000D01*
X209677000Y-110597000D01*
X209677000Y-110617000D01*
X210884469Y-110617000D01*
X211004968Y-110384973D01*
X210756821Y-109855510D01*
X210338839Y-109473992D01*
X210609670Y-109293029D01*
X210934526Y-108806848D01*
X211048600Y-108233359D01*
X211048600Y-108174641D01*
X210934526Y-107601152D01*
X210609670Y-107114971D01*
X210338827Y-106934000D01*
X210609670Y-106753029D01*
X210934526Y-106266848D01*
X211048600Y-105693359D01*
X211048600Y-105634641D01*
X210934526Y-105061152D01*
X210619473Y-104589643D01*
X210773298Y-104525927D01*
X210951927Y-104347299D01*
X211048600Y-104113910D01*
X211048600Y-103861291D01*
X211048600Y-102134091D01*
X210951927Y-101900702D01*
X210773299Y-101722073D01*
X210539910Y-101625400D01*
X210287291Y-101625400D01*
X208560091Y-101625400D01*
X208326702Y-101722073D01*
X208148073Y-101900701D01*
X208083736Y-102056022D01*
X208069670Y-102034971D01*
X207583489Y-101710115D01*
X207010000Y-101596041D01*
X206436511Y-101710115D01*
X205950330Y-102034971D01*
X205625474Y-102521152D01*
X205511400Y-103094641D01*
X205511400Y-103153359D01*
X205625474Y-103726848D01*
X205950330Y-104213029D01*
X206221172Y-104394000D01*
X205950330Y-104574971D01*
X205625474Y-105061152D01*
X205511400Y-105634641D01*
X205511400Y-105693359D01*
X205625474Y-106266848D01*
X205950330Y-106753029D01*
X206221172Y-106934000D01*
X205950330Y-107114971D01*
X205625474Y-107601152D01*
X205511400Y-108174641D01*
X205511400Y-108233359D01*
X205625474Y-108806848D01*
X205950330Y-109293029D01*
X206221172Y-109474000D01*
X205950330Y-109654971D01*
X205625474Y-110141152D01*
X205511400Y-110714641D01*
X205511400Y-110773359D01*
X205625474Y-111346848D01*
X205950330Y-111833029D01*
X206221172Y-112014000D01*
X205950330Y-112194971D01*
X205625474Y-112681152D01*
X205511400Y-113254641D01*
X205511400Y-113313359D01*
X205625474Y-113886848D01*
X205950330Y-114373029D01*
X206221172Y-114554000D01*
X205950330Y-114734971D01*
X205625474Y-115221152D01*
X205511400Y-115794641D01*
X205511400Y-115853359D01*
X205625474Y-116426848D01*
X205950330Y-116913029D01*
X206436511Y-117237885D01*
X207010000Y-117351959D01*
X207583489Y-117237885D01*
X208069670Y-116913029D01*
X208280000Y-116598248D01*
X208490330Y-116913029D01*
X208976511Y-117237885D01*
X209550000Y-117351959D01*
X210123489Y-117237885D01*
X210609670Y-116913029D01*
X210828183Y-116586000D01*
X211709000Y-116586000D01*
X211709000Y-116585999D01*
X212000604Y-116527996D01*
X212000605Y-116527996D01*
X212247815Y-116362815D01*
X212755815Y-115854816D01*
X212755815Y-115854815D01*
X212920996Y-115607605D01*
X212978999Y-115316000D01*
X212979000Y-115316000D01*
X212979000Y-110617000D01*
X213455250Y-110617000D01*
X213614000Y-110458250D01*
X213614000Y-109093000D01*
X213594000Y-109093000D01*
X213594000Y-108839000D01*
X213614000Y-108839000D01*
X213614000Y-107473750D01*
X213455250Y-107315000D01*
X213309476Y-107315000D01*
X213359999Y-107061000D01*
X213360000Y-107061000D01*
X213360000Y-98679000D01*
X213301996Y-98387395D01*
X213136815Y-98140185D01*
X211201000Y-96204370D01*
X211201000Y-95402400D01*
X211358314Y-95402400D01*
X211386004Y-95541605D01*
X211551185Y-95788815D01*
X216217500Y-100455130D01*
X216217500Y-100663375D01*
X216033302Y-100739673D01*
X215854673Y-100918301D01*
X215758000Y-101151690D01*
X215758000Y-101404309D01*
X215758000Y-102904309D01*
X215854673Y-103137698D01*
X216033301Y-103316327D01*
X216182192Y-103378000D01*
X216033301Y-103439673D01*
X215854673Y-103618302D01*
X215758000Y-103851691D01*
X215758000Y-104442250D01*
X215916750Y-104601000D01*
X216916000Y-104601000D01*
X216916000Y-104581000D01*
X217170000Y-104581000D01*
X217170000Y-104601000D01*
X218169250Y-104601000D01*
X218328000Y-104442250D01*
X218328000Y-104390630D01*
X218870184Y-104932815D01*
X218870185Y-104932815D01*
X219117395Y-105097996D01*
X219409000Y-105156000D01*
X223087929Y-105156000D01*
X223017449Y-105226357D01*
X222783267Y-105790330D01*
X222782735Y-106400991D01*
X223015932Y-106965371D01*
X223447357Y-107397551D01*
X224011330Y-107631733D01*
X224621991Y-107632265D01*
X225186371Y-107399068D01*
X225618551Y-106967643D01*
X225852733Y-106403670D01*
X225853265Y-105793009D01*
X225620068Y-105228629D01*
X225547565Y-105156000D01*
X226799369Y-105156000D01*
X227327404Y-105684034D01*
X227283267Y-105790330D01*
X227282735Y-106400991D01*
X227515932Y-106965371D01*
X227947357Y-107397551D01*
X228056000Y-107442663D01*
X228056000Y-111250980D01*
X227949629Y-111294932D01*
X227517449Y-111726357D01*
X227283267Y-112290330D01*
X227282735Y-112900991D01*
X227515932Y-113465371D01*
X227947357Y-113897551D01*
X228511330Y-114131733D01*
X229121991Y-114132265D01*
X229686371Y-113899068D01*
X230118551Y-113467643D01*
X230352733Y-112903670D01*
X230353265Y-112293009D01*
X230120068Y-111728629D01*
X229688643Y-111296449D01*
X229580000Y-111251336D01*
X229580000Y-107443019D01*
X229686371Y-107399068D01*
X230118551Y-106967643D01*
X230352733Y-106403670D01*
X230353265Y-105793009D01*
X230120068Y-105228629D01*
X229688643Y-104796449D01*
X229124670Y-104562267D01*
X228514009Y-104561735D01*
X228405288Y-104606657D01*
X227653815Y-103855185D01*
X227406605Y-103690004D01*
X227115000Y-103632000D01*
X219724630Y-103632000D01*
X218328000Y-102235369D01*
X218328000Y-101151691D01*
X218231327Y-100918302D01*
X218052699Y-100739673D01*
X217819310Y-100643000D01*
X217741500Y-100643000D01*
X217741500Y-100139500D01*
X217741500Y-100076000D01*
X217741500Y-99097368D01*
X217805000Y-99110000D01*
X232360000Y-99110000D01*
X232360000Y-104072533D01*
X232360000Y-104072533D01*
G37*
X232360000Y-104072533D02*
X230514621Y-113349880D01*
X227390960Y-118024768D01*
X227390960Y-116676750D01*
X227390960Y-116424131D01*
X227390960Y-115225251D01*
X227294287Y-114991862D01*
X227115659Y-114813233D01*
X226918520Y-114731575D01*
X226918520Y-111221520D01*
X226860516Y-110929916D01*
X226860516Y-110929915D01*
X226794354Y-110830896D01*
X226695336Y-110682705D01*
X225709815Y-109697185D01*
X225462605Y-109532004D01*
X225171000Y-109474000D01*
X223334000Y-109474000D01*
X223334000Y-109459691D01*
X223237327Y-109226302D01*
X223058699Y-109047673D01*
X222825310Y-108951000D01*
X222572691Y-108951000D01*
X221233241Y-108951000D01*
X221137815Y-108808185D01*
X221137815Y-108808184D01*
X220756815Y-108427185D01*
X220509605Y-108262004D01*
X220218000Y-108204000D01*
X218440000Y-108204000D01*
X218440000Y-107823691D01*
X218343327Y-107590302D01*
X218328000Y-107574974D01*
X218328000Y-105604309D01*
X218328000Y-105013750D01*
X218169250Y-104855000D01*
X217170000Y-104855000D01*
X217170000Y-105954250D01*
X217328750Y-106113000D01*
X217566691Y-106113000D01*
X217819310Y-106113000D01*
X218052699Y-106016327D01*
X218231327Y-105837698D01*
X218328000Y-105604309D01*
X218328000Y-107574974D01*
X218164699Y-107411673D01*
X217931310Y-107315000D01*
X217678691Y-107315000D01*
X216916000Y-107315000D01*
X216916000Y-105954250D01*
X216916000Y-104855000D01*
X215916750Y-104855000D01*
X215758000Y-105013750D01*
X215758000Y-105604309D01*
X215854673Y-105837698D01*
X216033301Y-106016327D01*
X216266690Y-106113000D01*
X216519309Y-106113000D01*
X216757250Y-106113000D01*
X216916000Y-105954250D01*
X216916000Y-107315000D01*
X216154691Y-107315000D01*
X215921302Y-107411673D01*
X215742673Y-107590301D01*
X215646000Y-107823690D01*
X215646000Y-108076309D01*
X215646000Y-109601000D01*
X215646000Y-110108309D01*
X215646000Y-111565000D01*
X215631691Y-111565000D01*
X215398302Y-111661673D01*
X215219673Y-111840301D01*
X215138000Y-112037476D01*
X215138000Y-110108310D01*
X215138000Y-109855691D01*
X215138000Y-109251750D01*
X215138000Y-108680250D01*
X215138000Y-108076309D01*
X215138000Y-107823690D01*
X215041327Y-107590301D01*
X214862698Y-107411673D01*
X214629309Y-107315000D01*
X214026750Y-107315000D01*
X213868000Y-107473750D01*
X213868000Y-108839000D01*
X214979250Y-108839000D01*
X215138000Y-108680250D01*
X215138000Y-109251750D01*
X214979250Y-109093000D01*
X213868000Y-109093000D01*
X213868000Y-110458250D01*
X214026750Y-110617000D01*
X214629309Y-110617000D01*
X214862698Y-110520327D01*
X215041327Y-110341699D01*
X215138000Y-110108310D01*
X215138000Y-112037476D01*
X215123000Y-112073690D01*
X215123000Y-112326309D01*
X215123000Y-113826309D01*
X215219673Y-114059698D01*
X215398301Y-114238327D01*
X215547193Y-114300000D01*
X215398302Y-114361673D01*
X215219673Y-114540301D01*
X215123000Y-114773690D01*
X215123000Y-115026309D01*
X215123000Y-116526309D01*
X215219673Y-116759698D01*
X215398301Y-116938327D01*
X215631690Y-117035000D01*
X215646000Y-117035000D01*
X215646000Y-118491000D01*
X215418091Y-118491000D01*
X215184702Y-118587673D01*
X215006073Y-118766301D01*
X214909400Y-118999690D01*
X214909400Y-119252309D01*
X214909400Y-121284309D01*
X215006073Y-121517698D01*
X215184701Y-121696327D01*
X215418090Y-121793000D01*
X215670709Y-121793000D01*
X216219369Y-121793000D01*
X214822369Y-123190000D01*
X212926108Y-123190000D01*
X212882327Y-123084302D01*
X212703699Y-122905673D01*
X212470310Y-122809000D01*
X212703699Y-122712327D01*
X212882327Y-122533698D01*
X212979000Y-122300309D01*
X212979000Y-121951750D01*
X212979000Y-121380250D01*
X212979000Y-121031691D01*
X212882327Y-120798302D01*
X212703699Y-120619673D01*
X212470310Y-120523000D01*
X212470309Y-120523000D01*
X212703698Y-120426327D01*
X212882327Y-120247699D01*
X212979000Y-120014310D01*
X212979000Y-119761691D01*
X212979000Y-118745691D01*
X212882327Y-118512302D01*
X212703699Y-118333673D01*
X212470310Y-118237000D01*
X212217691Y-118237000D01*
X210185691Y-118237000D01*
X209952302Y-118333673D01*
X209773673Y-118512301D01*
X209729890Y-118618000D01*
X203515630Y-118618000D01*
X202565000Y-117667369D01*
X202565000Y-117094691D01*
X202565000Y-115569310D01*
X202565000Y-115316691D01*
X202565000Y-113792691D01*
X202468327Y-113559302D01*
X202289699Y-113380673D01*
X202056310Y-113284000D01*
X201803691Y-113284000D01*
X201424646Y-113284000D01*
X201574622Y-113134286D01*
X201739313Y-112737668D01*
X201739687Y-112308216D01*
X201575689Y-111911311D01*
X201272286Y-111607378D01*
X200875668Y-111442687D01*
X200601639Y-111442448D01*
X200601639Y-102755856D01*
X200163350Y-101695114D01*
X199352495Y-100882843D01*
X198292520Y-100442702D01*
X197144796Y-100441701D01*
X196084054Y-100879990D01*
X195271783Y-101690845D01*
X194831642Y-102750820D01*
X194830641Y-103898544D01*
X195268930Y-104959286D01*
X195563064Y-105253934D01*
X195292780Y-105141702D01*
X194145056Y-105140701D01*
X193869509Y-105254554D01*
X194161017Y-104963555D01*
X194601158Y-103903580D01*
X194602159Y-102755856D01*
X194163870Y-101695114D01*
X193353015Y-100882843D01*
X192293040Y-100442702D01*
X191145316Y-100441701D01*
X190084574Y-100879990D01*
X189272303Y-101690845D01*
X188832162Y-102750820D01*
X188831161Y-103898544D01*
X189269450Y-104959286D01*
X190080305Y-105771557D01*
X191140280Y-106211698D01*
X192288004Y-106212699D01*
X192563550Y-106098845D01*
X192272043Y-106389845D01*
X191831902Y-107449820D01*
X191830901Y-108597544D01*
X192269190Y-109658286D01*
X193080045Y-110470557D01*
X194140020Y-110910698D01*
X195287744Y-110911699D01*
X196348486Y-110473410D01*
X197160757Y-109662555D01*
X197358000Y-109187542D01*
X197358000Y-111652460D01*
X196990173Y-112019647D01*
X196786732Y-112509587D01*
X196786269Y-113040086D01*
X196988854Y-113530380D01*
X197363647Y-113905827D01*
X197853587Y-114109268D01*
X198384086Y-114109731D01*
X198874380Y-113907146D01*
X199249827Y-113532353D01*
X199453268Y-113042413D01*
X199453731Y-112511914D01*
X199251146Y-112021620D01*
X198882000Y-111651829D01*
X198882000Y-106832400D01*
X198823996Y-106540795D01*
X198658815Y-106293585D01*
X198658815Y-106293584D01*
X198493008Y-106127778D01*
X199348226Y-105774410D01*
X200160497Y-104963555D01*
X200600638Y-103903580D01*
X200601639Y-102755856D01*
X200601639Y-111442448D01*
X200446216Y-111442313D01*
X200049311Y-111606311D01*
X199745378Y-111909714D01*
X199580687Y-112306332D01*
X199580313Y-112735784D01*
X199744311Y-113132689D01*
X199895358Y-113284000D01*
X199771691Y-113284000D01*
X199538302Y-113380673D01*
X199359673Y-113559301D01*
X199263000Y-113792690D01*
X199263000Y-114045309D01*
X199263000Y-115569309D01*
X199359673Y-115802698D01*
X199538301Y-115981327D01*
X199771690Y-116078000D01*
X200024309Y-116078000D01*
X202056309Y-116078000D01*
X202289698Y-115981327D01*
X202468327Y-115802699D01*
X202565000Y-115569310D01*
X202565000Y-117094691D01*
X202468327Y-116861302D01*
X202289699Y-116682673D01*
X202056310Y-116586000D01*
X201803691Y-116586000D01*
X199771691Y-116586000D01*
X199538302Y-116682673D01*
X199359673Y-116861301D01*
X199263000Y-117094690D01*
X199263000Y-117221000D01*
X197649000Y-117221000D01*
X197649000Y-115392691D01*
X197552327Y-115159302D01*
X197373699Y-114980673D01*
X197140310Y-114884000D01*
X196887691Y-114884000D01*
X195187691Y-114884000D01*
X194954302Y-114980673D01*
X194775673Y-115159301D01*
X194679000Y-115392690D01*
X194679000Y-115645309D01*
X194679000Y-118795309D01*
X194775673Y-119028698D01*
X194954301Y-119207327D01*
X195187690Y-119304000D01*
X195440309Y-119304000D01*
X197140309Y-119304000D01*
X197373698Y-119207327D01*
X197552327Y-119028699D01*
X197649000Y-118795310D01*
X197649000Y-118745000D01*
X199263000Y-118745000D01*
X199263000Y-118871309D01*
X199359673Y-119104698D01*
X199538301Y-119283327D01*
X199771690Y-119380000D01*
X200024309Y-119380000D01*
X202056309Y-119380000D01*
X202103020Y-119360651D01*
X202661184Y-119918815D01*
X202661185Y-119918815D01*
X202908395Y-120083996D01*
X203073000Y-120116738D01*
X203073000Y-123621109D01*
X203169673Y-123854498D01*
X203348301Y-124033127D01*
X203581690Y-124129800D01*
X203834309Y-124129800D01*
X205866309Y-124129800D01*
X206099698Y-124033127D01*
X206278327Y-123854499D01*
X206375000Y-123621110D01*
X206375000Y-123368491D01*
X206375000Y-120142000D01*
X209729891Y-120142000D01*
X209773673Y-120247698D01*
X209952301Y-120426327D01*
X210185690Y-120523000D01*
X209952301Y-120619673D01*
X209773673Y-120798302D01*
X209677000Y-121031691D01*
X209677000Y-121380250D01*
X209835750Y-121539000D01*
X211201000Y-121539000D01*
X211201000Y-120681750D01*
X211042250Y-120523000D01*
X211613750Y-120523000D01*
X211455000Y-120681750D01*
X211455000Y-121539000D01*
X212820250Y-121539000D01*
X212979000Y-121380250D01*
X212979000Y-121951750D01*
X212820250Y-121793000D01*
X211455000Y-121793000D01*
X211455000Y-121813000D01*
X211201000Y-121813000D01*
X211201000Y-121793000D01*
X209835750Y-121793000D01*
X209677000Y-121951750D01*
X209677000Y-122300309D01*
X209773673Y-122533698D01*
X209952301Y-122712327D01*
X210185690Y-122809000D01*
X209952302Y-122905673D01*
X209773673Y-123084301D01*
X209677000Y-123317690D01*
X209677000Y-123570309D01*
X209677000Y-124586309D01*
X209773673Y-124819698D01*
X209952301Y-124998327D01*
X210185690Y-125095000D01*
X210438309Y-125095000D01*
X212470309Y-125095000D01*
X212703698Y-124998327D01*
X212882327Y-124819699D01*
X212926109Y-124714000D01*
X215138000Y-124714000D01*
X215138000Y-124713999D01*
X215429604Y-124655996D01*
X215429605Y-124655996D01*
X215676815Y-124490815D01*
X218442780Y-121724850D01*
X218948000Y-121825345D01*
X219521489Y-121711271D01*
X220007670Y-121386415D01*
X220218000Y-121071634D01*
X220428330Y-121386415D01*
X220914511Y-121711271D01*
X221488000Y-121825345D01*
X222061489Y-121711271D01*
X222547670Y-121386415D01*
X222872526Y-120900234D01*
X222986600Y-120326745D01*
X222986600Y-119957255D01*
X222872526Y-119383766D01*
X222547670Y-118897585D01*
X222250000Y-118698688D01*
X222250000Y-117035000D01*
X222264309Y-117035000D01*
X222497698Y-116938327D01*
X222676327Y-116759699D01*
X222773000Y-116526310D01*
X222773000Y-116273691D01*
X222773000Y-114773691D01*
X222676327Y-114540302D01*
X222497699Y-114361673D01*
X222348806Y-114299999D01*
X222497698Y-114238327D01*
X222676327Y-114059699D01*
X222773000Y-113826310D01*
X222773000Y-113712000D01*
X223262130Y-113712000D01*
X223296480Y-113746409D01*
X223296480Y-114731575D01*
X223099342Y-114813233D01*
X222920713Y-114991861D01*
X222824040Y-115225250D01*
X222824040Y-115477869D01*
X222824040Y-116676749D01*
X222920713Y-116910138D01*
X223099341Y-117088767D01*
X223332730Y-117185440D01*
X223585349Y-117185440D01*
X224784229Y-117185440D01*
X225017618Y-117088767D01*
X225107500Y-116998885D01*
X225197381Y-117088767D01*
X225430770Y-117185440D01*
X225683389Y-117185440D01*
X226882269Y-117185440D01*
X227115658Y-117088767D01*
X227294287Y-116910139D01*
X227390960Y-116676750D01*
X227390960Y-118024768D01*
X225297641Y-121157641D01*
X217489880Y-126374621D01*
X208279999Y-128206580D01*
X199070119Y-126374621D01*
X194549000Y-123353705D01*
X194549000Y-118795310D01*
X194549000Y-118542691D01*
X194549000Y-115392691D01*
X194452327Y-115159302D01*
X194273699Y-114980673D01*
X194040310Y-114884000D01*
X193787691Y-114884000D01*
X192087691Y-114884000D01*
X191977339Y-114929709D01*
X191262000Y-114214369D01*
X191262000Y-114109500D01*
X191324809Y-114109500D01*
X191558198Y-114012827D01*
X191736827Y-113834199D01*
X191833500Y-113600810D01*
X191833500Y-113348191D01*
X191833500Y-111951191D01*
X191736827Y-111717802D01*
X191558199Y-111539173D01*
X191324810Y-111442500D01*
X191072191Y-111442500D01*
X189675191Y-111442500D01*
X189441802Y-111539173D01*
X189263173Y-111717801D01*
X189166500Y-111951190D01*
X189166500Y-112203809D01*
X189166500Y-113600809D01*
X189263173Y-113834198D01*
X189441801Y-114012827D01*
X189675190Y-114109500D01*
X189738000Y-114109500D01*
X189738000Y-114530000D01*
X189796004Y-114821605D01*
X189961185Y-115068815D01*
X191579000Y-116686630D01*
X191579000Y-118795309D01*
X191675673Y-119028698D01*
X191854301Y-119207327D01*
X192087690Y-119304000D01*
X192340309Y-119304000D01*
X194040309Y-119304000D01*
X194273698Y-119207327D01*
X194452327Y-119028699D01*
X194549000Y-118795310D01*
X194549000Y-123353705D01*
X191262358Y-121157641D01*
X186045378Y-113349880D01*
X184200000Y-104072532D01*
X184200000Y-99110000D01*
X198755000Y-99110000D01*
X199017138Y-99057857D01*
X199239368Y-98909368D01*
X199387857Y-98687138D01*
X199440000Y-98425000D01*
X199440000Y-64604694D01*
X199486185Y-64673815D01*
X200347149Y-65534779D01*
X200246655Y-66040000D01*
X200360729Y-66613489D01*
X200685585Y-67099670D01*
X201000365Y-67310000D01*
X200685585Y-67520330D01*
X200360729Y-68006511D01*
X200246655Y-68580000D01*
X200360729Y-69153489D01*
X200685585Y-69639670D01*
X201000365Y-69850000D01*
X200685585Y-70060330D01*
X200360729Y-70546511D01*
X200246655Y-71120000D01*
X200360729Y-71693489D01*
X200685585Y-72179670D01*
X201171766Y-72504526D01*
X201745255Y-72618600D01*
X202114745Y-72618600D01*
X202688234Y-72504526D01*
X203164415Y-72186351D01*
X203468829Y-72389753D01*
X203452738Y-72394475D01*
X203018809Y-72744014D01*
X202751673Y-73233004D01*
X202734990Y-73312940D01*
X202857148Y-73533000D01*
X204343000Y-73533000D01*
X204343000Y-73513000D01*
X204597000Y-73513000D01*
X204597000Y-73533000D01*
X205771750Y-73533000D01*
X205835250Y-73596500D01*
X206883000Y-73596500D01*
X206883000Y-72802750D01*
X206724250Y-72644000D01*
X206437809Y-72644000D01*
X206185190Y-72644000D01*
X205951801Y-72740673D01*
X205930825Y-72761649D01*
X205921191Y-72744014D01*
X205487262Y-72394475D01*
X205471170Y-72389753D01*
X205866222Y-72125789D01*
X206174559Y-71664329D01*
X206282833Y-71120000D01*
X206174559Y-70575671D01*
X206141474Y-70526156D01*
X207802815Y-68864815D01*
X207802816Y-68864815D01*
X207901834Y-68716623D01*
X207962500Y-68625830D01*
X207962500Y-68833309D01*
X207962500Y-69722309D01*
X208059173Y-69955698D01*
X208207474Y-70104000D01*
X208059173Y-70252301D01*
X207962500Y-70485690D01*
X207962500Y-70738309D01*
X207962500Y-71627309D01*
X208059173Y-71860698D01*
X208237801Y-72039327D01*
X208471190Y-72136000D01*
X208723809Y-72136000D01*
X210120809Y-72136000D01*
X210354198Y-72039327D01*
X210523130Y-71870395D01*
X210693778Y-72125789D01*
X211089198Y-72389999D01*
X210693778Y-72654211D01*
X210523129Y-72909604D01*
X210354199Y-72740673D01*
X210120810Y-72644000D01*
X209868191Y-72644000D01*
X208471191Y-72644000D01*
X208237802Y-72740673D01*
X208153000Y-72825474D01*
X208068199Y-72740673D01*
X207834810Y-72644000D01*
X207582191Y-72644000D01*
X207295750Y-72644000D01*
X207137000Y-72802750D01*
X207137000Y-73596500D01*
X207157000Y-73596500D01*
X207157000Y-73850500D01*
X207137000Y-73850500D01*
X207137000Y-73870500D01*
X206883000Y-73870500D01*
X206883000Y-73850500D01*
X206118101Y-73850500D01*
X206082852Y-73787000D01*
X204597000Y-73787000D01*
X204597000Y-73807000D01*
X204343000Y-73807000D01*
X204343000Y-73787000D01*
X202857148Y-73787000D01*
X202734990Y-74007060D01*
X202751673Y-74086996D01*
X203018809Y-74575986D01*
X203282676Y-74788536D01*
X203072310Y-74701400D01*
X202819691Y-74701400D01*
X200787691Y-74701400D01*
X200554302Y-74798073D01*
X200375673Y-74976701D01*
X200279000Y-75210090D01*
X200279000Y-75462709D01*
X200279000Y-77189909D01*
X200375673Y-77423298D01*
X200554301Y-77601927D01*
X200707779Y-77665500D01*
X200685585Y-77680330D01*
X200360729Y-78166511D01*
X200246655Y-78740000D01*
X200360729Y-79313489D01*
X200685585Y-79799670D01*
X201000365Y-80010000D01*
X200685585Y-80220330D01*
X200360729Y-80706511D01*
X200246655Y-81280000D01*
X200360729Y-81853489D01*
X200685585Y-82339670D01*
X201000365Y-82550000D01*
X200685585Y-82760330D01*
X200360729Y-83246511D01*
X200246655Y-83820000D01*
X200360729Y-84393489D01*
X200685585Y-84879670D01*
X201000365Y-85090000D01*
X200685585Y-85300330D01*
X200360729Y-85786511D01*
X200246655Y-86360000D01*
X200360729Y-86933489D01*
X200685585Y-87419670D01*
X201000365Y-87630000D01*
X200685585Y-87840330D01*
X200360729Y-88326511D01*
X200246655Y-88900000D01*
X200360729Y-89473489D01*
X200685585Y-89959670D01*
X201000365Y-90170000D01*
X200685585Y-90380330D01*
X200360729Y-90866511D01*
X200246655Y-91440000D01*
X200360729Y-92013489D01*
X200685585Y-92499670D01*
X201000365Y-92710000D01*
X200685585Y-92920330D01*
X200360729Y-93406511D01*
X200246655Y-93980000D01*
X200360729Y-94553489D01*
X200685585Y-95039670D01*
X201171766Y-95364526D01*
X201745255Y-95478600D01*
X202114745Y-95478600D01*
X202688234Y-95364526D01*
X203164415Y-95046351D01*
X203535238Y-95294126D01*
X204079567Y-95402400D01*
X204860433Y-95402400D01*
X205404762Y-95294126D01*
X205866222Y-94985789D01*
X206174559Y-94524329D01*
X206282833Y-93980000D01*
X206174559Y-93435671D01*
X205866222Y-92974211D01*
X205470801Y-92709999D01*
X205866222Y-92445789D01*
X206174559Y-91984329D01*
X206282833Y-91440000D01*
X206174559Y-90895671D01*
X205866222Y-90434211D01*
X205470801Y-90169999D01*
X205866222Y-89905789D01*
X206174559Y-89444329D01*
X206282833Y-88900000D01*
X206174559Y-88355671D01*
X205866222Y-87894211D01*
X205470801Y-87629999D01*
X205866222Y-87365789D01*
X206174559Y-86904329D01*
X206282833Y-86360000D01*
X206174559Y-85815671D01*
X205866222Y-85354211D01*
X205470801Y-85089999D01*
X205866222Y-84825789D01*
X206174559Y-84364329D01*
X206282833Y-83820000D01*
X206174559Y-83275671D01*
X205866222Y-82814211D01*
X205470801Y-82549999D01*
X205866222Y-82285789D01*
X206174559Y-81824329D01*
X206282833Y-81280000D01*
X206174559Y-80735671D01*
X205866222Y-80274211D01*
X205470801Y-80009999D01*
X205866222Y-79745789D01*
X206174559Y-79284329D01*
X206282833Y-78740000D01*
X206266208Y-78656421D01*
X207548815Y-77373815D01*
X207713996Y-77126605D01*
X207713996Y-77126604D01*
X207772000Y-76835000D01*
X207772000Y-76708000D01*
X207834809Y-76708000D01*
X208068198Y-76611327D01*
X208152999Y-76526525D01*
X208237801Y-76611327D01*
X208471190Y-76708000D01*
X208723809Y-76708000D01*
X209297870Y-76708000D01*
X209328685Y-76738815D01*
X209575895Y-76903996D01*
X209867500Y-76962000D01*
X210530883Y-76962000D01*
X210693778Y-77205789D01*
X211088829Y-77469753D01*
X211072738Y-77474475D01*
X210638809Y-77824014D01*
X210371673Y-78313004D01*
X210354990Y-78392940D01*
X210477148Y-78613000D01*
X211963000Y-78613000D01*
X211963000Y-78593000D01*
X212217000Y-78593000D01*
X212217000Y-78613000D01*
X213143783Y-78613000D01*
X213702852Y-78613000D01*
X214503000Y-78613000D01*
X214503000Y-78593000D01*
X214757000Y-78593000D01*
X214757000Y-78613000D01*
X214777000Y-78613000D01*
X214777000Y-78867000D01*
X214757000Y-78867000D01*
X214757000Y-78887000D01*
X214503000Y-78887000D01*
X214503000Y-78867000D01*
X213702852Y-78867000D01*
X213143783Y-78867000D01*
X212217000Y-78867000D01*
X212217000Y-78887000D01*
X211963000Y-78887000D01*
X211963000Y-78867000D01*
X210477148Y-78867000D01*
X210354990Y-79087060D01*
X210371673Y-79166996D01*
X210638809Y-79655986D01*
X211072738Y-80005525D01*
X211088829Y-80010246D01*
X210693778Y-80274211D01*
X210530883Y-80518000D01*
X210058000Y-80518000D01*
X209766395Y-80576004D01*
X209519184Y-80741185D01*
X207519868Y-82740500D01*
X207304216Y-82740313D01*
X206907311Y-82904311D01*
X206603378Y-83207714D01*
X206438687Y-83604332D01*
X206438313Y-84033784D01*
X206602311Y-84430689D01*
X206905714Y-84734622D01*
X207302332Y-84899313D01*
X207731784Y-84899687D01*
X208128689Y-84735689D01*
X208432622Y-84432286D01*
X208597313Y-84035668D01*
X208597502Y-83818127D01*
X210373630Y-82042000D01*
X210530883Y-82042000D01*
X210693778Y-82285789D01*
X211089198Y-82549999D01*
X210693778Y-82814211D01*
X210385441Y-83275671D01*
X210277167Y-83820000D01*
X210385441Y-84364329D01*
X210693778Y-84825789D01*
X211089198Y-85089999D01*
X210693778Y-85354211D01*
X210385441Y-85815671D01*
X210277167Y-86360000D01*
X210385441Y-86904329D01*
X210693778Y-87365789D01*
X211089198Y-87629999D01*
X210693778Y-87894211D01*
X210462874Y-88239783D01*
X210462873Y-88239784D01*
X210281185Y-88361185D01*
X209265185Y-89377185D01*
X209100004Y-89624395D01*
X209042000Y-89916000D01*
X209042000Y-93664369D01*
X205106869Y-97599500D01*
X204891216Y-97599313D01*
X204494311Y-97763311D01*
X204190378Y-98066714D01*
X204025687Y-98463332D01*
X204025313Y-98892784D01*
X204189311Y-99289689D01*
X204492714Y-99593622D01*
X204889332Y-99758313D01*
X205318784Y-99758687D01*
X205715689Y-99594689D01*
X206019622Y-99291286D01*
X206184313Y-98894668D01*
X206184502Y-98677127D01*
X209677000Y-95184630D01*
X209677000Y-96520000D01*
X209735004Y-96811605D01*
X209900185Y-97058815D01*
X211836000Y-98994630D01*
X211836000Y-106745369D01*
X211678185Y-106903185D01*
X211513004Y-107150395D01*
X211455000Y-107442000D01*
X211455000Y-115000369D01*
X211393369Y-115062000D01*
X210828183Y-115062000D01*
X210609670Y-114734971D01*
X210338827Y-114554000D01*
X210609670Y-114373029D01*
X210934526Y-113886848D01*
X211048600Y-113313359D01*
X211048600Y-113254641D01*
X210934526Y-112681152D01*
X210609670Y-112194971D01*
X210338839Y-112014007D01*
X210756821Y-111632490D01*
X211004968Y-111103027D01*
X210884469Y-110871000D01*
X209677000Y-110871000D01*
X209677000Y-110891000D01*
X209423000Y-110891000D01*
X209423000Y-110871000D01*
X209403000Y-110871000D01*
X209403000Y-110617000D01*
X209423000Y-110617000D01*
X209423000Y-110597000D01*
X209677000Y-110597000D01*
X209677000Y-110617000D01*
X210884469Y-110617000D01*
X211004968Y-110384973D01*
X210756821Y-109855510D01*
X210338839Y-109473992D01*
X210609670Y-109293029D01*
X210934526Y-108806848D01*
X211048600Y-108233359D01*
X211048600Y-108174641D01*
X210934526Y-107601152D01*
X210609670Y-107114971D01*
X210338827Y-106934000D01*
X210609670Y-106753029D01*
X210934526Y-106266848D01*
X211048600Y-105693359D01*
X211048600Y-105634641D01*
X210934526Y-105061152D01*
X210619473Y-104589643D01*
X210773298Y-104525927D01*
X210951927Y-104347299D01*
X211048600Y-104113910D01*
X211048600Y-103861291D01*
X211048600Y-102134091D01*
X210951927Y-101900702D01*
X210773299Y-101722073D01*
X210539910Y-101625400D01*
X210287291Y-101625400D01*
X208560091Y-101625400D01*
X208326702Y-101722073D01*
X208148073Y-101900701D01*
X208083736Y-102056022D01*
X208069670Y-102034971D01*
X207583489Y-101710115D01*
X207010000Y-101596041D01*
X206436511Y-101710115D01*
X205950330Y-102034971D01*
X205625474Y-102521152D01*
X205511400Y-103094641D01*
X205511400Y-103153359D01*
X205625474Y-103726848D01*
X205950330Y-104213029D01*
X206221172Y-104394000D01*
X205950330Y-104574971D01*
X205625474Y-105061152D01*
X205511400Y-105634641D01*
X205511400Y-105693359D01*
X205625474Y-106266848D01*
X205950330Y-106753029D01*
X206221172Y-106934000D01*
X205950330Y-107114971D01*
X205625474Y-107601152D01*
X205511400Y-108174641D01*
X205511400Y-108233359D01*
X205625474Y-108806848D01*
X205950330Y-109293029D01*
X206221172Y-109474000D01*
X205950330Y-109654971D01*
X205625474Y-110141152D01*
X205511400Y-110714641D01*
X205511400Y-110773359D01*
X205625474Y-111346848D01*
X205950330Y-111833029D01*
X206221172Y-112014000D01*
X205950330Y-112194971D01*
X205625474Y-112681152D01*
X205511400Y-113254641D01*
X205511400Y-113313359D01*
X205625474Y-113886848D01*
X205950330Y-114373029D01*
X206221172Y-114554000D01*
X205950330Y-114734971D01*
X205625474Y-115221152D01*
X205511400Y-115794641D01*
X205511400Y-115853359D01*
X205625474Y-116426848D01*
X205950330Y-116913029D01*
X206436511Y-117237885D01*
X207010000Y-117351959D01*
X207583489Y-117237885D01*
X208069670Y-116913029D01*
X208280000Y-116598248D01*
X208490330Y-116913029D01*
X208976511Y-117237885D01*
X209550000Y-117351959D01*
X210123489Y-117237885D01*
X210609670Y-116913029D01*
X210828183Y-116586000D01*
X211709000Y-116586000D01*
X211709000Y-116585999D01*
X212000604Y-116527996D01*
X212000605Y-116527996D01*
X212247815Y-116362815D01*
X212755815Y-115854816D01*
X212755815Y-115854815D01*
X212920996Y-115607605D01*
X212978999Y-115316000D01*
X212979000Y-115316000D01*
X212979000Y-110617000D01*
X213455250Y-110617000D01*
X213614000Y-110458250D01*
X213614000Y-109093000D01*
X213594000Y-109093000D01*
X213594000Y-108839000D01*
X213614000Y-108839000D01*
X213614000Y-107473750D01*
X213455250Y-107315000D01*
X213309476Y-107315000D01*
X213359999Y-107061000D01*
X213360000Y-107061000D01*
X213360000Y-98679000D01*
X213301996Y-98387395D01*
X213136815Y-98140185D01*
X211201000Y-96204370D01*
X211201000Y-95402400D01*
X211358314Y-95402400D01*
X211386004Y-95541605D01*
X211551185Y-95788815D01*
X216217500Y-100455130D01*
X216217500Y-100663375D01*
X216033302Y-100739673D01*
X215854673Y-100918301D01*
X215758000Y-101151690D01*
X215758000Y-101404309D01*
X215758000Y-102904309D01*
X215854673Y-103137698D01*
X216033301Y-103316327D01*
X216182192Y-103378000D01*
X216033301Y-103439673D01*
X215854673Y-103618302D01*
X215758000Y-103851691D01*
X215758000Y-104442250D01*
X215916750Y-104601000D01*
X216916000Y-104601000D01*
X216916000Y-104581000D01*
X217170000Y-104581000D01*
X217170000Y-104601000D01*
X218169250Y-104601000D01*
X218328000Y-104442250D01*
X218328000Y-104390630D01*
X218870184Y-104932815D01*
X218870185Y-104932815D01*
X219117395Y-105097996D01*
X219409000Y-105156000D01*
X223087929Y-105156000D01*
X223017449Y-105226357D01*
X222783267Y-105790330D01*
X222782735Y-106400991D01*
X223015932Y-106965371D01*
X223447357Y-107397551D01*
X224011330Y-107631733D01*
X224621991Y-107632265D01*
X225186371Y-107399068D01*
X225618551Y-106967643D01*
X225852733Y-106403670D01*
X225853265Y-105793009D01*
X225620068Y-105228629D01*
X225547565Y-105156000D01*
X226799369Y-105156000D01*
X227327404Y-105684034D01*
X227283267Y-105790330D01*
X227282735Y-106400991D01*
X227515932Y-106965371D01*
X227947357Y-107397551D01*
X228056000Y-107442663D01*
X228056000Y-111250980D01*
X227949629Y-111294932D01*
X227517449Y-111726357D01*
X227283267Y-112290330D01*
X227282735Y-112900991D01*
X227515932Y-113465371D01*
X227947357Y-113897551D01*
X228511330Y-114131733D01*
X229121991Y-114132265D01*
X229686371Y-113899068D01*
X230118551Y-113467643D01*
X230352733Y-112903670D01*
X230353265Y-112293009D01*
X230120068Y-111728629D01*
X229688643Y-111296449D01*
X229580000Y-111251336D01*
X229580000Y-107443019D01*
X229686371Y-107399068D01*
X230118551Y-106967643D01*
X230352733Y-106403670D01*
X230353265Y-105793009D01*
X230120068Y-105228629D01*
X229688643Y-104796449D01*
X229124670Y-104562267D01*
X228514009Y-104561735D01*
X228405288Y-104606657D01*
X227653815Y-103855185D01*
X227406605Y-103690004D01*
X227115000Y-103632000D01*
X219724630Y-103632000D01*
X218328000Y-102235369D01*
X218328000Y-101151691D01*
X218231327Y-100918302D01*
X218052699Y-100739673D01*
X217819310Y-100643000D01*
X217741500Y-100643000D01*
X217741500Y-100139500D01*
X217741500Y-100076000D01*
X217741500Y-99097368D01*
X217805000Y-99110000D01*
X232360000Y-99110000D01*
X232360000Y-104072533D01*
M02*
