%FSLAX46Y46*%
G04 Gerber Fmt 4.6, Leading zero omitted, Abs format (unit mm)*
G04 Created by KiCad (PCBNEW (2014-10-27 BZR 5228)-product) date 31/03/2015 08:28:08*
%MOMM*%
G01*
G04 APERTURE LIST*
%ADD10C,0.100000*%
%ADD11O,2.286000X1.574800*%
%ADD12R,2.286000X1.574800*%
%ADD13O,2.032000X1.727200*%
%ADD14R,1.397000X0.889000*%
%ADD15R,1.700000X3.150000*%
%ADD16R,2.032000X1.727200*%
%ADD17R,2.032000X2.032000*%
%ADD18O,2.032000X2.032000*%
%ADD19C,4.500000*%
%ADD20C,1.800000*%
%ADD21R,1.600200X2.600960*%
%ADD22R,1.198880X1.198880*%
%ADD23R,1.727200X1.727200*%
%ADD24O,1.727200X1.727200*%
%ADD25R,0.700000X1.300000*%
%ADD26R,2.032000X3.657600*%
%ADD27R,2.032000X1.016000*%
%ADD28R,1.397000X1.397000*%
%ADD29C,1.397000*%
G04 APERTURE END LIST*
D10*
D11*
X212090000Y-91440000D03*
X212090000Y-88900000D03*
X212090000Y-86360000D03*
X212090000Y-83820000D03*
X212090000Y-81280000D03*
X212090000Y-78740000D03*
X212090000Y-76200000D03*
X212090000Y-73660000D03*
X212090000Y-71120000D03*
X212090000Y-68580000D03*
X212090000Y-66040000D03*
X212090000Y-63500000D03*
X212090000Y-60960000D03*
D12*
X212090000Y-93980000D03*
D11*
X204470000Y-60960000D03*
X204470000Y-63500000D03*
X204470000Y-66040000D03*
X204470000Y-68580000D03*
X204470000Y-71120000D03*
X204470000Y-73660000D03*
X204470000Y-76200000D03*
X204470000Y-78740000D03*
X204470000Y-81280000D03*
X204470000Y-83820000D03*
X204470000Y-86360000D03*
X204470000Y-88900000D03*
X204470000Y-91440000D03*
X204470000Y-93980000D03*
D13*
X223520000Y-119253000D03*
X223520000Y-116713000D03*
X223520000Y-114173000D03*
D14*
X209296000Y-75628500D03*
X209296000Y-73723500D03*
X209296000Y-69151500D03*
X209296000Y-71056500D03*
X207010000Y-73723500D03*
X207010000Y-75628500D03*
D15*
X195910000Y-116840000D03*
X192810000Y-116840000D03*
D16*
X214630000Y-91440000D03*
D13*
X214630000Y-88900000D03*
X214630000Y-86360000D03*
X214630000Y-83820000D03*
X214630000Y-81280000D03*
X214630000Y-78740000D03*
X214630000Y-76200000D03*
D16*
X201930000Y-76200000D03*
D13*
X201930000Y-78740000D03*
X201930000Y-81280000D03*
X201930000Y-83820000D03*
X201930000Y-86360000D03*
X201930000Y-88900000D03*
X201930000Y-91440000D03*
X201930000Y-93980000D03*
D17*
X214630000Y-73660000D03*
D18*
X214630000Y-71120000D03*
D16*
X201930000Y-60960000D03*
D13*
X201930000Y-63500000D03*
X201930000Y-66040000D03*
X201930000Y-68580000D03*
X201930000Y-71120000D03*
D16*
X214630000Y-68580000D03*
D13*
X214630000Y-66040000D03*
X214630000Y-63500000D03*
X214630000Y-60960000D03*
D19*
X197970140Y-103378000D03*
X191970660Y-103378000D03*
X194970400Y-108077000D03*
D20*
X230199000Y-106335000D03*
X230199000Y-110835000D03*
X223699000Y-106335000D03*
X223699000Y-110835000D03*
D21*
X216281000Y-120119140D03*
X216281000Y-123720860D03*
D22*
X221107000Y-106646980D03*
X221107000Y-108745020D03*
D23*
X205740000Y-54610000D03*
D24*
X205740000Y-52070000D03*
X208280000Y-54610000D03*
X208280000Y-52070000D03*
X210820000Y-54610000D03*
X210820000Y-52070000D03*
D25*
X219136000Y-106807000D03*
X217236000Y-106807000D03*
X219898000Y-113919000D03*
X217998000Y-113919000D03*
X217998000Y-116840000D03*
X219898000Y-116840000D03*
X217998000Y-111125000D03*
X219898000Y-111125000D03*
X212092500Y-97155000D03*
X213992500Y-97155000D03*
D21*
X200152000Y-120373140D03*
X200152000Y-123974860D03*
D26*
X204978000Y-122174000D03*
D27*
X211582000Y-122174000D03*
X211582000Y-119888000D03*
X211582000Y-124460000D03*
D13*
X202565000Y-103632000D03*
X202565000Y-106172000D03*
X202565000Y-108712000D03*
X202565000Y-111252000D03*
X202565000Y-113792000D03*
X202565000Y-116332000D03*
X213995000Y-103632000D03*
X213995000Y-106172000D03*
X213995000Y-108712000D03*
X213995000Y-111252000D03*
X213995000Y-113792000D03*
X213995000Y-116332000D03*
D28*
X190246000Y-112268000D03*
D29*
X197866000Y-112268000D03*
M02*
