M48
;DRILL file {kicad (2014-10-27 BZR 5228)-product} date 02/12/2014 21:20:03
;FORMAT={2:4/ absolute / inch / keep zeros}
FMAT,2
INCH,TZ
T1C0.025
T2C0.032
T3C0.040
T4C0.118
%
G90
G05
M72
T1
X079000Y-044300
X080750Y-038850
X080925Y-022800
X081700Y-033000
X081950Y-023850
X082450Y-026000
X084350Y-038925
X084925Y-038300
T2
X075000Y-044400
X078000Y-044400
X080500Y-024000
X080500Y-025000
X080500Y-026000
X080500Y-027000
X080500Y-028000
X080500Y-029000
X080500Y-030000
X080500Y-031000
X080500Y-032000
X080500Y-033000
X080500Y-034000
X080500Y-035000
X080500Y-036000
X080500Y-037000
X083500Y-024000
X083500Y-025000
X083500Y-026000
X083500Y-027000
X083500Y-028000
X083500Y-029000
X083500Y-030000
X083500Y-031000
X083500Y-032000
X083500Y-033000
X083500Y-034000
X083500Y-035000
X083500Y-036000
X083500Y-037000
X088314Y-041770
X088314Y-044330
X090086Y-041770
X090086Y-044330
T3
X079500Y-024000
X079500Y-025000
X079500Y-026000
X079500Y-027000
X079500Y-028000
X079500Y-030000
X079500Y-031000
X079500Y-032000
X079500Y-033000
X079500Y-034000
X079500Y-035000
X079500Y-036000
X079500Y-037000
X081000Y-020500
X081000Y-021500
X081500Y-040600
X081500Y-041600
X081500Y-042600
X081500Y-043600
X081500Y-044600
X081500Y-045600
X082000Y-020500
X082000Y-021500
X082500Y-040600
X082500Y-041600
X082500Y-042600
X082500Y-043600
X082500Y-044600
X082500Y-045600
X083000Y-020500
X083000Y-021500
X084500Y-024000
X084500Y-025000
X084500Y-026000
X084500Y-027000
X084500Y-028000
X084500Y-029000
X084500Y-030000
X084500Y-031000
X084500Y-032000
X084500Y-033000
X084500Y-034000
X084500Y-035000
X084500Y-036000
X085200Y-047300
X086200Y-047300
X087200Y-047300
T4
X075479Y-040680
X076660Y-042530
X077841Y-040680
T0
M30
