G04 #@! TF.FileFunction,Soldermask,Top*
%FSLAX46Y46*%
G04 Gerber Fmt 4.6, Leading zero omitted, Abs format (unit mm)*
G04 Created by KiCad (PCBNEW (2015-04-22 BZR 5620)-product) date 05/08/2015 09:39:25*
%MOMM*%
G01*
G04 APERTURE LIST*
%ADD10C,0.100000*%
%ADD11R,1.250000X1.500000*%
%ADD12O,2.286000X1.574800*%
%ADD13R,2.286000X1.574800*%
%ADD14R,1.500000X1.300000*%
%ADD15R,2.032000X1.727200*%
%ADD16O,2.032000X1.727200*%
%ADD17R,2.032000X2.032000*%
%ADD18O,2.032000X2.032000*%
%ADD19R,1.198880X1.198880*%
%ADD20R,1.727200X1.727200*%
%ADD21O,1.727200X1.727200*%
%ADD22R,1.600200X2.600960*%
%ADD23R,2.032000X3.657600*%
%ADD24R,2.032000X1.016000*%
%ADD25R,1.397000X1.397000*%
%ADD26C,1.397000*%
%ADD27R,2.000000X1.500000*%
%ADD28R,1.700000X3.150000*%
%ADD29C,4.500000*%
G04 APERTURE END LIST*
D10*
D11*
X207010000Y-73426000D03*
X207010000Y-75926000D03*
X209296000Y-68600000D03*
X209296000Y-71100000D03*
D12*
X212090000Y-91440000D03*
X212090000Y-88900000D03*
X212090000Y-86360000D03*
X212090000Y-83820000D03*
X212090000Y-81280000D03*
X212090000Y-78740000D03*
X212090000Y-76200000D03*
X212090000Y-73660000D03*
X212090000Y-71120000D03*
X212090000Y-68580000D03*
X212090000Y-66040000D03*
X212090000Y-63500000D03*
X212090000Y-60960000D03*
D13*
X212090000Y-93980000D03*
D12*
X204470000Y-60960000D03*
X204470000Y-63500000D03*
X204470000Y-66040000D03*
X204470000Y-68580000D03*
X204470000Y-71120000D03*
X204470000Y-73660000D03*
X204470000Y-76200000D03*
X204470000Y-78740000D03*
X204470000Y-81280000D03*
X204470000Y-83820000D03*
X204470000Y-86360000D03*
X204470000Y-88900000D03*
X204470000Y-91440000D03*
X204470000Y-93980000D03*
D14*
X211692500Y-97155000D03*
X214392500Y-97155000D03*
D15*
X214630000Y-91440000D03*
D16*
X214630000Y-88900000D03*
X214630000Y-86360000D03*
X214630000Y-83820000D03*
X214630000Y-81280000D03*
X214630000Y-78740000D03*
X214630000Y-76200000D03*
D15*
X201930000Y-76200000D03*
D16*
X201930000Y-78740000D03*
X201930000Y-81280000D03*
X201930000Y-83820000D03*
X201930000Y-86360000D03*
X201930000Y-88900000D03*
X201930000Y-91440000D03*
X201930000Y-93980000D03*
D17*
X214630000Y-73660000D03*
D18*
X214630000Y-71120000D03*
D15*
X201930000Y-60960000D03*
D16*
X201930000Y-63500000D03*
X201930000Y-66040000D03*
X201930000Y-68580000D03*
X201930000Y-71120000D03*
D15*
X214630000Y-68580000D03*
D16*
X214630000Y-66040000D03*
X214630000Y-63500000D03*
X214630000Y-60960000D03*
D19*
X221107000Y-106646980D03*
X221107000Y-108745020D03*
D20*
X205740000Y-54610000D03*
D21*
X205740000Y-52070000D03*
X208280000Y-54610000D03*
X208280000Y-52070000D03*
X210820000Y-54610000D03*
X210820000Y-52070000D03*
D22*
X200152000Y-120373140D03*
X200152000Y-123974860D03*
D23*
X204978000Y-122174000D03*
D24*
X211582000Y-122174000D03*
X211582000Y-119888000D03*
X211582000Y-124460000D03*
D16*
X202565000Y-103632000D03*
X202565000Y-106172000D03*
X202565000Y-108712000D03*
X202565000Y-111252000D03*
X202565000Y-113792000D03*
X202565000Y-116332000D03*
X213995000Y-103632000D03*
X213995000Y-106172000D03*
X213995000Y-108712000D03*
X213995000Y-111252000D03*
X213995000Y-113792000D03*
X213995000Y-116332000D03*
D25*
X190246000Y-112268000D03*
D26*
X197866000Y-112268000D03*
D22*
X216281000Y-120119140D03*
X216281000Y-123720860D03*
D14*
X219536000Y-106807000D03*
X216836000Y-106807000D03*
X217598000Y-111125000D03*
X220298000Y-111125000D03*
X220298000Y-113919000D03*
X217598000Y-113919000D03*
X217598000Y-116840000D03*
X220298000Y-116840000D03*
D27*
X223849000Y-106735000D03*
X230049000Y-106735000D03*
X223849000Y-110435000D03*
X230049000Y-110435000D03*
D28*
X195910000Y-116840000D03*
X192810000Y-116840000D03*
D29*
X197970140Y-103378000D03*
X191970660Y-103378000D03*
X194970400Y-108077000D03*
D11*
X209296000Y-75926000D03*
X209296000Y-73426000D03*
D16*
X223520000Y-119253000D03*
X223520000Y-116713000D03*
X223520000Y-114173000D03*
M02*
