M48
;DRILL file {kicad (2014-10-27 BZR 5228)-product} date 31/03/2015 08:28:13
;FORMAT={-:-/ absolute / inch / decimal}
FMAT,2
INCH,TZ
T1C0.025
T2C0.032
T3C0.040
T4C0.118
%
G90
G05
M72
T1
X8.075Y-3.905
X8.0925Y-2.28
X8.13Y-3.805
X8.195Y-2.385
X8.245Y-2.6
X8.42Y-4.92
X8.45Y-2.195
X8.61Y-4.29
X8.62Y-4.71
X8.62Y-4.815
T2
X7.49Y-4.42
X7.79Y-4.42
X8.05Y-2.4
X8.05Y-2.5
X8.05Y-2.6
X8.05Y-2.7
X8.05Y-2.8
X8.05Y-2.9
X8.05Y-3.
X8.05Y-3.1
X8.05Y-3.2
X8.05Y-3.3
X8.05Y-3.4
X8.05Y-3.5
X8.05Y-3.6
X8.05Y-3.7
X8.35Y-2.4
X8.35Y-2.5
X8.35Y-2.6
X8.35Y-2.7
X8.35Y-2.8
X8.35Y-2.9
X8.35Y-3.
X8.35Y-3.1
X8.35Y-3.2
X8.35Y-3.3
X8.35Y-3.4
X8.35Y-3.5
X8.35Y-3.6
X8.35Y-3.7
X8.807Y-4.1864
X8.807Y-4.3636
X9.063Y-4.1864
X9.063Y-4.3636
T3
X7.95Y-2.4
X7.95Y-2.5
X7.95Y-2.6
X7.95Y-2.7
X7.95Y-2.8
X7.95Y-3.
X7.95Y-3.1
X7.95Y-3.2
X7.95Y-3.3
X7.95Y-3.4
X7.95Y-3.5
X7.95Y-3.6
X7.95Y-3.7
X7.975Y-4.08
X7.975Y-4.18
X7.975Y-4.28
X7.975Y-4.38
X7.975Y-4.48
X7.975Y-4.58
X8.1Y-2.05
X8.1Y-2.15
X8.2Y-2.05
X8.2Y-2.15
X8.3Y-2.05
X8.3Y-2.15
X8.425Y-4.08
X8.425Y-4.18
X8.425Y-4.28
X8.425Y-4.38
X8.425Y-4.48
X8.425Y-4.58
X8.45Y-2.4
X8.45Y-2.5
X8.45Y-2.6
X8.45Y-2.7
X8.45Y-2.8
X8.45Y-2.9
X8.45Y-3.
X8.45Y-3.1
X8.45Y-3.2
X8.45Y-3.3
X8.45Y-3.4
X8.45Y-3.5
X8.45Y-3.6
X8.8Y-4.495
X8.8Y-4.595
X8.8Y-4.695
T4
X7.5579Y-4.07
X7.676Y-4.255
X7.7941Y-4.07
T0
M30
