G04 #@! TF.FileFunction,Copper,L1,Top,Signal*
%FSLAX46Y46*%
G04 Gerber Fmt 4.6, Leading zero omitted, Abs format (unit mm)*
G04 Created by KiCad (PCBNEW (2015-04-22 BZR 5620)-product) date 26/04/2015 16:39:13*
%MOMM*%
G01*
G04 APERTURE LIST*
%ADD10C,0.100000*%
%ADD11R,1.250000X1.500000*%
%ADD12O,2.286000X1.574800*%
%ADD13R,2.286000X1.574800*%
%ADD14R,1.500000X1.300000*%
%ADD15R,2.032000X1.727200*%
%ADD16O,2.032000X1.727200*%
%ADD17R,2.032000X2.032000*%
%ADD18O,2.032000X2.032000*%
%ADD19R,1.198880X1.198880*%
%ADD20R,1.727200X1.727200*%
%ADD21O,1.727200X1.727200*%
%ADD22R,1.600200X2.600960*%
%ADD23R,2.032000X3.657600*%
%ADD24R,2.032000X1.016000*%
%ADD25R,1.397000X1.397000*%
%ADD26C,1.397000*%
%ADD27R,2.000000X1.500000*%
%ADD28R,1.700000X3.150000*%
%ADD29C,4.500000*%
%ADD30C,0.889000*%
%ADD31C,0.254000*%
G04 APERTURE END LIST*
D10*
D11*
X207010000Y-73426000D03*
X207010000Y-75926000D03*
X209296000Y-68600000D03*
X209296000Y-71100000D03*
D12*
X212090000Y-91440000D03*
X212090000Y-88900000D03*
X212090000Y-86360000D03*
X212090000Y-83820000D03*
X212090000Y-81280000D03*
X212090000Y-78740000D03*
X212090000Y-76200000D03*
X212090000Y-73660000D03*
X212090000Y-71120000D03*
X212090000Y-68580000D03*
X212090000Y-66040000D03*
X212090000Y-63500000D03*
X212090000Y-60960000D03*
D13*
X212090000Y-93980000D03*
D12*
X204470000Y-60960000D03*
X204470000Y-63500000D03*
X204470000Y-66040000D03*
X204470000Y-68580000D03*
X204470000Y-71120000D03*
X204470000Y-73660000D03*
X204470000Y-76200000D03*
X204470000Y-78740000D03*
X204470000Y-81280000D03*
X204470000Y-83820000D03*
X204470000Y-86360000D03*
X204470000Y-88900000D03*
X204470000Y-91440000D03*
X204470000Y-93980000D03*
D14*
X211692500Y-97155000D03*
X214392500Y-97155000D03*
D15*
X214630000Y-91440000D03*
D16*
X214630000Y-88900000D03*
X214630000Y-86360000D03*
X214630000Y-83820000D03*
X214630000Y-81280000D03*
X214630000Y-78740000D03*
X214630000Y-76200000D03*
D15*
X201930000Y-76200000D03*
D16*
X201930000Y-78740000D03*
X201930000Y-81280000D03*
X201930000Y-83820000D03*
X201930000Y-86360000D03*
X201930000Y-88900000D03*
X201930000Y-91440000D03*
X201930000Y-93980000D03*
D17*
X214630000Y-73660000D03*
D18*
X214630000Y-71120000D03*
D15*
X201930000Y-60960000D03*
D16*
X201930000Y-63500000D03*
X201930000Y-66040000D03*
X201930000Y-68580000D03*
X201930000Y-71120000D03*
D15*
X214630000Y-68580000D03*
D16*
X214630000Y-66040000D03*
X214630000Y-63500000D03*
X214630000Y-60960000D03*
D19*
X221107000Y-106646980D03*
X221107000Y-108745020D03*
D20*
X205740000Y-54610000D03*
D21*
X205740000Y-52070000D03*
X208280000Y-54610000D03*
X208280000Y-52070000D03*
X210820000Y-54610000D03*
X210820000Y-52070000D03*
D22*
X200152000Y-120373140D03*
X200152000Y-123974860D03*
D23*
X204978000Y-122174000D03*
D24*
X211582000Y-122174000D03*
X211582000Y-119888000D03*
X211582000Y-124460000D03*
D16*
X202565000Y-103632000D03*
X202565000Y-106172000D03*
X202565000Y-108712000D03*
X202565000Y-111252000D03*
X202565000Y-113792000D03*
X202565000Y-116332000D03*
X213995000Y-103632000D03*
X213995000Y-106172000D03*
X213995000Y-108712000D03*
X213995000Y-111252000D03*
X213995000Y-113792000D03*
X213995000Y-116332000D03*
D25*
X190246000Y-112268000D03*
D26*
X197866000Y-112268000D03*
D22*
X216281000Y-120119140D03*
X216281000Y-123720860D03*
D14*
X219536000Y-106807000D03*
X216836000Y-106807000D03*
X217598000Y-111125000D03*
X220298000Y-111125000D03*
X220298000Y-113919000D03*
X217598000Y-113919000D03*
X217598000Y-116840000D03*
X220298000Y-116840000D03*
D27*
X223849000Y-106735000D03*
X230049000Y-106735000D03*
X223849000Y-110435000D03*
X230049000Y-110435000D03*
D28*
X195910000Y-116840000D03*
X192810000Y-116840000D03*
D29*
X197970140Y-103378000D03*
X191970660Y-103378000D03*
X194970400Y-108077000D03*
D11*
X209296000Y-75926000D03*
X209296000Y-73426000D03*
D16*
X223520000Y-119253000D03*
X223520000Y-116713000D03*
X223520000Y-114173000D03*
D30*
X218694000Y-108966000D03*
X209423000Y-66040000D03*
X218948000Y-119634000D03*
X218948000Y-122301000D03*
X208153000Y-60579000D03*
X205549500Y-57912000D03*
X214630000Y-55753000D03*
X205105000Y-99187000D03*
X206502000Y-96647000D03*
X213868000Y-124968000D03*
D31*
X195910000Y-116840000D02*
X195910000Y-117932000D01*
X195910000Y-117932000D02*
X198351140Y-120373140D01*
X198351140Y-120373140D02*
X200152000Y-120373140D01*
X201063860Y-120373140D02*
X202311000Y-119126000D01*
X202311000Y-119126000D02*
X208470500Y-119126000D01*
X208470500Y-119126000D02*
X209232500Y-119888000D01*
X209232500Y-119888000D02*
X211582000Y-119888000D01*
X200152000Y-120373140D02*
X201063860Y-120373140D01*
X205105000Y-78740000D02*
X207010000Y-76835000D01*
X204470000Y-78740000D02*
X205105000Y-78740000D01*
X209867500Y-76200000D02*
X212090000Y-76200000D01*
X221107000Y-108745020D02*
X218914980Y-108745020D01*
X217998000Y-109662000D02*
X217998000Y-111125000D01*
X217998000Y-109662000D02*
X218694000Y-108966000D01*
X218914980Y-108745020D02*
X218694000Y-108966000D01*
X221107000Y-108745020D02*
X222059020Y-108745020D01*
X222059020Y-108745020D02*
X223749000Y-110435000D01*
X230149000Y-110435000D02*
X223749000Y-110435000D01*
X216814400Y-123517660D02*
X217243660Y-123517660D01*
X207010000Y-76835000D02*
X207010000Y-75628500D01*
X209296000Y-69151500D02*
X209423000Y-69024500D01*
X209423000Y-69024500D02*
X209423000Y-66040000D01*
X209296000Y-75628500D02*
X209867500Y-76200000D01*
X216281000Y-125349000D02*
X216281000Y-123720860D01*
X215011000Y-126619000D02*
X216281000Y-125349000D01*
X202311000Y-126619000D02*
X215011000Y-126619000D01*
X200152000Y-124460000D02*
X202311000Y-126619000D01*
X200152000Y-123974860D02*
X200152000Y-124460000D01*
X217998000Y-118684000D02*
X218948000Y-119634000D01*
X218948000Y-122301000D02*
X217528140Y-123720860D01*
X217528140Y-123720860D02*
X216281000Y-123720860D01*
X217998000Y-116840000D02*
X217998000Y-118684000D01*
X204470000Y-73660000D02*
X206946500Y-73660000D01*
X212090000Y-78740000D02*
X210058000Y-78740000D01*
X212090000Y-78740000D02*
X214630000Y-78740000D01*
X208153000Y-74866500D02*
X208153000Y-76835000D01*
X208153000Y-76835000D02*
X210058000Y-78740000D01*
X216814400Y-119915940D02*
X216435940Y-119915940D01*
X205740000Y-52070000D02*
X204089000Y-53721000D01*
X207010000Y-69596000D02*
X207010000Y-73723500D01*
X208153000Y-68453000D02*
X207010000Y-69596000D01*
X208153000Y-60579000D02*
X208153000Y-68453000D01*
X204089000Y-56451500D02*
X205549500Y-57912000D01*
X204089000Y-53721000D02*
X204089000Y-56451500D01*
X207010000Y-73723500D02*
X208153000Y-74866500D01*
X206946500Y-73660000D02*
X207010000Y-73723500D01*
X212979000Y-122174000D02*
X215033860Y-120119140D01*
X215033860Y-120119140D02*
X216281000Y-120119140D01*
X211582000Y-122174000D02*
X212979000Y-122174000D01*
X216281000Y-114554000D02*
X216916000Y-113919000D01*
X216916000Y-113919000D02*
X217998000Y-113919000D01*
X216281000Y-120119140D02*
X216281000Y-114554000D01*
X216281000Y-112395000D02*
X215138000Y-111252000D01*
X215138000Y-111252000D02*
X213360000Y-111252000D01*
X216281000Y-114554000D02*
X216281000Y-112395000D01*
X209296000Y-73723500D02*
X212026500Y-73723500D01*
X212026500Y-73723500D02*
X212090000Y-73660000D01*
X212090000Y-73660000D02*
X214630000Y-73660000D01*
X209296000Y-71056500D02*
X212026500Y-71056500D01*
X212026500Y-71056500D02*
X212090000Y-71120000D01*
X212090000Y-71120000D02*
X214630000Y-71120000D01*
X197970140Y-103378000D02*
X197970140Y-112163860D01*
X197970140Y-112163860D02*
X197866000Y-112268000D01*
X190246000Y-112268000D02*
X190246000Y-116205000D01*
X190881000Y-116840000D02*
X192810000Y-116840000D01*
X190246000Y-116205000D02*
X190881000Y-116840000D01*
X220946980Y-106807000D02*
X221107000Y-106646980D01*
X219136000Y-106807000D02*
X220946980Y-106807000D01*
X213360000Y-116332000D02*
X211836000Y-116332000D01*
X210820000Y-91440000D02*
X212090000Y-91440000D01*
X209931000Y-92329000D02*
X210820000Y-91440000D01*
X209931000Y-114427000D02*
X209931000Y-92329000D01*
X211836000Y-116332000D02*
X209931000Y-114427000D01*
X212090000Y-91440000D02*
X214630000Y-91440000D01*
X209931000Y-88900000D02*
X212090000Y-88900000D01*
X211074000Y-88900000D02*
X212090000Y-88900000D01*
X212090000Y-88900000D02*
X214630000Y-88900000D01*
X203200000Y-116332000D02*
X206375000Y-116332000D01*
X208661000Y-90170000D02*
X209931000Y-88900000D01*
X208661000Y-114046000D02*
X208661000Y-90170000D01*
X206375000Y-116332000D02*
X208661000Y-114046000D01*
X212090000Y-86360000D02*
X214630000Y-86360000D01*
X203200000Y-108712000D02*
X203327000Y-108712000D01*
X203327000Y-108712000D02*
X207391000Y-104648000D01*
X207391000Y-104648000D02*
X207391000Y-84963000D01*
X207391000Y-84963000D02*
X208534000Y-83820000D01*
X212090000Y-83820000D02*
X214630000Y-83820000D01*
X208534000Y-83820000D02*
X212090000Y-83820000D01*
X212090000Y-81280000D02*
X214630000Y-81280000D01*
X212090000Y-68580000D02*
X214630000Y-68580000D01*
X212090000Y-66040000D02*
X214630000Y-66040000D01*
X212090000Y-63500000D02*
X214630000Y-63500000D01*
X212090000Y-60960000D02*
X214630000Y-60960000D01*
X223749000Y-106735000D02*
X230149000Y-106735000D01*
X212092500Y-99443500D02*
X212092500Y-97155000D01*
X212092500Y-93982500D02*
X212090000Y-93980000D01*
X212092500Y-97155000D02*
X212092500Y-93982500D01*
X223048000Y-106335000D02*
X219837000Y-103124000D01*
X214630000Y-55753000D02*
X213487000Y-54610000D01*
X213487000Y-54610000D02*
X210820000Y-54610000D01*
X215646000Y-103505000D02*
X215646000Y-101219000D01*
X215646000Y-101219000D02*
X214757000Y-100330000D01*
X214757000Y-100330000D02*
X212979000Y-100330000D01*
X212979000Y-100330000D02*
X212092500Y-99443500D01*
X215646000Y-108331000D02*
X215646000Y-103505000D01*
X217551000Y-103124000D02*
X215646000Y-101219000D01*
X215265000Y-108712000D02*
X215646000Y-108331000D01*
X213360000Y-108712000D02*
X215265000Y-108712000D01*
X219837000Y-103124000D02*
X217551000Y-103124000D01*
X201930000Y-60960000D02*
X204470000Y-60960000D01*
X201930000Y-63500000D02*
X204470000Y-63500000D01*
X201930000Y-66040000D02*
X200025000Y-64135000D01*
X206375000Y-50165000D02*
X208280000Y-52070000D01*
X203835000Y-50165000D02*
X206375000Y-50165000D01*
X200025000Y-53975000D02*
X203835000Y-50165000D01*
X200025000Y-64135000D02*
X200025000Y-53975000D01*
X201930000Y-66040000D02*
X204470000Y-66040000D01*
X203200000Y-103632000D02*
X203200000Y-101092000D01*
X203200000Y-101092000D02*
X205105000Y-99187000D01*
X201930000Y-68580000D02*
X204470000Y-68580000D01*
X206502000Y-55372000D02*
X206502000Y-66548000D01*
X205740000Y-54610000D02*
X206502000Y-55372000D01*
X206502000Y-66548000D02*
X204470000Y-68580000D01*
X203200000Y-106172000D02*
X204724000Y-106172000D01*
X206502000Y-104394000D02*
X206502000Y-96647000D01*
X204724000Y-106172000D02*
X206502000Y-104394000D01*
X201930000Y-71120000D02*
X204470000Y-71120000D01*
X207264000Y-55626000D02*
X208280000Y-54610000D01*
X207264000Y-68326000D02*
X207264000Y-55626000D01*
X204470000Y-71120000D02*
X207264000Y-68326000D01*
X201930000Y-76200000D02*
X204470000Y-76200000D01*
X201930000Y-81280000D02*
X204470000Y-81280000D01*
X201930000Y-83820000D02*
X204470000Y-83820000D01*
X201930000Y-86360000D02*
X204470000Y-86360000D01*
X201930000Y-88900000D02*
X204470000Y-88900000D01*
X203200000Y-113792000D02*
X201930000Y-113792000D01*
X206121000Y-91440000D02*
X204470000Y-91440000D01*
X206502000Y-91821000D02*
X206121000Y-91440000D01*
X206502000Y-94869000D02*
X206502000Y-91821000D01*
X205359000Y-96012000D02*
X206502000Y-94869000D01*
X205359000Y-97155000D02*
X205359000Y-96012000D01*
X200660000Y-101219000D02*
X205359000Y-97155000D01*
X200660000Y-113157000D02*
X200660000Y-101219000D01*
X201930000Y-113792000D02*
X200660000Y-113157000D01*
X201930000Y-91440000D02*
X204470000Y-91440000D01*
X201930000Y-93980000D02*
X204470000Y-93980000D01*
X219898000Y-113919000D02*
X220345000Y-113919000D01*
X213360000Y-124460000D02*
X213868000Y-124968000D01*
X211582000Y-124460000D02*
X213360000Y-124460000D01*
X220726000Y-113919000D02*
X223520000Y-116713000D01*
X220298000Y-113919000D02*
X220726000Y-113919000D01*
X219898000Y-118171000D02*
X220980000Y-119253000D01*
X220980000Y-119253000D02*
X223520000Y-119253000D01*
X219898000Y-116840000D02*
X219898000Y-118171000D01*
X219898000Y-111125000D02*
X220472000Y-111125000D01*
X220472000Y-111125000D02*
X223520000Y-114173000D01*
X220298000Y-111125000D02*
X220472000Y-111125000D01*
G36*
X205887000Y-52197000D02*
X205867000Y-52197000D01*
X205867000Y-52217000D01*
X205613000Y-52217000D01*
X205613000Y-52197000D01*
X204405536Y-52197000D01*
X204285037Y-52429027D01*
X204383036Y-52705978D01*
X204533183Y-52958488D01*
X204697047Y-53140564D01*
X204602359Y-53170173D01*
X204452966Y-53269074D01*
X204336958Y-53405608D01*
X204263481Y-53569011D01*
X204238328Y-53746400D01*
X204238328Y-55473600D01*
X204246703Y-55576643D01*
X204300173Y-55747641D01*
X204399074Y-55897034D01*
X204535608Y-56013042D01*
X204699011Y-56086519D01*
X204876400Y-56111672D01*
X205740000Y-56111672D01*
X205740000Y-59872104D01*
X205637812Y-59786359D01*
X205394546Y-59652622D01*
X205129937Y-59568683D01*
X204854063Y-59537739D01*
X204834203Y-59537600D01*
X204105797Y-59537600D01*
X203829518Y-59564689D01*
X203563762Y-59644926D01*
X203446159Y-59707456D01*
X203423326Y-59672966D01*
X203286792Y-59556958D01*
X203123389Y-59483481D01*
X202946000Y-59458328D01*
X200914000Y-59458328D01*
X200810957Y-59466703D01*
X200787000Y-59474194D01*
X200787000Y-54290630D01*
X204150630Y-50927000D01*
X204778088Y-50927000D01*
X204729707Y-50963146D01*
X204533183Y-51181512D01*
X204383036Y-51434022D01*
X204285037Y-51710973D01*
X204405536Y-51943000D01*
X205613000Y-51943000D01*
X205613000Y-51923000D01*
X205867000Y-51923000D01*
X205867000Y-51943000D01*
X205887000Y-51943000D01*
X205887000Y-52197000D01*
X205887000Y-52197000D01*
G37*
X205887000Y-52197000D02*
X205867000Y-52197000D01*
X205867000Y-52217000D01*
X205613000Y-52217000D01*
X205613000Y-52197000D01*
X204405536Y-52197000D01*
X204285037Y-52429027D01*
X204383036Y-52705978D01*
X204533183Y-52958488D01*
X204697047Y-53140564D01*
X204602359Y-53170173D01*
X204452966Y-53269074D01*
X204336958Y-53405608D01*
X204263481Y-53569011D01*
X204238328Y-53746400D01*
X204238328Y-55473600D01*
X204246703Y-55576643D01*
X204300173Y-55747641D01*
X204399074Y-55897034D01*
X204535608Y-56013042D01*
X204699011Y-56086519D01*
X204876400Y-56111672D01*
X205740000Y-56111672D01*
X205740000Y-59872104D01*
X205637812Y-59786359D01*
X205394546Y-59652622D01*
X205129937Y-59568683D01*
X204854063Y-59537739D01*
X204834203Y-59537600D01*
X204105797Y-59537600D01*
X203829518Y-59564689D01*
X203563762Y-59644926D01*
X203446159Y-59707456D01*
X203423326Y-59672966D01*
X203286792Y-59556958D01*
X203123389Y-59483481D01*
X202946000Y-59458328D01*
X200914000Y-59458328D01*
X200810957Y-59466703D01*
X200787000Y-59474194D01*
X200787000Y-54290630D01*
X204150630Y-50927000D01*
X204778088Y-50927000D01*
X204729707Y-50963146D01*
X204533183Y-51181512D01*
X204383036Y-51434022D01*
X204285037Y-51710973D01*
X204405536Y-51943000D01*
X205613000Y-51943000D01*
X205613000Y-51923000D01*
X205867000Y-51923000D01*
X205867000Y-51943000D01*
X205887000Y-51943000D01*
X205887000Y-52197000D01*
G36*
X230990447Y-111823072D02*
X230540031Y-113314924D01*
X228334008Y-117463850D01*
X225364132Y-121105276D01*
X221743527Y-124100501D01*
X217610103Y-126335435D01*
X215817197Y-126890432D01*
X216819815Y-125887816D01*
X216864510Y-125833402D01*
X216909736Y-125779505D01*
X216911666Y-125775993D01*
X216914210Y-125772897D01*
X216947468Y-125710870D01*
X216975758Y-125659412D01*
X217081100Y-125659412D01*
X217184143Y-125651037D01*
X217355141Y-125597567D01*
X217504534Y-125498666D01*
X217620542Y-125362132D01*
X217694019Y-125198729D01*
X217719172Y-125021340D01*
X217719172Y-124455357D01*
X217743599Y-124447982D01*
X217811122Y-124428366D01*
X217814677Y-124426522D01*
X217818516Y-124425364D01*
X217880693Y-124392303D01*
X217943154Y-124359927D01*
X217946284Y-124357428D01*
X217949824Y-124355546D01*
X218004370Y-124311059D01*
X218059380Y-124267146D01*
X218064954Y-124261647D01*
X218065071Y-124261553D01*
X218065160Y-124261445D01*
X218066955Y-124259675D01*
X218945891Y-123380738D01*
X219031219Y-123382526D01*
X219239704Y-123345765D01*
X219437077Y-123269208D01*
X219615822Y-123155773D01*
X219769130Y-123009780D01*
X219891161Y-122836790D01*
X219977268Y-122643392D01*
X220024170Y-122436952D01*
X220027546Y-122195150D01*
X219986426Y-121987481D01*
X219905754Y-121791753D01*
X219788600Y-121615423D01*
X219639428Y-121465207D01*
X219463921Y-121346825D01*
X219268761Y-121264788D01*
X219061384Y-121222219D01*
X218849689Y-121220741D01*
X218641738Y-121260410D01*
X218445452Y-121339715D01*
X218268308Y-121455634D01*
X218117054Y-121603753D01*
X217997450Y-121778431D01*
X217914052Y-121973012D01*
X217870037Y-122180087D01*
X217868319Y-122303049D01*
X217719172Y-122452197D01*
X217719172Y-122420380D01*
X217710797Y-122317337D01*
X217657327Y-122146339D01*
X217558426Y-121996946D01*
X217471093Y-121922742D01*
X217485889Y-121912857D01*
X217574337Y-121824409D01*
X217643830Y-121720405D01*
X217691697Y-121604843D01*
X217716100Y-121482162D01*
X217716100Y-120404890D01*
X217557350Y-120246140D01*
X216408000Y-120246140D01*
X216408000Y-120266140D01*
X216154000Y-120266140D01*
X216154000Y-120246140D01*
X216154000Y-119992140D01*
X216154000Y-118342410D01*
X215995250Y-118183660D01*
X215543442Y-118183660D01*
X215418358Y-118183660D01*
X215295677Y-118208063D01*
X215180115Y-118255930D01*
X215076111Y-118325423D01*
X214987663Y-118413871D01*
X214918170Y-118517875D01*
X214870303Y-118633437D01*
X214845900Y-118756118D01*
X214845900Y-119833390D01*
X215004650Y-119992140D01*
X216154000Y-119992140D01*
X216154000Y-120246140D01*
X215004650Y-120246140D01*
X214845900Y-120404890D01*
X214845900Y-121482162D01*
X214870303Y-121604843D01*
X214918170Y-121720405D01*
X214987663Y-121824409D01*
X215076111Y-121912857D01*
X215089532Y-121921825D01*
X215057466Y-121943054D01*
X214941458Y-122079588D01*
X214867981Y-122242991D01*
X214842828Y-122420380D01*
X214842828Y-124500178D01*
X214825754Y-124458753D01*
X214708600Y-124282423D01*
X214559428Y-124132207D01*
X214383921Y-124013825D01*
X214188761Y-123931788D01*
X213981384Y-123889219D01*
X213858858Y-123888363D01*
X213844400Y-123876487D01*
X213790505Y-123831264D01*
X213786997Y-123829335D01*
X213783897Y-123826789D01*
X213721831Y-123793510D01*
X213660184Y-123759619D01*
X213656363Y-123758407D01*
X213652833Y-123756514D01*
X213585535Y-123735939D01*
X213518429Y-123714652D01*
X213514445Y-123714205D01*
X213510615Y-123713034D01*
X213440627Y-123705924D01*
X213370639Y-123698074D01*
X213362802Y-123698019D01*
X213362660Y-123698005D01*
X213362526Y-123698017D01*
X213360000Y-123698000D01*
X213180493Y-123698000D01*
X213174227Y-123677959D01*
X213075326Y-123528566D01*
X212938792Y-123412558D01*
X212775389Y-123339081D01*
X212619664Y-123317000D01*
X212660542Y-123317000D01*
X212783223Y-123292597D01*
X212898785Y-123244730D01*
X213002789Y-123175237D01*
X213091237Y-123086789D01*
X213160730Y-122982785D01*
X213208597Y-122867223D01*
X213233000Y-122744542D01*
X213233000Y-122459750D01*
X213074250Y-122301000D01*
X211709000Y-122301000D01*
X211709000Y-122321000D01*
X211455000Y-122321000D01*
X211455000Y-122301000D01*
X210089750Y-122301000D01*
X209931000Y-122459750D01*
X209931000Y-122744542D01*
X209955403Y-122867223D01*
X210003270Y-122982785D01*
X210072763Y-123086789D01*
X210161211Y-123175237D01*
X210265215Y-123244730D01*
X210380777Y-123292597D01*
X210503458Y-123317000D01*
X210528203Y-123317000D01*
X210462957Y-123322303D01*
X210291959Y-123375773D01*
X210142566Y-123474674D01*
X210026558Y-123611208D01*
X209953081Y-123774611D01*
X209927928Y-123952000D01*
X209927928Y-124968000D01*
X209936303Y-125071043D01*
X209989773Y-125242041D01*
X210088674Y-125391434D01*
X210225208Y-125507442D01*
X210388611Y-125580919D01*
X210566000Y-125606072D01*
X212598000Y-125606072D01*
X212701043Y-125597697D01*
X212872041Y-125544227D01*
X212930222Y-125505709D01*
X213017910Y-125641773D01*
X213164969Y-125794058D01*
X213255530Y-125857000D01*
X206629000Y-125857000D01*
X206629000Y-124065342D01*
X206629000Y-122459750D01*
X206470250Y-122301000D01*
X205105000Y-122301000D01*
X205105000Y-124479050D01*
X205263750Y-124637800D01*
X205931458Y-124637800D01*
X206056542Y-124637800D01*
X206179223Y-124613397D01*
X206294785Y-124565530D01*
X206398789Y-124496037D01*
X206487237Y-124407589D01*
X206556730Y-124303585D01*
X206604597Y-124188023D01*
X206629000Y-124065342D01*
X206629000Y-125857000D01*
X204851000Y-125857000D01*
X204851000Y-124479050D01*
X204851000Y-122301000D01*
X203485750Y-122301000D01*
X203327000Y-122459750D01*
X203327000Y-124065342D01*
X203351403Y-124188023D01*
X203399270Y-124303585D01*
X203468763Y-124407589D01*
X203557211Y-124496037D01*
X203661215Y-124565530D01*
X203776777Y-124613397D01*
X203899458Y-124637800D01*
X204024542Y-124637800D01*
X204692250Y-124637800D01*
X204851000Y-124479050D01*
X204851000Y-125857000D01*
X202626630Y-125857000D01*
X201590172Y-124820542D01*
X201590172Y-122674380D01*
X201581797Y-122571337D01*
X201528327Y-122400339D01*
X201429426Y-122250946D01*
X201339673Y-122174686D01*
X201375534Y-122150946D01*
X201491542Y-122014412D01*
X201565019Y-121851009D01*
X201590172Y-121673620D01*
X201590172Y-120923359D01*
X201595100Y-120919426D01*
X201600674Y-120913927D01*
X201600791Y-120913833D01*
X201600880Y-120913725D01*
X201602675Y-120911955D01*
X202626630Y-119888000D01*
X203521174Y-119888000D01*
X203468763Y-119940411D01*
X203399270Y-120044415D01*
X203351403Y-120159977D01*
X203327000Y-120282658D01*
X203327000Y-121888250D01*
X203485750Y-122047000D01*
X204851000Y-122047000D01*
X204851000Y-122027000D01*
X205105000Y-122027000D01*
X205105000Y-122047000D01*
X206470250Y-122047000D01*
X206629000Y-121888250D01*
X206629000Y-120282658D01*
X206604597Y-120159977D01*
X206556730Y-120044415D01*
X206487237Y-119940411D01*
X206434826Y-119888000D01*
X208154869Y-119888000D01*
X208693685Y-120426816D01*
X208748129Y-120471537D01*
X208801995Y-120516736D01*
X208805502Y-120518664D01*
X208808603Y-120521211D01*
X208870703Y-120554509D01*
X208932316Y-120588381D01*
X208936131Y-120589591D01*
X208939667Y-120591487D01*
X209007051Y-120612088D01*
X209074071Y-120633348D01*
X209078048Y-120633794D01*
X209081885Y-120634967D01*
X209151922Y-120642080D01*
X209221861Y-120649926D01*
X209229697Y-120649980D01*
X209229840Y-120649995D01*
X209229973Y-120649982D01*
X209232500Y-120650000D01*
X209983506Y-120650000D01*
X209989773Y-120670041D01*
X210088674Y-120819434D01*
X210225208Y-120935442D01*
X210388611Y-121008919D01*
X210544335Y-121031000D01*
X210503458Y-121031000D01*
X210380777Y-121055403D01*
X210265215Y-121103270D01*
X210161211Y-121172763D01*
X210072763Y-121261211D01*
X210003270Y-121365215D01*
X209955403Y-121480777D01*
X209931000Y-121603458D01*
X209931000Y-121888250D01*
X210089750Y-122047000D01*
X211455000Y-122047000D01*
X211455000Y-122027000D01*
X211709000Y-122027000D01*
X211709000Y-122047000D01*
X213074250Y-122047000D01*
X213233000Y-121888250D01*
X213233000Y-121603458D01*
X213208597Y-121480777D01*
X213160730Y-121365215D01*
X213091237Y-121261211D01*
X213002789Y-121172763D01*
X212898785Y-121103270D01*
X212783223Y-121055403D01*
X212660542Y-121031000D01*
X212635796Y-121031000D01*
X212701043Y-121025697D01*
X212872041Y-120972227D01*
X213021434Y-120873326D01*
X213137442Y-120736792D01*
X213210919Y-120573389D01*
X213236072Y-120396000D01*
X213236072Y-119380000D01*
X213227697Y-119276957D01*
X213174227Y-119105959D01*
X213075326Y-118956566D01*
X212938792Y-118840558D01*
X212775389Y-118767081D01*
X212598000Y-118741928D01*
X210566000Y-118741928D01*
X210462957Y-118750303D01*
X210291959Y-118803773D01*
X210142566Y-118902674D01*
X210026558Y-119039208D01*
X209987530Y-119126000D01*
X209548130Y-119126000D01*
X209009315Y-118587185D01*
X208954900Y-118542487D01*
X208901005Y-118497264D01*
X208897497Y-118495335D01*
X208894397Y-118492789D01*
X208832331Y-118459510D01*
X208770684Y-118425619D01*
X208766863Y-118424407D01*
X208763333Y-118422514D01*
X208696035Y-118401939D01*
X208628929Y-118380652D01*
X208624945Y-118380205D01*
X208621115Y-118379034D01*
X208551127Y-118371924D01*
X208481139Y-118364074D01*
X208473302Y-118364019D01*
X208473160Y-118364005D01*
X208473026Y-118364017D01*
X208470500Y-118364000D01*
X202311000Y-118364000D01*
X202240894Y-118370873D01*
X202170829Y-118377004D01*
X202166985Y-118378120D01*
X202162993Y-118378512D01*
X202095552Y-118398873D01*
X202028018Y-118418494D01*
X202024462Y-118420337D01*
X202020624Y-118421496D01*
X201958467Y-118454545D01*
X201895985Y-118486933D01*
X201892852Y-118489433D01*
X201889316Y-118491314D01*
X201834791Y-118535783D01*
X201779760Y-118579714D01*
X201774181Y-118585215D01*
X201774069Y-118585307D01*
X201773983Y-118585410D01*
X201772184Y-118587185D01*
X201536050Y-118823318D01*
X201528327Y-118798619D01*
X201429426Y-118649226D01*
X201292892Y-118533218D01*
X201129489Y-118459741D01*
X200952100Y-118434588D01*
X199351900Y-118434588D01*
X199248857Y-118442963D01*
X199077859Y-118496433D01*
X198928466Y-118595334D01*
X198812458Y-118731868D01*
X198738981Y-118895271D01*
X198713828Y-119072660D01*
X198713828Y-119611140D01*
X198666770Y-119611140D01*
X197398072Y-118342441D01*
X197398072Y-115265000D01*
X197389697Y-115161957D01*
X197336227Y-114990959D01*
X197237326Y-114841566D01*
X197100792Y-114725558D01*
X196937389Y-114652081D01*
X196760000Y-114626928D01*
X195060000Y-114626928D01*
X194956957Y-114635303D01*
X194785959Y-114688773D01*
X194636566Y-114787674D01*
X194520558Y-114924208D01*
X194447081Y-115087611D01*
X194421928Y-115265000D01*
X194421928Y-118415000D01*
X194430303Y-118518043D01*
X194483773Y-118689041D01*
X194582674Y-118838434D01*
X194719208Y-118954442D01*
X194882611Y-119027919D01*
X195060000Y-119053072D01*
X195953441Y-119053072D01*
X197812324Y-120911955D01*
X197866737Y-120956650D01*
X197920635Y-121001876D01*
X197924146Y-121003806D01*
X197927243Y-121006350D01*
X197989269Y-121039608D01*
X198050956Y-121073521D01*
X198054776Y-121074732D01*
X198058307Y-121076626D01*
X198125604Y-121097200D01*
X198192711Y-121118488D01*
X198196694Y-121118934D01*
X198200525Y-121120106D01*
X198270512Y-121127215D01*
X198340501Y-121135066D01*
X198348337Y-121135120D01*
X198348480Y-121135135D01*
X198348613Y-121135122D01*
X198351140Y-121135140D01*
X198713828Y-121135140D01*
X198713828Y-121673620D01*
X198722203Y-121776663D01*
X198775673Y-121947661D01*
X198874574Y-122097054D01*
X198964326Y-122173313D01*
X198928466Y-122197054D01*
X198812458Y-122333588D01*
X198738981Y-122496991D01*
X198713828Y-122674380D01*
X198713828Y-125275340D01*
X198722203Y-125378383D01*
X198775673Y-125549381D01*
X198874574Y-125698774D01*
X199011108Y-125814782D01*
X199174511Y-125888259D01*
X199351900Y-125913412D01*
X200527782Y-125913412D01*
X201772185Y-127157815D01*
X201826599Y-127202512D01*
X201856360Y-127227484D01*
X199260702Y-126463541D01*
X195096477Y-124286536D01*
X194298072Y-123644601D01*
X194298072Y-118415000D01*
X194298072Y-115265000D01*
X194289697Y-115161957D01*
X194236227Y-114990959D01*
X194137326Y-114841566D01*
X194000792Y-114725558D01*
X193837389Y-114652081D01*
X193660000Y-114626928D01*
X191960000Y-114626928D01*
X191856957Y-114635303D01*
X191685959Y-114688773D01*
X191536566Y-114787674D01*
X191420558Y-114924208D01*
X191347081Y-115087611D01*
X191321928Y-115265000D01*
X191321928Y-116078000D01*
X191196630Y-116078000D01*
X191008000Y-115889369D01*
X191008000Y-113599410D01*
X191047543Y-113596197D01*
X191218541Y-113542727D01*
X191367934Y-113443826D01*
X191483942Y-113307292D01*
X191557419Y-113143889D01*
X191582572Y-112966500D01*
X191582572Y-111569500D01*
X191574197Y-111466457D01*
X191520727Y-111295459D01*
X191421826Y-111146066D01*
X191285292Y-111030058D01*
X191121889Y-110956581D01*
X190944500Y-110931428D01*
X189547500Y-110931428D01*
X189444457Y-110939803D01*
X189273459Y-110993273D01*
X189124066Y-111092174D01*
X189008058Y-111228708D01*
X188934581Y-111392111D01*
X188909428Y-111569500D01*
X188909428Y-112966500D01*
X188917803Y-113069543D01*
X188971273Y-113240541D01*
X189070174Y-113389934D01*
X189206708Y-113505942D01*
X189370111Y-113579419D01*
X189484000Y-113595567D01*
X189484000Y-116205000D01*
X189490874Y-116275113D01*
X189497004Y-116345170D01*
X189498120Y-116349012D01*
X189498512Y-116353007D01*
X189518877Y-116420459D01*
X189538494Y-116487982D01*
X189540337Y-116491537D01*
X189541496Y-116495376D01*
X189574556Y-116557553D01*
X189606933Y-116620014D01*
X189609431Y-116623144D01*
X189611314Y-116626684D01*
X189655800Y-116681230D01*
X189699714Y-116736240D01*
X189705212Y-116741814D01*
X189705307Y-116741931D01*
X189705414Y-116742020D01*
X189707185Y-116743815D01*
X190342185Y-117378816D01*
X190396629Y-117423537D01*
X190450495Y-117468736D01*
X190454002Y-117470664D01*
X190457103Y-117473211D01*
X190519184Y-117506498D01*
X190580816Y-117540381D01*
X190584634Y-117541592D01*
X190588168Y-117543487D01*
X190655537Y-117564083D01*
X190722571Y-117585348D01*
X190726549Y-117585794D01*
X190730385Y-117586967D01*
X190800466Y-117594085D01*
X190870361Y-117601926D01*
X190878186Y-117601980D01*
X190878340Y-117601996D01*
X190878482Y-117601982D01*
X190881000Y-117602000D01*
X191321928Y-117602000D01*
X191321928Y-118415000D01*
X191330303Y-118518043D01*
X191383773Y-118689041D01*
X191482674Y-118838434D01*
X191619208Y-118954442D01*
X191782611Y-119027919D01*
X191960000Y-119053072D01*
X193660000Y-119053072D01*
X193763043Y-119044697D01*
X193934041Y-118991227D01*
X194083434Y-118892326D01*
X194199442Y-118755792D01*
X194272919Y-118592389D01*
X194298072Y-118415000D01*
X194298072Y-123644601D01*
X191434403Y-121342153D01*
X188413976Y-117742549D01*
X186150239Y-113624826D01*
X184729419Y-109145829D01*
X184202146Y-104445089D01*
X184200000Y-104137653D01*
X184200000Y-99958503D01*
X184218743Y-99767336D01*
X184264532Y-99615678D01*
X184338904Y-99475804D01*
X184439030Y-99353038D01*
X184561093Y-99252059D01*
X184700449Y-99176709D01*
X184851780Y-99129864D01*
X185040782Y-99110000D01*
X197255000Y-99110000D01*
X197255121Y-99109988D01*
X197257420Y-99109996D01*
X197267892Y-99109959D01*
X197297648Y-99106935D01*
X197327554Y-99107144D01*
X197337073Y-99106211D01*
X197628218Y-99075611D01*
X197689054Y-99063122D01*
X197750021Y-99051493D01*
X197759177Y-99048729D01*
X198038833Y-98962161D01*
X198096062Y-98938103D01*
X198153632Y-98914844D01*
X198162076Y-98910354D01*
X198162077Y-98910354D01*
X198419593Y-98771115D01*
X198471065Y-98736395D01*
X198523012Y-98702403D01*
X198530424Y-98696358D01*
X198530426Y-98696356D01*
X198755991Y-98509753D01*
X198799738Y-98465699D01*
X198844096Y-98422261D01*
X198850193Y-98414891D01*
X199035219Y-98188027D01*
X199069580Y-98136309D01*
X199104652Y-98085088D01*
X199109201Y-98076675D01*
X199246638Y-97818194D01*
X199270311Y-97760758D01*
X199294754Y-97703730D01*
X199297583Y-97694593D01*
X199382197Y-97414339D01*
X199394258Y-97353423D01*
X199407164Y-97292707D01*
X199408164Y-97283196D01*
X199436731Y-96991844D01*
X199436730Y-96963112D01*
X199439933Y-96934564D01*
X199440000Y-96925000D01*
X199440000Y-64617743D01*
X199478714Y-64666240D01*
X199484212Y-64671814D01*
X199484307Y-64671931D01*
X199484414Y-64672020D01*
X199486185Y-64673815D01*
X200360577Y-65548207D01*
X200301621Y-65738665D01*
X200271049Y-66029538D01*
X200297556Y-66320810D01*
X200380134Y-66601385D01*
X200515637Y-66860578D01*
X200698903Y-67088515D01*
X200922952Y-67276515D01*
X200982586Y-67309299D01*
X200940299Y-67331784D01*
X200713647Y-67516637D01*
X200527216Y-67741994D01*
X200388108Y-67999269D01*
X200301621Y-68278665D01*
X200271049Y-68569538D01*
X200297556Y-68860810D01*
X200380134Y-69141385D01*
X200515637Y-69400578D01*
X200698903Y-69628515D01*
X200922952Y-69816515D01*
X200982586Y-69849299D01*
X200940299Y-69871784D01*
X200713647Y-70056637D01*
X200527216Y-70281994D01*
X200388108Y-70539269D01*
X200301621Y-70818665D01*
X200271049Y-71109538D01*
X200297556Y-71400810D01*
X200380134Y-71681385D01*
X200515637Y-71940578D01*
X200698903Y-72168515D01*
X200922952Y-72356515D01*
X201179251Y-72497416D01*
X201458036Y-72585852D01*
X201748688Y-72618454D01*
X201769612Y-72618600D01*
X202090388Y-72618600D01*
X202381468Y-72590059D01*
X202661460Y-72505525D01*
X202919701Y-72368216D01*
X203146353Y-72183363D01*
X203156354Y-72171272D01*
X203302188Y-72293641D01*
X203471689Y-72386825D01*
X203452738Y-72394474D01*
X203218560Y-72547875D01*
X203018808Y-72744014D01*
X202861159Y-72975354D01*
X202751672Y-73233004D01*
X202734990Y-73312940D01*
X202857148Y-73533000D01*
X204343000Y-73533000D01*
X204343000Y-73513000D01*
X204597000Y-73513000D01*
X204597000Y-73533000D01*
X204617000Y-73533000D01*
X204617000Y-73787000D01*
X204597000Y-73787000D01*
X204597000Y-73807000D01*
X204343000Y-73807000D01*
X204343000Y-73787000D01*
X202857148Y-73787000D01*
X202734990Y-74007060D01*
X202751672Y-74086996D01*
X202861159Y-74344646D01*
X203018808Y-74575986D01*
X203207571Y-74761335D01*
X203123389Y-74723481D01*
X202946000Y-74698328D01*
X200914000Y-74698328D01*
X200810957Y-74706703D01*
X200639959Y-74760173D01*
X200490566Y-74859074D01*
X200374558Y-74995608D01*
X200301081Y-75159011D01*
X200275928Y-75336400D01*
X200275928Y-77063600D01*
X200284303Y-77166643D01*
X200337773Y-77337641D01*
X200436674Y-77487034D01*
X200573208Y-77603042D01*
X200721901Y-77669904D01*
X200713647Y-77676637D01*
X200527216Y-77901994D01*
X200388108Y-78159269D01*
X200301621Y-78438665D01*
X200271049Y-78729538D01*
X200297556Y-79020810D01*
X200380134Y-79301385D01*
X200515637Y-79560578D01*
X200698903Y-79788515D01*
X200922952Y-79976515D01*
X200982586Y-80009299D01*
X200940299Y-80031784D01*
X200713647Y-80216637D01*
X200527216Y-80441994D01*
X200388108Y-80699269D01*
X200301621Y-80978665D01*
X200271049Y-81269538D01*
X200297556Y-81560810D01*
X200380134Y-81841385D01*
X200515637Y-82100578D01*
X200698903Y-82328515D01*
X200922952Y-82516515D01*
X200982586Y-82549299D01*
X200940299Y-82571784D01*
X200713647Y-82756637D01*
X200527216Y-82981994D01*
X200388108Y-83239269D01*
X200301621Y-83518665D01*
X200271049Y-83809538D01*
X200297556Y-84100810D01*
X200380134Y-84381385D01*
X200515637Y-84640578D01*
X200698903Y-84868515D01*
X200922952Y-85056515D01*
X200982586Y-85089299D01*
X200940299Y-85111784D01*
X200713647Y-85296637D01*
X200527216Y-85521994D01*
X200388108Y-85779269D01*
X200301621Y-86058665D01*
X200271049Y-86349538D01*
X200297556Y-86640810D01*
X200380134Y-86921385D01*
X200515637Y-87180578D01*
X200698903Y-87408515D01*
X200922952Y-87596515D01*
X200982586Y-87629299D01*
X200940299Y-87651784D01*
X200713647Y-87836637D01*
X200527216Y-88061994D01*
X200388108Y-88319269D01*
X200301621Y-88598665D01*
X200271049Y-88889538D01*
X200297556Y-89180810D01*
X200380134Y-89461385D01*
X200515637Y-89720578D01*
X200698903Y-89948515D01*
X200922952Y-90136515D01*
X200982586Y-90169299D01*
X200940299Y-90191784D01*
X200713647Y-90376637D01*
X200527216Y-90601994D01*
X200388108Y-90859269D01*
X200301621Y-91138665D01*
X200271049Y-91429538D01*
X200297556Y-91720810D01*
X200380134Y-92001385D01*
X200515637Y-92260578D01*
X200698903Y-92488515D01*
X200922952Y-92676515D01*
X200982586Y-92709299D01*
X200940299Y-92731784D01*
X200713647Y-92916637D01*
X200527216Y-93141994D01*
X200388108Y-93399269D01*
X200301621Y-93678665D01*
X200271049Y-93969538D01*
X200297556Y-94260810D01*
X200380134Y-94541385D01*
X200515637Y-94800578D01*
X200698903Y-95028515D01*
X200922952Y-95216515D01*
X201179251Y-95357416D01*
X201458036Y-95445852D01*
X201748688Y-95478454D01*
X201769612Y-95478600D01*
X202090388Y-95478600D01*
X202381468Y-95450059D01*
X202661460Y-95365525D01*
X202919701Y-95228216D01*
X203146353Y-95043363D01*
X203156354Y-95031272D01*
X203302188Y-95153641D01*
X203545454Y-95287378D01*
X203810063Y-95371317D01*
X204085937Y-95402261D01*
X204105797Y-95402400D01*
X204834203Y-95402400D01*
X204897141Y-95396228D01*
X204820185Y-95473185D01*
X204775487Y-95527599D01*
X204730264Y-95581495D01*
X204728335Y-95585002D01*
X204725789Y-95588103D01*
X204692510Y-95650168D01*
X204658619Y-95711816D01*
X204657407Y-95715636D01*
X204655514Y-95719167D01*
X204634939Y-95786464D01*
X204613652Y-95853571D01*
X204613205Y-95857554D01*
X204612034Y-95861385D01*
X204604924Y-95931372D01*
X204597074Y-96001361D01*
X204597019Y-96009197D01*
X204597005Y-96009340D01*
X204597017Y-96009473D01*
X204597000Y-96012000D01*
X204597000Y-96806574D01*
X200161536Y-100642651D01*
X200145260Y-100659775D01*
X200126857Y-100674572D01*
X200094150Y-100713550D01*
X200059082Y-100750447D01*
X200046443Y-100770404D01*
X200031264Y-100788495D01*
X200006747Y-100833089D01*
X199979518Y-100876089D01*
X199970998Y-100898117D01*
X199959619Y-100918816D01*
X199944229Y-100967328D01*
X199925873Y-101014792D01*
X199921794Y-101038056D01*
X199914652Y-101060571D01*
X199908978Y-101111148D01*
X199900190Y-101161274D01*
X199900707Y-101184884D01*
X199898074Y-101208361D01*
X199898000Y-101219000D01*
X199898000Y-101224868D01*
X199818006Y-101144314D01*
X199348955Y-100827935D01*
X198827386Y-100608687D01*
X198273164Y-100494922D01*
X197707400Y-100490972D01*
X197151644Y-100596988D01*
X196627064Y-100808932D01*
X196153641Y-101118731D01*
X195749409Y-101514585D01*
X195429763Y-101981416D01*
X195206879Y-102501442D01*
X195089248Y-103054856D01*
X195081348Y-103620579D01*
X195183482Y-104177061D01*
X195391758Y-104703108D01*
X195698245Y-105178682D01*
X195821631Y-105306452D01*
X195273424Y-105193922D01*
X194707660Y-105189972D01*
X194151904Y-105295988D01*
X194131609Y-105304187D01*
X194165158Y-105272240D01*
X194491290Y-104809917D01*
X194721413Y-104293054D01*
X194846760Y-103741336D01*
X194855783Y-103095111D01*
X194745890Y-102540109D01*
X194530289Y-102017021D01*
X194217192Y-101545773D01*
X193818526Y-101144314D01*
X193349475Y-100827935D01*
X192827906Y-100608687D01*
X192273684Y-100494922D01*
X191707920Y-100490972D01*
X191152164Y-100596988D01*
X190627584Y-100808932D01*
X190154161Y-101118731D01*
X189749929Y-101514585D01*
X189430283Y-101981416D01*
X189207399Y-102501442D01*
X189089768Y-103054856D01*
X189081868Y-103620579D01*
X189184002Y-104177061D01*
X189392278Y-104703108D01*
X189698765Y-105178682D01*
X190091787Y-105585668D01*
X190556375Y-105908565D01*
X191074832Y-106135074D01*
X191627412Y-106256566D01*
X192193065Y-106268415D01*
X192750248Y-106170169D01*
X192822701Y-106142066D01*
X192749669Y-106213585D01*
X192430023Y-106680416D01*
X192207139Y-107200442D01*
X192089508Y-107753856D01*
X192081608Y-108319579D01*
X192183742Y-108876061D01*
X192392018Y-109402108D01*
X192698505Y-109877682D01*
X193091527Y-110284668D01*
X193556115Y-110607565D01*
X194074572Y-110834074D01*
X194627152Y-110955566D01*
X195192805Y-110967415D01*
X195749988Y-110869169D01*
X196277476Y-110664570D01*
X196755177Y-110361411D01*
X197164898Y-109971240D01*
X197208140Y-109909940D01*
X197208140Y-111104785D01*
X197026381Y-111223725D01*
X196839537Y-111406695D01*
X196691791Y-111622473D01*
X196588770Y-111862839D01*
X196534399Y-112118637D01*
X196530747Y-112380124D01*
X196577955Y-112637341D01*
X196674225Y-112880489D01*
X196815888Y-113100308D01*
X196997550Y-113288425D01*
X197212291Y-113437674D01*
X197451932Y-113542370D01*
X197707344Y-113598526D01*
X197968800Y-113604003D01*
X198226340Y-113558592D01*
X198470154Y-113464022D01*
X198690957Y-113323897D01*
X198880337Y-113143552D01*
X199031081Y-112929858D01*
X199137448Y-112690955D01*
X199195386Y-112435941D01*
X199199557Y-112137244D01*
X199148762Y-111880711D01*
X199049107Y-111638931D01*
X198904388Y-111421111D01*
X198732140Y-111247655D01*
X198732140Y-106173270D01*
X198749728Y-106170169D01*
X199277216Y-105965570D01*
X199754917Y-105662411D01*
X199898000Y-105526155D01*
X199898000Y-113157000D01*
X199902307Y-113200927D01*
X199903104Y-113245044D01*
X199909545Y-113274747D01*
X199912512Y-113305007D01*
X199925269Y-113347261D01*
X199934620Y-113390382D01*
X199946708Y-113418270D01*
X199955496Y-113447376D01*
X199976214Y-113486342D01*
X199993765Y-113526831D01*
X200011042Y-113551844D01*
X200025314Y-113578684D01*
X200053204Y-113612881D01*
X200078287Y-113649193D01*
X200100093Y-113670373D01*
X200119307Y-113693931D01*
X200153312Y-113722062D01*
X200184967Y-113752808D01*
X200210468Y-113769346D01*
X200233895Y-113788727D01*
X200272721Y-113809720D01*
X200309741Y-113833729D01*
X200319223Y-113838554D01*
X200957544Y-114157714D01*
X201015134Y-114353385D01*
X201150637Y-114612578D01*
X201333903Y-114840515D01*
X201557952Y-115028515D01*
X201617586Y-115061299D01*
X201575299Y-115083784D01*
X201348647Y-115268637D01*
X201162216Y-115493994D01*
X201023108Y-115751269D01*
X200936621Y-116030665D01*
X200906049Y-116321538D01*
X200932556Y-116612810D01*
X201015134Y-116893385D01*
X201150637Y-117152578D01*
X201333903Y-117380515D01*
X201557952Y-117568515D01*
X201814251Y-117709416D01*
X202093036Y-117797852D01*
X202383688Y-117830454D01*
X202404612Y-117830600D01*
X202725388Y-117830600D01*
X203016468Y-117802059D01*
X203296460Y-117717525D01*
X203554701Y-117580216D01*
X203781353Y-117395363D01*
X203967784Y-117170006D01*
X204008880Y-117094000D01*
X206375000Y-117094000D01*
X206445113Y-117087125D01*
X206515170Y-117080996D01*
X206519012Y-117079879D01*
X206523007Y-117079488D01*
X206590459Y-117059122D01*
X206657982Y-117039506D01*
X206661537Y-117037662D01*
X206665376Y-117036504D01*
X206727553Y-117003443D01*
X206790014Y-116971067D01*
X206793144Y-116968568D01*
X206796684Y-116966686D01*
X206851230Y-116922199D01*
X206906240Y-116878286D01*
X206911814Y-116872787D01*
X206911931Y-116872693D01*
X206912020Y-116872585D01*
X206913815Y-116870815D01*
X209189567Y-114595063D01*
X209203877Y-114642459D01*
X209223494Y-114709982D01*
X209225337Y-114713537D01*
X209226496Y-114717376D01*
X209259556Y-114779553D01*
X209291933Y-114842014D01*
X209294431Y-114845144D01*
X209296314Y-114848684D01*
X209340800Y-114903230D01*
X209384714Y-114958240D01*
X209390212Y-114963814D01*
X209390307Y-114963931D01*
X209390414Y-114964020D01*
X209392185Y-114965815D01*
X211297185Y-116870815D01*
X211351599Y-116915512D01*
X211405495Y-116960736D01*
X211409002Y-116962664D01*
X211412103Y-116965211D01*
X211474203Y-116998509D01*
X211535816Y-117032381D01*
X211539631Y-117033591D01*
X211543167Y-117035487D01*
X211610551Y-117056088D01*
X211677571Y-117077348D01*
X211681548Y-117077794D01*
X211685385Y-117078967D01*
X211755422Y-117086080D01*
X211825361Y-117093926D01*
X211833197Y-117093980D01*
X211833340Y-117093995D01*
X211833473Y-117093982D01*
X211836000Y-117094000D01*
X212550013Y-117094000D01*
X212580637Y-117152578D01*
X212763903Y-117380515D01*
X212987952Y-117568515D01*
X213244251Y-117709416D01*
X213523036Y-117797852D01*
X213813688Y-117830454D01*
X213834612Y-117830600D01*
X214155388Y-117830600D01*
X214446468Y-117802059D01*
X214726460Y-117717525D01*
X214984701Y-117580216D01*
X215211353Y-117395363D01*
X215397784Y-117170006D01*
X215536892Y-116912731D01*
X215623379Y-116633335D01*
X215653951Y-116342462D01*
X215627444Y-116051190D01*
X215544866Y-115770615D01*
X215409363Y-115511422D01*
X215226097Y-115283485D01*
X215002048Y-115095485D01*
X214942413Y-115062700D01*
X214984701Y-115040216D01*
X215211353Y-114855363D01*
X215397784Y-114630006D01*
X215536892Y-114372731D01*
X215623379Y-114093335D01*
X215653951Y-113802462D01*
X215627444Y-113511190D01*
X215544866Y-113230615D01*
X215409363Y-112971422D01*
X215226097Y-112743485D01*
X215002048Y-112555485D01*
X214940127Y-112521444D01*
X215146729Y-112370486D01*
X215345733Y-112154035D01*
X215498686Y-111902919D01*
X215599709Y-111626789D01*
X215602358Y-111611026D01*
X215481217Y-111379000D01*
X214122000Y-111379000D01*
X214122000Y-111399000D01*
X213868000Y-111399000D01*
X213868000Y-111379000D01*
X212508783Y-111379000D01*
X212387642Y-111611026D01*
X212390291Y-111626789D01*
X212491314Y-111902919D01*
X212644267Y-112154035D01*
X212843271Y-112370486D01*
X213048794Y-112520656D01*
X213005299Y-112543784D01*
X212778647Y-112728637D01*
X212592216Y-112953994D01*
X212453108Y-113211269D01*
X212366621Y-113490665D01*
X212336049Y-113781538D01*
X212362556Y-114072810D01*
X212445134Y-114353385D01*
X212580637Y-114612578D01*
X212763903Y-114840515D01*
X212987952Y-115028515D01*
X213047586Y-115061299D01*
X213005299Y-115083784D01*
X212778647Y-115268637D01*
X212592216Y-115493994D01*
X212551119Y-115570000D01*
X212151630Y-115570000D01*
X210693000Y-114111370D01*
X210693000Y-98385493D01*
X210765111Y-98417919D01*
X210942500Y-98443072D01*
X211330500Y-98443072D01*
X211330500Y-99443500D01*
X211337374Y-99513613D01*
X211343504Y-99583670D01*
X211344620Y-99587512D01*
X211345012Y-99591507D01*
X211365377Y-99658959D01*
X211384994Y-99726482D01*
X211386837Y-99730037D01*
X211387996Y-99733876D01*
X211421056Y-99796053D01*
X211453433Y-99858514D01*
X211455931Y-99861644D01*
X211457814Y-99865184D01*
X211502300Y-99919730D01*
X211546214Y-99974740D01*
X211551712Y-99980314D01*
X211551807Y-99980431D01*
X211551914Y-99980520D01*
X211553685Y-99982315D01*
X212440184Y-100868815D01*
X212494597Y-100913510D01*
X212548495Y-100958736D01*
X212552006Y-100960666D01*
X212555103Y-100963210D01*
X212617129Y-100996468D01*
X212678816Y-101030381D01*
X212682636Y-101031592D01*
X212686167Y-101033486D01*
X212753464Y-101054060D01*
X212820571Y-101075348D01*
X212824554Y-101075794D01*
X212828385Y-101076966D01*
X212898372Y-101084075D01*
X212968361Y-101091926D01*
X212976197Y-101091980D01*
X212976340Y-101091995D01*
X212976473Y-101091982D01*
X212979000Y-101092000D01*
X214441370Y-101092000D01*
X214884000Y-101534630D01*
X214884000Y-102330587D01*
X214745749Y-102254584D01*
X214466964Y-102166148D01*
X214176312Y-102133546D01*
X214155388Y-102133400D01*
X213834612Y-102133400D01*
X213543532Y-102161941D01*
X213263540Y-102246475D01*
X213005299Y-102383784D01*
X212778647Y-102568637D01*
X212592216Y-102793994D01*
X212453108Y-103051269D01*
X212366621Y-103330665D01*
X212336049Y-103621538D01*
X212362556Y-103912810D01*
X212445134Y-104193385D01*
X212580637Y-104452578D01*
X212763903Y-104680515D01*
X212987952Y-104868515D01*
X213047586Y-104901299D01*
X213005299Y-104923784D01*
X212778647Y-105108637D01*
X212592216Y-105333994D01*
X212453108Y-105591269D01*
X212366621Y-105870665D01*
X212336049Y-106161538D01*
X212362556Y-106452810D01*
X212445134Y-106733385D01*
X212580637Y-106992578D01*
X212763903Y-107220515D01*
X212987952Y-107408515D01*
X213047586Y-107441299D01*
X213005299Y-107463784D01*
X212778647Y-107648637D01*
X212592216Y-107873994D01*
X212453108Y-108131269D01*
X212366621Y-108410665D01*
X212336049Y-108701538D01*
X212362556Y-108992810D01*
X212445134Y-109273385D01*
X212580637Y-109532578D01*
X212763903Y-109760515D01*
X212987952Y-109948515D01*
X213049872Y-109982555D01*
X212843271Y-110133514D01*
X212644267Y-110349965D01*
X212491314Y-110601081D01*
X212390291Y-110877211D01*
X212387642Y-110892974D01*
X212508783Y-111125000D01*
X213868000Y-111125000D01*
X213868000Y-111105000D01*
X214122000Y-111105000D01*
X214122000Y-111125000D01*
X215481217Y-111125000D01*
X215602358Y-110892974D01*
X215599709Y-110877211D01*
X215498686Y-110601081D01*
X215345733Y-110349965D01*
X215146729Y-110133514D01*
X214941205Y-109983343D01*
X214984701Y-109960216D01*
X215211353Y-109775363D01*
X215397784Y-109550006D01*
X215453305Y-109447321D01*
X215480459Y-109439122D01*
X215547982Y-109419506D01*
X215551537Y-109417662D01*
X215555376Y-109416504D01*
X215617553Y-109383443D01*
X215680014Y-109351067D01*
X215683144Y-109348568D01*
X215686684Y-109346686D01*
X215741230Y-109302199D01*
X215796240Y-109258286D01*
X215801814Y-109252787D01*
X215801931Y-109252693D01*
X215802020Y-109252585D01*
X215803815Y-109250815D01*
X216184815Y-108869816D01*
X216229510Y-108815402D01*
X216274736Y-108761505D01*
X216276666Y-108757993D01*
X216279210Y-108754897D01*
X216312468Y-108692870D01*
X216346381Y-108631184D01*
X216347592Y-108627363D01*
X216349486Y-108623833D01*
X216370060Y-108556535D01*
X216391348Y-108489429D01*
X216391794Y-108485445D01*
X216392966Y-108481615D01*
X216400075Y-108411627D01*
X216407926Y-108341639D01*
X216407980Y-108333802D01*
X216407995Y-108333660D01*
X216407982Y-108333526D01*
X216408000Y-108331000D01*
X216408000Y-108092000D01*
X216550250Y-108092000D01*
X216709000Y-107933250D01*
X216709000Y-106934000D01*
X216689000Y-106934000D01*
X216689000Y-106680000D01*
X216709000Y-106680000D01*
X216709000Y-105680750D01*
X216550250Y-105522000D01*
X216408000Y-105522000D01*
X216408000Y-103505000D01*
X216408000Y-103058630D01*
X217012185Y-103662815D01*
X217066599Y-103707512D01*
X217120495Y-103752736D01*
X217124002Y-103754664D01*
X217127103Y-103757211D01*
X217189203Y-103790509D01*
X217250816Y-103824381D01*
X217254631Y-103825591D01*
X217258167Y-103827487D01*
X217325551Y-103848088D01*
X217392571Y-103869348D01*
X217396548Y-103869794D01*
X217400385Y-103870967D01*
X217470422Y-103878080D01*
X217540361Y-103885926D01*
X217548197Y-103885980D01*
X217548340Y-103885995D01*
X217548473Y-103885982D01*
X217551000Y-103886000D01*
X219521369Y-103886000D01*
X221044837Y-105409468D01*
X220507560Y-105409468D01*
X220404517Y-105417843D01*
X220233519Y-105471313D01*
X220161595Y-105518928D01*
X218786000Y-105518928D01*
X218682957Y-105527303D01*
X218511959Y-105580773D01*
X218362566Y-105679674D01*
X218246558Y-105816208D01*
X218187010Y-105948633D01*
X218148730Y-105856215D01*
X218079237Y-105752211D01*
X217990789Y-105663763D01*
X217886785Y-105594270D01*
X217771223Y-105546403D01*
X217648542Y-105522000D01*
X217121750Y-105522000D01*
X216963000Y-105680750D01*
X216963000Y-106680000D01*
X216983000Y-106680000D01*
X216983000Y-106934000D01*
X216963000Y-106934000D01*
X216963000Y-107933250D01*
X217121750Y-108092000D01*
X217648542Y-108092000D01*
X217771223Y-108067597D01*
X217886785Y-108019730D01*
X217990789Y-107950237D01*
X218079237Y-107861789D01*
X218148730Y-107757785D01*
X218188279Y-107662303D01*
X218209773Y-107731041D01*
X218308674Y-107880434D01*
X218370028Y-107932564D01*
X218191452Y-108004715D01*
X218014308Y-108120634D01*
X217863054Y-108268753D01*
X217743450Y-108443431D01*
X217660052Y-108638012D01*
X217616037Y-108845087D01*
X217614319Y-108968049D01*
X217459185Y-109123185D01*
X217414487Y-109177599D01*
X217369264Y-109231495D01*
X217367335Y-109235002D01*
X217364789Y-109238103D01*
X217331510Y-109300168D01*
X217297619Y-109361816D01*
X217296407Y-109365636D01*
X217294514Y-109369167D01*
X217273939Y-109436464D01*
X217252652Y-109503571D01*
X217252205Y-109507554D01*
X217251034Y-109511385D01*
X217243924Y-109581372D01*
X217236074Y-109651361D01*
X217236019Y-109659197D01*
X217236005Y-109659340D01*
X217236017Y-109659473D01*
X217236000Y-109662000D01*
X217236000Y-109836928D01*
X216848000Y-109836928D01*
X216744957Y-109845303D01*
X216573959Y-109898773D01*
X216424566Y-109997674D01*
X216308558Y-110134208D01*
X216235081Y-110297611D01*
X216209928Y-110475000D01*
X216209928Y-111775000D01*
X216218303Y-111878043D01*
X216271773Y-112049041D01*
X216370674Y-112198434D01*
X216507208Y-112314442D01*
X216670611Y-112387919D01*
X216848000Y-112413072D01*
X218348000Y-112413072D01*
X218451043Y-112404697D01*
X218622041Y-112351227D01*
X218771434Y-112252326D01*
X218887442Y-112115792D01*
X218949494Y-111977794D01*
X218971773Y-112049041D01*
X219070674Y-112198434D01*
X219207208Y-112314442D01*
X219370611Y-112387919D01*
X219548000Y-112413072D01*
X220682442Y-112413072D01*
X220900298Y-112630928D01*
X219548000Y-112630928D01*
X219444957Y-112639303D01*
X219273959Y-112692773D01*
X219124566Y-112791674D01*
X219008558Y-112928208D01*
X218949010Y-113060633D01*
X218910730Y-112968215D01*
X218841237Y-112864211D01*
X218752789Y-112775763D01*
X218648785Y-112706270D01*
X218533223Y-112658403D01*
X218410542Y-112634000D01*
X217883750Y-112634000D01*
X217725000Y-112792750D01*
X217725000Y-113792000D01*
X217745000Y-113792000D01*
X217745000Y-114046000D01*
X217725000Y-114046000D01*
X217725000Y-115045250D01*
X217883750Y-115204000D01*
X218410542Y-115204000D01*
X218533223Y-115179597D01*
X218648785Y-115131730D01*
X218752789Y-115062237D01*
X218841237Y-114973789D01*
X218910730Y-114869785D01*
X218950279Y-114774303D01*
X218971773Y-114843041D01*
X219070674Y-114992434D01*
X219207208Y-115108442D01*
X219370611Y-115181919D01*
X219548000Y-115207072D01*
X220936441Y-115207072D01*
X221372684Y-115643315D01*
X221225389Y-115577081D01*
X221048000Y-115551928D01*
X219548000Y-115551928D01*
X219444957Y-115560303D01*
X219273959Y-115613773D01*
X219124566Y-115712674D01*
X219008558Y-115849208D01*
X218946505Y-115987205D01*
X218924227Y-115915959D01*
X218825326Y-115766566D01*
X218688792Y-115650558D01*
X218525389Y-115577081D01*
X218348000Y-115551928D01*
X217471000Y-115551928D01*
X217471000Y-115045250D01*
X217471000Y-114046000D01*
X217471000Y-113792000D01*
X217471000Y-112792750D01*
X217312250Y-112634000D01*
X216785458Y-112634000D01*
X216662777Y-112658403D01*
X216547215Y-112706270D01*
X216443211Y-112775763D01*
X216354763Y-112864211D01*
X216285270Y-112968215D01*
X216237403Y-113083777D01*
X216213000Y-113206458D01*
X216213000Y-113331542D01*
X216213000Y-113633250D01*
X216371750Y-113792000D01*
X217471000Y-113792000D01*
X217471000Y-114046000D01*
X216371750Y-114046000D01*
X216213000Y-114204750D01*
X216213000Y-114506458D01*
X216213000Y-114631542D01*
X216237403Y-114754223D01*
X216285270Y-114869785D01*
X216354763Y-114973789D01*
X216443211Y-115062237D01*
X216547215Y-115131730D01*
X216662777Y-115179597D01*
X216785458Y-115204000D01*
X217312250Y-115204000D01*
X217471000Y-115045250D01*
X217471000Y-115551928D01*
X216848000Y-115551928D01*
X216744957Y-115560303D01*
X216573959Y-115613773D01*
X216424566Y-115712674D01*
X216308558Y-115849208D01*
X216235081Y-116012611D01*
X216209928Y-116190000D01*
X216209928Y-117490000D01*
X216218303Y-117593043D01*
X216271773Y-117764041D01*
X216370674Y-117913434D01*
X216507208Y-118029442D01*
X216670611Y-118102919D01*
X216848000Y-118128072D01*
X217236000Y-118128072D01*
X217236000Y-118202031D01*
X217143642Y-118183660D01*
X217018558Y-118183660D01*
X216566750Y-118183660D01*
X216408000Y-118342410D01*
X216408000Y-119992140D01*
X217557350Y-119992140D01*
X217716100Y-119833390D01*
X217716100Y-119479730D01*
X217868376Y-119632006D01*
X217867081Y-119724767D01*
X217905297Y-119932990D01*
X217983230Y-120129825D01*
X218097910Y-120307773D01*
X218244969Y-120460058D01*
X218418807Y-120580879D01*
X218612802Y-120665633D01*
X218819564Y-120711093D01*
X219031219Y-120715526D01*
X219239704Y-120678765D01*
X219437077Y-120602208D01*
X219615822Y-120488773D01*
X219769130Y-120342780D01*
X219891161Y-120169790D01*
X219977268Y-119976392D01*
X220024170Y-119769952D01*
X220027546Y-119528150D01*
X219990518Y-119341148D01*
X220441185Y-119791815D01*
X220495599Y-119836512D01*
X220549495Y-119881736D01*
X220553002Y-119883664D01*
X220556103Y-119886211D01*
X220618168Y-119919489D01*
X220679816Y-119953381D01*
X220683636Y-119954592D01*
X220687167Y-119956486D01*
X220754464Y-119977060D01*
X220821571Y-119998348D01*
X220825554Y-119998794D01*
X220829385Y-119999966D01*
X220899372Y-120007075D01*
X220969361Y-120014926D01*
X220977197Y-120014980D01*
X220977340Y-120014995D01*
X220977473Y-120014982D01*
X220980000Y-120015000D01*
X221865928Y-120015000D01*
X221865928Y-120116600D01*
X221874303Y-120219643D01*
X221927773Y-120390641D01*
X222026674Y-120540034D01*
X222163208Y-120656042D01*
X222326611Y-120729519D01*
X222504000Y-120754672D01*
X224536000Y-120754672D01*
X224639043Y-120746297D01*
X224810041Y-120692827D01*
X224959434Y-120593926D01*
X225075442Y-120457392D01*
X225148919Y-120293989D01*
X225174072Y-120116600D01*
X225174072Y-118389400D01*
X225165697Y-118286357D01*
X225112227Y-118115359D01*
X225013326Y-117965966D01*
X224876792Y-117849958D01*
X224728098Y-117783095D01*
X224736353Y-117776363D01*
X224922784Y-117551006D01*
X225061892Y-117293731D01*
X225148379Y-117014335D01*
X225178951Y-116723462D01*
X225152444Y-116432190D01*
X225069866Y-116151615D01*
X224934363Y-115892422D01*
X224751097Y-115664485D01*
X224527048Y-115476485D01*
X224467413Y-115443700D01*
X224509701Y-115421216D01*
X224736353Y-115236363D01*
X224922784Y-115011006D01*
X225061892Y-114753731D01*
X225148379Y-114474335D01*
X225178951Y-114183462D01*
X225152444Y-113892190D01*
X225069866Y-113611615D01*
X224934363Y-113352422D01*
X224751097Y-113124485D01*
X224527048Y-112936485D01*
X224270749Y-112795584D01*
X223991964Y-112707148D01*
X223701312Y-112674546D01*
X223680388Y-112674400D01*
X223359612Y-112674400D01*
X223122299Y-112697669D01*
X221686072Y-111261442D01*
X221686072Y-110475000D01*
X221677697Y-110371957D01*
X221624227Y-110200959D01*
X221525326Y-110051566D01*
X221444077Y-109982532D01*
X221706440Y-109982532D01*
X221809483Y-109974157D01*
X221980481Y-109920687D01*
X222086722Y-109850353D01*
X222210928Y-109974558D01*
X222210928Y-111185000D01*
X222219303Y-111288043D01*
X222272773Y-111459041D01*
X222371674Y-111608434D01*
X222508208Y-111724442D01*
X222671611Y-111797919D01*
X222849000Y-111823072D01*
X224849000Y-111823072D01*
X224952043Y-111814697D01*
X225123041Y-111761227D01*
X225272434Y-111662326D01*
X225388442Y-111525792D01*
X225461919Y-111362389D01*
X225485370Y-111197000D01*
X228411903Y-111197000D01*
X228419303Y-111288043D01*
X228472773Y-111459041D01*
X228571674Y-111608434D01*
X228708208Y-111724442D01*
X228871611Y-111797919D01*
X229049000Y-111823072D01*
X230990447Y-111823072D01*
X230990447Y-111823072D01*
G37*
X230990447Y-111823072D02*
X230540031Y-113314924D01*
X228334008Y-117463850D01*
X225364132Y-121105276D01*
X221743527Y-124100501D01*
X217610103Y-126335435D01*
X215817197Y-126890432D01*
X216819815Y-125887816D01*
X216864510Y-125833402D01*
X216909736Y-125779505D01*
X216911666Y-125775993D01*
X216914210Y-125772897D01*
X216947468Y-125710870D01*
X216975758Y-125659412D01*
X217081100Y-125659412D01*
X217184143Y-125651037D01*
X217355141Y-125597567D01*
X217504534Y-125498666D01*
X217620542Y-125362132D01*
X217694019Y-125198729D01*
X217719172Y-125021340D01*
X217719172Y-124455357D01*
X217743599Y-124447982D01*
X217811122Y-124428366D01*
X217814677Y-124426522D01*
X217818516Y-124425364D01*
X217880693Y-124392303D01*
X217943154Y-124359927D01*
X217946284Y-124357428D01*
X217949824Y-124355546D01*
X218004370Y-124311059D01*
X218059380Y-124267146D01*
X218064954Y-124261647D01*
X218065071Y-124261553D01*
X218065160Y-124261445D01*
X218066955Y-124259675D01*
X218945891Y-123380738D01*
X219031219Y-123382526D01*
X219239704Y-123345765D01*
X219437077Y-123269208D01*
X219615822Y-123155773D01*
X219769130Y-123009780D01*
X219891161Y-122836790D01*
X219977268Y-122643392D01*
X220024170Y-122436952D01*
X220027546Y-122195150D01*
X219986426Y-121987481D01*
X219905754Y-121791753D01*
X219788600Y-121615423D01*
X219639428Y-121465207D01*
X219463921Y-121346825D01*
X219268761Y-121264788D01*
X219061384Y-121222219D01*
X218849689Y-121220741D01*
X218641738Y-121260410D01*
X218445452Y-121339715D01*
X218268308Y-121455634D01*
X218117054Y-121603753D01*
X217997450Y-121778431D01*
X217914052Y-121973012D01*
X217870037Y-122180087D01*
X217868319Y-122303049D01*
X217719172Y-122452197D01*
X217719172Y-122420380D01*
X217710797Y-122317337D01*
X217657327Y-122146339D01*
X217558426Y-121996946D01*
X217471093Y-121922742D01*
X217485889Y-121912857D01*
X217574337Y-121824409D01*
X217643830Y-121720405D01*
X217691697Y-121604843D01*
X217716100Y-121482162D01*
X217716100Y-120404890D01*
X217557350Y-120246140D01*
X216408000Y-120246140D01*
X216408000Y-120266140D01*
X216154000Y-120266140D01*
X216154000Y-120246140D01*
X216154000Y-119992140D01*
X216154000Y-118342410D01*
X215995250Y-118183660D01*
X215543442Y-118183660D01*
X215418358Y-118183660D01*
X215295677Y-118208063D01*
X215180115Y-118255930D01*
X215076111Y-118325423D01*
X214987663Y-118413871D01*
X214918170Y-118517875D01*
X214870303Y-118633437D01*
X214845900Y-118756118D01*
X214845900Y-119833390D01*
X215004650Y-119992140D01*
X216154000Y-119992140D01*
X216154000Y-120246140D01*
X215004650Y-120246140D01*
X214845900Y-120404890D01*
X214845900Y-121482162D01*
X214870303Y-121604843D01*
X214918170Y-121720405D01*
X214987663Y-121824409D01*
X215076111Y-121912857D01*
X215089532Y-121921825D01*
X215057466Y-121943054D01*
X214941458Y-122079588D01*
X214867981Y-122242991D01*
X214842828Y-122420380D01*
X214842828Y-124500178D01*
X214825754Y-124458753D01*
X214708600Y-124282423D01*
X214559428Y-124132207D01*
X214383921Y-124013825D01*
X214188761Y-123931788D01*
X213981384Y-123889219D01*
X213858858Y-123888363D01*
X213844400Y-123876487D01*
X213790505Y-123831264D01*
X213786997Y-123829335D01*
X213783897Y-123826789D01*
X213721831Y-123793510D01*
X213660184Y-123759619D01*
X213656363Y-123758407D01*
X213652833Y-123756514D01*
X213585535Y-123735939D01*
X213518429Y-123714652D01*
X213514445Y-123714205D01*
X213510615Y-123713034D01*
X213440627Y-123705924D01*
X213370639Y-123698074D01*
X213362802Y-123698019D01*
X213362660Y-123698005D01*
X213362526Y-123698017D01*
X213360000Y-123698000D01*
X213180493Y-123698000D01*
X213174227Y-123677959D01*
X213075326Y-123528566D01*
X212938792Y-123412558D01*
X212775389Y-123339081D01*
X212619664Y-123317000D01*
X212660542Y-123317000D01*
X212783223Y-123292597D01*
X212898785Y-123244730D01*
X213002789Y-123175237D01*
X213091237Y-123086789D01*
X213160730Y-122982785D01*
X213208597Y-122867223D01*
X213233000Y-122744542D01*
X213233000Y-122459750D01*
X213074250Y-122301000D01*
X211709000Y-122301000D01*
X211709000Y-122321000D01*
X211455000Y-122321000D01*
X211455000Y-122301000D01*
X210089750Y-122301000D01*
X209931000Y-122459750D01*
X209931000Y-122744542D01*
X209955403Y-122867223D01*
X210003270Y-122982785D01*
X210072763Y-123086789D01*
X210161211Y-123175237D01*
X210265215Y-123244730D01*
X210380777Y-123292597D01*
X210503458Y-123317000D01*
X210528203Y-123317000D01*
X210462957Y-123322303D01*
X210291959Y-123375773D01*
X210142566Y-123474674D01*
X210026558Y-123611208D01*
X209953081Y-123774611D01*
X209927928Y-123952000D01*
X209927928Y-124968000D01*
X209936303Y-125071043D01*
X209989773Y-125242041D01*
X210088674Y-125391434D01*
X210225208Y-125507442D01*
X210388611Y-125580919D01*
X210566000Y-125606072D01*
X212598000Y-125606072D01*
X212701043Y-125597697D01*
X212872041Y-125544227D01*
X212930222Y-125505709D01*
X213017910Y-125641773D01*
X213164969Y-125794058D01*
X213255530Y-125857000D01*
X206629000Y-125857000D01*
X206629000Y-124065342D01*
X206629000Y-122459750D01*
X206470250Y-122301000D01*
X205105000Y-122301000D01*
X205105000Y-124479050D01*
X205263750Y-124637800D01*
X205931458Y-124637800D01*
X206056542Y-124637800D01*
X206179223Y-124613397D01*
X206294785Y-124565530D01*
X206398789Y-124496037D01*
X206487237Y-124407589D01*
X206556730Y-124303585D01*
X206604597Y-124188023D01*
X206629000Y-124065342D01*
X206629000Y-125857000D01*
X204851000Y-125857000D01*
X204851000Y-124479050D01*
X204851000Y-122301000D01*
X203485750Y-122301000D01*
X203327000Y-122459750D01*
X203327000Y-124065342D01*
X203351403Y-124188023D01*
X203399270Y-124303585D01*
X203468763Y-124407589D01*
X203557211Y-124496037D01*
X203661215Y-124565530D01*
X203776777Y-124613397D01*
X203899458Y-124637800D01*
X204024542Y-124637800D01*
X204692250Y-124637800D01*
X204851000Y-124479050D01*
X204851000Y-125857000D01*
X202626630Y-125857000D01*
X201590172Y-124820542D01*
X201590172Y-122674380D01*
X201581797Y-122571337D01*
X201528327Y-122400339D01*
X201429426Y-122250946D01*
X201339673Y-122174686D01*
X201375534Y-122150946D01*
X201491542Y-122014412D01*
X201565019Y-121851009D01*
X201590172Y-121673620D01*
X201590172Y-120923359D01*
X201595100Y-120919426D01*
X201600674Y-120913927D01*
X201600791Y-120913833D01*
X201600880Y-120913725D01*
X201602675Y-120911955D01*
X202626630Y-119888000D01*
X203521174Y-119888000D01*
X203468763Y-119940411D01*
X203399270Y-120044415D01*
X203351403Y-120159977D01*
X203327000Y-120282658D01*
X203327000Y-121888250D01*
X203485750Y-122047000D01*
X204851000Y-122047000D01*
X204851000Y-122027000D01*
X205105000Y-122027000D01*
X205105000Y-122047000D01*
X206470250Y-122047000D01*
X206629000Y-121888250D01*
X206629000Y-120282658D01*
X206604597Y-120159977D01*
X206556730Y-120044415D01*
X206487237Y-119940411D01*
X206434826Y-119888000D01*
X208154869Y-119888000D01*
X208693685Y-120426816D01*
X208748129Y-120471537D01*
X208801995Y-120516736D01*
X208805502Y-120518664D01*
X208808603Y-120521211D01*
X208870703Y-120554509D01*
X208932316Y-120588381D01*
X208936131Y-120589591D01*
X208939667Y-120591487D01*
X209007051Y-120612088D01*
X209074071Y-120633348D01*
X209078048Y-120633794D01*
X209081885Y-120634967D01*
X209151922Y-120642080D01*
X209221861Y-120649926D01*
X209229697Y-120649980D01*
X209229840Y-120649995D01*
X209229973Y-120649982D01*
X209232500Y-120650000D01*
X209983506Y-120650000D01*
X209989773Y-120670041D01*
X210088674Y-120819434D01*
X210225208Y-120935442D01*
X210388611Y-121008919D01*
X210544335Y-121031000D01*
X210503458Y-121031000D01*
X210380777Y-121055403D01*
X210265215Y-121103270D01*
X210161211Y-121172763D01*
X210072763Y-121261211D01*
X210003270Y-121365215D01*
X209955403Y-121480777D01*
X209931000Y-121603458D01*
X209931000Y-121888250D01*
X210089750Y-122047000D01*
X211455000Y-122047000D01*
X211455000Y-122027000D01*
X211709000Y-122027000D01*
X211709000Y-122047000D01*
X213074250Y-122047000D01*
X213233000Y-121888250D01*
X213233000Y-121603458D01*
X213208597Y-121480777D01*
X213160730Y-121365215D01*
X213091237Y-121261211D01*
X213002789Y-121172763D01*
X212898785Y-121103270D01*
X212783223Y-121055403D01*
X212660542Y-121031000D01*
X212635796Y-121031000D01*
X212701043Y-121025697D01*
X212872041Y-120972227D01*
X213021434Y-120873326D01*
X213137442Y-120736792D01*
X213210919Y-120573389D01*
X213236072Y-120396000D01*
X213236072Y-119380000D01*
X213227697Y-119276957D01*
X213174227Y-119105959D01*
X213075326Y-118956566D01*
X212938792Y-118840558D01*
X212775389Y-118767081D01*
X212598000Y-118741928D01*
X210566000Y-118741928D01*
X210462957Y-118750303D01*
X210291959Y-118803773D01*
X210142566Y-118902674D01*
X210026558Y-119039208D01*
X209987530Y-119126000D01*
X209548130Y-119126000D01*
X209009315Y-118587185D01*
X208954900Y-118542487D01*
X208901005Y-118497264D01*
X208897497Y-118495335D01*
X208894397Y-118492789D01*
X208832331Y-118459510D01*
X208770684Y-118425619D01*
X208766863Y-118424407D01*
X208763333Y-118422514D01*
X208696035Y-118401939D01*
X208628929Y-118380652D01*
X208624945Y-118380205D01*
X208621115Y-118379034D01*
X208551127Y-118371924D01*
X208481139Y-118364074D01*
X208473302Y-118364019D01*
X208473160Y-118364005D01*
X208473026Y-118364017D01*
X208470500Y-118364000D01*
X202311000Y-118364000D01*
X202240894Y-118370873D01*
X202170829Y-118377004D01*
X202166985Y-118378120D01*
X202162993Y-118378512D01*
X202095552Y-118398873D01*
X202028018Y-118418494D01*
X202024462Y-118420337D01*
X202020624Y-118421496D01*
X201958467Y-118454545D01*
X201895985Y-118486933D01*
X201892852Y-118489433D01*
X201889316Y-118491314D01*
X201834791Y-118535783D01*
X201779760Y-118579714D01*
X201774181Y-118585215D01*
X201774069Y-118585307D01*
X201773983Y-118585410D01*
X201772184Y-118587185D01*
X201536050Y-118823318D01*
X201528327Y-118798619D01*
X201429426Y-118649226D01*
X201292892Y-118533218D01*
X201129489Y-118459741D01*
X200952100Y-118434588D01*
X199351900Y-118434588D01*
X199248857Y-118442963D01*
X199077859Y-118496433D01*
X198928466Y-118595334D01*
X198812458Y-118731868D01*
X198738981Y-118895271D01*
X198713828Y-119072660D01*
X198713828Y-119611140D01*
X198666770Y-119611140D01*
X197398072Y-118342441D01*
X197398072Y-115265000D01*
X197389697Y-115161957D01*
X197336227Y-114990959D01*
X197237326Y-114841566D01*
X197100792Y-114725558D01*
X196937389Y-114652081D01*
X196760000Y-114626928D01*
X195060000Y-114626928D01*
X194956957Y-114635303D01*
X194785959Y-114688773D01*
X194636566Y-114787674D01*
X194520558Y-114924208D01*
X194447081Y-115087611D01*
X194421928Y-115265000D01*
X194421928Y-118415000D01*
X194430303Y-118518043D01*
X194483773Y-118689041D01*
X194582674Y-118838434D01*
X194719208Y-118954442D01*
X194882611Y-119027919D01*
X195060000Y-119053072D01*
X195953441Y-119053072D01*
X197812324Y-120911955D01*
X197866737Y-120956650D01*
X197920635Y-121001876D01*
X197924146Y-121003806D01*
X197927243Y-121006350D01*
X197989269Y-121039608D01*
X198050956Y-121073521D01*
X198054776Y-121074732D01*
X198058307Y-121076626D01*
X198125604Y-121097200D01*
X198192711Y-121118488D01*
X198196694Y-121118934D01*
X198200525Y-121120106D01*
X198270512Y-121127215D01*
X198340501Y-121135066D01*
X198348337Y-121135120D01*
X198348480Y-121135135D01*
X198348613Y-121135122D01*
X198351140Y-121135140D01*
X198713828Y-121135140D01*
X198713828Y-121673620D01*
X198722203Y-121776663D01*
X198775673Y-121947661D01*
X198874574Y-122097054D01*
X198964326Y-122173313D01*
X198928466Y-122197054D01*
X198812458Y-122333588D01*
X198738981Y-122496991D01*
X198713828Y-122674380D01*
X198713828Y-125275340D01*
X198722203Y-125378383D01*
X198775673Y-125549381D01*
X198874574Y-125698774D01*
X199011108Y-125814782D01*
X199174511Y-125888259D01*
X199351900Y-125913412D01*
X200527782Y-125913412D01*
X201772185Y-127157815D01*
X201826599Y-127202512D01*
X201856360Y-127227484D01*
X199260702Y-126463541D01*
X195096477Y-124286536D01*
X194298072Y-123644601D01*
X194298072Y-118415000D01*
X194298072Y-115265000D01*
X194289697Y-115161957D01*
X194236227Y-114990959D01*
X194137326Y-114841566D01*
X194000792Y-114725558D01*
X193837389Y-114652081D01*
X193660000Y-114626928D01*
X191960000Y-114626928D01*
X191856957Y-114635303D01*
X191685959Y-114688773D01*
X191536566Y-114787674D01*
X191420558Y-114924208D01*
X191347081Y-115087611D01*
X191321928Y-115265000D01*
X191321928Y-116078000D01*
X191196630Y-116078000D01*
X191008000Y-115889369D01*
X191008000Y-113599410D01*
X191047543Y-113596197D01*
X191218541Y-113542727D01*
X191367934Y-113443826D01*
X191483942Y-113307292D01*
X191557419Y-113143889D01*
X191582572Y-112966500D01*
X191582572Y-111569500D01*
X191574197Y-111466457D01*
X191520727Y-111295459D01*
X191421826Y-111146066D01*
X191285292Y-111030058D01*
X191121889Y-110956581D01*
X190944500Y-110931428D01*
X189547500Y-110931428D01*
X189444457Y-110939803D01*
X189273459Y-110993273D01*
X189124066Y-111092174D01*
X189008058Y-111228708D01*
X188934581Y-111392111D01*
X188909428Y-111569500D01*
X188909428Y-112966500D01*
X188917803Y-113069543D01*
X188971273Y-113240541D01*
X189070174Y-113389934D01*
X189206708Y-113505942D01*
X189370111Y-113579419D01*
X189484000Y-113595567D01*
X189484000Y-116205000D01*
X189490874Y-116275113D01*
X189497004Y-116345170D01*
X189498120Y-116349012D01*
X189498512Y-116353007D01*
X189518877Y-116420459D01*
X189538494Y-116487982D01*
X189540337Y-116491537D01*
X189541496Y-116495376D01*
X189574556Y-116557553D01*
X189606933Y-116620014D01*
X189609431Y-116623144D01*
X189611314Y-116626684D01*
X189655800Y-116681230D01*
X189699714Y-116736240D01*
X189705212Y-116741814D01*
X189705307Y-116741931D01*
X189705414Y-116742020D01*
X189707185Y-116743815D01*
X190342185Y-117378816D01*
X190396629Y-117423537D01*
X190450495Y-117468736D01*
X190454002Y-117470664D01*
X190457103Y-117473211D01*
X190519184Y-117506498D01*
X190580816Y-117540381D01*
X190584634Y-117541592D01*
X190588168Y-117543487D01*
X190655537Y-117564083D01*
X190722571Y-117585348D01*
X190726549Y-117585794D01*
X190730385Y-117586967D01*
X190800466Y-117594085D01*
X190870361Y-117601926D01*
X190878186Y-117601980D01*
X190878340Y-117601996D01*
X190878482Y-117601982D01*
X190881000Y-117602000D01*
X191321928Y-117602000D01*
X191321928Y-118415000D01*
X191330303Y-118518043D01*
X191383773Y-118689041D01*
X191482674Y-118838434D01*
X191619208Y-118954442D01*
X191782611Y-119027919D01*
X191960000Y-119053072D01*
X193660000Y-119053072D01*
X193763043Y-119044697D01*
X193934041Y-118991227D01*
X194083434Y-118892326D01*
X194199442Y-118755792D01*
X194272919Y-118592389D01*
X194298072Y-118415000D01*
X194298072Y-123644601D01*
X191434403Y-121342153D01*
X188413976Y-117742549D01*
X186150239Y-113624826D01*
X184729419Y-109145829D01*
X184202146Y-104445089D01*
X184200000Y-104137653D01*
X184200000Y-99958503D01*
X184218743Y-99767336D01*
X184264532Y-99615678D01*
X184338904Y-99475804D01*
X184439030Y-99353038D01*
X184561093Y-99252059D01*
X184700449Y-99176709D01*
X184851780Y-99129864D01*
X185040782Y-99110000D01*
X197255000Y-99110000D01*
X197255121Y-99109988D01*
X197257420Y-99109996D01*
X197267892Y-99109959D01*
X197297648Y-99106935D01*
X197327554Y-99107144D01*
X197337073Y-99106211D01*
X197628218Y-99075611D01*
X197689054Y-99063122D01*
X197750021Y-99051493D01*
X197759177Y-99048729D01*
X198038833Y-98962161D01*
X198096062Y-98938103D01*
X198153632Y-98914844D01*
X198162076Y-98910354D01*
X198162077Y-98910354D01*
X198419593Y-98771115D01*
X198471065Y-98736395D01*
X198523012Y-98702403D01*
X198530424Y-98696358D01*
X198530426Y-98696356D01*
X198755991Y-98509753D01*
X198799738Y-98465699D01*
X198844096Y-98422261D01*
X198850193Y-98414891D01*
X199035219Y-98188027D01*
X199069580Y-98136309D01*
X199104652Y-98085088D01*
X199109201Y-98076675D01*
X199246638Y-97818194D01*
X199270311Y-97760758D01*
X199294754Y-97703730D01*
X199297583Y-97694593D01*
X199382197Y-97414339D01*
X199394258Y-97353423D01*
X199407164Y-97292707D01*
X199408164Y-97283196D01*
X199436731Y-96991844D01*
X199436730Y-96963112D01*
X199439933Y-96934564D01*
X199440000Y-96925000D01*
X199440000Y-64617743D01*
X199478714Y-64666240D01*
X199484212Y-64671814D01*
X199484307Y-64671931D01*
X199484414Y-64672020D01*
X199486185Y-64673815D01*
X200360577Y-65548207D01*
X200301621Y-65738665D01*
X200271049Y-66029538D01*
X200297556Y-66320810D01*
X200380134Y-66601385D01*
X200515637Y-66860578D01*
X200698903Y-67088515D01*
X200922952Y-67276515D01*
X200982586Y-67309299D01*
X200940299Y-67331784D01*
X200713647Y-67516637D01*
X200527216Y-67741994D01*
X200388108Y-67999269D01*
X200301621Y-68278665D01*
X200271049Y-68569538D01*
X200297556Y-68860810D01*
X200380134Y-69141385D01*
X200515637Y-69400578D01*
X200698903Y-69628515D01*
X200922952Y-69816515D01*
X200982586Y-69849299D01*
X200940299Y-69871784D01*
X200713647Y-70056637D01*
X200527216Y-70281994D01*
X200388108Y-70539269D01*
X200301621Y-70818665D01*
X200271049Y-71109538D01*
X200297556Y-71400810D01*
X200380134Y-71681385D01*
X200515637Y-71940578D01*
X200698903Y-72168515D01*
X200922952Y-72356515D01*
X201179251Y-72497416D01*
X201458036Y-72585852D01*
X201748688Y-72618454D01*
X201769612Y-72618600D01*
X202090388Y-72618600D01*
X202381468Y-72590059D01*
X202661460Y-72505525D01*
X202919701Y-72368216D01*
X203146353Y-72183363D01*
X203156354Y-72171272D01*
X203302188Y-72293641D01*
X203471689Y-72386825D01*
X203452738Y-72394474D01*
X203218560Y-72547875D01*
X203018808Y-72744014D01*
X202861159Y-72975354D01*
X202751672Y-73233004D01*
X202734990Y-73312940D01*
X202857148Y-73533000D01*
X204343000Y-73533000D01*
X204343000Y-73513000D01*
X204597000Y-73513000D01*
X204597000Y-73533000D01*
X204617000Y-73533000D01*
X204617000Y-73787000D01*
X204597000Y-73787000D01*
X204597000Y-73807000D01*
X204343000Y-73807000D01*
X204343000Y-73787000D01*
X202857148Y-73787000D01*
X202734990Y-74007060D01*
X202751672Y-74086996D01*
X202861159Y-74344646D01*
X203018808Y-74575986D01*
X203207571Y-74761335D01*
X203123389Y-74723481D01*
X202946000Y-74698328D01*
X200914000Y-74698328D01*
X200810957Y-74706703D01*
X200639959Y-74760173D01*
X200490566Y-74859074D01*
X200374558Y-74995608D01*
X200301081Y-75159011D01*
X200275928Y-75336400D01*
X200275928Y-77063600D01*
X200284303Y-77166643D01*
X200337773Y-77337641D01*
X200436674Y-77487034D01*
X200573208Y-77603042D01*
X200721901Y-77669904D01*
X200713647Y-77676637D01*
X200527216Y-77901994D01*
X200388108Y-78159269D01*
X200301621Y-78438665D01*
X200271049Y-78729538D01*
X200297556Y-79020810D01*
X200380134Y-79301385D01*
X200515637Y-79560578D01*
X200698903Y-79788515D01*
X200922952Y-79976515D01*
X200982586Y-80009299D01*
X200940299Y-80031784D01*
X200713647Y-80216637D01*
X200527216Y-80441994D01*
X200388108Y-80699269D01*
X200301621Y-80978665D01*
X200271049Y-81269538D01*
X200297556Y-81560810D01*
X200380134Y-81841385D01*
X200515637Y-82100578D01*
X200698903Y-82328515D01*
X200922952Y-82516515D01*
X200982586Y-82549299D01*
X200940299Y-82571784D01*
X200713647Y-82756637D01*
X200527216Y-82981994D01*
X200388108Y-83239269D01*
X200301621Y-83518665D01*
X200271049Y-83809538D01*
X200297556Y-84100810D01*
X200380134Y-84381385D01*
X200515637Y-84640578D01*
X200698903Y-84868515D01*
X200922952Y-85056515D01*
X200982586Y-85089299D01*
X200940299Y-85111784D01*
X200713647Y-85296637D01*
X200527216Y-85521994D01*
X200388108Y-85779269D01*
X200301621Y-86058665D01*
X200271049Y-86349538D01*
X200297556Y-86640810D01*
X200380134Y-86921385D01*
X200515637Y-87180578D01*
X200698903Y-87408515D01*
X200922952Y-87596515D01*
X200982586Y-87629299D01*
X200940299Y-87651784D01*
X200713647Y-87836637D01*
X200527216Y-88061994D01*
X200388108Y-88319269D01*
X200301621Y-88598665D01*
X200271049Y-88889538D01*
X200297556Y-89180810D01*
X200380134Y-89461385D01*
X200515637Y-89720578D01*
X200698903Y-89948515D01*
X200922952Y-90136515D01*
X200982586Y-90169299D01*
X200940299Y-90191784D01*
X200713647Y-90376637D01*
X200527216Y-90601994D01*
X200388108Y-90859269D01*
X200301621Y-91138665D01*
X200271049Y-91429538D01*
X200297556Y-91720810D01*
X200380134Y-92001385D01*
X200515637Y-92260578D01*
X200698903Y-92488515D01*
X200922952Y-92676515D01*
X200982586Y-92709299D01*
X200940299Y-92731784D01*
X200713647Y-92916637D01*
X200527216Y-93141994D01*
X200388108Y-93399269D01*
X200301621Y-93678665D01*
X200271049Y-93969538D01*
X200297556Y-94260810D01*
X200380134Y-94541385D01*
X200515637Y-94800578D01*
X200698903Y-95028515D01*
X200922952Y-95216515D01*
X201179251Y-95357416D01*
X201458036Y-95445852D01*
X201748688Y-95478454D01*
X201769612Y-95478600D01*
X202090388Y-95478600D01*
X202381468Y-95450059D01*
X202661460Y-95365525D01*
X202919701Y-95228216D01*
X203146353Y-95043363D01*
X203156354Y-95031272D01*
X203302188Y-95153641D01*
X203545454Y-95287378D01*
X203810063Y-95371317D01*
X204085937Y-95402261D01*
X204105797Y-95402400D01*
X204834203Y-95402400D01*
X204897141Y-95396228D01*
X204820185Y-95473185D01*
X204775487Y-95527599D01*
X204730264Y-95581495D01*
X204728335Y-95585002D01*
X204725789Y-95588103D01*
X204692510Y-95650168D01*
X204658619Y-95711816D01*
X204657407Y-95715636D01*
X204655514Y-95719167D01*
X204634939Y-95786464D01*
X204613652Y-95853571D01*
X204613205Y-95857554D01*
X204612034Y-95861385D01*
X204604924Y-95931372D01*
X204597074Y-96001361D01*
X204597019Y-96009197D01*
X204597005Y-96009340D01*
X204597017Y-96009473D01*
X204597000Y-96012000D01*
X204597000Y-96806574D01*
X200161536Y-100642651D01*
X200145260Y-100659775D01*
X200126857Y-100674572D01*
X200094150Y-100713550D01*
X200059082Y-100750447D01*
X200046443Y-100770404D01*
X200031264Y-100788495D01*
X200006747Y-100833089D01*
X199979518Y-100876089D01*
X199970998Y-100898117D01*
X199959619Y-100918816D01*
X199944229Y-100967328D01*
X199925873Y-101014792D01*
X199921794Y-101038056D01*
X199914652Y-101060571D01*
X199908978Y-101111148D01*
X199900190Y-101161274D01*
X199900707Y-101184884D01*
X199898074Y-101208361D01*
X199898000Y-101219000D01*
X199898000Y-101224868D01*
X199818006Y-101144314D01*
X199348955Y-100827935D01*
X198827386Y-100608687D01*
X198273164Y-100494922D01*
X197707400Y-100490972D01*
X197151644Y-100596988D01*
X196627064Y-100808932D01*
X196153641Y-101118731D01*
X195749409Y-101514585D01*
X195429763Y-101981416D01*
X195206879Y-102501442D01*
X195089248Y-103054856D01*
X195081348Y-103620579D01*
X195183482Y-104177061D01*
X195391758Y-104703108D01*
X195698245Y-105178682D01*
X195821631Y-105306452D01*
X195273424Y-105193922D01*
X194707660Y-105189972D01*
X194151904Y-105295988D01*
X194131609Y-105304187D01*
X194165158Y-105272240D01*
X194491290Y-104809917D01*
X194721413Y-104293054D01*
X194846760Y-103741336D01*
X194855783Y-103095111D01*
X194745890Y-102540109D01*
X194530289Y-102017021D01*
X194217192Y-101545773D01*
X193818526Y-101144314D01*
X193349475Y-100827935D01*
X192827906Y-100608687D01*
X192273684Y-100494922D01*
X191707920Y-100490972D01*
X191152164Y-100596988D01*
X190627584Y-100808932D01*
X190154161Y-101118731D01*
X189749929Y-101514585D01*
X189430283Y-101981416D01*
X189207399Y-102501442D01*
X189089768Y-103054856D01*
X189081868Y-103620579D01*
X189184002Y-104177061D01*
X189392278Y-104703108D01*
X189698765Y-105178682D01*
X190091787Y-105585668D01*
X190556375Y-105908565D01*
X191074832Y-106135074D01*
X191627412Y-106256566D01*
X192193065Y-106268415D01*
X192750248Y-106170169D01*
X192822701Y-106142066D01*
X192749669Y-106213585D01*
X192430023Y-106680416D01*
X192207139Y-107200442D01*
X192089508Y-107753856D01*
X192081608Y-108319579D01*
X192183742Y-108876061D01*
X192392018Y-109402108D01*
X192698505Y-109877682D01*
X193091527Y-110284668D01*
X193556115Y-110607565D01*
X194074572Y-110834074D01*
X194627152Y-110955566D01*
X195192805Y-110967415D01*
X195749988Y-110869169D01*
X196277476Y-110664570D01*
X196755177Y-110361411D01*
X197164898Y-109971240D01*
X197208140Y-109909940D01*
X197208140Y-111104785D01*
X197026381Y-111223725D01*
X196839537Y-111406695D01*
X196691791Y-111622473D01*
X196588770Y-111862839D01*
X196534399Y-112118637D01*
X196530747Y-112380124D01*
X196577955Y-112637341D01*
X196674225Y-112880489D01*
X196815888Y-113100308D01*
X196997550Y-113288425D01*
X197212291Y-113437674D01*
X197451932Y-113542370D01*
X197707344Y-113598526D01*
X197968800Y-113604003D01*
X198226340Y-113558592D01*
X198470154Y-113464022D01*
X198690957Y-113323897D01*
X198880337Y-113143552D01*
X199031081Y-112929858D01*
X199137448Y-112690955D01*
X199195386Y-112435941D01*
X199199557Y-112137244D01*
X199148762Y-111880711D01*
X199049107Y-111638931D01*
X198904388Y-111421111D01*
X198732140Y-111247655D01*
X198732140Y-106173270D01*
X198749728Y-106170169D01*
X199277216Y-105965570D01*
X199754917Y-105662411D01*
X199898000Y-105526155D01*
X199898000Y-113157000D01*
X199902307Y-113200927D01*
X199903104Y-113245044D01*
X199909545Y-113274747D01*
X199912512Y-113305007D01*
X199925269Y-113347261D01*
X199934620Y-113390382D01*
X199946708Y-113418270D01*
X199955496Y-113447376D01*
X199976214Y-113486342D01*
X199993765Y-113526831D01*
X200011042Y-113551844D01*
X200025314Y-113578684D01*
X200053204Y-113612881D01*
X200078287Y-113649193D01*
X200100093Y-113670373D01*
X200119307Y-113693931D01*
X200153312Y-113722062D01*
X200184967Y-113752808D01*
X200210468Y-113769346D01*
X200233895Y-113788727D01*
X200272721Y-113809720D01*
X200309741Y-113833729D01*
X200319223Y-113838554D01*
X200957544Y-114157714D01*
X201015134Y-114353385D01*
X201150637Y-114612578D01*
X201333903Y-114840515D01*
X201557952Y-115028515D01*
X201617586Y-115061299D01*
X201575299Y-115083784D01*
X201348647Y-115268637D01*
X201162216Y-115493994D01*
X201023108Y-115751269D01*
X200936621Y-116030665D01*
X200906049Y-116321538D01*
X200932556Y-116612810D01*
X201015134Y-116893385D01*
X201150637Y-117152578D01*
X201333903Y-117380515D01*
X201557952Y-117568515D01*
X201814251Y-117709416D01*
X202093036Y-117797852D01*
X202383688Y-117830454D01*
X202404612Y-117830600D01*
X202725388Y-117830600D01*
X203016468Y-117802059D01*
X203296460Y-117717525D01*
X203554701Y-117580216D01*
X203781353Y-117395363D01*
X203967784Y-117170006D01*
X204008880Y-117094000D01*
X206375000Y-117094000D01*
X206445113Y-117087125D01*
X206515170Y-117080996D01*
X206519012Y-117079879D01*
X206523007Y-117079488D01*
X206590459Y-117059122D01*
X206657982Y-117039506D01*
X206661537Y-117037662D01*
X206665376Y-117036504D01*
X206727553Y-117003443D01*
X206790014Y-116971067D01*
X206793144Y-116968568D01*
X206796684Y-116966686D01*
X206851230Y-116922199D01*
X206906240Y-116878286D01*
X206911814Y-116872787D01*
X206911931Y-116872693D01*
X206912020Y-116872585D01*
X206913815Y-116870815D01*
X209189567Y-114595063D01*
X209203877Y-114642459D01*
X209223494Y-114709982D01*
X209225337Y-114713537D01*
X209226496Y-114717376D01*
X209259556Y-114779553D01*
X209291933Y-114842014D01*
X209294431Y-114845144D01*
X209296314Y-114848684D01*
X209340800Y-114903230D01*
X209384714Y-114958240D01*
X209390212Y-114963814D01*
X209390307Y-114963931D01*
X209390414Y-114964020D01*
X209392185Y-114965815D01*
X211297185Y-116870815D01*
X211351599Y-116915512D01*
X211405495Y-116960736D01*
X211409002Y-116962664D01*
X211412103Y-116965211D01*
X211474203Y-116998509D01*
X211535816Y-117032381D01*
X211539631Y-117033591D01*
X211543167Y-117035487D01*
X211610551Y-117056088D01*
X211677571Y-117077348D01*
X211681548Y-117077794D01*
X211685385Y-117078967D01*
X211755422Y-117086080D01*
X211825361Y-117093926D01*
X211833197Y-117093980D01*
X211833340Y-117093995D01*
X211833473Y-117093982D01*
X211836000Y-117094000D01*
X212550013Y-117094000D01*
X212580637Y-117152578D01*
X212763903Y-117380515D01*
X212987952Y-117568515D01*
X213244251Y-117709416D01*
X213523036Y-117797852D01*
X213813688Y-117830454D01*
X213834612Y-117830600D01*
X214155388Y-117830600D01*
X214446468Y-117802059D01*
X214726460Y-117717525D01*
X214984701Y-117580216D01*
X215211353Y-117395363D01*
X215397784Y-117170006D01*
X215536892Y-116912731D01*
X215623379Y-116633335D01*
X215653951Y-116342462D01*
X215627444Y-116051190D01*
X215544866Y-115770615D01*
X215409363Y-115511422D01*
X215226097Y-115283485D01*
X215002048Y-115095485D01*
X214942413Y-115062700D01*
X214984701Y-115040216D01*
X215211353Y-114855363D01*
X215397784Y-114630006D01*
X215536892Y-114372731D01*
X215623379Y-114093335D01*
X215653951Y-113802462D01*
X215627444Y-113511190D01*
X215544866Y-113230615D01*
X215409363Y-112971422D01*
X215226097Y-112743485D01*
X215002048Y-112555485D01*
X214940127Y-112521444D01*
X215146729Y-112370486D01*
X215345733Y-112154035D01*
X215498686Y-111902919D01*
X215599709Y-111626789D01*
X215602358Y-111611026D01*
X215481217Y-111379000D01*
X214122000Y-111379000D01*
X214122000Y-111399000D01*
X213868000Y-111399000D01*
X213868000Y-111379000D01*
X212508783Y-111379000D01*
X212387642Y-111611026D01*
X212390291Y-111626789D01*
X212491314Y-111902919D01*
X212644267Y-112154035D01*
X212843271Y-112370486D01*
X213048794Y-112520656D01*
X213005299Y-112543784D01*
X212778647Y-112728637D01*
X212592216Y-112953994D01*
X212453108Y-113211269D01*
X212366621Y-113490665D01*
X212336049Y-113781538D01*
X212362556Y-114072810D01*
X212445134Y-114353385D01*
X212580637Y-114612578D01*
X212763903Y-114840515D01*
X212987952Y-115028515D01*
X213047586Y-115061299D01*
X213005299Y-115083784D01*
X212778647Y-115268637D01*
X212592216Y-115493994D01*
X212551119Y-115570000D01*
X212151630Y-115570000D01*
X210693000Y-114111370D01*
X210693000Y-98385493D01*
X210765111Y-98417919D01*
X210942500Y-98443072D01*
X211330500Y-98443072D01*
X211330500Y-99443500D01*
X211337374Y-99513613D01*
X211343504Y-99583670D01*
X211344620Y-99587512D01*
X211345012Y-99591507D01*
X211365377Y-99658959D01*
X211384994Y-99726482D01*
X211386837Y-99730037D01*
X211387996Y-99733876D01*
X211421056Y-99796053D01*
X211453433Y-99858514D01*
X211455931Y-99861644D01*
X211457814Y-99865184D01*
X211502300Y-99919730D01*
X211546214Y-99974740D01*
X211551712Y-99980314D01*
X211551807Y-99980431D01*
X211551914Y-99980520D01*
X211553685Y-99982315D01*
X212440184Y-100868815D01*
X212494597Y-100913510D01*
X212548495Y-100958736D01*
X212552006Y-100960666D01*
X212555103Y-100963210D01*
X212617129Y-100996468D01*
X212678816Y-101030381D01*
X212682636Y-101031592D01*
X212686167Y-101033486D01*
X212753464Y-101054060D01*
X212820571Y-101075348D01*
X212824554Y-101075794D01*
X212828385Y-101076966D01*
X212898372Y-101084075D01*
X212968361Y-101091926D01*
X212976197Y-101091980D01*
X212976340Y-101091995D01*
X212976473Y-101091982D01*
X212979000Y-101092000D01*
X214441370Y-101092000D01*
X214884000Y-101534630D01*
X214884000Y-102330587D01*
X214745749Y-102254584D01*
X214466964Y-102166148D01*
X214176312Y-102133546D01*
X214155388Y-102133400D01*
X213834612Y-102133400D01*
X213543532Y-102161941D01*
X213263540Y-102246475D01*
X213005299Y-102383784D01*
X212778647Y-102568637D01*
X212592216Y-102793994D01*
X212453108Y-103051269D01*
X212366621Y-103330665D01*
X212336049Y-103621538D01*
X212362556Y-103912810D01*
X212445134Y-104193385D01*
X212580637Y-104452578D01*
X212763903Y-104680515D01*
X212987952Y-104868515D01*
X213047586Y-104901299D01*
X213005299Y-104923784D01*
X212778647Y-105108637D01*
X212592216Y-105333994D01*
X212453108Y-105591269D01*
X212366621Y-105870665D01*
X212336049Y-106161538D01*
X212362556Y-106452810D01*
X212445134Y-106733385D01*
X212580637Y-106992578D01*
X212763903Y-107220515D01*
X212987952Y-107408515D01*
X213047586Y-107441299D01*
X213005299Y-107463784D01*
X212778647Y-107648637D01*
X212592216Y-107873994D01*
X212453108Y-108131269D01*
X212366621Y-108410665D01*
X212336049Y-108701538D01*
X212362556Y-108992810D01*
X212445134Y-109273385D01*
X212580637Y-109532578D01*
X212763903Y-109760515D01*
X212987952Y-109948515D01*
X213049872Y-109982555D01*
X212843271Y-110133514D01*
X212644267Y-110349965D01*
X212491314Y-110601081D01*
X212390291Y-110877211D01*
X212387642Y-110892974D01*
X212508783Y-111125000D01*
X213868000Y-111125000D01*
X213868000Y-111105000D01*
X214122000Y-111105000D01*
X214122000Y-111125000D01*
X215481217Y-111125000D01*
X215602358Y-110892974D01*
X215599709Y-110877211D01*
X215498686Y-110601081D01*
X215345733Y-110349965D01*
X215146729Y-110133514D01*
X214941205Y-109983343D01*
X214984701Y-109960216D01*
X215211353Y-109775363D01*
X215397784Y-109550006D01*
X215453305Y-109447321D01*
X215480459Y-109439122D01*
X215547982Y-109419506D01*
X215551537Y-109417662D01*
X215555376Y-109416504D01*
X215617553Y-109383443D01*
X215680014Y-109351067D01*
X215683144Y-109348568D01*
X215686684Y-109346686D01*
X215741230Y-109302199D01*
X215796240Y-109258286D01*
X215801814Y-109252787D01*
X215801931Y-109252693D01*
X215802020Y-109252585D01*
X215803815Y-109250815D01*
X216184815Y-108869816D01*
X216229510Y-108815402D01*
X216274736Y-108761505D01*
X216276666Y-108757993D01*
X216279210Y-108754897D01*
X216312468Y-108692870D01*
X216346381Y-108631184D01*
X216347592Y-108627363D01*
X216349486Y-108623833D01*
X216370060Y-108556535D01*
X216391348Y-108489429D01*
X216391794Y-108485445D01*
X216392966Y-108481615D01*
X216400075Y-108411627D01*
X216407926Y-108341639D01*
X216407980Y-108333802D01*
X216407995Y-108333660D01*
X216407982Y-108333526D01*
X216408000Y-108331000D01*
X216408000Y-108092000D01*
X216550250Y-108092000D01*
X216709000Y-107933250D01*
X216709000Y-106934000D01*
X216689000Y-106934000D01*
X216689000Y-106680000D01*
X216709000Y-106680000D01*
X216709000Y-105680750D01*
X216550250Y-105522000D01*
X216408000Y-105522000D01*
X216408000Y-103505000D01*
X216408000Y-103058630D01*
X217012185Y-103662815D01*
X217066599Y-103707512D01*
X217120495Y-103752736D01*
X217124002Y-103754664D01*
X217127103Y-103757211D01*
X217189203Y-103790509D01*
X217250816Y-103824381D01*
X217254631Y-103825591D01*
X217258167Y-103827487D01*
X217325551Y-103848088D01*
X217392571Y-103869348D01*
X217396548Y-103869794D01*
X217400385Y-103870967D01*
X217470422Y-103878080D01*
X217540361Y-103885926D01*
X217548197Y-103885980D01*
X217548340Y-103885995D01*
X217548473Y-103885982D01*
X217551000Y-103886000D01*
X219521369Y-103886000D01*
X221044837Y-105409468D01*
X220507560Y-105409468D01*
X220404517Y-105417843D01*
X220233519Y-105471313D01*
X220161595Y-105518928D01*
X218786000Y-105518928D01*
X218682957Y-105527303D01*
X218511959Y-105580773D01*
X218362566Y-105679674D01*
X218246558Y-105816208D01*
X218187010Y-105948633D01*
X218148730Y-105856215D01*
X218079237Y-105752211D01*
X217990789Y-105663763D01*
X217886785Y-105594270D01*
X217771223Y-105546403D01*
X217648542Y-105522000D01*
X217121750Y-105522000D01*
X216963000Y-105680750D01*
X216963000Y-106680000D01*
X216983000Y-106680000D01*
X216983000Y-106934000D01*
X216963000Y-106934000D01*
X216963000Y-107933250D01*
X217121750Y-108092000D01*
X217648542Y-108092000D01*
X217771223Y-108067597D01*
X217886785Y-108019730D01*
X217990789Y-107950237D01*
X218079237Y-107861789D01*
X218148730Y-107757785D01*
X218188279Y-107662303D01*
X218209773Y-107731041D01*
X218308674Y-107880434D01*
X218370028Y-107932564D01*
X218191452Y-108004715D01*
X218014308Y-108120634D01*
X217863054Y-108268753D01*
X217743450Y-108443431D01*
X217660052Y-108638012D01*
X217616037Y-108845087D01*
X217614319Y-108968049D01*
X217459185Y-109123185D01*
X217414487Y-109177599D01*
X217369264Y-109231495D01*
X217367335Y-109235002D01*
X217364789Y-109238103D01*
X217331510Y-109300168D01*
X217297619Y-109361816D01*
X217296407Y-109365636D01*
X217294514Y-109369167D01*
X217273939Y-109436464D01*
X217252652Y-109503571D01*
X217252205Y-109507554D01*
X217251034Y-109511385D01*
X217243924Y-109581372D01*
X217236074Y-109651361D01*
X217236019Y-109659197D01*
X217236005Y-109659340D01*
X217236017Y-109659473D01*
X217236000Y-109662000D01*
X217236000Y-109836928D01*
X216848000Y-109836928D01*
X216744957Y-109845303D01*
X216573959Y-109898773D01*
X216424566Y-109997674D01*
X216308558Y-110134208D01*
X216235081Y-110297611D01*
X216209928Y-110475000D01*
X216209928Y-111775000D01*
X216218303Y-111878043D01*
X216271773Y-112049041D01*
X216370674Y-112198434D01*
X216507208Y-112314442D01*
X216670611Y-112387919D01*
X216848000Y-112413072D01*
X218348000Y-112413072D01*
X218451043Y-112404697D01*
X218622041Y-112351227D01*
X218771434Y-112252326D01*
X218887442Y-112115792D01*
X218949494Y-111977794D01*
X218971773Y-112049041D01*
X219070674Y-112198434D01*
X219207208Y-112314442D01*
X219370611Y-112387919D01*
X219548000Y-112413072D01*
X220682442Y-112413072D01*
X220900298Y-112630928D01*
X219548000Y-112630928D01*
X219444957Y-112639303D01*
X219273959Y-112692773D01*
X219124566Y-112791674D01*
X219008558Y-112928208D01*
X218949010Y-113060633D01*
X218910730Y-112968215D01*
X218841237Y-112864211D01*
X218752789Y-112775763D01*
X218648785Y-112706270D01*
X218533223Y-112658403D01*
X218410542Y-112634000D01*
X217883750Y-112634000D01*
X217725000Y-112792750D01*
X217725000Y-113792000D01*
X217745000Y-113792000D01*
X217745000Y-114046000D01*
X217725000Y-114046000D01*
X217725000Y-115045250D01*
X217883750Y-115204000D01*
X218410542Y-115204000D01*
X218533223Y-115179597D01*
X218648785Y-115131730D01*
X218752789Y-115062237D01*
X218841237Y-114973789D01*
X218910730Y-114869785D01*
X218950279Y-114774303D01*
X218971773Y-114843041D01*
X219070674Y-114992434D01*
X219207208Y-115108442D01*
X219370611Y-115181919D01*
X219548000Y-115207072D01*
X220936441Y-115207072D01*
X221372684Y-115643315D01*
X221225389Y-115577081D01*
X221048000Y-115551928D01*
X219548000Y-115551928D01*
X219444957Y-115560303D01*
X219273959Y-115613773D01*
X219124566Y-115712674D01*
X219008558Y-115849208D01*
X218946505Y-115987205D01*
X218924227Y-115915959D01*
X218825326Y-115766566D01*
X218688792Y-115650558D01*
X218525389Y-115577081D01*
X218348000Y-115551928D01*
X217471000Y-115551928D01*
X217471000Y-115045250D01*
X217471000Y-114046000D01*
X217471000Y-113792000D01*
X217471000Y-112792750D01*
X217312250Y-112634000D01*
X216785458Y-112634000D01*
X216662777Y-112658403D01*
X216547215Y-112706270D01*
X216443211Y-112775763D01*
X216354763Y-112864211D01*
X216285270Y-112968215D01*
X216237403Y-113083777D01*
X216213000Y-113206458D01*
X216213000Y-113331542D01*
X216213000Y-113633250D01*
X216371750Y-113792000D01*
X217471000Y-113792000D01*
X217471000Y-114046000D01*
X216371750Y-114046000D01*
X216213000Y-114204750D01*
X216213000Y-114506458D01*
X216213000Y-114631542D01*
X216237403Y-114754223D01*
X216285270Y-114869785D01*
X216354763Y-114973789D01*
X216443211Y-115062237D01*
X216547215Y-115131730D01*
X216662777Y-115179597D01*
X216785458Y-115204000D01*
X217312250Y-115204000D01*
X217471000Y-115045250D01*
X217471000Y-115551928D01*
X216848000Y-115551928D01*
X216744957Y-115560303D01*
X216573959Y-115613773D01*
X216424566Y-115712674D01*
X216308558Y-115849208D01*
X216235081Y-116012611D01*
X216209928Y-116190000D01*
X216209928Y-117490000D01*
X216218303Y-117593043D01*
X216271773Y-117764041D01*
X216370674Y-117913434D01*
X216507208Y-118029442D01*
X216670611Y-118102919D01*
X216848000Y-118128072D01*
X217236000Y-118128072D01*
X217236000Y-118202031D01*
X217143642Y-118183660D01*
X217018558Y-118183660D01*
X216566750Y-118183660D01*
X216408000Y-118342410D01*
X216408000Y-119992140D01*
X217557350Y-119992140D01*
X217716100Y-119833390D01*
X217716100Y-119479730D01*
X217868376Y-119632006D01*
X217867081Y-119724767D01*
X217905297Y-119932990D01*
X217983230Y-120129825D01*
X218097910Y-120307773D01*
X218244969Y-120460058D01*
X218418807Y-120580879D01*
X218612802Y-120665633D01*
X218819564Y-120711093D01*
X219031219Y-120715526D01*
X219239704Y-120678765D01*
X219437077Y-120602208D01*
X219615822Y-120488773D01*
X219769130Y-120342780D01*
X219891161Y-120169790D01*
X219977268Y-119976392D01*
X220024170Y-119769952D01*
X220027546Y-119528150D01*
X219990518Y-119341148D01*
X220441185Y-119791815D01*
X220495599Y-119836512D01*
X220549495Y-119881736D01*
X220553002Y-119883664D01*
X220556103Y-119886211D01*
X220618168Y-119919489D01*
X220679816Y-119953381D01*
X220683636Y-119954592D01*
X220687167Y-119956486D01*
X220754464Y-119977060D01*
X220821571Y-119998348D01*
X220825554Y-119998794D01*
X220829385Y-119999966D01*
X220899372Y-120007075D01*
X220969361Y-120014926D01*
X220977197Y-120014980D01*
X220977340Y-120014995D01*
X220977473Y-120014982D01*
X220980000Y-120015000D01*
X221865928Y-120015000D01*
X221865928Y-120116600D01*
X221874303Y-120219643D01*
X221927773Y-120390641D01*
X222026674Y-120540034D01*
X222163208Y-120656042D01*
X222326611Y-120729519D01*
X222504000Y-120754672D01*
X224536000Y-120754672D01*
X224639043Y-120746297D01*
X224810041Y-120692827D01*
X224959434Y-120593926D01*
X225075442Y-120457392D01*
X225148919Y-120293989D01*
X225174072Y-120116600D01*
X225174072Y-118389400D01*
X225165697Y-118286357D01*
X225112227Y-118115359D01*
X225013326Y-117965966D01*
X224876792Y-117849958D01*
X224728098Y-117783095D01*
X224736353Y-117776363D01*
X224922784Y-117551006D01*
X225061892Y-117293731D01*
X225148379Y-117014335D01*
X225178951Y-116723462D01*
X225152444Y-116432190D01*
X225069866Y-116151615D01*
X224934363Y-115892422D01*
X224751097Y-115664485D01*
X224527048Y-115476485D01*
X224467413Y-115443700D01*
X224509701Y-115421216D01*
X224736353Y-115236363D01*
X224922784Y-115011006D01*
X225061892Y-114753731D01*
X225148379Y-114474335D01*
X225178951Y-114183462D01*
X225152444Y-113892190D01*
X225069866Y-113611615D01*
X224934363Y-113352422D01*
X224751097Y-113124485D01*
X224527048Y-112936485D01*
X224270749Y-112795584D01*
X223991964Y-112707148D01*
X223701312Y-112674546D01*
X223680388Y-112674400D01*
X223359612Y-112674400D01*
X223122299Y-112697669D01*
X221686072Y-111261442D01*
X221686072Y-110475000D01*
X221677697Y-110371957D01*
X221624227Y-110200959D01*
X221525326Y-110051566D01*
X221444077Y-109982532D01*
X221706440Y-109982532D01*
X221809483Y-109974157D01*
X221980481Y-109920687D01*
X222086722Y-109850353D01*
X222210928Y-109974558D01*
X222210928Y-111185000D01*
X222219303Y-111288043D01*
X222272773Y-111459041D01*
X222371674Y-111608434D01*
X222508208Y-111724442D01*
X222671611Y-111797919D01*
X222849000Y-111823072D01*
X224849000Y-111823072D01*
X224952043Y-111814697D01*
X225123041Y-111761227D01*
X225272434Y-111662326D01*
X225388442Y-111525792D01*
X225461919Y-111362389D01*
X225485370Y-111197000D01*
X228411903Y-111197000D01*
X228419303Y-111288043D01*
X228472773Y-111459041D01*
X228571674Y-111608434D01*
X228708208Y-111724442D01*
X228871611Y-111797919D01*
X229049000Y-111823072D01*
X230990447Y-111823072D01*
G36*
X232360000Y-104106495D02*
X231898177Y-108816525D01*
X231672786Y-109563055D01*
X231625227Y-109410959D01*
X231526326Y-109261566D01*
X231389792Y-109145558D01*
X231226389Y-109072081D01*
X231049000Y-109046928D01*
X229049000Y-109046928D01*
X228945957Y-109055303D01*
X228774959Y-109108773D01*
X228625566Y-109207674D01*
X228509558Y-109344208D01*
X228436081Y-109507611D01*
X228412629Y-109673000D01*
X225486096Y-109673000D01*
X225478697Y-109581957D01*
X225425227Y-109410959D01*
X225326326Y-109261566D01*
X225189792Y-109145558D01*
X225026389Y-109072081D01*
X224849000Y-109046928D01*
X223438558Y-109046928D01*
X222597835Y-108206205D01*
X222543420Y-108161507D01*
X222489525Y-108116284D01*
X222486017Y-108114355D01*
X222482917Y-108111809D01*
X222420851Y-108078530D01*
X222359204Y-108044639D01*
X222355383Y-108043427D01*
X222351853Y-108041534D01*
X222334128Y-108036115D01*
X222282667Y-107871539D01*
X222183766Y-107722146D01*
X222153258Y-107696224D01*
X222226263Y-107610302D01*
X222272773Y-107759041D01*
X222371674Y-107908434D01*
X222508208Y-108024442D01*
X222671611Y-108097919D01*
X222849000Y-108123072D01*
X224849000Y-108123072D01*
X224952043Y-108114697D01*
X225123041Y-108061227D01*
X225272434Y-107962326D01*
X225388442Y-107825792D01*
X225461919Y-107662389D01*
X225485370Y-107497000D01*
X228411903Y-107497000D01*
X228419303Y-107588043D01*
X228472773Y-107759041D01*
X228571674Y-107908434D01*
X228708208Y-108024442D01*
X228871611Y-108097919D01*
X229049000Y-108123072D01*
X231049000Y-108123072D01*
X231152043Y-108114697D01*
X231323041Y-108061227D01*
X231472434Y-107962326D01*
X231588442Y-107825792D01*
X231661919Y-107662389D01*
X231687072Y-107485000D01*
X231687072Y-105985000D01*
X231678697Y-105881957D01*
X231625227Y-105710959D01*
X231526326Y-105561566D01*
X231389792Y-105445558D01*
X231226389Y-105372081D01*
X231049000Y-105346928D01*
X229049000Y-105346928D01*
X228945957Y-105355303D01*
X228774959Y-105408773D01*
X228625566Y-105507674D01*
X228509558Y-105644208D01*
X228436081Y-105807611D01*
X228412629Y-105973000D01*
X225486096Y-105973000D01*
X225478697Y-105881957D01*
X225425227Y-105710959D01*
X225326326Y-105561566D01*
X225189792Y-105445558D01*
X225026389Y-105372081D01*
X224849000Y-105346928D01*
X223137558Y-105346928D01*
X220375815Y-102585185D01*
X220321400Y-102540487D01*
X220267505Y-102495264D01*
X220263997Y-102493335D01*
X220260897Y-102490789D01*
X220198831Y-102457510D01*
X220137184Y-102423619D01*
X220133363Y-102422407D01*
X220129833Y-102420514D01*
X220062535Y-102399939D01*
X219995429Y-102378652D01*
X219991445Y-102378205D01*
X219987615Y-102377034D01*
X219917627Y-102369924D01*
X219847639Y-102362074D01*
X219839802Y-102362019D01*
X219839660Y-102362005D01*
X219839526Y-102362017D01*
X219837000Y-102362000D01*
X217866630Y-102362000D01*
X216184815Y-100680185D01*
X215777500Y-100272870D01*
X215777500Y-97867542D01*
X215777500Y-97742458D01*
X215777500Y-97440750D01*
X215777500Y-96869250D01*
X215777500Y-96567542D01*
X215777500Y-96442458D01*
X215753097Y-96319777D01*
X215705230Y-96204215D01*
X215635737Y-96100211D01*
X215547289Y-96011763D01*
X215443285Y-95942270D01*
X215327723Y-95894403D01*
X215205042Y-95870000D01*
X214678250Y-95870000D01*
X214519500Y-96028750D01*
X214519500Y-97028000D01*
X215618750Y-97028000D01*
X215777500Y-96869250D01*
X215777500Y-97440750D01*
X215618750Y-97282000D01*
X214519500Y-97282000D01*
X214519500Y-98281250D01*
X214678250Y-98440000D01*
X215205042Y-98440000D01*
X215327723Y-98415597D01*
X215443285Y-98367730D01*
X215547289Y-98298237D01*
X215635737Y-98209789D01*
X215705230Y-98105785D01*
X215753097Y-97990223D01*
X215777500Y-97867542D01*
X215777500Y-100272870D01*
X215295815Y-99791185D01*
X215241400Y-99746487D01*
X215187505Y-99701264D01*
X215183997Y-99699335D01*
X215180897Y-99696789D01*
X215118831Y-99663510D01*
X215057184Y-99629619D01*
X215053363Y-99628407D01*
X215049833Y-99626514D01*
X214982535Y-99605939D01*
X214915429Y-99584652D01*
X214911445Y-99584205D01*
X214907615Y-99583034D01*
X214837627Y-99575924D01*
X214767639Y-99568074D01*
X214759802Y-99568019D01*
X214759660Y-99568005D01*
X214759526Y-99568017D01*
X214757000Y-99568000D01*
X213294630Y-99568000D01*
X212854500Y-99127869D01*
X212854500Y-98289895D01*
X212865934Y-98282326D01*
X212981942Y-98145792D01*
X213041489Y-98013366D01*
X213079770Y-98105785D01*
X213149263Y-98209789D01*
X213237711Y-98298237D01*
X213341715Y-98367730D01*
X213457277Y-98415597D01*
X213579958Y-98440000D01*
X214106750Y-98440000D01*
X214265500Y-98281250D01*
X214265500Y-97282000D01*
X214245500Y-97282000D01*
X214245500Y-97028000D01*
X214265500Y-97028000D01*
X214265500Y-96028750D01*
X214106750Y-95870000D01*
X213579958Y-95870000D01*
X213457277Y-95894403D01*
X213341715Y-95942270D01*
X213237711Y-96011763D01*
X213149263Y-96100211D01*
X213079770Y-96204215D01*
X213040220Y-96299696D01*
X213018727Y-96230959D01*
X212919826Y-96081566D01*
X212854500Y-96026060D01*
X212854500Y-95405472D01*
X213233000Y-95405472D01*
X213336043Y-95397097D01*
X213507041Y-95343627D01*
X213656434Y-95244726D01*
X213772442Y-95108192D01*
X213845919Y-94944789D01*
X213871072Y-94767400D01*
X213871072Y-93192600D01*
X213862697Y-93089557D01*
X213816454Y-92941672D01*
X215646000Y-92941672D01*
X215749043Y-92933297D01*
X215920041Y-92879827D01*
X216069434Y-92780926D01*
X216185442Y-92644392D01*
X216258919Y-92480989D01*
X216284072Y-92303600D01*
X216284072Y-90576400D01*
X216275697Y-90473357D01*
X216222227Y-90302359D01*
X216123326Y-90152966D01*
X215986792Y-90036958D01*
X215838098Y-89970095D01*
X215846353Y-89963363D01*
X216032784Y-89738006D01*
X216171892Y-89480731D01*
X216258379Y-89201335D01*
X216288951Y-88910462D01*
X216262444Y-88619190D01*
X216179866Y-88338615D01*
X216044363Y-88079422D01*
X215861097Y-87851485D01*
X215637048Y-87663485D01*
X215577413Y-87630700D01*
X215619701Y-87608216D01*
X215846353Y-87423363D01*
X216032784Y-87198006D01*
X216171892Y-86940731D01*
X216258379Y-86661335D01*
X216288951Y-86370462D01*
X216262444Y-86079190D01*
X216179866Y-85798615D01*
X216044363Y-85539422D01*
X215861097Y-85311485D01*
X215637048Y-85123485D01*
X215577413Y-85090700D01*
X215619701Y-85068216D01*
X215846353Y-84883363D01*
X216032784Y-84658006D01*
X216171892Y-84400731D01*
X216258379Y-84121335D01*
X216288951Y-83830462D01*
X216262444Y-83539190D01*
X216179866Y-83258615D01*
X216044363Y-82999422D01*
X215861097Y-82771485D01*
X215637048Y-82583485D01*
X215577413Y-82550700D01*
X215619701Y-82528216D01*
X215846353Y-82343363D01*
X216032784Y-82118006D01*
X216171892Y-81860731D01*
X216258379Y-81581335D01*
X216288951Y-81290462D01*
X216262444Y-80999190D01*
X216179866Y-80718615D01*
X216044363Y-80459422D01*
X215861097Y-80231485D01*
X215637048Y-80043485D01*
X215575127Y-80009444D01*
X215781729Y-79858486D01*
X215980733Y-79642035D01*
X216133686Y-79390919D01*
X216234709Y-79114789D01*
X216237358Y-79099026D01*
X216116217Y-78867000D01*
X214757000Y-78867000D01*
X214757000Y-78887000D01*
X214503000Y-78887000D01*
X214503000Y-78867000D01*
X213702852Y-78867000D01*
X213143783Y-78867000D01*
X212217000Y-78867000D01*
X212217000Y-78887000D01*
X211963000Y-78887000D01*
X211963000Y-78867000D01*
X210477148Y-78867000D01*
X210354990Y-79087060D01*
X210371672Y-79166996D01*
X210481159Y-79424646D01*
X210638808Y-79655986D01*
X210838560Y-79852125D01*
X211072738Y-80005526D01*
X211092446Y-80013479D01*
X210938653Y-80095253D01*
X210723525Y-80270707D01*
X210546574Y-80484604D01*
X210414539Y-80728798D01*
X210332449Y-80993987D01*
X210303432Y-81270070D01*
X210328592Y-81546531D01*
X210406971Y-81812840D01*
X210535583Y-82058854D01*
X210709531Y-82275201D01*
X210922188Y-82453641D01*
X211098214Y-82550412D01*
X210938653Y-82635253D01*
X210723525Y-82810707D01*
X210546574Y-83024604D01*
X210528516Y-83058000D01*
X208534000Y-83058000D01*
X208463890Y-83064874D01*
X208393829Y-83071004D01*
X208389985Y-83072120D01*
X208385993Y-83072512D01*
X208318552Y-83092873D01*
X208251018Y-83112494D01*
X208247462Y-83114337D01*
X208243624Y-83115496D01*
X208181446Y-83148556D01*
X208118986Y-83180933D01*
X208115855Y-83183431D01*
X208112316Y-83185314D01*
X208057769Y-83229800D01*
X208002760Y-83273714D01*
X207997185Y-83279212D01*
X207997069Y-83279307D01*
X207996979Y-83279414D01*
X207995185Y-83281185D01*
X206852185Y-84424185D01*
X206807487Y-84478599D01*
X206762264Y-84532495D01*
X206760335Y-84536002D01*
X206757789Y-84539103D01*
X206724510Y-84601168D01*
X206690619Y-84662816D01*
X206689407Y-84666636D01*
X206687514Y-84670167D01*
X206666939Y-84737464D01*
X206645652Y-84804571D01*
X206645205Y-84808554D01*
X206644034Y-84812385D01*
X206636924Y-84882372D01*
X206629074Y-84952361D01*
X206629019Y-84960197D01*
X206629005Y-84960340D01*
X206629017Y-84960473D01*
X206629000Y-84963000D01*
X206629000Y-90875872D01*
X206605400Y-90856487D01*
X206551505Y-90811264D01*
X206547997Y-90809335D01*
X206544897Y-90806789D01*
X206482831Y-90773510D01*
X206421184Y-90739619D01*
X206417363Y-90738407D01*
X206413833Y-90736514D01*
X206346535Y-90715939D01*
X206279429Y-90694652D01*
X206275445Y-90694205D01*
X206271615Y-90693034D01*
X206201627Y-90685924D01*
X206131639Y-90678074D01*
X206123802Y-90678019D01*
X206123660Y-90678005D01*
X206123526Y-90678017D01*
X206121000Y-90678000D01*
X206033227Y-90678000D01*
X206024417Y-90661146D01*
X205850469Y-90444799D01*
X205637812Y-90266359D01*
X205461785Y-90169587D01*
X205621347Y-90084747D01*
X205836475Y-89909293D01*
X206013426Y-89695396D01*
X206145461Y-89451202D01*
X206227551Y-89186013D01*
X206256568Y-88909930D01*
X206231408Y-88633469D01*
X206153029Y-88367160D01*
X206024417Y-88121146D01*
X205850469Y-87904799D01*
X205637812Y-87726359D01*
X205461785Y-87629587D01*
X205621347Y-87544747D01*
X205836475Y-87369293D01*
X206013426Y-87155396D01*
X206145461Y-86911202D01*
X206227551Y-86646013D01*
X206256568Y-86369930D01*
X206231408Y-86093469D01*
X206153029Y-85827160D01*
X206024417Y-85581146D01*
X205850469Y-85364799D01*
X205637812Y-85186359D01*
X205461785Y-85089587D01*
X205621347Y-85004747D01*
X205836475Y-84829293D01*
X206013426Y-84615396D01*
X206145461Y-84371202D01*
X206227551Y-84106013D01*
X206256568Y-83829930D01*
X206231408Y-83553469D01*
X206153029Y-83287160D01*
X206024417Y-83041146D01*
X205850469Y-82824799D01*
X205637812Y-82646359D01*
X205461785Y-82549587D01*
X205621347Y-82464747D01*
X205836475Y-82289293D01*
X206013426Y-82075396D01*
X206145461Y-81831202D01*
X206227551Y-81566013D01*
X206256568Y-81289930D01*
X206231408Y-81013469D01*
X206153029Y-80747160D01*
X206024417Y-80501146D01*
X205850469Y-80284799D01*
X205637812Y-80106359D01*
X205461785Y-80009587D01*
X205621347Y-79924747D01*
X205836475Y-79749293D01*
X206013426Y-79535396D01*
X206145461Y-79291202D01*
X206227551Y-79026013D01*
X206256568Y-78749930D01*
X206249572Y-78673057D01*
X207548815Y-77373815D01*
X207593512Y-77319400D01*
X207597983Y-77314072D01*
X207635000Y-77314072D01*
X207738043Y-77305697D01*
X207909041Y-77252227D01*
X208058434Y-77153326D01*
X208154500Y-77040261D01*
X208193674Y-77099434D01*
X208330208Y-77215442D01*
X208493611Y-77288919D01*
X208671000Y-77314072D01*
X209921000Y-77314072D01*
X210024043Y-77305697D01*
X210195041Y-77252227D01*
X210344434Y-77153326D01*
X210460442Y-77016792D01*
X210485080Y-76962000D01*
X210526772Y-76962000D01*
X210535583Y-76978854D01*
X210709531Y-77195201D01*
X210922188Y-77373641D01*
X211091689Y-77466825D01*
X211072738Y-77474474D01*
X210838560Y-77627875D01*
X210638808Y-77824014D01*
X210481159Y-78055354D01*
X210371672Y-78313004D01*
X210354990Y-78392940D01*
X210477148Y-78613000D01*
X211963000Y-78613000D01*
X211963000Y-78593000D01*
X212217000Y-78593000D01*
X212217000Y-78613000D01*
X213143783Y-78613000D01*
X213702852Y-78613000D01*
X214503000Y-78613000D01*
X214503000Y-78593000D01*
X214757000Y-78593000D01*
X214757000Y-78613000D01*
X216116217Y-78613000D01*
X216237358Y-78380974D01*
X216234709Y-78365211D01*
X216133686Y-78089081D01*
X215980733Y-77837965D01*
X215781729Y-77621514D01*
X215576205Y-77471343D01*
X215619701Y-77448216D01*
X215846353Y-77263363D01*
X216032784Y-77038006D01*
X216171892Y-76780731D01*
X216258379Y-76501335D01*
X216288951Y-76210462D01*
X216262444Y-75919190D01*
X216179866Y-75638615D01*
X216044363Y-75379422D01*
X215934434Y-75242698D01*
X216069434Y-75153326D01*
X216185442Y-75016792D01*
X216258919Y-74853389D01*
X216284072Y-74676000D01*
X216284072Y-72644000D01*
X216275697Y-72540957D01*
X216222227Y-72369959D01*
X216123326Y-72220566D01*
X215986792Y-72104558D01*
X215964073Y-72094342D01*
X215992262Y-72060749D01*
X216147492Y-71778386D01*
X216244922Y-71471250D01*
X216280839Y-71151040D01*
X216281000Y-71127988D01*
X216281000Y-71112012D01*
X216249557Y-70791331D01*
X216156426Y-70482865D01*
X216005153Y-70198363D01*
X215871836Y-70034900D01*
X215920041Y-70019827D01*
X216069434Y-69920926D01*
X216185442Y-69784392D01*
X216258919Y-69620989D01*
X216284072Y-69443600D01*
X216284072Y-67716400D01*
X216275697Y-67613357D01*
X216222227Y-67442359D01*
X216123326Y-67292966D01*
X215986792Y-67176958D01*
X215838098Y-67110095D01*
X215846353Y-67103363D01*
X216032784Y-66878006D01*
X216171892Y-66620731D01*
X216258379Y-66341335D01*
X216288951Y-66050462D01*
X216262444Y-65759190D01*
X216179866Y-65478615D01*
X216044363Y-65219422D01*
X215861097Y-64991485D01*
X215637048Y-64803485D01*
X215577413Y-64770700D01*
X215619701Y-64748216D01*
X215846353Y-64563363D01*
X216032784Y-64338006D01*
X216171892Y-64080731D01*
X216258379Y-63801335D01*
X216288951Y-63510462D01*
X216262444Y-63219190D01*
X216179866Y-62938615D01*
X216044363Y-62679422D01*
X215861097Y-62451485D01*
X215637048Y-62263485D01*
X215577413Y-62230700D01*
X215619701Y-62208216D01*
X215846353Y-62023363D01*
X216032784Y-61798006D01*
X216171892Y-61540731D01*
X216258379Y-61261335D01*
X216288951Y-60970462D01*
X216262444Y-60679190D01*
X216179866Y-60398615D01*
X216044363Y-60139422D01*
X215861097Y-59911485D01*
X215637048Y-59723485D01*
X215380749Y-59582584D01*
X215101964Y-59494148D01*
X214811312Y-59461546D01*
X214790388Y-59461400D01*
X214469612Y-59461400D01*
X214178532Y-59489941D01*
X213898540Y-59574475D01*
X213640299Y-59711784D01*
X213413647Y-59896637D01*
X213403645Y-59908727D01*
X213257812Y-59786359D01*
X213014546Y-59652622D01*
X212749937Y-59568683D01*
X212474063Y-59537739D01*
X212454203Y-59537600D01*
X211725797Y-59537600D01*
X211449518Y-59564689D01*
X211183762Y-59644926D01*
X210938653Y-59775253D01*
X210723525Y-59950707D01*
X210546574Y-60164604D01*
X210414539Y-60408798D01*
X210332449Y-60673987D01*
X210303432Y-60950070D01*
X210328592Y-61226531D01*
X210406971Y-61492840D01*
X210535583Y-61738854D01*
X210709531Y-61955201D01*
X210922188Y-62133641D01*
X211098214Y-62230412D01*
X210938653Y-62315253D01*
X210723525Y-62490707D01*
X210546574Y-62704604D01*
X210414539Y-62948798D01*
X210332449Y-63213987D01*
X210303432Y-63490070D01*
X210328592Y-63766531D01*
X210406971Y-64032840D01*
X210535583Y-64278854D01*
X210709531Y-64495201D01*
X210922188Y-64673641D01*
X211098214Y-64770412D01*
X210938653Y-64855253D01*
X210723525Y-65030707D01*
X210546574Y-65244604D01*
X210414539Y-65488798D01*
X210392631Y-65559570D01*
X210380754Y-65530753D01*
X210263600Y-65354423D01*
X210114428Y-65204207D01*
X209938921Y-65085825D01*
X209743761Y-65003788D01*
X209536384Y-64961219D01*
X209324689Y-64959741D01*
X209116738Y-64999410D01*
X208920452Y-65078715D01*
X208743308Y-65194634D01*
X208592054Y-65342753D01*
X208472450Y-65517431D01*
X208389052Y-65712012D01*
X208345037Y-65919087D01*
X208342081Y-66130767D01*
X208380297Y-66338990D01*
X208458230Y-66535825D01*
X208572910Y-66713773D01*
X208661000Y-66804993D01*
X208661000Y-67212740D01*
X208567957Y-67220303D01*
X208396959Y-67273773D01*
X208247566Y-67372674D01*
X208131558Y-67509208D01*
X208058081Y-67672611D01*
X208032928Y-67850000D01*
X208032928Y-69350000D01*
X208041303Y-69453043D01*
X208094773Y-69624041D01*
X208193674Y-69773434D01*
X208282923Y-69849266D01*
X208247566Y-69872674D01*
X208131558Y-70009208D01*
X208058081Y-70172611D01*
X208032928Y-70350000D01*
X208032928Y-71850000D01*
X208041303Y-71953043D01*
X208094773Y-72124041D01*
X208189457Y-72267064D01*
X208153636Y-72309223D01*
X208128237Y-72271211D01*
X208039789Y-72182763D01*
X207935785Y-72113270D01*
X207820223Y-72065403D01*
X207697542Y-72041000D01*
X207572458Y-72041000D01*
X207295750Y-72041000D01*
X207137000Y-72199750D01*
X207137000Y-73299000D01*
X207157000Y-73299000D01*
X207157000Y-73553000D01*
X207137000Y-73553000D01*
X207137000Y-73573000D01*
X206883000Y-73573000D01*
X206883000Y-73553000D01*
X206863000Y-73553000D01*
X206863000Y-73299000D01*
X206883000Y-73299000D01*
X206883000Y-72199750D01*
X206724250Y-72041000D01*
X206447542Y-72041000D01*
X206322458Y-72041000D01*
X206199777Y-72065403D01*
X206084215Y-72113270D01*
X205980211Y-72182763D01*
X205891763Y-72271211D01*
X205822270Y-72375215D01*
X205774403Y-72490777D01*
X205756247Y-72582052D01*
X205721440Y-72547875D01*
X205487262Y-72394474D01*
X205467553Y-72386520D01*
X205621347Y-72304747D01*
X205836475Y-72129293D01*
X206013426Y-71915396D01*
X206145461Y-71671202D01*
X206227551Y-71406013D01*
X206256568Y-71129930D01*
X206231408Y-70853469D01*
X206153029Y-70587160D01*
X206128119Y-70539511D01*
X207802816Y-68864815D01*
X207847537Y-68810370D01*
X207892736Y-68756505D01*
X207894664Y-68752997D01*
X207897211Y-68749897D01*
X207930509Y-68687796D01*
X207964381Y-68626184D01*
X207965591Y-68622368D01*
X207967487Y-68618833D01*
X207988088Y-68551448D01*
X208009348Y-68484429D01*
X208009794Y-68480451D01*
X208010967Y-68476615D01*
X208018080Y-68406577D01*
X208025926Y-68336639D01*
X208025980Y-68328802D01*
X208025995Y-68328660D01*
X208025982Y-68328526D01*
X208026000Y-68326000D01*
X208026000Y-56090217D01*
X208269538Y-56115814D01*
X208560810Y-56089307D01*
X208841385Y-56006729D01*
X209100578Y-55871226D01*
X209328515Y-55687960D01*
X209516515Y-55463911D01*
X209549299Y-55404276D01*
X209571784Y-55446564D01*
X209756637Y-55673216D01*
X209981994Y-55859647D01*
X210239269Y-55998755D01*
X210518665Y-56085242D01*
X210809538Y-56115814D01*
X211100810Y-56089307D01*
X211381385Y-56006729D01*
X211640578Y-55871226D01*
X211868515Y-55687960D01*
X212056515Y-55463911D01*
X212107043Y-55372000D01*
X213171370Y-55372000D01*
X213550376Y-55751006D01*
X213549081Y-55843767D01*
X213587297Y-56051990D01*
X213665230Y-56248825D01*
X213779910Y-56426773D01*
X213926969Y-56579058D01*
X214100807Y-56699879D01*
X214294802Y-56784633D01*
X214501564Y-56830093D01*
X214713219Y-56834526D01*
X214921704Y-56797765D01*
X215119077Y-56721208D01*
X215297822Y-56607773D01*
X215451130Y-56461780D01*
X215573161Y-56288790D01*
X215659268Y-56095392D01*
X215706170Y-55888952D01*
X215709546Y-55647150D01*
X215668426Y-55439481D01*
X215587754Y-55243753D01*
X215470600Y-55067423D01*
X215321428Y-54917207D01*
X215145921Y-54798825D01*
X214950761Y-54716788D01*
X214743384Y-54674219D01*
X214628043Y-54673413D01*
X214025815Y-54071185D01*
X213971400Y-54026487D01*
X213917505Y-53981264D01*
X213913997Y-53979335D01*
X213910897Y-53976789D01*
X213848831Y-53943510D01*
X213787184Y-53909619D01*
X213783363Y-53908407D01*
X213779833Y-53906514D01*
X213712535Y-53885939D01*
X213645429Y-53864652D01*
X213641445Y-53864205D01*
X213637615Y-53863034D01*
X213567627Y-53855924D01*
X213497639Y-53848074D01*
X213489802Y-53848019D01*
X213489660Y-53848005D01*
X213489526Y-53848017D01*
X213487000Y-53848000D01*
X212107862Y-53848000D01*
X212068216Y-53773436D01*
X211883363Y-53546784D01*
X211658006Y-53360353D01*
X211622050Y-53340911D01*
X211640578Y-53331226D01*
X211868515Y-53147960D01*
X212056515Y-52923911D01*
X212197416Y-52667612D01*
X212285852Y-52388827D01*
X212318454Y-52098175D01*
X212318600Y-52077251D01*
X212318600Y-52062749D01*
X212290059Y-51771669D01*
X212205525Y-51491677D01*
X212068216Y-51233436D01*
X211883363Y-51006784D01*
X211658006Y-50820353D01*
X211400731Y-50681245D01*
X211121335Y-50594758D01*
X210830462Y-50564186D01*
X210539190Y-50590693D01*
X210258615Y-50673271D01*
X209999422Y-50808774D01*
X209771485Y-50992040D01*
X209583485Y-51216089D01*
X209550700Y-51275723D01*
X209528216Y-51233436D01*
X209343363Y-51006784D01*
X209118006Y-50820353D01*
X208860731Y-50681245D01*
X208581335Y-50594758D01*
X208290462Y-50564186D01*
X207999190Y-50590693D01*
X207905807Y-50618177D01*
X206913815Y-49626185D01*
X206859400Y-49581487D01*
X206805505Y-49536264D01*
X206801997Y-49534335D01*
X206798897Y-49531789D01*
X206736831Y-49498510D01*
X206675184Y-49464619D01*
X206671363Y-49463407D01*
X206667833Y-49461514D01*
X206600535Y-49440939D01*
X206533429Y-49419652D01*
X206529445Y-49419205D01*
X206525615Y-49418034D01*
X206455627Y-49410924D01*
X206385639Y-49403074D01*
X206377802Y-49403019D01*
X206377660Y-49403005D01*
X206377526Y-49403017D01*
X206375000Y-49403000D01*
X203835000Y-49403000D01*
X203764936Y-49409869D01*
X203694830Y-49416003D01*
X203690982Y-49417120D01*
X203686993Y-49417512D01*
X203619627Y-49437850D01*
X203552018Y-49457493D01*
X203548457Y-49459338D01*
X203544624Y-49460496D01*
X203482482Y-49493537D01*
X203419986Y-49525933D01*
X203416855Y-49528431D01*
X203413316Y-49530314D01*
X203358769Y-49574800D01*
X203303760Y-49618714D01*
X203298181Y-49624215D01*
X203298069Y-49624307D01*
X203297983Y-49624410D01*
X203296185Y-49626184D01*
X199486185Y-53436185D01*
X199441487Y-53490599D01*
X199440000Y-53492372D01*
X199440000Y-48437000D01*
X217120000Y-48437000D01*
X217120000Y-96925000D01*
X217120011Y-96925121D01*
X217120004Y-96927420D01*
X217120041Y-96937892D01*
X217123064Y-96967648D01*
X217122856Y-96997554D01*
X217123789Y-97007073D01*
X217154389Y-97298218D01*
X217166877Y-97359054D01*
X217178507Y-97420021D01*
X217181271Y-97429177D01*
X217267839Y-97708833D01*
X217291896Y-97766062D01*
X217315156Y-97823632D01*
X217319646Y-97832077D01*
X217458885Y-98089593D01*
X217493604Y-98141065D01*
X217527597Y-98193012D01*
X217533642Y-98200424D01*
X217533644Y-98200426D01*
X217720247Y-98425991D01*
X217764300Y-98469738D01*
X217807739Y-98514096D01*
X217815109Y-98520193D01*
X218041973Y-98705219D01*
X218093690Y-98739580D01*
X218144912Y-98774652D01*
X218153325Y-98779201D01*
X218411806Y-98916638D01*
X218469241Y-98940311D01*
X218526270Y-98964754D01*
X218535407Y-98967583D01*
X218815661Y-99052197D01*
X218876576Y-99064258D01*
X218937293Y-99077164D01*
X218946804Y-99078164D01*
X219238156Y-99106731D01*
X219266887Y-99106730D01*
X219295436Y-99109933D01*
X219305000Y-99110000D01*
X231511496Y-99110000D01*
X231702663Y-99128743D01*
X231854321Y-99174532D01*
X231994195Y-99248904D01*
X232116961Y-99349030D01*
X232217940Y-99471093D01*
X232293290Y-99610449D01*
X232340135Y-99761780D01*
X232360000Y-99950782D01*
X232360000Y-104106495D01*
X232360000Y-104106495D01*
G37*
X232360000Y-104106495D02*
X231898177Y-108816525D01*
X231672786Y-109563055D01*
X231625227Y-109410959D01*
X231526326Y-109261566D01*
X231389792Y-109145558D01*
X231226389Y-109072081D01*
X231049000Y-109046928D01*
X229049000Y-109046928D01*
X228945957Y-109055303D01*
X228774959Y-109108773D01*
X228625566Y-109207674D01*
X228509558Y-109344208D01*
X228436081Y-109507611D01*
X228412629Y-109673000D01*
X225486096Y-109673000D01*
X225478697Y-109581957D01*
X225425227Y-109410959D01*
X225326326Y-109261566D01*
X225189792Y-109145558D01*
X225026389Y-109072081D01*
X224849000Y-109046928D01*
X223438558Y-109046928D01*
X222597835Y-108206205D01*
X222543420Y-108161507D01*
X222489525Y-108116284D01*
X222486017Y-108114355D01*
X222482917Y-108111809D01*
X222420851Y-108078530D01*
X222359204Y-108044639D01*
X222355383Y-108043427D01*
X222351853Y-108041534D01*
X222334128Y-108036115D01*
X222282667Y-107871539D01*
X222183766Y-107722146D01*
X222153258Y-107696224D01*
X222226263Y-107610302D01*
X222272773Y-107759041D01*
X222371674Y-107908434D01*
X222508208Y-108024442D01*
X222671611Y-108097919D01*
X222849000Y-108123072D01*
X224849000Y-108123072D01*
X224952043Y-108114697D01*
X225123041Y-108061227D01*
X225272434Y-107962326D01*
X225388442Y-107825792D01*
X225461919Y-107662389D01*
X225485370Y-107497000D01*
X228411903Y-107497000D01*
X228419303Y-107588043D01*
X228472773Y-107759041D01*
X228571674Y-107908434D01*
X228708208Y-108024442D01*
X228871611Y-108097919D01*
X229049000Y-108123072D01*
X231049000Y-108123072D01*
X231152043Y-108114697D01*
X231323041Y-108061227D01*
X231472434Y-107962326D01*
X231588442Y-107825792D01*
X231661919Y-107662389D01*
X231687072Y-107485000D01*
X231687072Y-105985000D01*
X231678697Y-105881957D01*
X231625227Y-105710959D01*
X231526326Y-105561566D01*
X231389792Y-105445558D01*
X231226389Y-105372081D01*
X231049000Y-105346928D01*
X229049000Y-105346928D01*
X228945957Y-105355303D01*
X228774959Y-105408773D01*
X228625566Y-105507674D01*
X228509558Y-105644208D01*
X228436081Y-105807611D01*
X228412629Y-105973000D01*
X225486096Y-105973000D01*
X225478697Y-105881957D01*
X225425227Y-105710959D01*
X225326326Y-105561566D01*
X225189792Y-105445558D01*
X225026389Y-105372081D01*
X224849000Y-105346928D01*
X223137558Y-105346928D01*
X220375815Y-102585185D01*
X220321400Y-102540487D01*
X220267505Y-102495264D01*
X220263997Y-102493335D01*
X220260897Y-102490789D01*
X220198831Y-102457510D01*
X220137184Y-102423619D01*
X220133363Y-102422407D01*
X220129833Y-102420514D01*
X220062535Y-102399939D01*
X219995429Y-102378652D01*
X219991445Y-102378205D01*
X219987615Y-102377034D01*
X219917627Y-102369924D01*
X219847639Y-102362074D01*
X219839802Y-102362019D01*
X219839660Y-102362005D01*
X219839526Y-102362017D01*
X219837000Y-102362000D01*
X217866630Y-102362000D01*
X216184815Y-100680185D01*
X215777500Y-100272870D01*
X215777500Y-97867542D01*
X215777500Y-97742458D01*
X215777500Y-97440750D01*
X215777500Y-96869250D01*
X215777500Y-96567542D01*
X215777500Y-96442458D01*
X215753097Y-96319777D01*
X215705230Y-96204215D01*
X215635737Y-96100211D01*
X215547289Y-96011763D01*
X215443285Y-95942270D01*
X215327723Y-95894403D01*
X215205042Y-95870000D01*
X214678250Y-95870000D01*
X214519500Y-96028750D01*
X214519500Y-97028000D01*
X215618750Y-97028000D01*
X215777500Y-96869250D01*
X215777500Y-97440750D01*
X215618750Y-97282000D01*
X214519500Y-97282000D01*
X214519500Y-98281250D01*
X214678250Y-98440000D01*
X215205042Y-98440000D01*
X215327723Y-98415597D01*
X215443285Y-98367730D01*
X215547289Y-98298237D01*
X215635737Y-98209789D01*
X215705230Y-98105785D01*
X215753097Y-97990223D01*
X215777500Y-97867542D01*
X215777500Y-100272870D01*
X215295815Y-99791185D01*
X215241400Y-99746487D01*
X215187505Y-99701264D01*
X215183997Y-99699335D01*
X215180897Y-99696789D01*
X215118831Y-99663510D01*
X215057184Y-99629619D01*
X215053363Y-99628407D01*
X215049833Y-99626514D01*
X214982535Y-99605939D01*
X214915429Y-99584652D01*
X214911445Y-99584205D01*
X214907615Y-99583034D01*
X214837627Y-99575924D01*
X214767639Y-99568074D01*
X214759802Y-99568019D01*
X214759660Y-99568005D01*
X214759526Y-99568017D01*
X214757000Y-99568000D01*
X213294630Y-99568000D01*
X212854500Y-99127869D01*
X212854500Y-98289895D01*
X212865934Y-98282326D01*
X212981942Y-98145792D01*
X213041489Y-98013366D01*
X213079770Y-98105785D01*
X213149263Y-98209789D01*
X213237711Y-98298237D01*
X213341715Y-98367730D01*
X213457277Y-98415597D01*
X213579958Y-98440000D01*
X214106750Y-98440000D01*
X214265500Y-98281250D01*
X214265500Y-97282000D01*
X214245500Y-97282000D01*
X214245500Y-97028000D01*
X214265500Y-97028000D01*
X214265500Y-96028750D01*
X214106750Y-95870000D01*
X213579958Y-95870000D01*
X213457277Y-95894403D01*
X213341715Y-95942270D01*
X213237711Y-96011763D01*
X213149263Y-96100211D01*
X213079770Y-96204215D01*
X213040220Y-96299696D01*
X213018727Y-96230959D01*
X212919826Y-96081566D01*
X212854500Y-96026060D01*
X212854500Y-95405472D01*
X213233000Y-95405472D01*
X213336043Y-95397097D01*
X213507041Y-95343627D01*
X213656434Y-95244726D01*
X213772442Y-95108192D01*
X213845919Y-94944789D01*
X213871072Y-94767400D01*
X213871072Y-93192600D01*
X213862697Y-93089557D01*
X213816454Y-92941672D01*
X215646000Y-92941672D01*
X215749043Y-92933297D01*
X215920041Y-92879827D01*
X216069434Y-92780926D01*
X216185442Y-92644392D01*
X216258919Y-92480989D01*
X216284072Y-92303600D01*
X216284072Y-90576400D01*
X216275697Y-90473357D01*
X216222227Y-90302359D01*
X216123326Y-90152966D01*
X215986792Y-90036958D01*
X215838098Y-89970095D01*
X215846353Y-89963363D01*
X216032784Y-89738006D01*
X216171892Y-89480731D01*
X216258379Y-89201335D01*
X216288951Y-88910462D01*
X216262444Y-88619190D01*
X216179866Y-88338615D01*
X216044363Y-88079422D01*
X215861097Y-87851485D01*
X215637048Y-87663485D01*
X215577413Y-87630700D01*
X215619701Y-87608216D01*
X215846353Y-87423363D01*
X216032784Y-87198006D01*
X216171892Y-86940731D01*
X216258379Y-86661335D01*
X216288951Y-86370462D01*
X216262444Y-86079190D01*
X216179866Y-85798615D01*
X216044363Y-85539422D01*
X215861097Y-85311485D01*
X215637048Y-85123485D01*
X215577413Y-85090700D01*
X215619701Y-85068216D01*
X215846353Y-84883363D01*
X216032784Y-84658006D01*
X216171892Y-84400731D01*
X216258379Y-84121335D01*
X216288951Y-83830462D01*
X216262444Y-83539190D01*
X216179866Y-83258615D01*
X216044363Y-82999422D01*
X215861097Y-82771485D01*
X215637048Y-82583485D01*
X215577413Y-82550700D01*
X215619701Y-82528216D01*
X215846353Y-82343363D01*
X216032784Y-82118006D01*
X216171892Y-81860731D01*
X216258379Y-81581335D01*
X216288951Y-81290462D01*
X216262444Y-80999190D01*
X216179866Y-80718615D01*
X216044363Y-80459422D01*
X215861097Y-80231485D01*
X215637048Y-80043485D01*
X215575127Y-80009444D01*
X215781729Y-79858486D01*
X215980733Y-79642035D01*
X216133686Y-79390919D01*
X216234709Y-79114789D01*
X216237358Y-79099026D01*
X216116217Y-78867000D01*
X214757000Y-78867000D01*
X214757000Y-78887000D01*
X214503000Y-78887000D01*
X214503000Y-78867000D01*
X213702852Y-78867000D01*
X213143783Y-78867000D01*
X212217000Y-78867000D01*
X212217000Y-78887000D01*
X211963000Y-78887000D01*
X211963000Y-78867000D01*
X210477148Y-78867000D01*
X210354990Y-79087060D01*
X210371672Y-79166996D01*
X210481159Y-79424646D01*
X210638808Y-79655986D01*
X210838560Y-79852125D01*
X211072738Y-80005526D01*
X211092446Y-80013479D01*
X210938653Y-80095253D01*
X210723525Y-80270707D01*
X210546574Y-80484604D01*
X210414539Y-80728798D01*
X210332449Y-80993987D01*
X210303432Y-81270070D01*
X210328592Y-81546531D01*
X210406971Y-81812840D01*
X210535583Y-82058854D01*
X210709531Y-82275201D01*
X210922188Y-82453641D01*
X211098214Y-82550412D01*
X210938653Y-82635253D01*
X210723525Y-82810707D01*
X210546574Y-83024604D01*
X210528516Y-83058000D01*
X208534000Y-83058000D01*
X208463890Y-83064874D01*
X208393829Y-83071004D01*
X208389985Y-83072120D01*
X208385993Y-83072512D01*
X208318552Y-83092873D01*
X208251018Y-83112494D01*
X208247462Y-83114337D01*
X208243624Y-83115496D01*
X208181446Y-83148556D01*
X208118986Y-83180933D01*
X208115855Y-83183431D01*
X208112316Y-83185314D01*
X208057769Y-83229800D01*
X208002760Y-83273714D01*
X207997185Y-83279212D01*
X207997069Y-83279307D01*
X207996979Y-83279414D01*
X207995185Y-83281185D01*
X206852185Y-84424185D01*
X206807487Y-84478599D01*
X206762264Y-84532495D01*
X206760335Y-84536002D01*
X206757789Y-84539103D01*
X206724510Y-84601168D01*
X206690619Y-84662816D01*
X206689407Y-84666636D01*
X206687514Y-84670167D01*
X206666939Y-84737464D01*
X206645652Y-84804571D01*
X206645205Y-84808554D01*
X206644034Y-84812385D01*
X206636924Y-84882372D01*
X206629074Y-84952361D01*
X206629019Y-84960197D01*
X206629005Y-84960340D01*
X206629017Y-84960473D01*
X206629000Y-84963000D01*
X206629000Y-90875872D01*
X206605400Y-90856487D01*
X206551505Y-90811264D01*
X206547997Y-90809335D01*
X206544897Y-90806789D01*
X206482831Y-90773510D01*
X206421184Y-90739619D01*
X206417363Y-90738407D01*
X206413833Y-90736514D01*
X206346535Y-90715939D01*
X206279429Y-90694652D01*
X206275445Y-90694205D01*
X206271615Y-90693034D01*
X206201627Y-90685924D01*
X206131639Y-90678074D01*
X206123802Y-90678019D01*
X206123660Y-90678005D01*
X206123526Y-90678017D01*
X206121000Y-90678000D01*
X206033227Y-90678000D01*
X206024417Y-90661146D01*
X205850469Y-90444799D01*
X205637812Y-90266359D01*
X205461785Y-90169587D01*
X205621347Y-90084747D01*
X205836475Y-89909293D01*
X206013426Y-89695396D01*
X206145461Y-89451202D01*
X206227551Y-89186013D01*
X206256568Y-88909930D01*
X206231408Y-88633469D01*
X206153029Y-88367160D01*
X206024417Y-88121146D01*
X205850469Y-87904799D01*
X205637812Y-87726359D01*
X205461785Y-87629587D01*
X205621347Y-87544747D01*
X205836475Y-87369293D01*
X206013426Y-87155396D01*
X206145461Y-86911202D01*
X206227551Y-86646013D01*
X206256568Y-86369930D01*
X206231408Y-86093469D01*
X206153029Y-85827160D01*
X206024417Y-85581146D01*
X205850469Y-85364799D01*
X205637812Y-85186359D01*
X205461785Y-85089587D01*
X205621347Y-85004747D01*
X205836475Y-84829293D01*
X206013426Y-84615396D01*
X206145461Y-84371202D01*
X206227551Y-84106013D01*
X206256568Y-83829930D01*
X206231408Y-83553469D01*
X206153029Y-83287160D01*
X206024417Y-83041146D01*
X205850469Y-82824799D01*
X205637812Y-82646359D01*
X205461785Y-82549587D01*
X205621347Y-82464747D01*
X205836475Y-82289293D01*
X206013426Y-82075396D01*
X206145461Y-81831202D01*
X206227551Y-81566013D01*
X206256568Y-81289930D01*
X206231408Y-81013469D01*
X206153029Y-80747160D01*
X206024417Y-80501146D01*
X205850469Y-80284799D01*
X205637812Y-80106359D01*
X205461785Y-80009587D01*
X205621347Y-79924747D01*
X205836475Y-79749293D01*
X206013426Y-79535396D01*
X206145461Y-79291202D01*
X206227551Y-79026013D01*
X206256568Y-78749930D01*
X206249572Y-78673057D01*
X207548815Y-77373815D01*
X207593512Y-77319400D01*
X207597983Y-77314072D01*
X207635000Y-77314072D01*
X207738043Y-77305697D01*
X207909041Y-77252227D01*
X208058434Y-77153326D01*
X208154500Y-77040261D01*
X208193674Y-77099434D01*
X208330208Y-77215442D01*
X208493611Y-77288919D01*
X208671000Y-77314072D01*
X209921000Y-77314072D01*
X210024043Y-77305697D01*
X210195041Y-77252227D01*
X210344434Y-77153326D01*
X210460442Y-77016792D01*
X210485080Y-76962000D01*
X210526772Y-76962000D01*
X210535583Y-76978854D01*
X210709531Y-77195201D01*
X210922188Y-77373641D01*
X211091689Y-77466825D01*
X211072738Y-77474474D01*
X210838560Y-77627875D01*
X210638808Y-77824014D01*
X210481159Y-78055354D01*
X210371672Y-78313004D01*
X210354990Y-78392940D01*
X210477148Y-78613000D01*
X211963000Y-78613000D01*
X211963000Y-78593000D01*
X212217000Y-78593000D01*
X212217000Y-78613000D01*
X213143783Y-78613000D01*
X213702852Y-78613000D01*
X214503000Y-78613000D01*
X214503000Y-78593000D01*
X214757000Y-78593000D01*
X214757000Y-78613000D01*
X216116217Y-78613000D01*
X216237358Y-78380974D01*
X216234709Y-78365211D01*
X216133686Y-78089081D01*
X215980733Y-77837965D01*
X215781729Y-77621514D01*
X215576205Y-77471343D01*
X215619701Y-77448216D01*
X215846353Y-77263363D01*
X216032784Y-77038006D01*
X216171892Y-76780731D01*
X216258379Y-76501335D01*
X216288951Y-76210462D01*
X216262444Y-75919190D01*
X216179866Y-75638615D01*
X216044363Y-75379422D01*
X215934434Y-75242698D01*
X216069434Y-75153326D01*
X216185442Y-75016792D01*
X216258919Y-74853389D01*
X216284072Y-74676000D01*
X216284072Y-72644000D01*
X216275697Y-72540957D01*
X216222227Y-72369959D01*
X216123326Y-72220566D01*
X215986792Y-72104558D01*
X215964073Y-72094342D01*
X215992262Y-72060749D01*
X216147492Y-71778386D01*
X216244922Y-71471250D01*
X216280839Y-71151040D01*
X216281000Y-71127988D01*
X216281000Y-71112012D01*
X216249557Y-70791331D01*
X216156426Y-70482865D01*
X216005153Y-70198363D01*
X215871836Y-70034900D01*
X215920041Y-70019827D01*
X216069434Y-69920926D01*
X216185442Y-69784392D01*
X216258919Y-69620989D01*
X216284072Y-69443600D01*
X216284072Y-67716400D01*
X216275697Y-67613357D01*
X216222227Y-67442359D01*
X216123326Y-67292966D01*
X215986792Y-67176958D01*
X215838098Y-67110095D01*
X215846353Y-67103363D01*
X216032784Y-66878006D01*
X216171892Y-66620731D01*
X216258379Y-66341335D01*
X216288951Y-66050462D01*
X216262444Y-65759190D01*
X216179866Y-65478615D01*
X216044363Y-65219422D01*
X215861097Y-64991485D01*
X215637048Y-64803485D01*
X215577413Y-64770700D01*
X215619701Y-64748216D01*
X215846353Y-64563363D01*
X216032784Y-64338006D01*
X216171892Y-64080731D01*
X216258379Y-63801335D01*
X216288951Y-63510462D01*
X216262444Y-63219190D01*
X216179866Y-62938615D01*
X216044363Y-62679422D01*
X215861097Y-62451485D01*
X215637048Y-62263485D01*
X215577413Y-62230700D01*
X215619701Y-62208216D01*
X215846353Y-62023363D01*
X216032784Y-61798006D01*
X216171892Y-61540731D01*
X216258379Y-61261335D01*
X216288951Y-60970462D01*
X216262444Y-60679190D01*
X216179866Y-60398615D01*
X216044363Y-60139422D01*
X215861097Y-59911485D01*
X215637048Y-59723485D01*
X215380749Y-59582584D01*
X215101964Y-59494148D01*
X214811312Y-59461546D01*
X214790388Y-59461400D01*
X214469612Y-59461400D01*
X214178532Y-59489941D01*
X213898540Y-59574475D01*
X213640299Y-59711784D01*
X213413647Y-59896637D01*
X213403645Y-59908727D01*
X213257812Y-59786359D01*
X213014546Y-59652622D01*
X212749937Y-59568683D01*
X212474063Y-59537739D01*
X212454203Y-59537600D01*
X211725797Y-59537600D01*
X211449518Y-59564689D01*
X211183762Y-59644926D01*
X210938653Y-59775253D01*
X210723525Y-59950707D01*
X210546574Y-60164604D01*
X210414539Y-60408798D01*
X210332449Y-60673987D01*
X210303432Y-60950070D01*
X210328592Y-61226531D01*
X210406971Y-61492840D01*
X210535583Y-61738854D01*
X210709531Y-61955201D01*
X210922188Y-62133641D01*
X211098214Y-62230412D01*
X210938653Y-62315253D01*
X210723525Y-62490707D01*
X210546574Y-62704604D01*
X210414539Y-62948798D01*
X210332449Y-63213987D01*
X210303432Y-63490070D01*
X210328592Y-63766531D01*
X210406971Y-64032840D01*
X210535583Y-64278854D01*
X210709531Y-64495201D01*
X210922188Y-64673641D01*
X211098214Y-64770412D01*
X210938653Y-64855253D01*
X210723525Y-65030707D01*
X210546574Y-65244604D01*
X210414539Y-65488798D01*
X210392631Y-65559570D01*
X210380754Y-65530753D01*
X210263600Y-65354423D01*
X210114428Y-65204207D01*
X209938921Y-65085825D01*
X209743761Y-65003788D01*
X209536384Y-64961219D01*
X209324689Y-64959741D01*
X209116738Y-64999410D01*
X208920452Y-65078715D01*
X208743308Y-65194634D01*
X208592054Y-65342753D01*
X208472450Y-65517431D01*
X208389052Y-65712012D01*
X208345037Y-65919087D01*
X208342081Y-66130767D01*
X208380297Y-66338990D01*
X208458230Y-66535825D01*
X208572910Y-66713773D01*
X208661000Y-66804993D01*
X208661000Y-67212740D01*
X208567957Y-67220303D01*
X208396959Y-67273773D01*
X208247566Y-67372674D01*
X208131558Y-67509208D01*
X208058081Y-67672611D01*
X208032928Y-67850000D01*
X208032928Y-69350000D01*
X208041303Y-69453043D01*
X208094773Y-69624041D01*
X208193674Y-69773434D01*
X208282923Y-69849266D01*
X208247566Y-69872674D01*
X208131558Y-70009208D01*
X208058081Y-70172611D01*
X208032928Y-70350000D01*
X208032928Y-71850000D01*
X208041303Y-71953043D01*
X208094773Y-72124041D01*
X208189457Y-72267064D01*
X208153636Y-72309223D01*
X208128237Y-72271211D01*
X208039789Y-72182763D01*
X207935785Y-72113270D01*
X207820223Y-72065403D01*
X207697542Y-72041000D01*
X207572458Y-72041000D01*
X207295750Y-72041000D01*
X207137000Y-72199750D01*
X207137000Y-73299000D01*
X207157000Y-73299000D01*
X207157000Y-73553000D01*
X207137000Y-73553000D01*
X207137000Y-73573000D01*
X206883000Y-73573000D01*
X206883000Y-73553000D01*
X206863000Y-73553000D01*
X206863000Y-73299000D01*
X206883000Y-73299000D01*
X206883000Y-72199750D01*
X206724250Y-72041000D01*
X206447542Y-72041000D01*
X206322458Y-72041000D01*
X206199777Y-72065403D01*
X206084215Y-72113270D01*
X205980211Y-72182763D01*
X205891763Y-72271211D01*
X205822270Y-72375215D01*
X205774403Y-72490777D01*
X205756247Y-72582052D01*
X205721440Y-72547875D01*
X205487262Y-72394474D01*
X205467553Y-72386520D01*
X205621347Y-72304747D01*
X205836475Y-72129293D01*
X206013426Y-71915396D01*
X206145461Y-71671202D01*
X206227551Y-71406013D01*
X206256568Y-71129930D01*
X206231408Y-70853469D01*
X206153029Y-70587160D01*
X206128119Y-70539511D01*
X207802816Y-68864815D01*
X207847537Y-68810370D01*
X207892736Y-68756505D01*
X207894664Y-68752997D01*
X207897211Y-68749897D01*
X207930509Y-68687796D01*
X207964381Y-68626184D01*
X207965591Y-68622368D01*
X207967487Y-68618833D01*
X207988088Y-68551448D01*
X208009348Y-68484429D01*
X208009794Y-68480451D01*
X208010967Y-68476615D01*
X208018080Y-68406577D01*
X208025926Y-68336639D01*
X208025980Y-68328802D01*
X208025995Y-68328660D01*
X208025982Y-68328526D01*
X208026000Y-68326000D01*
X208026000Y-56090217D01*
X208269538Y-56115814D01*
X208560810Y-56089307D01*
X208841385Y-56006729D01*
X209100578Y-55871226D01*
X209328515Y-55687960D01*
X209516515Y-55463911D01*
X209549299Y-55404276D01*
X209571784Y-55446564D01*
X209756637Y-55673216D01*
X209981994Y-55859647D01*
X210239269Y-55998755D01*
X210518665Y-56085242D01*
X210809538Y-56115814D01*
X211100810Y-56089307D01*
X211381385Y-56006729D01*
X211640578Y-55871226D01*
X211868515Y-55687960D01*
X212056515Y-55463911D01*
X212107043Y-55372000D01*
X213171370Y-55372000D01*
X213550376Y-55751006D01*
X213549081Y-55843767D01*
X213587297Y-56051990D01*
X213665230Y-56248825D01*
X213779910Y-56426773D01*
X213926969Y-56579058D01*
X214100807Y-56699879D01*
X214294802Y-56784633D01*
X214501564Y-56830093D01*
X214713219Y-56834526D01*
X214921704Y-56797765D01*
X215119077Y-56721208D01*
X215297822Y-56607773D01*
X215451130Y-56461780D01*
X215573161Y-56288790D01*
X215659268Y-56095392D01*
X215706170Y-55888952D01*
X215709546Y-55647150D01*
X215668426Y-55439481D01*
X215587754Y-55243753D01*
X215470600Y-55067423D01*
X215321428Y-54917207D01*
X215145921Y-54798825D01*
X214950761Y-54716788D01*
X214743384Y-54674219D01*
X214628043Y-54673413D01*
X214025815Y-54071185D01*
X213971400Y-54026487D01*
X213917505Y-53981264D01*
X213913997Y-53979335D01*
X213910897Y-53976789D01*
X213848831Y-53943510D01*
X213787184Y-53909619D01*
X213783363Y-53908407D01*
X213779833Y-53906514D01*
X213712535Y-53885939D01*
X213645429Y-53864652D01*
X213641445Y-53864205D01*
X213637615Y-53863034D01*
X213567627Y-53855924D01*
X213497639Y-53848074D01*
X213489802Y-53848019D01*
X213489660Y-53848005D01*
X213489526Y-53848017D01*
X213487000Y-53848000D01*
X212107862Y-53848000D01*
X212068216Y-53773436D01*
X211883363Y-53546784D01*
X211658006Y-53360353D01*
X211622050Y-53340911D01*
X211640578Y-53331226D01*
X211868515Y-53147960D01*
X212056515Y-52923911D01*
X212197416Y-52667612D01*
X212285852Y-52388827D01*
X212318454Y-52098175D01*
X212318600Y-52077251D01*
X212318600Y-52062749D01*
X212290059Y-51771669D01*
X212205525Y-51491677D01*
X212068216Y-51233436D01*
X211883363Y-51006784D01*
X211658006Y-50820353D01*
X211400731Y-50681245D01*
X211121335Y-50594758D01*
X210830462Y-50564186D01*
X210539190Y-50590693D01*
X210258615Y-50673271D01*
X209999422Y-50808774D01*
X209771485Y-50992040D01*
X209583485Y-51216089D01*
X209550700Y-51275723D01*
X209528216Y-51233436D01*
X209343363Y-51006784D01*
X209118006Y-50820353D01*
X208860731Y-50681245D01*
X208581335Y-50594758D01*
X208290462Y-50564186D01*
X207999190Y-50590693D01*
X207905807Y-50618177D01*
X206913815Y-49626185D01*
X206859400Y-49581487D01*
X206805505Y-49536264D01*
X206801997Y-49534335D01*
X206798897Y-49531789D01*
X206736831Y-49498510D01*
X206675184Y-49464619D01*
X206671363Y-49463407D01*
X206667833Y-49461514D01*
X206600535Y-49440939D01*
X206533429Y-49419652D01*
X206529445Y-49419205D01*
X206525615Y-49418034D01*
X206455627Y-49410924D01*
X206385639Y-49403074D01*
X206377802Y-49403019D01*
X206377660Y-49403005D01*
X206377526Y-49403017D01*
X206375000Y-49403000D01*
X203835000Y-49403000D01*
X203764936Y-49409869D01*
X203694830Y-49416003D01*
X203690982Y-49417120D01*
X203686993Y-49417512D01*
X203619627Y-49437850D01*
X203552018Y-49457493D01*
X203548457Y-49459338D01*
X203544624Y-49460496D01*
X203482482Y-49493537D01*
X203419986Y-49525933D01*
X203416855Y-49528431D01*
X203413316Y-49530314D01*
X203358769Y-49574800D01*
X203303760Y-49618714D01*
X203298181Y-49624215D01*
X203298069Y-49624307D01*
X203297983Y-49624410D01*
X203296185Y-49626184D01*
X199486185Y-53436185D01*
X199441487Y-53490599D01*
X199440000Y-53492372D01*
X199440000Y-48437000D01*
X217120000Y-48437000D01*
X217120000Y-96925000D01*
X217120011Y-96925121D01*
X217120004Y-96927420D01*
X217120041Y-96937892D01*
X217123064Y-96967648D01*
X217122856Y-96997554D01*
X217123789Y-97007073D01*
X217154389Y-97298218D01*
X217166877Y-97359054D01*
X217178507Y-97420021D01*
X217181271Y-97429177D01*
X217267839Y-97708833D01*
X217291896Y-97766062D01*
X217315156Y-97823632D01*
X217319646Y-97832077D01*
X217458885Y-98089593D01*
X217493604Y-98141065D01*
X217527597Y-98193012D01*
X217533642Y-98200424D01*
X217533644Y-98200426D01*
X217720247Y-98425991D01*
X217764300Y-98469738D01*
X217807739Y-98514096D01*
X217815109Y-98520193D01*
X218041973Y-98705219D01*
X218093690Y-98739580D01*
X218144912Y-98774652D01*
X218153325Y-98779201D01*
X218411806Y-98916638D01*
X218469241Y-98940311D01*
X218526270Y-98964754D01*
X218535407Y-98967583D01*
X218815661Y-99052197D01*
X218876576Y-99064258D01*
X218937293Y-99077164D01*
X218946804Y-99078164D01*
X219238156Y-99106731D01*
X219266887Y-99106730D01*
X219295436Y-99109933D01*
X219305000Y-99110000D01*
X231511496Y-99110000D01*
X231702663Y-99128743D01*
X231854321Y-99174532D01*
X231994195Y-99248904D01*
X232116961Y-99349030D01*
X232217940Y-99471093D01*
X232293290Y-99610449D01*
X232340135Y-99761780D01*
X232360000Y-99950782D01*
X232360000Y-104106495D01*
M02*
