%FSLAX46Y46*%
G04 Gerber Fmt 4.6, Leading zero omitted, Abs format (unit mm)*
G04 Created by KiCad (PCBNEW (2014-10-27 BZR 5228)-product) date 05/01/2015 12:45:55*
%MOMM*%
G01*
G04 APERTURE LIST*
%ADD10C,0.100000*%
%ADD11C,0.200000*%
%ADD12C,0.175000*%
%ADD13C,0.127000*%
%ADD14C,0.250000*%
%ADD15C,0.300000*%
%ADD16C,0.150000*%
%ADD17C,0.400000*%
%ADD18C,0.203200*%
G04 APERTURE END LIST*
D10*
D11*
X222250000Y-101981000D02*
X230886000Y-101981000D01*
D12*
X204216000Y-49620714D02*
X204470000Y-50382714D01*
X204724000Y-49620714D01*
X205413429Y-50310143D02*
X205377143Y-50346429D01*
X205268286Y-50382714D01*
X205195715Y-50382714D01*
X205086858Y-50346429D01*
X205014286Y-50273857D01*
X204978001Y-50201286D01*
X204941715Y-50056143D01*
X204941715Y-49947286D01*
X204978001Y-49802143D01*
X205014286Y-49729571D01*
X205086858Y-49657000D01*
X205195715Y-49620714D01*
X205268286Y-49620714D01*
X205377143Y-49657000D01*
X205413429Y-49693286D01*
X206175429Y-50310143D02*
X206139143Y-50346429D01*
X206030286Y-50382714D01*
X205957715Y-50382714D01*
X205848858Y-50346429D01*
X205776286Y-50273857D01*
X205740001Y-50201286D01*
X205703715Y-50056143D01*
X205703715Y-49947286D01*
X205740001Y-49802143D01*
X205776286Y-49729571D01*
X205848858Y-49657000D01*
X205957715Y-49620714D01*
X206030286Y-49620714D01*
X206139143Y-49657000D01*
X206175429Y-49693286D01*
X207082572Y-50382714D02*
X207082572Y-49620714D01*
X207336572Y-50165000D01*
X207590572Y-49620714D01*
X207590572Y-50382714D01*
X208098571Y-49620714D02*
X208243714Y-49620714D01*
X208316286Y-49657000D01*
X208388857Y-49729571D01*
X208425143Y-49874714D01*
X208425143Y-50128714D01*
X208388857Y-50273857D01*
X208316286Y-50346429D01*
X208243714Y-50382714D01*
X208098571Y-50382714D01*
X208026000Y-50346429D01*
X207953429Y-50273857D01*
X207917143Y-50128714D01*
X207917143Y-49874714D01*
X207953429Y-49729571D01*
X208026000Y-49657000D01*
X208098571Y-49620714D01*
X208715429Y-50346429D02*
X208824286Y-50382714D01*
X209005715Y-50382714D01*
X209078286Y-50346429D01*
X209114572Y-50310143D01*
X209150857Y-50237571D01*
X209150857Y-50165000D01*
X209114572Y-50092429D01*
X209078286Y-50056143D01*
X209005715Y-50019857D01*
X208860572Y-49983571D01*
X208788000Y-49947286D01*
X208751715Y-49911000D01*
X208715429Y-49838429D01*
X208715429Y-49765857D01*
X208751715Y-49693286D01*
X208788000Y-49657000D01*
X208860572Y-49620714D01*
X209042000Y-49620714D01*
X209150857Y-49657000D01*
X209477429Y-50382714D02*
X209477429Y-49620714D01*
X210747428Y-49657000D02*
X210674857Y-49620714D01*
X210566000Y-49620714D01*
X210457143Y-49657000D01*
X210384571Y-49729571D01*
X210348286Y-49802143D01*
X210312000Y-49947286D01*
X210312000Y-50056143D01*
X210348286Y-50201286D01*
X210384571Y-50273857D01*
X210457143Y-50346429D01*
X210566000Y-50382714D01*
X210638571Y-50382714D01*
X210747428Y-50346429D01*
X210783714Y-50310143D01*
X210783714Y-50056143D01*
X210638571Y-50056143D01*
X211110286Y-50382714D02*
X211110286Y-49620714D01*
X211545714Y-50382714D01*
X211545714Y-49620714D01*
X211908572Y-50382714D02*
X211908572Y-49620714D01*
X212090000Y-49620714D01*
X212198857Y-49657000D01*
X212271429Y-49729571D01*
X212307714Y-49802143D01*
X212344000Y-49947286D01*
X212344000Y-50056143D01*
X212307714Y-50201286D01*
X212271429Y-50273857D01*
X212198857Y-50346429D01*
X212090000Y-50382714D01*
X211908572Y-50382714D01*
X210656715Y-56986714D02*
X210402715Y-56623857D01*
X210221287Y-56986714D02*
X210221287Y-56224714D01*
X210511572Y-56224714D01*
X210584144Y-56261000D01*
X210620429Y-56297286D01*
X210656715Y-56369857D01*
X210656715Y-56478714D01*
X210620429Y-56551286D01*
X210584144Y-56587571D01*
X210511572Y-56623857D01*
X210221287Y-56623857D01*
X210947001Y-56950429D02*
X211055858Y-56986714D01*
X211237287Y-56986714D01*
X211309858Y-56950429D01*
X211346144Y-56914143D01*
X211382429Y-56841571D01*
X211382429Y-56769000D01*
X211346144Y-56696429D01*
X211309858Y-56660143D01*
X211237287Y-56623857D01*
X211092144Y-56587571D01*
X211019572Y-56551286D01*
X210983287Y-56515000D01*
X210947001Y-56442429D01*
X210947001Y-56369857D01*
X210983287Y-56297286D01*
X211019572Y-56261000D01*
X211092144Y-56224714D01*
X211273572Y-56224714D01*
X211382429Y-56261000D01*
X211600143Y-56224714D02*
X212035572Y-56224714D01*
X211817858Y-56986714D02*
X211817858Y-56224714D01*
X207300286Y-56950429D02*
X207409143Y-56986714D01*
X207590572Y-56986714D01*
X207663143Y-56950429D01*
X207699429Y-56914143D01*
X207735714Y-56841571D01*
X207735714Y-56769000D01*
X207699429Y-56696429D01*
X207663143Y-56660143D01*
X207590572Y-56623857D01*
X207445429Y-56587571D01*
X207372857Y-56551286D01*
X207336572Y-56515000D01*
X207300286Y-56442429D01*
X207300286Y-56369857D01*
X207336572Y-56297286D01*
X207372857Y-56261000D01*
X207445429Y-56224714D01*
X207626857Y-56224714D01*
X207735714Y-56261000D01*
X208497714Y-56914143D02*
X208461428Y-56950429D01*
X208352571Y-56986714D01*
X208280000Y-56986714D01*
X208171143Y-56950429D01*
X208098571Y-56877857D01*
X208062286Y-56805286D01*
X208026000Y-56660143D01*
X208026000Y-56551286D01*
X208062286Y-56406143D01*
X208098571Y-56333571D01*
X208171143Y-56261000D01*
X208280000Y-56224714D01*
X208352571Y-56224714D01*
X208461428Y-56261000D01*
X208497714Y-56297286D01*
X208824286Y-56986714D02*
X208824286Y-56224714D01*
X209259714Y-56986714D02*
X208933143Y-56551286D01*
X209259714Y-56224714D02*
X208824286Y-56660143D01*
X204034572Y-56986714D02*
X204034572Y-56224714D01*
X204288572Y-56769000D01*
X204542572Y-56224714D01*
X204542572Y-56986714D01*
X204905429Y-56986714D02*
X204905429Y-56224714D01*
X205232000Y-56950429D02*
X205340857Y-56986714D01*
X205522286Y-56986714D01*
X205594857Y-56950429D01*
X205631143Y-56914143D01*
X205667428Y-56841571D01*
X205667428Y-56769000D01*
X205631143Y-56696429D01*
X205594857Y-56660143D01*
X205522286Y-56623857D01*
X205377143Y-56587571D01*
X205304571Y-56551286D01*
X205268286Y-56515000D01*
X205232000Y-56442429D01*
X205232000Y-56369857D01*
X205268286Y-56297286D01*
X205304571Y-56261000D01*
X205377143Y-56224714D01*
X205558571Y-56224714D01*
X205667428Y-56261000D01*
X206139142Y-56224714D02*
X206284285Y-56224714D01*
X206356857Y-56261000D01*
X206429428Y-56333571D01*
X206465714Y-56478714D01*
X206465714Y-56732714D01*
X206429428Y-56877857D01*
X206356857Y-56950429D01*
X206284285Y-56986714D01*
X206139142Y-56986714D01*
X206066571Y-56950429D01*
X205994000Y-56877857D01*
X205957714Y-56732714D01*
X205957714Y-56478714D01*
X205994000Y-56333571D01*
X206066571Y-56261000D01*
X206139142Y-56224714D01*
X199236857Y-93367334D02*
X200136857Y-93367334D01*
X200136857Y-93634000D01*
X200094000Y-93700667D01*
X200051143Y-93734000D01*
X199965429Y-93767334D01*
X199836857Y-93767334D01*
X199751143Y-93734000D01*
X199708286Y-93700667D01*
X199665429Y-93634000D01*
X199665429Y-93367334D01*
X199322571Y-94467334D02*
X199279714Y-94434000D01*
X199236857Y-94334000D01*
X199236857Y-94267334D01*
X199279714Y-94167334D01*
X199365429Y-94100667D01*
X199451143Y-94067334D01*
X199622571Y-94034000D01*
X199751143Y-94034000D01*
X199922571Y-94067334D01*
X200008286Y-94100667D01*
X200094000Y-94167334D01*
X200136857Y-94267334D01*
X200136857Y-94334000D01*
X200094000Y-94434000D01*
X200051143Y-94467334D01*
X200136857Y-95100667D02*
X200136857Y-94767334D01*
X199708286Y-94734000D01*
X199751143Y-94767334D01*
X199794000Y-94834000D01*
X199794000Y-95000667D01*
X199751143Y-95067334D01*
X199708286Y-95100667D01*
X199622571Y-95134000D01*
X199408286Y-95134000D01*
X199322571Y-95100667D01*
X199279714Y-95067334D01*
X199236857Y-95000667D01*
X199236857Y-94834000D01*
X199279714Y-94767334D01*
X199322571Y-94734000D01*
X199236857Y-90573334D02*
X200136857Y-90573334D01*
X200136857Y-90840000D01*
X200094000Y-90906667D01*
X200051143Y-90940000D01*
X199965429Y-90973334D01*
X199836857Y-90973334D01*
X199751143Y-90940000D01*
X199708286Y-90906667D01*
X199665429Y-90840000D01*
X199665429Y-90573334D01*
X199322571Y-91673334D02*
X199279714Y-91640000D01*
X199236857Y-91540000D01*
X199236857Y-91473334D01*
X199279714Y-91373334D01*
X199365429Y-91306667D01*
X199451143Y-91273334D01*
X199622571Y-91240000D01*
X199751143Y-91240000D01*
X199922571Y-91273334D01*
X200008286Y-91306667D01*
X200094000Y-91373334D01*
X200136857Y-91473334D01*
X200136857Y-91540000D01*
X200094000Y-91640000D01*
X200051143Y-91673334D01*
X199836857Y-92273334D02*
X199236857Y-92273334D01*
X200179714Y-92106667D02*
X199536857Y-91940000D01*
X199536857Y-92373334D01*
X199236857Y-88033334D02*
X200136857Y-88033334D01*
X200136857Y-88300000D01*
X200094000Y-88366667D01*
X200051143Y-88400000D01*
X199965429Y-88433334D01*
X199836857Y-88433334D01*
X199751143Y-88400000D01*
X199708286Y-88366667D01*
X199665429Y-88300000D01*
X199665429Y-88033334D01*
X199322571Y-89133334D02*
X199279714Y-89100000D01*
X199236857Y-89000000D01*
X199236857Y-88933334D01*
X199279714Y-88833334D01*
X199365429Y-88766667D01*
X199451143Y-88733334D01*
X199622571Y-88700000D01*
X199751143Y-88700000D01*
X199922571Y-88733334D01*
X200008286Y-88766667D01*
X200094000Y-88833334D01*
X200136857Y-88933334D01*
X200136857Y-89000000D01*
X200094000Y-89100000D01*
X200051143Y-89133334D01*
X200136857Y-89366667D02*
X200136857Y-89800000D01*
X199794000Y-89566667D01*
X199794000Y-89666667D01*
X199751143Y-89733334D01*
X199708286Y-89766667D01*
X199622571Y-89800000D01*
X199408286Y-89800000D01*
X199322571Y-89766667D01*
X199279714Y-89733334D01*
X199236857Y-89666667D01*
X199236857Y-89466667D01*
X199279714Y-89400000D01*
X199322571Y-89366667D01*
X199236857Y-85493334D02*
X200136857Y-85493334D01*
X200136857Y-85760000D01*
X200094000Y-85826667D01*
X200051143Y-85860000D01*
X199965429Y-85893334D01*
X199836857Y-85893334D01*
X199751143Y-85860000D01*
X199708286Y-85826667D01*
X199665429Y-85760000D01*
X199665429Y-85493334D01*
X199322571Y-86593334D02*
X199279714Y-86560000D01*
X199236857Y-86460000D01*
X199236857Y-86393334D01*
X199279714Y-86293334D01*
X199365429Y-86226667D01*
X199451143Y-86193334D01*
X199622571Y-86160000D01*
X199751143Y-86160000D01*
X199922571Y-86193334D01*
X200008286Y-86226667D01*
X200094000Y-86293334D01*
X200136857Y-86393334D01*
X200136857Y-86460000D01*
X200094000Y-86560000D01*
X200051143Y-86593334D01*
X200051143Y-86860000D02*
X200094000Y-86893334D01*
X200136857Y-86960000D01*
X200136857Y-87126667D01*
X200094000Y-87193334D01*
X200051143Y-87226667D01*
X199965429Y-87260000D01*
X199879714Y-87260000D01*
X199751143Y-87226667D01*
X199236857Y-86826667D01*
X199236857Y-87260000D01*
X199236857Y-82953334D02*
X200136857Y-82953334D01*
X200136857Y-83220000D01*
X200094000Y-83286667D01*
X200051143Y-83320000D01*
X199965429Y-83353334D01*
X199836857Y-83353334D01*
X199751143Y-83320000D01*
X199708286Y-83286667D01*
X199665429Y-83220000D01*
X199665429Y-82953334D01*
X199322571Y-84053334D02*
X199279714Y-84020000D01*
X199236857Y-83920000D01*
X199236857Y-83853334D01*
X199279714Y-83753334D01*
X199365429Y-83686667D01*
X199451143Y-83653334D01*
X199622571Y-83620000D01*
X199751143Y-83620000D01*
X199922571Y-83653334D01*
X200008286Y-83686667D01*
X200094000Y-83753334D01*
X200136857Y-83853334D01*
X200136857Y-83920000D01*
X200094000Y-84020000D01*
X200051143Y-84053334D01*
X199236857Y-84720000D02*
X199236857Y-84320000D01*
X199236857Y-84520000D02*
X200136857Y-84520000D01*
X200008286Y-84453334D01*
X199922571Y-84386667D01*
X199879714Y-84320000D01*
X199236857Y-80413334D02*
X200136857Y-80413334D01*
X200136857Y-80680000D01*
X200094000Y-80746667D01*
X200051143Y-80780000D01*
X199965429Y-80813334D01*
X199836857Y-80813334D01*
X199751143Y-80780000D01*
X199708286Y-80746667D01*
X199665429Y-80680000D01*
X199665429Y-80413334D01*
X199322571Y-81513334D02*
X199279714Y-81480000D01*
X199236857Y-81380000D01*
X199236857Y-81313334D01*
X199279714Y-81213334D01*
X199365429Y-81146667D01*
X199451143Y-81113334D01*
X199622571Y-81080000D01*
X199751143Y-81080000D01*
X199922571Y-81113334D01*
X200008286Y-81146667D01*
X200094000Y-81213334D01*
X200136857Y-81313334D01*
X200136857Y-81380000D01*
X200094000Y-81480000D01*
X200051143Y-81513334D01*
X200136857Y-81946667D02*
X200136857Y-82013334D01*
X200094000Y-82080000D01*
X200051143Y-82113334D01*
X199965429Y-82146667D01*
X199794000Y-82180000D01*
X199579714Y-82180000D01*
X199408286Y-82146667D01*
X199322571Y-82113334D01*
X199279714Y-82080000D01*
X199236857Y-82013334D01*
X199236857Y-81946667D01*
X199279714Y-81880000D01*
X199322571Y-81846667D01*
X199408286Y-81813334D01*
X199579714Y-81780000D01*
X199794000Y-81780000D01*
X199965429Y-81813334D01*
X200051143Y-81846667D01*
X200094000Y-81880000D01*
X200136857Y-81946667D01*
X200094000Y-78206667D02*
X200136857Y-78140001D01*
X200136857Y-78040001D01*
X200094000Y-77940001D01*
X200008286Y-77873334D01*
X199922571Y-77840001D01*
X199751143Y-77806667D01*
X199622571Y-77806667D01*
X199451143Y-77840001D01*
X199365429Y-77873334D01*
X199279714Y-77940001D01*
X199236857Y-78040001D01*
X199236857Y-78106667D01*
X199279714Y-78206667D01*
X199322571Y-78240001D01*
X199622571Y-78240001D01*
X199622571Y-78106667D01*
X199236857Y-78540001D02*
X200136857Y-78540001D01*
X199236857Y-78940001D01*
X200136857Y-78940001D01*
X199236857Y-79273334D02*
X200136857Y-79273334D01*
X200136857Y-79440000D01*
X200094000Y-79540000D01*
X200008286Y-79606667D01*
X199922571Y-79640000D01*
X199751143Y-79673334D01*
X199622571Y-79673334D01*
X199451143Y-79640000D01*
X199365429Y-79606667D01*
X199279714Y-79540000D01*
X199236857Y-79440000D01*
X199236857Y-79273334D01*
X199494000Y-74812667D02*
X199494000Y-75146001D01*
X199236857Y-74746001D02*
X200136857Y-74979334D01*
X199236857Y-75212667D01*
X199236857Y-75846001D02*
X199665429Y-75612667D01*
X199236857Y-75446001D02*
X200136857Y-75446001D01*
X200136857Y-75712667D01*
X200094000Y-75779334D01*
X200051143Y-75812667D01*
X199965429Y-75846001D01*
X199836857Y-75846001D01*
X199751143Y-75812667D01*
X199708286Y-75779334D01*
X199665429Y-75712667D01*
X199665429Y-75446001D01*
X199708286Y-76146001D02*
X199708286Y-76379334D01*
X199236857Y-76479334D02*
X199236857Y-76146001D01*
X200136857Y-76146001D01*
X200136857Y-76479334D01*
X199708286Y-77012667D02*
X199708286Y-76779334D01*
X199236857Y-76779334D02*
X200136857Y-76779334D01*
X200136857Y-77112667D01*
X199236857Y-70253334D02*
X200136857Y-70253334D01*
X200136857Y-70520000D01*
X200094000Y-70586667D01*
X200051143Y-70620000D01*
X199965429Y-70653334D01*
X199836857Y-70653334D01*
X199751143Y-70620000D01*
X199708286Y-70586667D01*
X199665429Y-70520000D01*
X199665429Y-70253334D01*
X199708286Y-71186667D02*
X199665429Y-71286667D01*
X199622571Y-71320000D01*
X199536857Y-71353334D01*
X199408286Y-71353334D01*
X199322571Y-71320000D01*
X199279714Y-71286667D01*
X199236857Y-71220000D01*
X199236857Y-70953334D01*
X200136857Y-70953334D01*
X200136857Y-71186667D01*
X200094000Y-71253334D01*
X200051143Y-71286667D01*
X199965429Y-71320000D01*
X199879714Y-71320000D01*
X199794000Y-71286667D01*
X199751143Y-71253334D01*
X199708286Y-71186667D01*
X199708286Y-70953334D01*
X200136857Y-71986667D02*
X200136857Y-71653334D01*
X199708286Y-71620000D01*
X199751143Y-71653334D01*
X199794000Y-71720000D01*
X199794000Y-71886667D01*
X199751143Y-71953334D01*
X199708286Y-71986667D01*
X199622571Y-72020000D01*
X199408286Y-72020000D01*
X199322571Y-71986667D01*
X199279714Y-71953334D01*
X199236857Y-71886667D01*
X199236857Y-71720000D01*
X199279714Y-71653334D01*
X199322571Y-71620000D01*
X199236857Y-67713334D02*
X200136857Y-67713334D01*
X200136857Y-67980000D01*
X200094000Y-68046667D01*
X200051143Y-68080000D01*
X199965429Y-68113334D01*
X199836857Y-68113334D01*
X199751143Y-68080000D01*
X199708286Y-68046667D01*
X199665429Y-67980000D01*
X199665429Y-67713334D01*
X199708286Y-68646667D02*
X199665429Y-68746667D01*
X199622571Y-68780000D01*
X199536857Y-68813334D01*
X199408286Y-68813334D01*
X199322571Y-68780000D01*
X199279714Y-68746667D01*
X199236857Y-68680000D01*
X199236857Y-68413334D01*
X200136857Y-68413334D01*
X200136857Y-68646667D01*
X200094000Y-68713334D01*
X200051143Y-68746667D01*
X199965429Y-68780000D01*
X199879714Y-68780000D01*
X199794000Y-68746667D01*
X199751143Y-68713334D01*
X199708286Y-68646667D01*
X199708286Y-68413334D01*
X199836857Y-69413334D02*
X199236857Y-69413334D01*
X200179714Y-69246667D02*
X199536857Y-69080000D01*
X199536857Y-69513334D01*
X199236857Y-65173334D02*
X200136857Y-65173334D01*
X200136857Y-65440000D01*
X200094000Y-65506667D01*
X200051143Y-65540000D01*
X199965429Y-65573334D01*
X199836857Y-65573334D01*
X199751143Y-65540000D01*
X199708286Y-65506667D01*
X199665429Y-65440000D01*
X199665429Y-65173334D01*
X199708286Y-66106667D02*
X199665429Y-66206667D01*
X199622571Y-66240000D01*
X199536857Y-66273334D01*
X199408286Y-66273334D01*
X199322571Y-66240000D01*
X199279714Y-66206667D01*
X199236857Y-66140000D01*
X199236857Y-65873334D01*
X200136857Y-65873334D01*
X200136857Y-66106667D01*
X200094000Y-66173334D01*
X200051143Y-66206667D01*
X199965429Y-66240000D01*
X199879714Y-66240000D01*
X199794000Y-66206667D01*
X199751143Y-66173334D01*
X199708286Y-66106667D01*
X199708286Y-65873334D01*
X200136857Y-66506667D02*
X200136857Y-66940000D01*
X199794000Y-66706667D01*
X199794000Y-66806667D01*
X199751143Y-66873334D01*
X199708286Y-66906667D01*
X199622571Y-66940000D01*
X199408286Y-66940000D01*
X199322571Y-66906667D01*
X199279714Y-66873334D01*
X199236857Y-66806667D01*
X199236857Y-66606667D01*
X199279714Y-66540000D01*
X199322571Y-66506667D01*
X199236857Y-62633334D02*
X200136857Y-62633334D01*
X200136857Y-62900000D01*
X200094000Y-62966667D01*
X200051143Y-63000000D01*
X199965429Y-63033334D01*
X199836857Y-63033334D01*
X199751143Y-63000000D01*
X199708286Y-62966667D01*
X199665429Y-62900000D01*
X199665429Y-62633334D01*
X199708286Y-63566667D02*
X199665429Y-63666667D01*
X199622571Y-63700000D01*
X199536857Y-63733334D01*
X199408286Y-63733334D01*
X199322571Y-63700000D01*
X199279714Y-63666667D01*
X199236857Y-63600000D01*
X199236857Y-63333334D01*
X200136857Y-63333334D01*
X200136857Y-63566667D01*
X200094000Y-63633334D01*
X200051143Y-63666667D01*
X199965429Y-63700000D01*
X199879714Y-63700000D01*
X199794000Y-63666667D01*
X199751143Y-63633334D01*
X199708286Y-63566667D01*
X199708286Y-63333334D01*
X200051143Y-64000000D02*
X200094000Y-64033334D01*
X200136857Y-64100000D01*
X200136857Y-64266667D01*
X200094000Y-64333334D01*
X200051143Y-64366667D01*
X199965429Y-64400000D01*
X199879714Y-64400000D01*
X199751143Y-64366667D01*
X199236857Y-63966667D01*
X199236857Y-64400000D01*
X199236857Y-60093334D02*
X200136857Y-60093334D01*
X200136857Y-60360000D01*
X200094000Y-60426667D01*
X200051143Y-60460000D01*
X199965429Y-60493334D01*
X199836857Y-60493334D01*
X199751143Y-60460000D01*
X199708286Y-60426667D01*
X199665429Y-60360000D01*
X199665429Y-60093334D01*
X199708286Y-61026667D02*
X199665429Y-61126667D01*
X199622571Y-61160000D01*
X199536857Y-61193334D01*
X199408286Y-61193334D01*
X199322571Y-61160000D01*
X199279714Y-61126667D01*
X199236857Y-61060000D01*
X199236857Y-60793334D01*
X200136857Y-60793334D01*
X200136857Y-61026667D01*
X200094000Y-61093334D01*
X200051143Y-61126667D01*
X199965429Y-61160000D01*
X199879714Y-61160000D01*
X199794000Y-61126667D01*
X199751143Y-61093334D01*
X199708286Y-61026667D01*
X199708286Y-60793334D01*
X199236857Y-61860000D02*
X199236857Y-61460000D01*
X199236857Y-61660000D02*
X200136857Y-61660000D01*
X200008286Y-61593334D01*
X199922571Y-61526667D01*
X199879714Y-61460000D01*
D11*
X216154000Y-74676000D02*
X217170000Y-74676000D01*
X216154000Y-70104000D02*
X216154000Y-74676000D01*
X216154000Y-70104000D02*
X217170000Y-70104000D01*
D12*
X217323143Y-61826666D02*
X216423143Y-61826666D01*
X216423143Y-61560000D01*
X216466000Y-61493333D01*
X216508857Y-61460000D01*
X216594571Y-61426666D01*
X216723143Y-61426666D01*
X216808857Y-61460000D01*
X216851714Y-61493333D01*
X216894571Y-61560000D01*
X216894571Y-61826666D01*
X216851714Y-60893333D02*
X216894571Y-60793333D01*
X216937429Y-60760000D01*
X217023143Y-60726666D01*
X217151714Y-60726666D01*
X217237429Y-60760000D01*
X217280286Y-60793333D01*
X217323143Y-60860000D01*
X217323143Y-61126666D01*
X216423143Y-61126666D01*
X216423143Y-60893333D01*
X216466000Y-60826666D01*
X216508857Y-60793333D01*
X216594571Y-60760000D01*
X216680286Y-60760000D01*
X216766000Y-60793333D01*
X216808857Y-60826666D01*
X216851714Y-60893333D01*
X216851714Y-61126666D01*
X216423143Y-60293333D02*
X216423143Y-60226666D01*
X216466000Y-60160000D01*
X216508857Y-60126666D01*
X216594571Y-60093333D01*
X216766000Y-60060000D01*
X216980286Y-60060000D01*
X217151714Y-60093333D01*
X217237429Y-60126666D01*
X217280286Y-60160000D01*
X217323143Y-60226666D01*
X217323143Y-60293333D01*
X217280286Y-60360000D01*
X217237429Y-60393333D01*
X217151714Y-60426666D01*
X216980286Y-60460000D01*
X216766000Y-60460000D01*
X216594571Y-60426666D01*
X216508857Y-60393333D01*
X216466000Y-60360000D01*
X216423143Y-60293333D01*
X217323143Y-64366666D02*
X216423143Y-64366666D01*
X216423143Y-64100000D01*
X216466000Y-64033333D01*
X216508857Y-64000000D01*
X216594571Y-63966666D01*
X216723143Y-63966666D01*
X216808857Y-64000000D01*
X216851714Y-64033333D01*
X216894571Y-64100000D01*
X216894571Y-64366666D01*
X217323143Y-63666666D02*
X216423143Y-63666666D01*
X216423143Y-63500000D01*
X216466000Y-63400000D01*
X216551714Y-63333333D01*
X216637429Y-63300000D01*
X216808857Y-63266666D01*
X216937429Y-63266666D01*
X217108857Y-63300000D01*
X217194571Y-63333333D01*
X217280286Y-63400000D01*
X217323143Y-63500000D01*
X217323143Y-63666666D01*
X216423143Y-63033333D02*
X216423143Y-62566666D01*
X217323143Y-62866666D01*
X217323143Y-66906666D02*
X216423143Y-66906666D01*
X216423143Y-66640000D01*
X216466000Y-66573333D01*
X216508857Y-66540000D01*
X216594571Y-66506666D01*
X216723143Y-66506666D01*
X216808857Y-66540000D01*
X216851714Y-66573333D01*
X216894571Y-66640000D01*
X216894571Y-66906666D01*
X217323143Y-66206666D02*
X216423143Y-66206666D01*
X216423143Y-66040000D01*
X216466000Y-65940000D01*
X216551714Y-65873333D01*
X216637429Y-65840000D01*
X216808857Y-65806666D01*
X216937429Y-65806666D01*
X217108857Y-65840000D01*
X217194571Y-65873333D01*
X217280286Y-65940000D01*
X217323143Y-66040000D01*
X217323143Y-66206666D01*
X216423143Y-65206666D02*
X216423143Y-65340000D01*
X216466000Y-65406666D01*
X216508857Y-65440000D01*
X216637429Y-65506666D01*
X216808857Y-65540000D01*
X217151714Y-65540000D01*
X217237429Y-65506666D01*
X217280286Y-65473333D01*
X217323143Y-65406666D01*
X217323143Y-65273333D01*
X217280286Y-65206666D01*
X217237429Y-65173333D01*
X217151714Y-65140000D01*
X216937429Y-65140000D01*
X216851714Y-65173333D01*
X216808857Y-65206666D01*
X216766000Y-65273333D01*
X216766000Y-65406666D01*
X216808857Y-65473333D01*
X216851714Y-65506666D01*
X216937429Y-65540000D01*
X217323143Y-69446666D02*
X216423143Y-69446666D01*
X216423143Y-69180000D01*
X216466000Y-69113333D01*
X216508857Y-69080000D01*
X216594571Y-69046666D01*
X216723143Y-69046666D01*
X216808857Y-69080000D01*
X216851714Y-69113333D01*
X216894571Y-69180000D01*
X216894571Y-69446666D01*
X217323143Y-68746666D02*
X216423143Y-68746666D01*
X216423143Y-68580000D01*
X216466000Y-68480000D01*
X216551714Y-68413333D01*
X216637429Y-68380000D01*
X216808857Y-68346666D01*
X216937429Y-68346666D01*
X217108857Y-68380000D01*
X217194571Y-68413333D01*
X217280286Y-68480000D01*
X217323143Y-68580000D01*
X217323143Y-68746666D01*
X216423143Y-67713333D02*
X216423143Y-68046666D01*
X216851714Y-68080000D01*
X216808857Y-68046666D01*
X216766000Y-67980000D01*
X216766000Y-67813333D01*
X216808857Y-67746666D01*
X216851714Y-67713333D01*
X216937429Y-67680000D01*
X217151714Y-67680000D01*
X217237429Y-67713333D01*
X217280286Y-67746666D01*
X217323143Y-67813333D01*
X217323143Y-67980000D01*
X217280286Y-68046666D01*
X217237429Y-68080000D01*
X216423143Y-73473333D02*
X217323143Y-73006666D01*
X216423143Y-73006666D02*
X217323143Y-73473333D01*
X216423143Y-72839999D02*
X216423143Y-72439999D01*
X217323143Y-72639999D02*
X216423143Y-72639999D01*
X217066000Y-72240000D02*
X217066000Y-71906666D01*
X217323143Y-72306666D02*
X216423143Y-72073333D01*
X217323143Y-71840000D01*
X217323143Y-71273333D02*
X217323143Y-71606666D01*
X216423143Y-71606666D01*
X216466000Y-76733333D02*
X216423143Y-76799999D01*
X216423143Y-76899999D01*
X216466000Y-76999999D01*
X216551714Y-77066666D01*
X216637429Y-77099999D01*
X216808857Y-77133333D01*
X216937429Y-77133333D01*
X217108857Y-77099999D01*
X217194571Y-77066666D01*
X217280286Y-76999999D01*
X217323143Y-76899999D01*
X217323143Y-76833333D01*
X217280286Y-76733333D01*
X217237429Y-76699999D01*
X216937429Y-76699999D01*
X216937429Y-76833333D01*
X217323143Y-76399999D02*
X216423143Y-76399999D01*
X217323143Y-75999999D01*
X216423143Y-75999999D01*
X217323143Y-75666666D02*
X216423143Y-75666666D01*
X216423143Y-75500000D01*
X216466000Y-75400000D01*
X216551714Y-75333333D01*
X216637429Y-75300000D01*
X216808857Y-75266666D01*
X216937429Y-75266666D01*
X217108857Y-75300000D01*
X217194571Y-75333333D01*
X217280286Y-75400000D01*
X217323143Y-75500000D01*
X217323143Y-75666666D01*
X216423143Y-79673333D02*
X217323143Y-79440000D01*
X216423143Y-79206667D01*
X217237429Y-78573333D02*
X217280286Y-78606667D01*
X217323143Y-78706667D01*
X217323143Y-78773333D01*
X217280286Y-78873333D01*
X217194571Y-78940000D01*
X217108857Y-78973333D01*
X216937429Y-79006667D01*
X216808857Y-79006667D01*
X216637429Y-78973333D01*
X216551714Y-78940000D01*
X216466000Y-78873333D01*
X216423143Y-78773333D01*
X216423143Y-78706667D01*
X216466000Y-78606667D01*
X216508857Y-78573333D01*
X217237429Y-77873333D02*
X217280286Y-77906667D01*
X217323143Y-78006667D01*
X217323143Y-78073333D01*
X217280286Y-78173333D01*
X217194571Y-78240000D01*
X217108857Y-78273333D01*
X216937429Y-78306667D01*
X216808857Y-78306667D01*
X216637429Y-78273333D01*
X216551714Y-78240000D01*
X216466000Y-78173333D01*
X216423143Y-78073333D01*
X216423143Y-78006667D01*
X216466000Y-77906667D01*
X216508857Y-77873333D01*
X217323143Y-82146666D02*
X216423143Y-82146666D01*
X216423143Y-81880000D01*
X216466000Y-81813333D01*
X216508857Y-81780000D01*
X216594571Y-81746666D01*
X216723143Y-81746666D01*
X216808857Y-81780000D01*
X216851714Y-81813333D01*
X216894571Y-81880000D01*
X216894571Y-82146666D01*
X217323143Y-81446666D02*
X216423143Y-81446666D01*
X216423143Y-81280000D01*
X216466000Y-81180000D01*
X216551714Y-81113333D01*
X216637429Y-81080000D01*
X216808857Y-81046666D01*
X216937429Y-81046666D01*
X217108857Y-81080000D01*
X217194571Y-81113333D01*
X217280286Y-81180000D01*
X217323143Y-81280000D01*
X217323143Y-81446666D01*
X216723143Y-80446666D02*
X217323143Y-80446666D01*
X216380286Y-80613333D02*
X217023143Y-80780000D01*
X217023143Y-80346666D01*
X217323143Y-84686666D02*
X216423143Y-84686666D01*
X216423143Y-84420000D01*
X216466000Y-84353333D01*
X216508857Y-84320000D01*
X216594571Y-84286666D01*
X216723143Y-84286666D01*
X216808857Y-84320000D01*
X216851714Y-84353333D01*
X216894571Y-84420000D01*
X216894571Y-84686666D01*
X217323143Y-83986666D02*
X216423143Y-83986666D01*
X216423143Y-83820000D01*
X216466000Y-83720000D01*
X216551714Y-83653333D01*
X216637429Y-83620000D01*
X216808857Y-83586666D01*
X216937429Y-83586666D01*
X217108857Y-83620000D01*
X217194571Y-83653333D01*
X217280286Y-83720000D01*
X217323143Y-83820000D01*
X217323143Y-83986666D01*
X216423143Y-83353333D02*
X216423143Y-82920000D01*
X216766000Y-83153333D01*
X216766000Y-83053333D01*
X216808857Y-82986666D01*
X216851714Y-82953333D01*
X216937429Y-82920000D01*
X217151714Y-82920000D01*
X217237429Y-82953333D01*
X217280286Y-82986666D01*
X217323143Y-83053333D01*
X217323143Y-83253333D01*
X217280286Y-83320000D01*
X217237429Y-83353333D01*
X217323143Y-87226666D02*
X216423143Y-87226666D01*
X216423143Y-86960000D01*
X216466000Y-86893333D01*
X216508857Y-86860000D01*
X216594571Y-86826666D01*
X216723143Y-86826666D01*
X216808857Y-86860000D01*
X216851714Y-86893333D01*
X216894571Y-86960000D01*
X216894571Y-87226666D01*
X217323143Y-86526666D02*
X216423143Y-86526666D01*
X216423143Y-86360000D01*
X216466000Y-86260000D01*
X216551714Y-86193333D01*
X216637429Y-86160000D01*
X216808857Y-86126666D01*
X216937429Y-86126666D01*
X217108857Y-86160000D01*
X217194571Y-86193333D01*
X217280286Y-86260000D01*
X217323143Y-86360000D01*
X217323143Y-86526666D01*
X216508857Y-85860000D02*
X216466000Y-85826666D01*
X216423143Y-85760000D01*
X216423143Y-85593333D01*
X216466000Y-85526666D01*
X216508857Y-85493333D01*
X216594571Y-85460000D01*
X216680286Y-85460000D01*
X216808857Y-85493333D01*
X217323143Y-85893333D01*
X217323143Y-85460000D01*
X217323143Y-89766666D02*
X216423143Y-89766666D01*
X216423143Y-89500000D01*
X216466000Y-89433333D01*
X216508857Y-89400000D01*
X216594571Y-89366666D01*
X216723143Y-89366666D01*
X216808857Y-89400000D01*
X216851714Y-89433333D01*
X216894571Y-89500000D01*
X216894571Y-89766666D01*
X217323143Y-89066666D02*
X216423143Y-89066666D01*
X216423143Y-88900000D01*
X216466000Y-88800000D01*
X216551714Y-88733333D01*
X216637429Y-88700000D01*
X216808857Y-88666666D01*
X216937429Y-88666666D01*
X217108857Y-88700000D01*
X217194571Y-88733333D01*
X217280286Y-88800000D01*
X217323143Y-88900000D01*
X217323143Y-89066666D01*
X217323143Y-88000000D02*
X217323143Y-88400000D01*
X217323143Y-88200000D02*
X216423143Y-88200000D01*
X216551714Y-88266666D01*
X216637429Y-88333333D01*
X216680286Y-88400000D01*
X217323143Y-92306666D02*
X216423143Y-92306666D01*
X216423143Y-92040000D01*
X216466000Y-91973333D01*
X216508857Y-91940000D01*
X216594571Y-91906666D01*
X216723143Y-91906666D01*
X216808857Y-91940000D01*
X216851714Y-91973333D01*
X216894571Y-92040000D01*
X216894571Y-92306666D01*
X217323143Y-91606666D02*
X216423143Y-91606666D01*
X216423143Y-91440000D01*
X216466000Y-91340000D01*
X216551714Y-91273333D01*
X216637429Y-91240000D01*
X216808857Y-91206666D01*
X216937429Y-91206666D01*
X217108857Y-91240000D01*
X217194571Y-91273333D01*
X217280286Y-91340000D01*
X217323143Y-91440000D01*
X217323143Y-91606666D01*
X216423143Y-90773333D02*
X216423143Y-90706666D01*
X216466000Y-90640000D01*
X216508857Y-90606666D01*
X216594571Y-90573333D01*
X216766000Y-90540000D01*
X216980286Y-90540000D01*
X217151714Y-90573333D01*
X217237429Y-90606666D01*
X217280286Y-90640000D01*
X217323143Y-90706666D01*
X217323143Y-90773333D01*
X217280286Y-90840000D01*
X217237429Y-90873333D01*
X217151714Y-90906666D01*
X216980286Y-90940000D01*
X216766000Y-90940000D01*
X216594571Y-90906666D01*
X216508857Y-90873333D01*
X216466000Y-90840000D01*
X216423143Y-90773333D01*
D13*
X219560143Y-104237786D02*
X219699000Y-104723786D01*
X219837857Y-104376643D01*
X219976714Y-104723786D01*
X220115571Y-104237786D01*
X220323857Y-104237786D02*
X220462714Y-104723786D01*
X220601571Y-104376643D01*
X220740428Y-104723786D01*
X220879285Y-104237786D01*
X221087571Y-104237786D02*
X221226428Y-104723786D01*
X221365285Y-104376643D01*
X221504142Y-104723786D01*
X221642999Y-104237786D01*
X221920713Y-104654357D02*
X221955428Y-104689071D01*
X221920713Y-104723786D01*
X221885999Y-104689071D01*
X221920713Y-104654357D01*
X221920713Y-104723786D01*
X222580285Y-104689071D02*
X222510856Y-104723786D01*
X222371999Y-104723786D01*
X222302571Y-104689071D01*
X222267856Y-104654357D01*
X222233142Y-104584929D01*
X222233142Y-104376643D01*
X222267856Y-104307214D01*
X222302571Y-104272500D01*
X222371999Y-104237786D01*
X222510856Y-104237786D01*
X222580285Y-104272500D01*
X222892713Y-104723786D02*
X222892713Y-104237786D01*
X222892713Y-104376643D02*
X222927428Y-104307214D01*
X222962142Y-104272500D01*
X223031571Y-104237786D01*
X223100999Y-104237786D01*
X223656428Y-104723786D02*
X223656428Y-104341929D01*
X223621714Y-104272500D01*
X223552285Y-104237786D01*
X223413428Y-104237786D01*
X223343999Y-104272500D01*
X223656428Y-104689071D02*
X223586999Y-104723786D01*
X223413428Y-104723786D01*
X223343999Y-104689071D01*
X223309285Y-104619643D01*
X223309285Y-104550214D01*
X223343999Y-104480786D01*
X223413428Y-104446071D01*
X223586999Y-104446071D01*
X223656428Y-104411357D01*
X223968856Y-104689071D02*
X224038285Y-104723786D01*
X224177142Y-104723786D01*
X224246570Y-104689071D01*
X224281285Y-104619643D01*
X224281285Y-104584929D01*
X224246570Y-104515500D01*
X224177142Y-104480786D01*
X224072999Y-104480786D01*
X224003570Y-104446071D01*
X223968856Y-104376643D01*
X223968856Y-104341929D01*
X224003570Y-104272500D01*
X224072999Y-104237786D01*
X224177142Y-104237786D01*
X224246570Y-104272500D01*
X224593713Y-104723786D02*
X224593713Y-103994786D01*
X224906142Y-104723786D02*
X224906142Y-104341929D01*
X224871428Y-104272500D01*
X224801999Y-104237786D01*
X224697856Y-104237786D01*
X224628428Y-104272500D01*
X224593713Y-104307214D01*
X225253284Y-104446071D02*
X225808713Y-104446071D01*
X226155855Y-104723786D02*
X226155855Y-103994786D01*
X226155855Y-104272500D02*
X226225284Y-104237786D01*
X226364141Y-104237786D01*
X226433570Y-104272500D01*
X226468284Y-104307214D01*
X226502998Y-104376643D01*
X226502998Y-104584929D01*
X226468284Y-104654357D01*
X226433570Y-104689071D01*
X226364141Y-104723786D01*
X226225284Y-104723786D01*
X226155855Y-104689071D01*
X227127855Y-104723786D02*
X227127855Y-104341929D01*
X227093141Y-104272500D01*
X227023712Y-104237786D01*
X226884855Y-104237786D01*
X226815426Y-104272500D01*
X227127855Y-104689071D02*
X227058426Y-104723786D01*
X226884855Y-104723786D01*
X226815426Y-104689071D01*
X226780712Y-104619643D01*
X226780712Y-104550214D01*
X226815426Y-104480786D01*
X226884855Y-104446071D01*
X227058426Y-104446071D01*
X227127855Y-104411357D01*
X227474997Y-104237786D02*
X227474997Y-104723786D01*
X227474997Y-104307214D02*
X227509712Y-104272500D01*
X227579140Y-104237786D01*
X227683283Y-104237786D01*
X227752712Y-104272500D01*
X227787426Y-104341929D01*
X227787426Y-104723786D01*
X228446997Y-104237786D02*
X228446997Y-104827929D01*
X228412283Y-104897357D01*
X228377568Y-104932071D01*
X228308140Y-104966786D01*
X228203997Y-104966786D01*
X228134568Y-104932071D01*
X228446997Y-104689071D02*
X228377568Y-104723786D01*
X228238711Y-104723786D01*
X228169283Y-104689071D01*
X228134568Y-104654357D01*
X228099854Y-104584929D01*
X228099854Y-104376643D01*
X228134568Y-104307214D01*
X228169283Y-104272500D01*
X228238711Y-104237786D01*
X228377568Y-104237786D01*
X228446997Y-104272500D01*
X228794139Y-104654357D02*
X228828854Y-104689071D01*
X228794139Y-104723786D01*
X228759425Y-104689071D01*
X228794139Y-104654357D01*
X228794139Y-104723786D01*
X229453711Y-104689071D02*
X229384282Y-104723786D01*
X229245425Y-104723786D01*
X229175997Y-104689071D01*
X229141282Y-104654357D01*
X229106568Y-104584929D01*
X229106568Y-104376643D01*
X229141282Y-104307214D01*
X229175997Y-104272500D01*
X229245425Y-104237786D01*
X229384282Y-104237786D01*
X229453711Y-104272500D01*
X229870282Y-104723786D02*
X229800854Y-104689071D01*
X229766139Y-104654357D01*
X229731425Y-104584929D01*
X229731425Y-104376643D01*
X229766139Y-104307214D01*
X229800854Y-104272500D01*
X229870282Y-104237786D01*
X229974425Y-104237786D01*
X230043854Y-104272500D01*
X230078568Y-104307214D01*
X230113282Y-104376643D01*
X230113282Y-104584929D01*
X230078568Y-104654357D01*
X230043854Y-104689071D01*
X229974425Y-104723786D01*
X229870282Y-104723786D01*
X230425710Y-104723786D02*
X230425710Y-104237786D01*
X230425710Y-104307214D02*
X230460425Y-104272500D01*
X230529853Y-104237786D01*
X230633996Y-104237786D01*
X230703425Y-104272500D01*
X230738139Y-104341929D01*
X230738139Y-104723786D01*
X230738139Y-104341929D02*
X230772853Y-104272500D01*
X230842282Y-104237786D01*
X230946425Y-104237786D01*
X231015853Y-104272500D01*
X231050568Y-104341929D01*
X231050568Y-104723786D01*
D14*
X223810620Y-101208619D02*
X223948120Y-100108619D01*
X224216571Y-100894333D01*
X224681453Y-100108619D01*
X224543953Y-101208619D01*
X225493357Y-101156238D02*
X225382048Y-101208619D01*
X225172525Y-101208619D01*
X225074310Y-101156238D01*
X225035025Y-101051476D01*
X225087405Y-100632429D01*
X225152882Y-100527667D01*
X225264191Y-100475286D01*
X225473714Y-100475286D01*
X225571929Y-100527667D01*
X225611214Y-100632429D01*
X225598119Y-100737190D01*
X225061215Y-100841952D01*
X226573714Y-100475286D02*
X226462405Y-101365762D01*
X226396928Y-101470524D01*
X226338000Y-101522905D01*
X226226691Y-101575286D01*
X226069548Y-101575286D01*
X225971334Y-101522905D01*
X226488595Y-101156238D02*
X226377286Y-101208619D01*
X226167763Y-101208619D01*
X226069548Y-101156238D01*
X226023715Y-101103857D01*
X225984429Y-100999095D01*
X226023715Y-100684810D01*
X226089191Y-100580048D01*
X226148120Y-100527667D01*
X226259429Y-100475286D01*
X226468952Y-100475286D01*
X226567167Y-100527667D01*
X227477286Y-101208619D02*
X227549309Y-100632429D01*
X227510024Y-100527667D01*
X227411809Y-100475286D01*
X227202286Y-100475286D01*
X227090977Y-100527667D01*
X227483833Y-101156238D02*
X227372524Y-101208619D01*
X227110620Y-101208619D01*
X227012405Y-101156238D01*
X226973120Y-101051476D01*
X226986215Y-100946714D01*
X227051691Y-100841952D01*
X227163001Y-100789571D01*
X227424905Y-100789571D01*
X227536214Y-100737190D01*
X228033834Y-100108619D02*
X228714786Y-100108619D01*
X228295739Y-100527667D01*
X228452881Y-100527667D01*
X228551095Y-100580048D01*
X228596928Y-100632429D01*
X228636214Y-100737190D01*
X228603476Y-100999095D01*
X228538000Y-101103857D01*
X228479071Y-101156238D01*
X228367762Y-101208619D01*
X228053477Y-101208619D01*
X227955262Y-101156238D01*
X227909429Y-101103857D01*
X229120738Y-100213381D02*
X229179667Y-100161000D01*
X229290977Y-100108619D01*
X229552881Y-100108619D01*
X229651095Y-100161000D01*
X229696928Y-100213381D01*
X229736214Y-100318143D01*
X229723119Y-100422905D01*
X229651095Y-100580048D01*
X228943953Y-101208619D01*
X229624905Y-101208619D01*
X230332048Y-100580048D02*
X230233834Y-100527667D01*
X230188000Y-100475286D01*
X230148715Y-100370524D01*
X230155262Y-100318143D01*
X230220738Y-100213381D01*
X230279667Y-100161000D01*
X230390977Y-100108619D01*
X230600500Y-100108619D01*
X230698714Y-100161000D01*
X230744547Y-100213381D01*
X230783833Y-100318143D01*
X230777286Y-100370524D01*
X230711809Y-100475286D01*
X230652881Y-100527667D01*
X230541571Y-100580048D01*
X230332048Y-100580048D01*
X230220738Y-100632429D01*
X230161810Y-100684810D01*
X230096334Y-100789571D01*
X230070143Y-100999095D01*
X230109429Y-101103857D01*
X230155262Y-101156238D01*
X230253477Y-101208619D01*
X230463000Y-101208619D01*
X230574309Y-101156238D01*
X230633238Y-101103857D01*
X230698714Y-100999095D01*
X230724905Y-100789571D01*
X230685619Y-100684810D01*
X230639785Y-100632429D01*
X230541571Y-100580048D01*
D15*
X220948287Y-121733571D02*
X220234001Y-121733571D01*
X220162572Y-122447857D01*
X220234001Y-122376429D01*
X220376858Y-122305000D01*
X220734001Y-122305000D01*
X220876858Y-122376429D01*
X220948287Y-122447857D01*
X221019715Y-122590714D01*
X221019715Y-122947857D01*
X220948287Y-123090714D01*
X220876858Y-123162143D01*
X220734001Y-123233571D01*
X220376858Y-123233571D01*
X220234001Y-123162143D01*
X220162572Y-123090714D01*
X221448286Y-121733571D02*
X221948286Y-123233571D01*
X222448286Y-121733571D01*
X214423858Y-121733571D02*
X215352429Y-121733571D01*
X214852429Y-122305000D01*
X215066715Y-122305000D01*
X215209572Y-122376429D01*
X215281001Y-122447857D01*
X215352429Y-122590714D01*
X215352429Y-122947857D01*
X215281001Y-123090714D01*
X215209572Y-123162143D01*
X215066715Y-123233571D01*
X214638143Y-123233571D01*
X214495286Y-123162143D01*
X214423858Y-123090714D01*
X215781000Y-121733571D02*
X216281000Y-123233571D01*
X216781000Y-121733571D01*
X217138143Y-121733571D02*
X218066714Y-121733571D01*
X217566714Y-122305000D01*
X217781000Y-122305000D01*
X217923857Y-122376429D01*
X217995286Y-122447857D01*
X218066714Y-122590714D01*
X218066714Y-122947857D01*
X217995286Y-123090714D01*
X217923857Y-123162143D01*
X217781000Y-123233571D01*
X217352428Y-123233571D01*
X217209571Y-123162143D01*
X217138143Y-123090714D01*
D16*
X199771000Y-118872000D02*
X199771000Y-119126000D01*
X199771000Y-119126000D02*
X202057000Y-119126000D01*
X202057000Y-119126000D02*
X202057000Y-118872000D01*
X199771000Y-118872000D02*
X202057000Y-118872000D01*
X202057000Y-118872000D02*
X202057000Y-117221000D01*
X199771000Y-115443000D02*
X199771000Y-113792000D01*
X199771000Y-113792000D02*
X202057000Y-113792000D01*
X202057000Y-113792000D02*
X202057000Y-115443000D01*
X199771000Y-117221000D02*
X199771000Y-118872000D01*
X212852000Y-107823000D02*
X212598000Y-107823000D01*
X212598000Y-107823000D02*
X212598000Y-110109000D01*
X212598000Y-110109000D02*
X212852000Y-110109000D01*
X212852000Y-107823000D02*
X212852000Y-110109000D01*
X212852000Y-110109000D02*
X214503000Y-110109000D01*
X216281000Y-107823000D02*
X217932000Y-107823000D01*
X217932000Y-107823000D02*
X217932000Y-110109000D01*
X217932000Y-110109000D02*
X216281000Y-110109000D01*
X214503000Y-107823000D02*
X212852000Y-107823000D01*
X210185000Y-76327000D02*
G75*
G03X210185000Y-76327000I-127000J0D01*
G01*
X210058000Y-75184000D02*
X210058000Y-76200000D01*
X210058000Y-76200000D02*
X208534000Y-76200000D01*
X208534000Y-76200000D02*
X208534000Y-75184000D01*
X208534000Y-74168000D02*
X208534000Y-73152000D01*
X208534000Y-73152000D02*
X210058000Y-73152000D01*
X210058000Y-73152000D02*
X210058000Y-74168000D01*
X208661000Y-68453000D02*
G75*
G03X208661000Y-68453000I-127000J0D01*
G01*
X208534000Y-69596000D02*
X208534000Y-68580000D01*
X208534000Y-68580000D02*
X210058000Y-68580000D01*
X210058000Y-68580000D02*
X210058000Y-69596000D01*
X210058000Y-70612000D02*
X210058000Y-71628000D01*
X210058000Y-71628000D02*
X208534000Y-71628000D01*
X208534000Y-71628000D02*
X208534000Y-70612000D01*
X206375000Y-73025000D02*
G75*
G03X206375000Y-73025000I-127000J0D01*
G01*
X206248000Y-74168000D02*
X206248000Y-73152000D01*
X206248000Y-73152000D02*
X207772000Y-73152000D01*
X207772000Y-73152000D02*
X207772000Y-74168000D01*
X207772000Y-75184000D02*
X207772000Y-76200000D01*
X207772000Y-76200000D02*
X206248000Y-76200000D01*
X206248000Y-76200000D02*
X206248000Y-75184000D01*
X190500000Y-112776000D02*
X191262000Y-112776000D01*
X191262000Y-112776000D02*
X191262000Y-113792000D01*
X191262000Y-113792000D02*
X197358000Y-113792000D01*
X197358000Y-113792000D02*
X197358000Y-112776000D01*
X197358000Y-112776000D02*
X198120000Y-112776000D01*
X197358000Y-112776000D02*
X197358000Y-111760000D01*
X197358000Y-111760000D02*
X191262000Y-111760000D01*
X191262000Y-111760000D02*
X191262000Y-112776000D01*
X191770000Y-113792000D02*
X191770000Y-111760000D01*
X192024000Y-111760000D02*
X192024000Y-113792000D01*
X224609660Y-115651280D02*
X224609660Y-115326160D01*
X224609660Y-115326160D02*
X224109280Y-115326160D01*
X224109280Y-115651280D02*
X224109280Y-115326160D01*
X224609660Y-115651280D02*
X224109280Y-115651280D01*
X224609660Y-116273580D02*
X224609660Y-116123720D01*
X224609660Y-116123720D02*
X224358200Y-116123720D01*
X224358200Y-116273580D02*
X224358200Y-116123720D01*
X224609660Y-116273580D02*
X224358200Y-116273580D01*
X224609660Y-115778280D02*
X224609660Y-115628420D01*
X224609660Y-115628420D02*
X224358200Y-115628420D01*
X224358200Y-115778280D02*
X224358200Y-115628420D01*
X224609660Y-115778280D02*
X224358200Y-115778280D01*
X224609660Y-116149120D02*
X224609660Y-115752880D01*
X224609660Y-115752880D02*
X224434400Y-115752880D01*
X224434400Y-116149120D02*
X224434400Y-115752880D01*
X224609660Y-116149120D02*
X224434400Y-116149120D01*
X226105720Y-115651280D02*
X226105720Y-115326160D01*
X226105720Y-115326160D02*
X225605340Y-115326160D01*
X225605340Y-115651280D02*
X225605340Y-115326160D01*
X226105720Y-115651280D02*
X225605340Y-115651280D01*
X226105720Y-116575840D02*
X226105720Y-116250720D01*
X226105720Y-116250720D02*
X225605340Y-116250720D01*
X225605340Y-116575840D02*
X225605340Y-116250720D01*
X226105720Y-116575840D02*
X225605340Y-116575840D01*
X225856800Y-115778280D02*
X225856800Y-115628420D01*
X225856800Y-115628420D02*
X225605340Y-115628420D01*
X225605340Y-115778280D02*
X225605340Y-115628420D01*
X225856800Y-115778280D02*
X225605340Y-115778280D01*
X225856800Y-116273580D02*
X225856800Y-116123720D01*
X225856800Y-116123720D02*
X225605340Y-116123720D01*
X225605340Y-116273580D02*
X225605340Y-116123720D01*
X225856800Y-116273580D02*
X225605340Y-116273580D01*
X225780600Y-116149120D02*
X225780600Y-115752880D01*
X225780600Y-115752880D02*
X225605340Y-115752880D01*
X225605340Y-116149120D02*
X225605340Y-115752880D01*
X225780600Y-116149120D02*
X225605340Y-116149120D01*
X225107500Y-116050060D02*
X225107500Y-115851940D01*
X225107500Y-115851940D02*
X224909380Y-115851940D01*
X224909380Y-116050060D02*
X224909380Y-115851940D01*
X225107500Y-116050060D02*
X224909380Y-116050060D01*
X224609660Y-116550440D02*
X224609660Y-116250720D01*
X224609660Y-116250720D02*
X224309940Y-116250720D01*
X224309940Y-116550440D02*
X224309940Y-116250720D01*
X224609660Y-116550440D02*
X224309940Y-116550440D01*
X224182940Y-116575840D02*
X224182940Y-116349780D01*
X224182940Y-116349780D02*
X224109280Y-116349780D01*
X224109280Y-116575840D02*
X224109280Y-116349780D01*
X224182940Y-116575840D02*
X224109280Y-116575840D01*
X224584260Y-115376960D02*
X225630740Y-115376960D01*
X225605340Y-116525040D02*
X224182940Y-116525040D01*
X224330982Y-116400580D02*
G75*
G03X224330982Y-116400580I-71842J0D01*
G01*
X224109280Y-116298980D02*
G75*
G03X224109280Y-115603020I0J347980D01*
G01*
X226105720Y-115603020D02*
G75*
G03X226105720Y-116298980I0J-347980D01*
G01*
X193964000Y-119494000D02*
X191464000Y-119494000D01*
X191464000Y-119494000D02*
X191464000Y-114694000D01*
X191464000Y-114694000D02*
X193964000Y-114694000D01*
X195164000Y-119494000D02*
X197664000Y-119494000D01*
X197664000Y-119494000D02*
X197664000Y-114694000D01*
X197664000Y-114694000D02*
X195164000Y-114694000D01*
X205740000Y-96520000D02*
X205740000Y-58420000D01*
X205740000Y-58420000D02*
X210820000Y-58420000D01*
X210820000Y-58420000D02*
X210820000Y-96520000D01*
X210820000Y-96520000D02*
X205740000Y-96520000D01*
X207010000Y-96520000D02*
X207010000Y-95250000D01*
X207010000Y-95250000D02*
X209550000Y-95250000D01*
X209550000Y-95250000D02*
X209550000Y-96520000D01*
X217678000Y-121412000D02*
X222758000Y-121412000D01*
X222758000Y-121412000D02*
X222758000Y-118872000D01*
X222758000Y-118872000D02*
X217678000Y-118872000D01*
X215138000Y-118872000D02*
X217678000Y-118872000D01*
X217678000Y-118872000D02*
X217678000Y-121412000D01*
X215138000Y-118872000D02*
X215138000Y-121412000D01*
X215138000Y-121412000D02*
X217678000Y-121412000D01*
X204470000Y-53340000D02*
X207010000Y-53340000D01*
X207010000Y-53340000D02*
X207010000Y-55880000D01*
X204470000Y-55880000D02*
X212090000Y-55880000D01*
X212090000Y-55880000D02*
X212090000Y-50800000D01*
X212090000Y-50800000D02*
X207010000Y-50800000D01*
X204470000Y-55880000D02*
X204470000Y-53340000D01*
X204470000Y-50800000D02*
X204470000Y-53340000D01*
X207010000Y-50800000D02*
X204470000Y-50800000D01*
X215900000Y-72390000D02*
X213360000Y-72390000D01*
X215900000Y-74930000D02*
X213360000Y-74930000D01*
X213360000Y-74930000D02*
X213360000Y-72390000D01*
X213360000Y-72390000D02*
X213360000Y-69850000D01*
X213360000Y-69850000D02*
X215900000Y-69850000D01*
X215900000Y-69850000D02*
X215900000Y-74930000D01*
X219999000Y-109361000D02*
X221199000Y-109361000D01*
X221199000Y-111111000D02*
X219999000Y-111111000D01*
X219823000Y-113700000D02*
X219823000Y-114900000D01*
X218073000Y-114900000D02*
X218073000Y-113700000D01*
X215533000Y-114900000D02*
X215533000Y-113700000D01*
X217283000Y-113700000D02*
X217283000Y-114900000D01*
X220613000Y-114900000D02*
X220613000Y-113700000D01*
X222363000Y-113700000D02*
X222363000Y-114900000D01*
X216168000Y-103978000D02*
X216168000Y-102778000D01*
X217918000Y-102778000D02*
X217918000Y-103978000D01*
X229108000Y-109347000D02*
G75*
G03X229108000Y-109347000I-2540000J0D01*
G01*
X229628000Y-106287000D02*
X229628000Y-112407000D01*
X229628000Y-112407000D02*
X223508000Y-112407000D01*
X223508000Y-112407000D02*
X223508000Y-106287000D01*
X229628000Y-106287000D02*
X223508000Y-106287000D01*
X209550000Y-125222000D02*
X212598000Y-125222000D01*
X212598000Y-125222000D02*
X212598000Y-118110000D01*
X212598000Y-118110000D02*
X209550000Y-118110000D01*
X206502000Y-125222000D02*
X205740000Y-125222000D01*
X205740000Y-125222000D02*
X203454000Y-123698000D01*
X203454000Y-123698000D02*
X203454000Y-119634000D01*
X203454000Y-119634000D02*
X205740000Y-118110000D01*
X205740000Y-118110000D02*
X206502000Y-118110000D01*
X205740000Y-117094000D02*
X205740000Y-101854000D01*
X210820000Y-104394000D02*
X210820000Y-117094000D01*
X205740000Y-117094000D02*
X210820000Y-117094000D01*
X205740000Y-101854000D02*
X208280000Y-101854000D01*
X210820000Y-101854000D02*
X210820000Y-104394000D01*
X208280000Y-101854000D02*
X208280000Y-104394000D01*
X208280000Y-104394000D02*
X210820000Y-104394000D01*
X210820000Y-101854000D02*
X208280000Y-101854000D01*
X187769500Y-98877120D02*
X187769500Y-107878880D01*
X184269380Y-98877120D02*
X184269380Y-107878880D01*
X184269380Y-107878880D02*
X198770240Y-107878880D01*
X198770240Y-107878880D02*
X198770240Y-98877120D01*
X198770240Y-98877120D02*
X184269380Y-98877120D01*
D10*
X220336000Y-101292000D02*
X220336000Y-101092000D01*
X220336000Y-101092000D02*
X220536000Y-101092000D01*
X220536000Y-101092000D02*
X220536000Y-101292000D01*
X220536000Y-101292000D02*
X220336000Y-101292000D01*
X220336000Y-101792000D02*
X220336000Y-101592000D01*
X220336000Y-101592000D02*
X220536000Y-101592000D01*
X220536000Y-101592000D02*
X220536000Y-101792000D01*
X220536000Y-101792000D02*
X220336000Y-101792000D01*
X220336000Y-102292000D02*
X220336000Y-102092000D01*
X220336000Y-102092000D02*
X220536000Y-102092000D01*
X220536000Y-102092000D02*
X220536000Y-102292000D01*
X220536000Y-102292000D02*
X220336000Y-102292000D01*
D17*
X219536000Y-103392000D02*
X220436000Y-103392000D01*
X220436000Y-103392000D02*
X220436000Y-102692000D01*
X219536000Y-100992000D02*
X219536000Y-103392000D01*
X218236000Y-100992000D02*
X219536000Y-100992000D01*
X221636000Y-100892000D02*
G75*
G03X218236000Y-100892000I-1700000J0D01*
G01*
D13*
X202964143Y-116332000D02*
X203000429Y-116368286D01*
X203036714Y-116477143D01*
X203036714Y-116549714D01*
X203000429Y-116658571D01*
X202927857Y-116731143D01*
X202855286Y-116767428D01*
X202710143Y-116803714D01*
X202601286Y-116803714D01*
X202456143Y-116767428D01*
X202383571Y-116731143D01*
X202311000Y-116658571D01*
X202274714Y-116549714D01*
X202274714Y-116477143D01*
X202311000Y-116368286D01*
X202347286Y-116332000D01*
X203036714Y-115606286D02*
X203036714Y-116041714D01*
X203036714Y-115824000D02*
X202274714Y-115824000D01*
X202383571Y-115896571D01*
X202456143Y-115969143D01*
X202492429Y-116041714D01*
X215265000Y-107460143D02*
X215228714Y-107496429D01*
X215119857Y-107532714D01*
X215047286Y-107532714D01*
X214938429Y-107496429D01*
X214865857Y-107423857D01*
X214829572Y-107351286D01*
X214793286Y-107206143D01*
X214793286Y-107097286D01*
X214829572Y-106952143D01*
X214865857Y-106879571D01*
X214938429Y-106807000D01*
X215047286Y-106770714D01*
X215119857Y-106770714D01*
X215228714Y-106807000D01*
X215265000Y-106843286D01*
X215555286Y-106843286D02*
X215591572Y-106807000D01*
X215664143Y-106770714D01*
X215845572Y-106770714D01*
X215918143Y-106807000D01*
X215954429Y-106843286D01*
X215990714Y-106915857D01*
X215990714Y-106988429D01*
X215954429Y-107097286D01*
X215519000Y-107532714D01*
X215990714Y-107532714D01*
X209169000Y-77234143D02*
X209132714Y-77270429D01*
X209023857Y-77306714D01*
X208951286Y-77306714D01*
X208842429Y-77270429D01*
X208769857Y-77197857D01*
X208733572Y-77125286D01*
X208697286Y-76980143D01*
X208697286Y-76871286D01*
X208733572Y-76726143D01*
X208769857Y-76653571D01*
X208842429Y-76581000D01*
X208951286Y-76544714D01*
X209023857Y-76544714D01*
X209132714Y-76581000D01*
X209169000Y-76617286D01*
X209423000Y-76544714D02*
X209894714Y-76544714D01*
X209640714Y-76835000D01*
X209749572Y-76835000D01*
X209822143Y-76871286D01*
X209858429Y-76907571D01*
X209894714Y-76980143D01*
X209894714Y-77161571D01*
X209858429Y-77234143D01*
X209822143Y-77270429D01*
X209749572Y-77306714D01*
X209531857Y-77306714D01*
X209459286Y-77270429D01*
X209423000Y-77234143D01*
X209169000Y-68217143D02*
X209132714Y-68253429D01*
X209023857Y-68289714D01*
X208951286Y-68289714D01*
X208842429Y-68253429D01*
X208769857Y-68180857D01*
X208733572Y-68108286D01*
X208697286Y-67963143D01*
X208697286Y-67854286D01*
X208733572Y-67709143D01*
X208769857Y-67636571D01*
X208842429Y-67564000D01*
X208951286Y-67527714D01*
X209023857Y-67527714D01*
X209132714Y-67564000D01*
X209169000Y-67600286D01*
X209822143Y-67781714D02*
X209822143Y-68289714D01*
X209640714Y-67491429D02*
X209459286Y-68035714D01*
X209931000Y-68035714D01*
X206756000Y-77234143D02*
X206719714Y-77270429D01*
X206610857Y-77306714D01*
X206538286Y-77306714D01*
X206429429Y-77270429D01*
X206356857Y-77197857D01*
X206320572Y-77125286D01*
X206284286Y-76980143D01*
X206284286Y-76871286D01*
X206320572Y-76726143D01*
X206356857Y-76653571D01*
X206429429Y-76581000D01*
X206538286Y-76544714D01*
X206610857Y-76544714D01*
X206719714Y-76581000D01*
X206756000Y-76617286D01*
X207445429Y-76544714D02*
X207082572Y-76544714D01*
X207046286Y-76907571D01*
X207082572Y-76871286D01*
X207155143Y-76835000D01*
X207336572Y-76835000D01*
X207409143Y-76871286D01*
X207445429Y-76907571D01*
X207481714Y-76980143D01*
X207481714Y-77161571D01*
X207445429Y-77234143D01*
X207409143Y-77270429D01*
X207336572Y-77306714D01*
X207155143Y-77306714D01*
X207082572Y-77270429D01*
X207046286Y-77234143D01*
X188159572Y-113120714D02*
X188159572Y-112358714D01*
X188341000Y-112358714D01*
X188449857Y-112395000D01*
X188522429Y-112467571D01*
X188558714Y-112540143D01*
X188595000Y-112685286D01*
X188595000Y-112794143D01*
X188558714Y-112939286D01*
X188522429Y-113011857D01*
X188449857Y-113084429D01*
X188341000Y-113120714D01*
X188159572Y-113120714D01*
X189320714Y-113120714D02*
X188885286Y-113120714D01*
X189103000Y-113120714D02*
X189103000Y-112358714D01*
X189030429Y-112467571D01*
X188957857Y-112540143D01*
X188885286Y-112576429D01*
X227148572Y-116168714D02*
X227148572Y-115406714D01*
X227330000Y-115406714D01*
X227438857Y-115443000D01*
X227511429Y-115515571D01*
X227547714Y-115588143D01*
X227584000Y-115733286D01*
X227584000Y-115842143D01*
X227547714Y-115987286D01*
X227511429Y-116059857D01*
X227438857Y-116132429D01*
X227330000Y-116168714D01*
X227148572Y-116168714D01*
X227874286Y-115479286D02*
X227910572Y-115443000D01*
X227983143Y-115406714D01*
X228164572Y-115406714D01*
X228237143Y-115443000D01*
X228273429Y-115479286D01*
X228309714Y-115551857D01*
X228309714Y-115624429D01*
X228273429Y-115733286D01*
X227838000Y-116168714D01*
X228309714Y-116168714D01*
D11*
X223444000Y-118271857D02*
X223444000Y-117071857D01*
X223901143Y-117071857D01*
X224015429Y-117129000D01*
X224072572Y-117186143D01*
X224129715Y-117300429D01*
X224129715Y-117471857D01*
X224072572Y-117586143D01*
X224015429Y-117643286D01*
X223901143Y-117700429D01*
X223444000Y-117700429D01*
X224529715Y-117071857D02*
X224815429Y-118271857D01*
X225044000Y-117414714D01*
X225272572Y-118271857D01*
X225558286Y-117071857D01*
X226701144Y-118271857D02*
X226301144Y-117700429D01*
X226015429Y-118271857D02*
X226015429Y-117071857D01*
X226472572Y-117071857D01*
X226586858Y-117129000D01*
X226644001Y-117186143D01*
X226701144Y-117300429D01*
X226701144Y-117471857D01*
X226644001Y-117586143D01*
X226586858Y-117643286D01*
X226472572Y-117700429D01*
X226015429Y-117700429D01*
D13*
X194437001Y-120214571D02*
X194183001Y-120214571D01*
X194183001Y-120613714D02*
X194183001Y-119851714D01*
X194545858Y-119851714D01*
X195235286Y-120613714D02*
X194799858Y-120613714D01*
X195017572Y-120613714D02*
X195017572Y-119851714D01*
X194945001Y-119960571D01*
X194872429Y-120033143D01*
X194799858Y-120069429D01*
X205758144Y-97499714D02*
X205758144Y-96737714D01*
X206556429Y-97427143D02*
X206520143Y-97463429D01*
X206411286Y-97499714D01*
X206338715Y-97499714D01*
X206229858Y-97463429D01*
X206157286Y-97390857D01*
X206121001Y-97318286D01*
X206084715Y-97173143D01*
X206084715Y-97064286D01*
X206121001Y-96919143D01*
X206157286Y-96846571D01*
X206229858Y-96774000D01*
X206338715Y-96737714D01*
X206411286Y-96737714D01*
X206520143Y-96774000D01*
X206556429Y-96810286D01*
X207282143Y-97499714D02*
X206846715Y-97499714D01*
X207064429Y-97499714D02*
X207064429Y-96737714D01*
X206991858Y-96846571D01*
X206919286Y-96919143D01*
X206846715Y-96955429D01*
D11*
X203624571Y-55173285D02*
X202124571Y-55173285D01*
X203481714Y-53601856D02*
X203553143Y-53673285D01*
X203624571Y-53887571D01*
X203624571Y-54030428D01*
X203553143Y-54244713D01*
X203410286Y-54387571D01*
X203267429Y-54458999D01*
X202981714Y-54530428D01*
X202767429Y-54530428D01*
X202481714Y-54458999D01*
X202338857Y-54387571D01*
X202196000Y-54244713D01*
X202124571Y-54030428D01*
X202124571Y-53887571D01*
X202196000Y-53673285D01*
X202267429Y-53601856D01*
X203553143Y-53030428D02*
X203624571Y-52816142D01*
X203624571Y-52458999D01*
X203553143Y-52316142D01*
X203481714Y-52244713D01*
X203338857Y-52173285D01*
X203196000Y-52173285D01*
X203053143Y-52244713D01*
X202981714Y-52316142D01*
X202910286Y-52458999D01*
X202838857Y-52744713D01*
X202767429Y-52887571D01*
X202696000Y-52958999D01*
X202553143Y-53030428D01*
X202410286Y-53030428D01*
X202267429Y-52958999D01*
X202196000Y-52887571D01*
X202124571Y-52744713D01*
X202124571Y-52387571D01*
X202196000Y-52173285D01*
X203624571Y-51530428D02*
X202124571Y-51530428D01*
X202124571Y-50959000D01*
X202196000Y-50816142D01*
X202267429Y-50744714D01*
X202410286Y-50673285D01*
X202624571Y-50673285D01*
X202767429Y-50744714D01*
X202838857Y-50816142D01*
X202910286Y-50959000D01*
X202910286Y-51530428D01*
D13*
X220472000Y-108802714D02*
X220218000Y-108439857D01*
X220036572Y-108802714D02*
X220036572Y-108040714D01*
X220326857Y-108040714D01*
X220399429Y-108077000D01*
X220435714Y-108113286D01*
X220472000Y-108185857D01*
X220472000Y-108294714D01*
X220435714Y-108367286D01*
X220399429Y-108403571D01*
X220326857Y-108439857D01*
X220036572Y-108439857D01*
X221197714Y-108802714D02*
X220762286Y-108802714D01*
X220980000Y-108802714D02*
X220980000Y-108040714D01*
X220907429Y-108149571D01*
X220834857Y-108222143D01*
X220762286Y-108258429D01*
X218821000Y-117819714D02*
X218567000Y-117456857D01*
X218385572Y-117819714D02*
X218385572Y-117057714D01*
X218675857Y-117057714D01*
X218748429Y-117094000D01*
X218784714Y-117130286D01*
X218821000Y-117202857D01*
X218821000Y-117311714D01*
X218784714Y-117384286D01*
X218748429Y-117420571D01*
X218675857Y-117456857D01*
X218385572Y-117456857D01*
X219111286Y-117130286D02*
X219147572Y-117094000D01*
X219220143Y-117057714D01*
X219401572Y-117057714D01*
X219474143Y-117094000D01*
X219510429Y-117130286D01*
X219546714Y-117202857D01*
X219546714Y-117275429D01*
X219510429Y-117384286D01*
X219075000Y-117819714D01*
X219546714Y-117819714D01*
X216281000Y-117819714D02*
X216027000Y-117456857D01*
X215845572Y-117819714D02*
X215845572Y-117057714D01*
X216135857Y-117057714D01*
X216208429Y-117094000D01*
X216244714Y-117130286D01*
X216281000Y-117202857D01*
X216281000Y-117311714D01*
X216244714Y-117384286D01*
X216208429Y-117420571D01*
X216135857Y-117456857D01*
X215845572Y-117456857D01*
X216535000Y-117057714D02*
X217006714Y-117057714D01*
X216752714Y-117348000D01*
X216861572Y-117348000D01*
X216934143Y-117384286D01*
X216970429Y-117420571D01*
X217006714Y-117493143D01*
X217006714Y-117674571D01*
X216970429Y-117747143D01*
X216934143Y-117783429D01*
X216861572Y-117819714D01*
X216643857Y-117819714D01*
X216571286Y-117783429D01*
X216535000Y-117747143D01*
X221361000Y-117819714D02*
X221107000Y-117456857D01*
X220925572Y-117819714D02*
X220925572Y-117057714D01*
X221215857Y-117057714D01*
X221288429Y-117094000D01*
X221324714Y-117130286D01*
X221361000Y-117202857D01*
X221361000Y-117311714D01*
X221324714Y-117384286D01*
X221288429Y-117420571D01*
X221215857Y-117456857D01*
X220925572Y-117456857D01*
X222014143Y-117311714D02*
X222014143Y-117819714D01*
X221832714Y-117021429D02*
X221651286Y-117565714D01*
X222123000Y-117565714D01*
X215863714Y-103505000D02*
X215500857Y-103759000D01*
X215863714Y-103940428D02*
X215101714Y-103940428D01*
X215101714Y-103650143D01*
X215138000Y-103577571D01*
X215174286Y-103541286D01*
X215246857Y-103505000D01*
X215355714Y-103505000D01*
X215428286Y-103541286D01*
X215464571Y-103577571D01*
X215500857Y-103650143D01*
X215500857Y-103940428D01*
X215101714Y-102815571D02*
X215101714Y-103178428D01*
X215464571Y-103214714D01*
X215428286Y-103178428D01*
X215392000Y-103105857D01*
X215392000Y-102924428D01*
X215428286Y-102851857D01*
X215464571Y-102815571D01*
X215537143Y-102779286D01*
X215718571Y-102779286D01*
X215791143Y-102815571D01*
X215827429Y-102851857D01*
X215863714Y-102924428D01*
X215863714Y-103105857D01*
X215827429Y-103178428D01*
X215791143Y-103214714D01*
D11*
X231174857Y-110962856D02*
X230603429Y-111362856D01*
X231174857Y-111648571D02*
X229974857Y-111648571D01*
X229974857Y-111191428D01*
X230032000Y-111077142D01*
X230089143Y-111019999D01*
X230203429Y-110962856D01*
X230374857Y-110962856D01*
X230489143Y-111019999D01*
X230546286Y-111077142D01*
X230603429Y-111191428D01*
X230603429Y-111648571D01*
X230546286Y-110448571D02*
X230546286Y-110048571D01*
X231174857Y-109877142D02*
X231174857Y-110448571D01*
X229974857Y-110448571D01*
X229974857Y-109877142D01*
X231117714Y-109420000D02*
X231174857Y-109248571D01*
X231174857Y-108962857D01*
X231117714Y-108848571D01*
X231060571Y-108791428D01*
X230946286Y-108734285D01*
X230832000Y-108734285D01*
X230717714Y-108791428D01*
X230660571Y-108848571D01*
X230603429Y-108962857D01*
X230546286Y-109191428D01*
X230489143Y-109305714D01*
X230432000Y-109362857D01*
X230317714Y-109420000D01*
X230203429Y-109420000D01*
X230089143Y-109362857D01*
X230032000Y-109305714D01*
X229974857Y-109191428D01*
X229974857Y-108905714D01*
X230032000Y-108734285D01*
X230546286Y-108220000D02*
X230546286Y-107820000D01*
X231174857Y-107648571D02*
X231174857Y-108220000D01*
X229974857Y-108220000D01*
X229974857Y-107648571D01*
X229974857Y-107305714D02*
X229974857Y-106620000D01*
X231174857Y-106962857D02*
X229974857Y-106962857D01*
D13*
X207572429Y-125820714D02*
X207572429Y-126437571D01*
X207608714Y-126510143D01*
X207645000Y-126546429D01*
X207717571Y-126582714D01*
X207862714Y-126582714D01*
X207935286Y-126546429D01*
X207971571Y-126510143D01*
X208007857Y-126437571D01*
X208007857Y-125820714D01*
X208769857Y-126582714D02*
X208334429Y-126582714D01*
X208552143Y-126582714D02*
X208552143Y-125820714D01*
X208479572Y-125929571D01*
X208407000Y-126002143D01*
X208334429Y-126038429D01*
D11*
X205108114Y-111242115D02*
X205165257Y-111070686D01*
X205165257Y-110784972D01*
X205108114Y-110670686D01*
X205050971Y-110613543D01*
X204936686Y-110556400D01*
X204822400Y-110556400D01*
X204708114Y-110613543D01*
X204650971Y-110670686D01*
X204593829Y-110784972D01*
X204536686Y-111013543D01*
X204479543Y-111127829D01*
X204422400Y-111184972D01*
X204308114Y-111242115D01*
X204193829Y-111242115D01*
X204079543Y-111184972D01*
X204022400Y-111127829D01*
X203965257Y-111013543D01*
X203965257Y-110727829D01*
X204022400Y-110556400D01*
X205165257Y-110042115D02*
X203965257Y-110042115D01*
X204536686Y-110042115D02*
X204536686Y-109356400D01*
X205165257Y-109356400D02*
X203965257Y-109356400D01*
X205165257Y-108784972D02*
X203965257Y-108784972D01*
X204536686Y-108213543D02*
X204536686Y-107813543D01*
X205165257Y-107642114D02*
X205165257Y-108213543D01*
X203965257Y-108213543D01*
X203965257Y-107642114D01*
X205165257Y-106556400D02*
X205165257Y-107127829D01*
X203965257Y-107127829D01*
X205165257Y-106156400D02*
X203965257Y-106156400D01*
X203965257Y-105870685D01*
X204022400Y-105699257D01*
X204136686Y-105584971D01*
X204250971Y-105527828D01*
X204479543Y-105470685D01*
X204650971Y-105470685D01*
X204879543Y-105527828D01*
X204993829Y-105584971D01*
X205108114Y-105699257D01*
X205165257Y-105870685D01*
X205165257Y-106156400D01*
D18*
X187306857Y-104154514D02*
X187355238Y-104202895D01*
X187403619Y-104348038D01*
X187403619Y-104444800D01*
X187355238Y-104589942D01*
X187258476Y-104686704D01*
X187161714Y-104735085D01*
X186968190Y-104783466D01*
X186823048Y-104783466D01*
X186629524Y-104735085D01*
X186532762Y-104686704D01*
X186436000Y-104589942D01*
X186387619Y-104444800D01*
X186387619Y-104348038D01*
X186436000Y-104202895D01*
X186484381Y-104154514D01*
X186387619Y-103525561D02*
X186387619Y-103332038D01*
X186436000Y-103235276D01*
X186532762Y-103138514D01*
X186726286Y-103090133D01*
X187064952Y-103090133D01*
X187258476Y-103138514D01*
X187355238Y-103235276D01*
X187403619Y-103332038D01*
X187403619Y-103525561D01*
X187355238Y-103622323D01*
X187258476Y-103719085D01*
X187064952Y-103767466D01*
X186726286Y-103767466D01*
X186532762Y-103719085D01*
X186436000Y-103622323D01*
X186387619Y-103525561D01*
X187403619Y-102654704D02*
X186387619Y-102654704D01*
X187403619Y-102074133D01*
X186387619Y-102074133D01*
X187403619Y-101058133D02*
X187403619Y-101638704D01*
X187403619Y-101348418D02*
X186387619Y-101348418D01*
X186532762Y-101445180D01*
X186629524Y-101541942D01*
X186677905Y-101638704D01*
D14*
X221436000Y-102544381D02*
X221693143Y-102544381D01*
X221821715Y-102592000D01*
X221950286Y-102687238D01*
X222014572Y-102877714D01*
X222014572Y-103211048D01*
X221950286Y-103401524D01*
X221821715Y-103496762D01*
X221693143Y-103544381D01*
X221436000Y-103544381D01*
X221307429Y-103496762D01*
X221178858Y-103401524D01*
X221114572Y-103211048D01*
X221114572Y-102877714D01*
X221178858Y-102687238D01*
X221307429Y-102592000D01*
X221436000Y-102544381D01*
X222528858Y-103258667D02*
X223171715Y-103258667D01*
X222400286Y-103544381D02*
X222850286Y-102544381D01*
X223300286Y-103544381D01*
X223750287Y-103544381D02*
X223750287Y-102544381D01*
X224071715Y-102544381D01*
X224264572Y-102592000D01*
X224393144Y-102687238D01*
X224457429Y-102782476D01*
X224521715Y-102972952D01*
X224521715Y-103115810D01*
X224457429Y-103306286D01*
X224393144Y-103401524D01*
X224264572Y-103496762D01*
X224071715Y-103544381D01*
X223750287Y-103544381D01*
X225036001Y-103496762D02*
X225228858Y-103544381D01*
X225550287Y-103544381D01*
X225678858Y-103496762D01*
X225743144Y-103449143D01*
X225807429Y-103353905D01*
X225807429Y-103258667D01*
X225743144Y-103163429D01*
X225678858Y-103115810D01*
X225550287Y-103068190D01*
X225293144Y-103020571D01*
X225164572Y-102972952D01*
X225100287Y-102925333D01*
X225036001Y-102830095D01*
X225036001Y-102734857D01*
X225100287Y-102639619D01*
X225164572Y-102592000D01*
X225293144Y-102544381D01*
X225614572Y-102544381D01*
X225807429Y-102592000D01*
X226193143Y-102544381D02*
X226964572Y-102544381D01*
X226578858Y-103544381D02*
X226578858Y-102544381D01*
X227671714Y-102544381D02*
X227928857Y-102544381D01*
X228057429Y-102592000D01*
X228186000Y-102687238D01*
X228250286Y-102877714D01*
X228250286Y-103211048D01*
X228186000Y-103401524D01*
X228057429Y-103496762D01*
X227928857Y-103544381D01*
X227671714Y-103544381D01*
X227543143Y-103496762D01*
X227414572Y-103401524D01*
X227350286Y-103211048D01*
X227350286Y-102877714D01*
X227414572Y-102687238D01*
X227543143Y-102592000D01*
X227671714Y-102544381D01*
X229086000Y-102544381D02*
X229343143Y-102544381D01*
X229471715Y-102592000D01*
X229600286Y-102687238D01*
X229664572Y-102877714D01*
X229664572Y-103211048D01*
X229600286Y-103401524D01*
X229471715Y-103496762D01*
X229343143Y-103544381D01*
X229086000Y-103544381D01*
X228957429Y-103496762D01*
X228828858Y-103401524D01*
X228764572Y-103211048D01*
X228764572Y-102877714D01*
X228828858Y-102687238D01*
X228957429Y-102592000D01*
X229086000Y-102544381D01*
X230886001Y-103544381D02*
X230243144Y-103544381D01*
X230243144Y-102544381D01*
M02*
