%FSLAX46Y46*%
G04 Gerber Fmt 4.6, Leading zero omitted, Abs format (unit mm)*
G04 Created by KiCad (PCBNEW (2014-10-27 BZR 5228)-product) date 31/03/2015 08:28:07*
%MOMM*%
G01*
G04 APERTURE LIST*
%ADD10C,0.100000*%
%ADD11O,2.286000X1.574800*%
%ADD12R,2.286000X1.574800*%
%ADD13O,2.032000X1.727200*%
%ADD14R,1.397000X0.889000*%
%ADD15R,1.700000X3.150000*%
%ADD16R,2.032000X1.727200*%
%ADD17R,2.032000X2.032000*%
%ADD18O,2.032000X2.032000*%
%ADD19C,4.500000*%
%ADD20C,1.800000*%
%ADD21R,1.600200X2.600960*%
%ADD22R,1.198880X1.198880*%
%ADD23R,1.727200X1.727200*%
%ADD24O,1.727200X1.727200*%
%ADD25R,0.700000X1.300000*%
%ADD26R,2.032000X3.657600*%
%ADD27R,2.032000X1.016000*%
%ADD28R,1.397000X1.397000*%
%ADD29C,1.397000*%
%ADD30C,0.889000*%
%ADD31C,0.254000*%
G04 APERTURE END LIST*
D10*
D11*
X212090000Y-91440000D03*
X212090000Y-88900000D03*
X212090000Y-86360000D03*
X212090000Y-83820000D03*
X212090000Y-81280000D03*
X212090000Y-78740000D03*
X212090000Y-76200000D03*
X212090000Y-73660000D03*
X212090000Y-71120000D03*
X212090000Y-68580000D03*
X212090000Y-66040000D03*
X212090000Y-63500000D03*
X212090000Y-60960000D03*
D12*
X212090000Y-93980000D03*
D11*
X204470000Y-60960000D03*
X204470000Y-63500000D03*
X204470000Y-66040000D03*
X204470000Y-68580000D03*
X204470000Y-71120000D03*
X204470000Y-73660000D03*
X204470000Y-76200000D03*
X204470000Y-78740000D03*
X204470000Y-81280000D03*
X204470000Y-83820000D03*
X204470000Y-86360000D03*
X204470000Y-88900000D03*
X204470000Y-91440000D03*
X204470000Y-93980000D03*
D13*
X223520000Y-119253000D03*
X223520000Y-116713000D03*
X223520000Y-114173000D03*
D14*
X209296000Y-75628500D03*
X209296000Y-73723500D03*
X209296000Y-69151500D03*
X209296000Y-71056500D03*
X207010000Y-73723500D03*
X207010000Y-75628500D03*
D15*
X195910000Y-116840000D03*
X192810000Y-116840000D03*
D16*
X214630000Y-91440000D03*
D13*
X214630000Y-88900000D03*
X214630000Y-86360000D03*
X214630000Y-83820000D03*
X214630000Y-81280000D03*
X214630000Y-78740000D03*
X214630000Y-76200000D03*
D16*
X201930000Y-76200000D03*
D13*
X201930000Y-78740000D03*
X201930000Y-81280000D03*
X201930000Y-83820000D03*
X201930000Y-86360000D03*
X201930000Y-88900000D03*
X201930000Y-91440000D03*
X201930000Y-93980000D03*
D17*
X214630000Y-73660000D03*
D18*
X214630000Y-71120000D03*
D16*
X201930000Y-60960000D03*
D13*
X201930000Y-63500000D03*
X201930000Y-66040000D03*
X201930000Y-68580000D03*
X201930000Y-71120000D03*
D16*
X214630000Y-68580000D03*
D13*
X214630000Y-66040000D03*
X214630000Y-63500000D03*
X214630000Y-60960000D03*
D19*
X197970140Y-103378000D03*
X191970660Y-103378000D03*
X194970400Y-108077000D03*
D20*
X230199000Y-106335000D03*
X230199000Y-110835000D03*
X223699000Y-106335000D03*
X223699000Y-110835000D03*
D21*
X216281000Y-120119140D03*
X216281000Y-123720860D03*
D22*
X221107000Y-106646980D03*
X221107000Y-108745020D03*
D23*
X205740000Y-54610000D03*
D24*
X205740000Y-52070000D03*
X208280000Y-54610000D03*
X208280000Y-52070000D03*
X210820000Y-54610000D03*
X210820000Y-52070000D03*
D25*
X219136000Y-106807000D03*
X217236000Y-106807000D03*
X219898000Y-113919000D03*
X217998000Y-113919000D03*
X217998000Y-116840000D03*
X219898000Y-116840000D03*
X217998000Y-111125000D03*
X219898000Y-111125000D03*
X212092500Y-97155000D03*
X213992500Y-97155000D03*
D21*
X200152000Y-120373140D03*
X200152000Y-123974860D03*
D26*
X204978000Y-122174000D03*
D27*
X211582000Y-122174000D03*
X211582000Y-119888000D03*
X211582000Y-124460000D03*
D13*
X202565000Y-103632000D03*
X202565000Y-106172000D03*
X202565000Y-108712000D03*
X202565000Y-111252000D03*
X202565000Y-113792000D03*
X202565000Y-116332000D03*
X213995000Y-103632000D03*
X213995000Y-106172000D03*
X213995000Y-108712000D03*
X213995000Y-111252000D03*
X213995000Y-113792000D03*
X213995000Y-116332000D03*
D28*
X190246000Y-112268000D03*
D29*
X197866000Y-112268000D03*
D30*
X209423000Y-66040000D03*
X218694000Y-108966000D03*
X218948000Y-119634000D03*
X218948000Y-122301000D03*
X208153000Y-60579000D03*
X205549500Y-57912000D03*
X214630000Y-55753000D03*
X205105000Y-99187000D03*
X206502000Y-96647000D03*
X213868000Y-124968000D03*
D31*
X195910000Y-116840000D02*
X195910000Y-117932000D01*
X195910000Y-117932000D02*
X198351140Y-120373140D01*
X198351140Y-120373140D02*
X200152000Y-120373140D01*
X201063860Y-120373140D02*
X202311000Y-119126000D01*
X202311000Y-119126000D02*
X208470500Y-119126000D01*
X208470500Y-119126000D02*
X209232500Y-119888000D01*
X209232500Y-119888000D02*
X211582000Y-119888000D01*
X200152000Y-120373140D02*
X201063860Y-120373140D01*
X216814400Y-123517660D02*
X217243660Y-123517660D01*
X205105000Y-78740000D02*
X207010000Y-76835000D01*
X204470000Y-78740000D02*
X205105000Y-78740000D01*
X209867500Y-76200000D02*
X212090000Y-76200000D01*
X207010000Y-76835000D02*
X207010000Y-75628500D01*
X209296000Y-69151500D02*
X209423000Y-69024500D01*
X209423000Y-69024500D02*
X209423000Y-66040000D01*
X209296000Y-75628500D02*
X209867500Y-76200000D01*
X217998000Y-109662000D02*
X218694000Y-108966000D01*
X217998000Y-111125000D02*
X217998000Y-109662000D01*
X216281000Y-125349000D02*
X216281000Y-123720860D01*
X215011000Y-126619000D02*
X216281000Y-125349000D01*
X202311000Y-126619000D02*
X215011000Y-126619000D01*
X200152000Y-124460000D02*
X202311000Y-126619000D01*
X200152000Y-123974860D02*
X200152000Y-124460000D01*
X223172020Y-108745020D02*
X223699000Y-109272000D01*
X223699000Y-109272000D02*
X223699000Y-110835000D01*
X221107000Y-108745020D02*
X223172020Y-108745020D01*
X217998000Y-118684000D02*
X218948000Y-119634000D01*
X218948000Y-122301000D02*
X217528140Y-123720860D01*
X217528140Y-123720860D02*
X216281000Y-123720860D01*
X217998000Y-116840000D02*
X217998000Y-118684000D01*
X216814400Y-119915940D02*
X216435940Y-119915940D01*
X212090000Y-78740000D02*
X210058000Y-78740000D01*
X204470000Y-73660000D02*
X206946500Y-73660000D01*
X205740000Y-52070000D02*
X204089000Y-53721000D01*
X207010000Y-69596000D02*
X207010000Y-73723500D01*
X208153000Y-68453000D02*
X207010000Y-69596000D01*
X208153000Y-60579000D02*
X208153000Y-68453000D01*
X204089000Y-56451500D02*
X205549500Y-57912000D01*
X204089000Y-53721000D02*
X204089000Y-56451500D01*
X207010000Y-73723500D02*
X208153000Y-74866500D01*
X208153000Y-74866500D02*
X208153000Y-76835000D01*
X208153000Y-76835000D02*
X210058000Y-78740000D01*
X206946500Y-73660000D02*
X207010000Y-73723500D01*
X212090000Y-78740000D02*
X214630000Y-78740000D01*
X212979000Y-122174000D02*
X215033860Y-120119140D01*
X215033860Y-120119140D02*
X216281000Y-120119140D01*
X211582000Y-122174000D02*
X212979000Y-122174000D01*
X216281000Y-114554000D02*
X216916000Y-113919000D01*
X216916000Y-113919000D02*
X217998000Y-113919000D01*
X216281000Y-120119140D02*
X216281000Y-114554000D01*
X216281000Y-112395000D02*
X215138000Y-111252000D01*
X215138000Y-111252000D02*
X213360000Y-111252000D01*
X216281000Y-114554000D02*
X216281000Y-112395000D01*
X212026500Y-73723500D02*
X212090000Y-73660000D01*
X212090000Y-73660000D02*
X214630000Y-73660000D01*
X209296000Y-73723500D02*
X212026500Y-73723500D01*
X212026500Y-71056500D02*
X212090000Y-71120000D01*
X212090000Y-71120000D02*
X214630000Y-71120000D01*
X209296000Y-71056500D02*
X212026500Y-71056500D01*
X197970140Y-103378000D02*
X197970140Y-112163860D01*
X197970140Y-112163860D02*
X197866000Y-112268000D01*
X190246000Y-112268000D02*
X190246000Y-116205000D01*
X190881000Y-116840000D02*
X192810000Y-116840000D01*
X190246000Y-116205000D02*
X190881000Y-116840000D01*
X220946980Y-106807000D02*
X221107000Y-106646980D01*
X219136000Y-106807000D02*
X220946980Y-106807000D01*
X213360000Y-116332000D02*
X211836000Y-116332000D01*
X210820000Y-91440000D02*
X212090000Y-91440000D01*
X209931000Y-92329000D02*
X210820000Y-91440000D01*
X209931000Y-114427000D02*
X209931000Y-92329000D01*
X211836000Y-116332000D02*
X209931000Y-114427000D01*
X212090000Y-91440000D02*
X214630000Y-91440000D01*
X203200000Y-116332000D02*
X206375000Y-116332000D01*
X209931000Y-88900000D02*
X212090000Y-88900000D01*
X208661000Y-90170000D02*
X209931000Y-88900000D01*
X208661000Y-114046000D02*
X208661000Y-90170000D01*
X206375000Y-116332000D02*
X208661000Y-114046000D01*
X211074000Y-88900000D02*
X212090000Y-88900000D01*
X212090000Y-88900000D02*
X214630000Y-88900000D01*
X212090000Y-86360000D02*
X214630000Y-86360000D01*
X212090000Y-83820000D02*
X214630000Y-83820000D01*
X203200000Y-108712000D02*
X203327000Y-108712000D01*
X203327000Y-108712000D02*
X207391000Y-104648000D01*
X207391000Y-104648000D02*
X207391000Y-82042000D01*
X207391000Y-82042000D02*
X208153000Y-81280000D01*
X208153000Y-81280000D02*
X212090000Y-81280000D01*
X212090000Y-81280000D02*
X214630000Y-81280000D01*
X212090000Y-68580000D02*
X214630000Y-68580000D01*
X212090000Y-66040000D02*
X214630000Y-66040000D01*
X212090000Y-63500000D02*
X214630000Y-63500000D01*
X212090000Y-60960000D02*
X214630000Y-60960000D01*
X212092500Y-99443500D02*
X212092500Y-97155000D01*
X212092500Y-93982500D02*
X212090000Y-93980000D01*
X212092500Y-97155000D02*
X212092500Y-93982500D01*
X223699000Y-106335000D02*
X230199000Y-106335000D01*
X223048000Y-106335000D02*
X219837000Y-103124000D01*
X223699000Y-106335000D02*
X223048000Y-106335000D01*
X214630000Y-55753000D02*
X213487000Y-54610000D01*
X213487000Y-54610000D02*
X210820000Y-54610000D01*
X215646000Y-103505000D02*
X215646000Y-101219000D01*
X215646000Y-101219000D02*
X214757000Y-100330000D01*
X214757000Y-100330000D02*
X212979000Y-100330000D01*
X212979000Y-100330000D02*
X212092500Y-99443500D01*
X215646000Y-108331000D02*
X215646000Y-103505000D01*
X217551000Y-103124000D02*
X215646000Y-101219000D01*
X215265000Y-108712000D02*
X215646000Y-108331000D01*
X213360000Y-108712000D02*
X215265000Y-108712000D01*
X219837000Y-103124000D02*
X217551000Y-103124000D01*
X201930000Y-60960000D02*
X204470000Y-60960000D01*
X201930000Y-63500000D02*
X204470000Y-63500000D01*
X201930000Y-66040000D02*
X200025000Y-64135000D01*
X206375000Y-50165000D02*
X208280000Y-52070000D01*
X203835000Y-50165000D02*
X206375000Y-50165000D01*
X200025000Y-53975000D02*
X203835000Y-50165000D01*
X200025000Y-64135000D02*
X200025000Y-53975000D01*
X201930000Y-66040000D02*
X204470000Y-66040000D01*
X203200000Y-103632000D02*
X203200000Y-101092000D01*
X203200000Y-101092000D02*
X205105000Y-99187000D01*
X206502000Y-66548000D02*
X204470000Y-68580000D01*
X201930000Y-68580000D02*
X204470000Y-68580000D01*
X206502000Y-55372000D02*
X206502000Y-66548000D01*
X205740000Y-54610000D02*
X206502000Y-55372000D01*
X203200000Y-106172000D02*
X204724000Y-106172000D01*
X206502000Y-104394000D02*
X206502000Y-96647000D01*
X204724000Y-106172000D02*
X206502000Y-104394000D01*
X207264000Y-68326000D02*
X207264000Y-55626000D01*
X204470000Y-71120000D02*
X207264000Y-68326000D01*
X201930000Y-71120000D02*
X204470000Y-71120000D01*
X207264000Y-55626000D02*
X208280000Y-54610000D01*
X201930000Y-76200000D02*
X204470000Y-76200000D01*
X201930000Y-81280000D02*
X204470000Y-81280000D01*
X201930000Y-83820000D02*
X204470000Y-83820000D01*
X201930000Y-86360000D02*
X204470000Y-86360000D01*
X201930000Y-88900000D02*
X204470000Y-88900000D01*
X203200000Y-113792000D02*
X201930000Y-113792000D01*
X206121000Y-91440000D02*
X204470000Y-91440000D01*
X206502000Y-91821000D02*
X206121000Y-91440000D01*
X206502000Y-94869000D02*
X206502000Y-91821000D01*
X205359000Y-96012000D02*
X206502000Y-94869000D01*
X205359000Y-97155000D02*
X205359000Y-96012000D01*
X200660000Y-101219000D02*
X205359000Y-97155000D01*
X200660000Y-113157000D02*
X200660000Y-101219000D01*
X201930000Y-113792000D02*
X200660000Y-113157000D01*
X201930000Y-91440000D02*
X204470000Y-91440000D01*
X201930000Y-93980000D02*
X204470000Y-93980000D01*
X219898000Y-118171000D02*
X220980000Y-119253000D01*
X220980000Y-119253000D02*
X223520000Y-119253000D01*
X219898000Y-116840000D02*
X219898000Y-118171000D01*
X220345000Y-113919000D02*
X221361000Y-114935000D01*
X221361000Y-114935000D02*
X221361000Y-116078000D01*
X221361000Y-116078000D02*
X221996000Y-116713000D01*
X221996000Y-116713000D02*
X223520000Y-116713000D01*
X219898000Y-113919000D02*
X220345000Y-113919000D01*
X213360000Y-124460000D02*
X213868000Y-124968000D01*
X211582000Y-124460000D02*
X213360000Y-124460000D01*
X220472000Y-111125000D02*
X221234000Y-111887000D01*
X221234000Y-111887000D02*
X221234000Y-113411000D01*
X221234000Y-113411000D02*
X221996000Y-114173000D01*
X221996000Y-114173000D02*
X223520000Y-114173000D01*
X219898000Y-111125000D02*
X220472000Y-111125000D01*
G36*
X205887000Y-52197000D02*
X205867000Y-52197000D01*
X205867000Y-52217000D01*
X205613000Y-52217000D01*
X205613000Y-52197000D01*
X204405536Y-52197000D01*
X204285037Y-52429027D01*
X204383036Y-52705978D01*
X204533183Y-52958488D01*
X204692521Y-53135535D01*
X204691177Y-53135803D01*
X204575615Y-53183670D01*
X204471611Y-53253163D01*
X204383163Y-53341611D01*
X204313670Y-53445615D01*
X204265803Y-53561177D01*
X204241400Y-53683858D01*
X204241400Y-53808942D01*
X204241400Y-55536142D01*
X204265803Y-55658823D01*
X204313670Y-55774385D01*
X204383163Y-55878389D01*
X204471611Y-55966837D01*
X204575615Y-56036330D01*
X204691177Y-56084197D01*
X204813858Y-56108600D01*
X204938942Y-56108600D01*
X205740000Y-56108600D01*
X205740000Y-59872104D01*
X205637812Y-59786359D01*
X205394546Y-59652622D01*
X205129937Y-59568683D01*
X204854063Y-59537739D01*
X204834203Y-59537600D01*
X204105797Y-59537600D01*
X203829518Y-59564689D01*
X203563762Y-59644926D01*
X203448863Y-59706018D01*
X203439237Y-59691611D01*
X203350789Y-59603163D01*
X203246785Y-59533670D01*
X203131223Y-59485803D01*
X203008542Y-59461400D01*
X202883458Y-59461400D01*
X200851458Y-59461400D01*
X200787000Y-59474221D01*
X200787000Y-54290630D01*
X204150630Y-50927000D01*
X204778088Y-50927000D01*
X204729707Y-50963146D01*
X204533183Y-51181512D01*
X204383036Y-51434022D01*
X204285037Y-51710973D01*
X204405536Y-51943000D01*
X205613000Y-51943000D01*
X205613000Y-51923000D01*
X205867000Y-51923000D01*
X205867000Y-51943000D01*
X205887000Y-51943000D01*
X205887000Y-52197000D01*
X205887000Y-52197000D01*
G37*
X205887000Y-52197000D02*
X205867000Y-52197000D01*
X205867000Y-52217000D01*
X205613000Y-52217000D01*
X205613000Y-52197000D01*
X204405536Y-52197000D01*
X204285037Y-52429027D01*
X204383036Y-52705978D01*
X204533183Y-52958488D01*
X204692521Y-53135535D01*
X204691177Y-53135803D01*
X204575615Y-53183670D01*
X204471611Y-53253163D01*
X204383163Y-53341611D01*
X204313670Y-53445615D01*
X204265803Y-53561177D01*
X204241400Y-53683858D01*
X204241400Y-53808942D01*
X204241400Y-55536142D01*
X204265803Y-55658823D01*
X204313670Y-55774385D01*
X204383163Y-55878389D01*
X204471611Y-55966837D01*
X204575615Y-56036330D01*
X204691177Y-56084197D01*
X204813858Y-56108600D01*
X204938942Y-56108600D01*
X205740000Y-56108600D01*
X205740000Y-59872104D01*
X205637812Y-59786359D01*
X205394546Y-59652622D01*
X205129937Y-59568683D01*
X204854063Y-59537739D01*
X204834203Y-59537600D01*
X204105797Y-59537600D01*
X203829518Y-59564689D01*
X203563762Y-59644926D01*
X203448863Y-59706018D01*
X203439237Y-59691611D01*
X203350789Y-59603163D01*
X203246785Y-59533670D01*
X203131223Y-59485803D01*
X203008542Y-59461400D01*
X202883458Y-59461400D01*
X200851458Y-59461400D01*
X200787000Y-59474221D01*
X200787000Y-54290630D01*
X204150630Y-50927000D01*
X204778088Y-50927000D01*
X204729707Y-50963146D01*
X204533183Y-51181512D01*
X204383036Y-51434022D01*
X204285037Y-51710973D01*
X204405536Y-51943000D01*
X205613000Y-51943000D01*
X205613000Y-51923000D01*
X205867000Y-51923000D01*
X205867000Y-51943000D01*
X205887000Y-51943000D01*
X205887000Y-52197000D01*
G36*
X232360000Y-104106495D02*
X231898177Y-108816525D01*
X231524103Y-110055518D01*
X231394295Y-109860141D01*
X231182180Y-109646540D01*
X230932616Y-109478206D01*
X230655108Y-109361553D01*
X230360228Y-109301023D01*
X230059206Y-109298921D01*
X229763509Y-109355328D01*
X229484400Y-109468096D01*
X229232509Y-109632928D01*
X229017432Y-109843547D01*
X228847361Y-110091930D01*
X228728773Y-110368617D01*
X228666186Y-110663067D01*
X228661983Y-110964067D01*
X228716324Y-111260150D01*
X228827140Y-111540040D01*
X228990210Y-111793075D01*
X229199322Y-112009617D01*
X229446512Y-112181419D01*
X229722364Y-112301935D01*
X230016371Y-112366577D01*
X230317334Y-112372881D01*
X230613789Y-112320608D01*
X230870268Y-112221125D01*
X230540031Y-113314924D01*
X228334008Y-117463850D01*
X225364132Y-121105276D01*
X221743527Y-124100501D01*
X217610103Y-126335435D01*
X215817197Y-126890432D01*
X216819815Y-125887816D01*
X216864510Y-125833402D01*
X216909736Y-125779505D01*
X216911666Y-125775993D01*
X216914210Y-125772897D01*
X216947468Y-125710870D01*
X216977446Y-125656340D01*
X217143642Y-125656340D01*
X217266323Y-125631937D01*
X217381885Y-125584070D01*
X217485889Y-125514577D01*
X217574337Y-125426129D01*
X217643830Y-125322125D01*
X217691697Y-125206563D01*
X217716100Y-125083882D01*
X217716100Y-124958798D01*
X217716100Y-124456285D01*
X217743599Y-124447982D01*
X217811122Y-124428366D01*
X217814677Y-124426522D01*
X217818516Y-124425364D01*
X217880693Y-124392303D01*
X217943154Y-124359927D01*
X217946284Y-124357428D01*
X217949824Y-124355546D01*
X218004370Y-124311059D01*
X218059380Y-124267146D01*
X218064954Y-124261647D01*
X218065071Y-124261553D01*
X218065160Y-124261445D01*
X218066955Y-124259675D01*
X218945891Y-123380738D01*
X219031219Y-123382526D01*
X219239704Y-123345765D01*
X219437077Y-123269208D01*
X219615822Y-123155773D01*
X219769130Y-123009780D01*
X219891161Y-122836790D01*
X219977268Y-122643392D01*
X220024170Y-122436952D01*
X220027546Y-122195150D01*
X219986426Y-121987481D01*
X219905754Y-121791753D01*
X219788600Y-121615423D01*
X219639428Y-121465207D01*
X219463921Y-121346825D01*
X219268761Y-121264788D01*
X219061384Y-121222219D01*
X218849689Y-121220741D01*
X218641738Y-121260410D01*
X218445452Y-121339715D01*
X218268308Y-121455634D01*
X218117054Y-121603753D01*
X217997450Y-121778431D01*
X217914052Y-121973012D01*
X217870037Y-122180087D01*
X217868319Y-122303049D01*
X217716100Y-122455269D01*
X217716100Y-122357838D01*
X217691697Y-122235157D01*
X217643830Y-122119595D01*
X217574337Y-122015591D01*
X217485889Y-121927143D01*
X217475198Y-121920000D01*
X217485889Y-121912857D01*
X217574337Y-121824409D01*
X217643830Y-121720405D01*
X217691697Y-121604843D01*
X217716100Y-121482162D01*
X217716100Y-120404890D01*
X217557350Y-120246140D01*
X216408000Y-120246140D01*
X216408000Y-120266140D01*
X216154000Y-120266140D01*
X216154000Y-120246140D01*
X216154000Y-119992140D01*
X216154000Y-118342410D01*
X215995250Y-118183660D01*
X215543442Y-118183660D01*
X215418358Y-118183660D01*
X215295677Y-118208063D01*
X215180115Y-118255930D01*
X215076111Y-118325423D01*
X214987663Y-118413871D01*
X214918170Y-118517875D01*
X214870303Y-118633437D01*
X214845900Y-118756118D01*
X214845900Y-119833390D01*
X215004650Y-119992140D01*
X216154000Y-119992140D01*
X216154000Y-120246140D01*
X215004650Y-120246140D01*
X214845900Y-120404890D01*
X214845900Y-121482162D01*
X214870303Y-121604843D01*
X214918170Y-121720405D01*
X214987663Y-121824409D01*
X215076111Y-121912857D01*
X215086801Y-121920000D01*
X215076111Y-121927143D01*
X214987663Y-122015591D01*
X214918170Y-122119595D01*
X214870303Y-122235157D01*
X214845900Y-122357838D01*
X214845900Y-122482922D01*
X214845900Y-124507631D01*
X214825754Y-124458753D01*
X214708600Y-124282423D01*
X214559428Y-124132207D01*
X214383921Y-124013825D01*
X214188761Y-123931788D01*
X213981384Y-123889219D01*
X213858858Y-123888363D01*
X213844400Y-123876487D01*
X213790505Y-123831264D01*
X213786997Y-123829335D01*
X213783897Y-123826789D01*
X213721831Y-123793510D01*
X213660184Y-123759619D01*
X213656363Y-123758407D01*
X213652833Y-123756514D01*
X213585535Y-123735939D01*
X213518429Y-123714652D01*
X213514445Y-123714205D01*
X213510615Y-123713034D01*
X213440627Y-123705924D01*
X213370639Y-123698074D01*
X213362802Y-123698019D01*
X213362660Y-123698005D01*
X213362526Y-123698017D01*
X213360000Y-123698000D01*
X213180108Y-123698000D01*
X213160730Y-123651215D01*
X213091237Y-123547211D01*
X213002789Y-123458763D01*
X212898785Y-123389270D01*
X212783223Y-123341403D01*
X212660542Y-123317000D01*
X212783223Y-123292597D01*
X212898785Y-123244730D01*
X213002789Y-123175237D01*
X213091237Y-123086789D01*
X213160730Y-122982785D01*
X213208597Y-122867223D01*
X213233000Y-122744542D01*
X213233000Y-122459750D01*
X213074250Y-122301000D01*
X211709000Y-122301000D01*
X211709000Y-122321000D01*
X211455000Y-122321000D01*
X211455000Y-122301000D01*
X210089750Y-122301000D01*
X209931000Y-122459750D01*
X209931000Y-122744542D01*
X209955403Y-122867223D01*
X210003270Y-122982785D01*
X210072763Y-123086789D01*
X210161211Y-123175237D01*
X210265215Y-123244730D01*
X210380777Y-123292597D01*
X210503458Y-123317000D01*
X210380777Y-123341403D01*
X210265215Y-123389270D01*
X210161211Y-123458763D01*
X210072763Y-123547211D01*
X210003270Y-123651215D01*
X209955403Y-123766777D01*
X209931000Y-123889458D01*
X209931000Y-124014542D01*
X209931000Y-125030542D01*
X209955403Y-125153223D01*
X210003270Y-125268785D01*
X210072763Y-125372789D01*
X210161211Y-125461237D01*
X210265215Y-125530730D01*
X210380777Y-125578597D01*
X210503458Y-125603000D01*
X210628542Y-125603000D01*
X212660542Y-125603000D01*
X212783223Y-125578597D01*
X212898785Y-125530730D01*
X212932031Y-125508515D01*
X213017910Y-125641773D01*
X213164969Y-125794058D01*
X213255530Y-125857000D01*
X206629000Y-125857000D01*
X206629000Y-124065342D01*
X206629000Y-122459750D01*
X206470250Y-122301000D01*
X205105000Y-122301000D01*
X205105000Y-124479050D01*
X205263750Y-124637800D01*
X205931458Y-124637800D01*
X206056542Y-124637800D01*
X206179223Y-124613397D01*
X206294785Y-124565530D01*
X206398789Y-124496037D01*
X206487237Y-124407589D01*
X206556730Y-124303585D01*
X206604597Y-124188023D01*
X206629000Y-124065342D01*
X206629000Y-125857000D01*
X204851000Y-125857000D01*
X204851000Y-124479050D01*
X204851000Y-122301000D01*
X203485750Y-122301000D01*
X203327000Y-122459750D01*
X203327000Y-124065342D01*
X203351403Y-124188023D01*
X203399270Y-124303585D01*
X203468763Y-124407589D01*
X203557211Y-124496037D01*
X203661215Y-124565530D01*
X203776777Y-124613397D01*
X203899458Y-124637800D01*
X204024542Y-124637800D01*
X204692250Y-124637800D01*
X204851000Y-124479050D01*
X204851000Y-125857000D01*
X202626630Y-125857000D01*
X201587100Y-124817470D01*
X201587100Y-122611838D01*
X201562697Y-122489157D01*
X201514830Y-122373595D01*
X201445337Y-122269591D01*
X201356889Y-122181143D01*
X201346198Y-122174000D01*
X201356889Y-122166857D01*
X201445337Y-122078409D01*
X201514830Y-121974405D01*
X201562697Y-121858843D01*
X201587100Y-121736162D01*
X201587100Y-121611078D01*
X201587100Y-120925812D01*
X201595100Y-120919426D01*
X201600674Y-120913927D01*
X201600791Y-120913833D01*
X201600880Y-120913725D01*
X201602675Y-120911955D01*
X202626630Y-119888000D01*
X203521174Y-119888000D01*
X203468763Y-119940411D01*
X203399270Y-120044415D01*
X203351403Y-120159977D01*
X203327000Y-120282658D01*
X203327000Y-121888250D01*
X203485750Y-122047000D01*
X204851000Y-122047000D01*
X204851000Y-122027000D01*
X205105000Y-122027000D01*
X205105000Y-122047000D01*
X206470250Y-122047000D01*
X206629000Y-121888250D01*
X206629000Y-120282658D01*
X206604597Y-120159977D01*
X206556730Y-120044415D01*
X206487237Y-119940411D01*
X206434826Y-119888000D01*
X208154869Y-119888000D01*
X208693685Y-120426816D01*
X208748129Y-120471537D01*
X208801995Y-120516736D01*
X208805502Y-120518664D01*
X208808603Y-120521211D01*
X208870703Y-120554509D01*
X208932316Y-120588381D01*
X208936131Y-120589591D01*
X208939667Y-120591487D01*
X209007051Y-120612088D01*
X209074071Y-120633348D01*
X209078048Y-120633794D01*
X209081885Y-120634967D01*
X209151922Y-120642080D01*
X209221861Y-120649926D01*
X209229697Y-120649980D01*
X209229840Y-120649995D01*
X209229973Y-120649982D01*
X209232500Y-120650000D01*
X209983891Y-120650000D01*
X210003270Y-120696785D01*
X210072763Y-120800789D01*
X210161211Y-120889237D01*
X210265215Y-120958730D01*
X210380777Y-121006597D01*
X210503458Y-121031000D01*
X210380777Y-121055403D01*
X210265215Y-121103270D01*
X210161211Y-121172763D01*
X210072763Y-121261211D01*
X210003270Y-121365215D01*
X209955403Y-121480777D01*
X209931000Y-121603458D01*
X209931000Y-121888250D01*
X210089750Y-122047000D01*
X211455000Y-122047000D01*
X211455000Y-121189750D01*
X211296250Y-121031000D01*
X211867750Y-121031000D01*
X211709000Y-121189750D01*
X211709000Y-122047000D01*
X213074250Y-122047000D01*
X213233000Y-121888250D01*
X213233000Y-121603458D01*
X213208597Y-121480777D01*
X213160730Y-121365215D01*
X213091237Y-121261211D01*
X213002789Y-121172763D01*
X212898785Y-121103270D01*
X212783223Y-121055403D01*
X212660542Y-121031000D01*
X212783223Y-121006597D01*
X212898785Y-120958730D01*
X213002789Y-120889237D01*
X213091237Y-120800789D01*
X213160730Y-120696785D01*
X213208597Y-120581223D01*
X213233000Y-120458542D01*
X213233000Y-120333458D01*
X213233000Y-119317458D01*
X213208597Y-119194777D01*
X213160730Y-119079215D01*
X213091237Y-118975211D01*
X213002789Y-118886763D01*
X212898785Y-118817270D01*
X212783223Y-118769403D01*
X212660542Y-118745000D01*
X212535458Y-118745000D01*
X210503458Y-118745000D01*
X210380777Y-118769403D01*
X210265215Y-118817270D01*
X210161211Y-118886763D01*
X210072763Y-118975211D01*
X210003270Y-119079215D01*
X209983891Y-119126000D01*
X209548130Y-119126000D01*
X209009315Y-118587185D01*
X208954900Y-118542487D01*
X208901005Y-118497264D01*
X208897497Y-118495335D01*
X208894397Y-118492789D01*
X208832331Y-118459510D01*
X208770684Y-118425619D01*
X208766863Y-118424407D01*
X208763333Y-118422514D01*
X208696035Y-118401939D01*
X208628929Y-118380652D01*
X208624945Y-118380205D01*
X208621115Y-118379034D01*
X208551127Y-118371924D01*
X208481139Y-118364074D01*
X208473302Y-118364019D01*
X208473160Y-118364005D01*
X208473026Y-118364017D01*
X208470500Y-118364000D01*
X202311000Y-118364000D01*
X202240894Y-118370873D01*
X202170829Y-118377004D01*
X202166985Y-118378120D01*
X202162993Y-118378512D01*
X202095552Y-118398873D01*
X202028018Y-118418494D01*
X202024462Y-118420337D01*
X202020624Y-118421496D01*
X201958467Y-118454545D01*
X201895985Y-118486933D01*
X201892852Y-118489433D01*
X201889316Y-118491314D01*
X201834791Y-118535783D01*
X201779760Y-118579714D01*
X201774181Y-118585215D01*
X201774069Y-118585307D01*
X201773983Y-118585410D01*
X201772184Y-118587185D01*
X201536112Y-118823256D01*
X201514830Y-118771875D01*
X201445337Y-118667871D01*
X201356889Y-118579423D01*
X201252885Y-118509930D01*
X201137323Y-118462063D01*
X201014642Y-118437660D01*
X200889558Y-118437660D01*
X199289358Y-118437660D01*
X199166677Y-118462063D01*
X199051115Y-118509930D01*
X198947111Y-118579423D01*
X198858663Y-118667871D01*
X198789170Y-118771875D01*
X198741303Y-118887437D01*
X198716900Y-119010118D01*
X198716900Y-119135202D01*
X198716900Y-119611140D01*
X198666770Y-119611140D01*
X197395000Y-118339369D01*
X197395000Y-115202458D01*
X197370597Y-115079777D01*
X197322730Y-114964215D01*
X197253237Y-114860211D01*
X197164789Y-114771763D01*
X197060785Y-114702270D01*
X196945223Y-114654403D01*
X196822542Y-114630000D01*
X196697458Y-114630000D01*
X194997458Y-114630000D01*
X194874777Y-114654403D01*
X194759215Y-114702270D01*
X194655211Y-114771763D01*
X194566763Y-114860211D01*
X194497270Y-114964215D01*
X194449403Y-115079777D01*
X194425000Y-115202458D01*
X194425000Y-115327542D01*
X194425000Y-118477542D01*
X194449403Y-118600223D01*
X194497270Y-118715785D01*
X194566763Y-118819789D01*
X194655211Y-118908237D01*
X194759215Y-118977730D01*
X194874777Y-119025597D01*
X194997458Y-119050000D01*
X195122542Y-119050000D01*
X195950369Y-119050000D01*
X197812324Y-120911955D01*
X197866737Y-120956650D01*
X197920635Y-121001876D01*
X197924146Y-121003806D01*
X197927243Y-121006350D01*
X197989269Y-121039608D01*
X198050956Y-121073521D01*
X198054776Y-121074732D01*
X198058307Y-121076626D01*
X198125604Y-121097200D01*
X198192711Y-121118488D01*
X198196694Y-121118934D01*
X198200525Y-121120106D01*
X198270512Y-121127215D01*
X198340501Y-121135066D01*
X198348337Y-121135120D01*
X198348480Y-121135135D01*
X198348613Y-121135122D01*
X198351140Y-121135140D01*
X198716900Y-121135140D01*
X198716900Y-121736162D01*
X198741303Y-121858843D01*
X198789170Y-121974405D01*
X198858663Y-122078409D01*
X198947111Y-122166857D01*
X198957801Y-122174000D01*
X198947111Y-122181143D01*
X198858663Y-122269591D01*
X198789170Y-122373595D01*
X198741303Y-122489157D01*
X198716900Y-122611838D01*
X198716900Y-122736922D01*
X198716900Y-125337882D01*
X198741303Y-125460563D01*
X198789170Y-125576125D01*
X198858663Y-125680129D01*
X198947111Y-125768577D01*
X199051115Y-125838070D01*
X199166677Y-125885937D01*
X199289358Y-125910340D01*
X199414442Y-125910340D01*
X200524710Y-125910340D01*
X201772185Y-127157815D01*
X201826599Y-127202512D01*
X201856360Y-127227484D01*
X199260702Y-126463541D01*
X195096477Y-124286536D01*
X194295000Y-123642131D01*
X194295000Y-118477542D01*
X194295000Y-118352458D01*
X194295000Y-115202458D01*
X194270597Y-115079777D01*
X194222730Y-114964215D01*
X194153237Y-114860211D01*
X194064789Y-114771763D01*
X193960785Y-114702270D01*
X193845223Y-114654403D01*
X193722542Y-114630000D01*
X193597458Y-114630000D01*
X191897458Y-114630000D01*
X191774777Y-114654403D01*
X191659215Y-114702270D01*
X191555211Y-114771763D01*
X191466763Y-114860211D01*
X191397270Y-114964215D01*
X191349403Y-115079777D01*
X191325000Y-115202458D01*
X191325000Y-115327542D01*
X191325000Y-116078000D01*
X191196630Y-116078000D01*
X191008000Y-115889369D01*
X191008000Y-113601309D01*
X191129723Y-113577097D01*
X191245285Y-113529230D01*
X191349289Y-113459737D01*
X191437737Y-113371289D01*
X191507230Y-113267285D01*
X191555097Y-113151723D01*
X191579500Y-113029042D01*
X191579500Y-112903958D01*
X191579500Y-111506958D01*
X191555097Y-111384277D01*
X191507230Y-111268715D01*
X191437737Y-111164711D01*
X191349289Y-111076263D01*
X191245285Y-111006770D01*
X191129723Y-110958903D01*
X191007042Y-110934500D01*
X190881958Y-110934500D01*
X189484958Y-110934500D01*
X189362277Y-110958903D01*
X189246715Y-111006770D01*
X189142711Y-111076263D01*
X189054263Y-111164711D01*
X188984770Y-111268715D01*
X188936903Y-111384277D01*
X188912500Y-111506958D01*
X188912500Y-111632042D01*
X188912500Y-113029042D01*
X188936903Y-113151723D01*
X188984770Y-113267285D01*
X189054263Y-113371289D01*
X189142711Y-113459737D01*
X189246715Y-113529230D01*
X189362277Y-113577097D01*
X189484000Y-113601309D01*
X189484000Y-116205000D01*
X189490874Y-116275113D01*
X189497004Y-116345170D01*
X189498120Y-116349012D01*
X189498512Y-116353007D01*
X189518877Y-116420459D01*
X189538494Y-116487982D01*
X189540337Y-116491537D01*
X189541496Y-116495376D01*
X189574556Y-116557553D01*
X189606933Y-116620014D01*
X189609431Y-116623144D01*
X189611314Y-116626684D01*
X189655800Y-116681230D01*
X189699714Y-116736240D01*
X189705212Y-116741814D01*
X189705307Y-116741931D01*
X189705414Y-116742020D01*
X189707185Y-116743815D01*
X190342185Y-117378816D01*
X190396629Y-117423537D01*
X190450495Y-117468736D01*
X190454002Y-117470664D01*
X190457103Y-117473211D01*
X190519184Y-117506498D01*
X190580816Y-117540381D01*
X190584634Y-117541592D01*
X190588168Y-117543487D01*
X190655537Y-117564083D01*
X190722571Y-117585348D01*
X190726549Y-117585794D01*
X190730385Y-117586967D01*
X190800466Y-117594085D01*
X190870361Y-117601926D01*
X190878186Y-117601980D01*
X190878340Y-117601996D01*
X190878482Y-117601982D01*
X190881000Y-117602000D01*
X191325000Y-117602000D01*
X191325000Y-118477542D01*
X191349403Y-118600223D01*
X191397270Y-118715785D01*
X191466763Y-118819789D01*
X191555211Y-118908237D01*
X191659215Y-118977730D01*
X191774777Y-119025597D01*
X191897458Y-119050000D01*
X192022542Y-119050000D01*
X193722542Y-119050000D01*
X193845223Y-119025597D01*
X193960785Y-118977730D01*
X194064789Y-118908237D01*
X194153237Y-118819789D01*
X194222730Y-118715785D01*
X194270597Y-118600223D01*
X194295000Y-118477542D01*
X194295000Y-123642131D01*
X191434403Y-121342153D01*
X188413976Y-117742549D01*
X186150239Y-113624826D01*
X184729419Y-109145829D01*
X184202146Y-104445089D01*
X184200000Y-104137653D01*
X184200000Y-99958503D01*
X184218743Y-99767336D01*
X184264532Y-99615678D01*
X184338904Y-99475804D01*
X184439030Y-99353038D01*
X184561093Y-99252059D01*
X184700449Y-99176709D01*
X184851780Y-99129864D01*
X185040782Y-99110000D01*
X197255000Y-99110000D01*
X197255121Y-99109988D01*
X197257420Y-99109996D01*
X197267892Y-99109959D01*
X197297648Y-99106935D01*
X197327554Y-99107144D01*
X197337073Y-99106211D01*
X197628218Y-99075611D01*
X197689054Y-99063122D01*
X197750021Y-99051493D01*
X197759177Y-99048729D01*
X198038833Y-98962161D01*
X198096062Y-98938103D01*
X198153632Y-98914844D01*
X198162076Y-98910354D01*
X198162077Y-98910354D01*
X198419593Y-98771115D01*
X198471065Y-98736395D01*
X198523012Y-98702403D01*
X198530424Y-98696358D01*
X198530426Y-98696356D01*
X198755991Y-98509753D01*
X198799738Y-98465699D01*
X198844096Y-98422261D01*
X198850193Y-98414891D01*
X199035219Y-98188027D01*
X199069580Y-98136309D01*
X199104652Y-98085088D01*
X199109201Y-98076675D01*
X199246638Y-97818194D01*
X199270311Y-97760758D01*
X199294754Y-97703730D01*
X199297583Y-97694593D01*
X199382197Y-97414339D01*
X199394258Y-97353423D01*
X199407164Y-97292707D01*
X199408164Y-97283196D01*
X199436731Y-96991844D01*
X199436730Y-96963112D01*
X199439933Y-96934564D01*
X199440000Y-96925000D01*
X199440000Y-64617743D01*
X199478714Y-64666240D01*
X199484212Y-64671814D01*
X199484307Y-64671931D01*
X199484414Y-64672020D01*
X199486185Y-64673815D01*
X200360577Y-65548207D01*
X200301621Y-65738665D01*
X200271049Y-66029538D01*
X200297556Y-66320810D01*
X200380134Y-66601385D01*
X200515637Y-66860578D01*
X200698903Y-67088515D01*
X200922952Y-67276515D01*
X200982586Y-67309299D01*
X200940299Y-67331784D01*
X200713647Y-67516637D01*
X200527216Y-67741994D01*
X200388108Y-67999269D01*
X200301621Y-68278665D01*
X200271049Y-68569538D01*
X200297556Y-68860810D01*
X200380134Y-69141385D01*
X200515637Y-69400578D01*
X200698903Y-69628515D01*
X200922952Y-69816515D01*
X200982586Y-69849299D01*
X200940299Y-69871784D01*
X200713647Y-70056637D01*
X200527216Y-70281994D01*
X200388108Y-70539269D01*
X200301621Y-70818665D01*
X200271049Y-71109538D01*
X200297556Y-71400810D01*
X200380134Y-71681385D01*
X200515637Y-71940578D01*
X200698903Y-72168515D01*
X200922952Y-72356515D01*
X201179251Y-72497416D01*
X201458036Y-72585852D01*
X201748688Y-72618454D01*
X201769612Y-72618600D01*
X202090388Y-72618600D01*
X202381468Y-72590059D01*
X202661460Y-72505525D01*
X202919701Y-72368216D01*
X203146353Y-72183363D01*
X203156354Y-72171272D01*
X203302188Y-72293641D01*
X203471689Y-72386825D01*
X203452738Y-72394474D01*
X203218560Y-72547875D01*
X203018808Y-72744014D01*
X202861159Y-72975354D01*
X202751672Y-73233004D01*
X202734990Y-73312940D01*
X202857148Y-73533000D01*
X204343000Y-73533000D01*
X204343000Y-73513000D01*
X204597000Y-73513000D01*
X204597000Y-73533000D01*
X205771750Y-73533000D01*
X205835250Y-73596500D01*
X206883000Y-73596500D01*
X206883000Y-72802750D01*
X206724250Y-72644000D01*
X206374042Y-72644000D01*
X206248958Y-72644000D01*
X206126277Y-72668403D01*
X206010715Y-72716270D01*
X205936210Y-72766052D01*
X205921192Y-72744014D01*
X205721440Y-72547875D01*
X205487262Y-72394474D01*
X205467553Y-72386520D01*
X205621347Y-72304747D01*
X205836475Y-72129293D01*
X206013426Y-71915396D01*
X206145461Y-71671202D01*
X206227551Y-71406013D01*
X206256568Y-71129930D01*
X206231408Y-70853469D01*
X206153029Y-70587160D01*
X206128119Y-70539511D01*
X207802816Y-68864815D01*
X207847537Y-68810370D01*
X207892736Y-68756505D01*
X207894664Y-68752997D01*
X207897211Y-68749897D01*
X207930509Y-68687796D01*
X207964381Y-68626184D01*
X207965591Y-68622368D01*
X207967487Y-68618833D01*
X207967802Y-68617801D01*
X207962500Y-68644458D01*
X207962500Y-68769542D01*
X207962500Y-69658542D01*
X207986903Y-69781223D01*
X208034770Y-69896785D01*
X208104263Y-70000789D01*
X208192711Y-70089237D01*
X208214805Y-70104000D01*
X208192711Y-70118763D01*
X208104263Y-70207211D01*
X208034770Y-70311215D01*
X207986903Y-70426777D01*
X207962500Y-70549458D01*
X207962500Y-70674542D01*
X207962500Y-71563542D01*
X207986903Y-71686223D01*
X208034770Y-71801785D01*
X208104263Y-71905789D01*
X208192711Y-71994237D01*
X208296715Y-72063730D01*
X208412277Y-72111597D01*
X208534958Y-72136000D01*
X208660042Y-72136000D01*
X210057042Y-72136000D01*
X210179723Y-72111597D01*
X210295285Y-72063730D01*
X210399289Y-71994237D01*
X210487737Y-71905789D01*
X210516614Y-71862570D01*
X210535583Y-71898854D01*
X210709531Y-72115201D01*
X210922188Y-72293641D01*
X211098214Y-72390412D01*
X210938653Y-72475253D01*
X210723525Y-72650707D01*
X210546574Y-72864604D01*
X210517386Y-72918584D01*
X210487737Y-72874211D01*
X210399289Y-72785763D01*
X210295285Y-72716270D01*
X210179723Y-72668403D01*
X210057042Y-72644000D01*
X209931958Y-72644000D01*
X208534958Y-72644000D01*
X208412277Y-72668403D01*
X208296715Y-72716270D01*
X208192711Y-72785763D01*
X208153000Y-72825474D01*
X208113289Y-72785763D01*
X208009285Y-72716270D01*
X207893723Y-72668403D01*
X207771042Y-72644000D01*
X207645958Y-72644000D01*
X207295750Y-72644000D01*
X207137000Y-72802750D01*
X207137000Y-73596500D01*
X207157000Y-73596500D01*
X207157000Y-73850500D01*
X207137000Y-73850500D01*
X207137000Y-73870500D01*
X206883000Y-73870500D01*
X206883000Y-73850500D01*
X206118101Y-73850500D01*
X206082852Y-73787000D01*
X204597000Y-73787000D01*
X204597000Y-73807000D01*
X204343000Y-73807000D01*
X204343000Y-73787000D01*
X202857148Y-73787000D01*
X202734990Y-74007060D01*
X202751672Y-74086996D01*
X202861159Y-74344646D01*
X203018808Y-74575986D01*
X203200687Y-74754576D01*
X203131223Y-74725803D01*
X203008542Y-74701400D01*
X202883458Y-74701400D01*
X200851458Y-74701400D01*
X200728777Y-74725803D01*
X200613215Y-74773670D01*
X200509211Y-74843163D01*
X200420763Y-74931611D01*
X200351270Y-75035615D01*
X200303403Y-75151177D01*
X200279000Y-75273858D01*
X200279000Y-75398942D01*
X200279000Y-77126142D01*
X200303403Y-77248823D01*
X200351270Y-77364385D01*
X200420763Y-77468389D01*
X200509211Y-77556837D01*
X200613215Y-77626330D01*
X200720727Y-77670862D01*
X200713647Y-77676637D01*
X200527216Y-77901994D01*
X200388108Y-78159269D01*
X200301621Y-78438665D01*
X200271049Y-78729538D01*
X200297556Y-79020810D01*
X200380134Y-79301385D01*
X200515637Y-79560578D01*
X200698903Y-79788515D01*
X200922952Y-79976515D01*
X200982586Y-80009299D01*
X200940299Y-80031784D01*
X200713647Y-80216637D01*
X200527216Y-80441994D01*
X200388108Y-80699269D01*
X200301621Y-80978665D01*
X200271049Y-81269538D01*
X200297556Y-81560810D01*
X200380134Y-81841385D01*
X200515637Y-82100578D01*
X200698903Y-82328515D01*
X200922952Y-82516515D01*
X200982586Y-82549299D01*
X200940299Y-82571784D01*
X200713647Y-82756637D01*
X200527216Y-82981994D01*
X200388108Y-83239269D01*
X200301621Y-83518665D01*
X200271049Y-83809538D01*
X200297556Y-84100810D01*
X200380134Y-84381385D01*
X200515637Y-84640578D01*
X200698903Y-84868515D01*
X200922952Y-85056515D01*
X200982586Y-85089299D01*
X200940299Y-85111784D01*
X200713647Y-85296637D01*
X200527216Y-85521994D01*
X200388108Y-85779269D01*
X200301621Y-86058665D01*
X200271049Y-86349538D01*
X200297556Y-86640810D01*
X200380134Y-86921385D01*
X200515637Y-87180578D01*
X200698903Y-87408515D01*
X200922952Y-87596515D01*
X200982586Y-87629299D01*
X200940299Y-87651784D01*
X200713647Y-87836637D01*
X200527216Y-88061994D01*
X200388108Y-88319269D01*
X200301621Y-88598665D01*
X200271049Y-88889538D01*
X200297556Y-89180810D01*
X200380134Y-89461385D01*
X200515637Y-89720578D01*
X200698903Y-89948515D01*
X200922952Y-90136515D01*
X200982586Y-90169299D01*
X200940299Y-90191784D01*
X200713647Y-90376637D01*
X200527216Y-90601994D01*
X200388108Y-90859269D01*
X200301621Y-91138665D01*
X200271049Y-91429538D01*
X200297556Y-91720810D01*
X200380134Y-92001385D01*
X200515637Y-92260578D01*
X200698903Y-92488515D01*
X200922952Y-92676515D01*
X200982586Y-92709299D01*
X200940299Y-92731784D01*
X200713647Y-92916637D01*
X200527216Y-93141994D01*
X200388108Y-93399269D01*
X200301621Y-93678665D01*
X200271049Y-93969538D01*
X200297556Y-94260810D01*
X200380134Y-94541385D01*
X200515637Y-94800578D01*
X200698903Y-95028515D01*
X200922952Y-95216515D01*
X201179251Y-95357416D01*
X201458036Y-95445852D01*
X201748688Y-95478454D01*
X201769612Y-95478600D01*
X202090388Y-95478600D01*
X202381468Y-95450059D01*
X202661460Y-95365525D01*
X202919701Y-95228216D01*
X203146353Y-95043363D01*
X203156354Y-95031272D01*
X203302188Y-95153641D01*
X203545454Y-95287378D01*
X203810063Y-95371317D01*
X204085937Y-95402261D01*
X204105797Y-95402400D01*
X204834203Y-95402400D01*
X204897141Y-95396228D01*
X204820185Y-95473185D01*
X204775487Y-95527599D01*
X204730264Y-95581495D01*
X204728335Y-95585002D01*
X204725789Y-95588103D01*
X204692510Y-95650168D01*
X204658619Y-95711816D01*
X204657407Y-95715636D01*
X204655514Y-95719167D01*
X204634939Y-95786464D01*
X204613652Y-95853571D01*
X204613205Y-95857554D01*
X204612034Y-95861385D01*
X204604924Y-95931372D01*
X204597074Y-96001361D01*
X204597019Y-96009197D01*
X204597005Y-96009340D01*
X204597017Y-96009473D01*
X204597000Y-96012000D01*
X204597000Y-96806574D01*
X200161536Y-100642651D01*
X200145260Y-100659775D01*
X200126857Y-100674572D01*
X200094150Y-100713550D01*
X200059082Y-100750447D01*
X200046443Y-100770404D01*
X200031264Y-100788495D01*
X200006747Y-100833089D01*
X199979518Y-100876089D01*
X199970998Y-100898117D01*
X199959619Y-100918816D01*
X199944229Y-100967328D01*
X199925873Y-101014792D01*
X199921794Y-101038056D01*
X199914652Y-101060571D01*
X199908978Y-101111148D01*
X199900190Y-101161274D01*
X199900707Y-101184884D01*
X199898074Y-101208361D01*
X199898000Y-101219000D01*
X199898000Y-101224868D01*
X199818006Y-101144314D01*
X199348955Y-100827935D01*
X198827386Y-100608687D01*
X198273164Y-100494922D01*
X197707400Y-100490972D01*
X197151644Y-100596988D01*
X196627064Y-100808932D01*
X196153641Y-101118731D01*
X195749409Y-101514585D01*
X195429763Y-101981416D01*
X195206879Y-102501442D01*
X195089248Y-103054856D01*
X195081348Y-103620579D01*
X195183482Y-104177061D01*
X195391758Y-104703108D01*
X195698245Y-105178682D01*
X195821631Y-105306452D01*
X195273424Y-105193922D01*
X194707660Y-105189972D01*
X194151904Y-105295988D01*
X194131609Y-105304187D01*
X194165158Y-105272240D01*
X194491290Y-104809917D01*
X194721413Y-104293054D01*
X194846760Y-103741336D01*
X194855783Y-103095111D01*
X194745890Y-102540109D01*
X194530289Y-102017021D01*
X194217192Y-101545773D01*
X193818526Y-101144314D01*
X193349475Y-100827935D01*
X192827906Y-100608687D01*
X192273684Y-100494922D01*
X191707920Y-100490972D01*
X191152164Y-100596988D01*
X190627584Y-100808932D01*
X190154161Y-101118731D01*
X189749929Y-101514585D01*
X189430283Y-101981416D01*
X189207399Y-102501442D01*
X189089768Y-103054856D01*
X189081868Y-103620579D01*
X189184002Y-104177061D01*
X189392278Y-104703108D01*
X189698765Y-105178682D01*
X190091787Y-105585668D01*
X190556375Y-105908565D01*
X191074832Y-106135074D01*
X191627412Y-106256566D01*
X192193065Y-106268415D01*
X192750248Y-106170169D01*
X192822701Y-106142066D01*
X192749669Y-106213585D01*
X192430023Y-106680416D01*
X192207139Y-107200442D01*
X192089508Y-107753856D01*
X192081608Y-108319579D01*
X192183742Y-108876061D01*
X192392018Y-109402108D01*
X192698505Y-109877682D01*
X193091527Y-110284668D01*
X193556115Y-110607565D01*
X194074572Y-110834074D01*
X194627152Y-110955566D01*
X195192805Y-110967415D01*
X195749988Y-110869169D01*
X196277476Y-110664570D01*
X196755177Y-110361411D01*
X197164898Y-109971240D01*
X197208140Y-109909940D01*
X197208140Y-111104785D01*
X197026381Y-111223725D01*
X196839537Y-111406695D01*
X196691791Y-111622473D01*
X196588770Y-111862839D01*
X196534399Y-112118637D01*
X196530747Y-112380124D01*
X196577955Y-112637341D01*
X196674225Y-112880489D01*
X196815888Y-113100308D01*
X196997550Y-113288425D01*
X197212291Y-113437674D01*
X197451932Y-113542370D01*
X197707344Y-113598526D01*
X197968800Y-113604003D01*
X198226340Y-113558592D01*
X198470154Y-113464022D01*
X198690957Y-113323897D01*
X198880337Y-113143552D01*
X199031081Y-112929858D01*
X199137448Y-112690955D01*
X199195386Y-112435941D01*
X199199557Y-112137244D01*
X199148762Y-111880711D01*
X199049107Y-111638931D01*
X198904388Y-111421111D01*
X198732140Y-111247655D01*
X198732140Y-106173270D01*
X198749728Y-106170169D01*
X199277216Y-105965570D01*
X199754917Y-105662411D01*
X199898000Y-105526155D01*
X199898000Y-113157000D01*
X199902307Y-113200927D01*
X199903104Y-113245044D01*
X199909545Y-113274747D01*
X199912512Y-113305007D01*
X199925269Y-113347261D01*
X199934620Y-113390382D01*
X199946708Y-113418270D01*
X199955496Y-113447376D01*
X199976214Y-113486342D01*
X199993765Y-113526831D01*
X200011042Y-113551844D01*
X200025314Y-113578684D01*
X200053204Y-113612881D01*
X200078287Y-113649193D01*
X200100093Y-113670373D01*
X200119307Y-113693931D01*
X200153312Y-113722062D01*
X200184967Y-113752808D01*
X200210468Y-113769346D01*
X200233895Y-113788727D01*
X200272721Y-113809720D01*
X200309741Y-113833729D01*
X200319223Y-113838554D01*
X200957544Y-114157714D01*
X201015134Y-114353385D01*
X201150637Y-114612578D01*
X201333903Y-114840515D01*
X201557952Y-115028515D01*
X201617586Y-115061299D01*
X201575299Y-115083784D01*
X201348647Y-115268637D01*
X201162216Y-115493994D01*
X201023108Y-115751269D01*
X200936621Y-116030665D01*
X200906049Y-116321538D01*
X200932556Y-116612810D01*
X201015134Y-116893385D01*
X201150637Y-117152578D01*
X201333903Y-117380515D01*
X201557952Y-117568515D01*
X201814251Y-117709416D01*
X202093036Y-117797852D01*
X202383688Y-117830454D01*
X202404612Y-117830600D01*
X202725388Y-117830600D01*
X203016468Y-117802059D01*
X203296460Y-117717525D01*
X203554701Y-117580216D01*
X203781353Y-117395363D01*
X203967784Y-117170006D01*
X204008880Y-117094000D01*
X206375000Y-117094000D01*
X206445113Y-117087125D01*
X206515170Y-117080996D01*
X206519012Y-117079879D01*
X206523007Y-117079488D01*
X206590459Y-117059122D01*
X206657982Y-117039506D01*
X206661537Y-117037662D01*
X206665376Y-117036504D01*
X206727553Y-117003443D01*
X206790014Y-116971067D01*
X206793144Y-116968568D01*
X206796684Y-116966686D01*
X206851230Y-116922199D01*
X206906240Y-116878286D01*
X206911814Y-116872787D01*
X206911931Y-116872693D01*
X206912020Y-116872585D01*
X206913815Y-116870815D01*
X209189567Y-114595063D01*
X209203877Y-114642459D01*
X209223494Y-114709982D01*
X209225337Y-114713537D01*
X209226496Y-114717376D01*
X209259556Y-114779553D01*
X209291933Y-114842014D01*
X209294431Y-114845144D01*
X209296314Y-114848684D01*
X209340800Y-114903230D01*
X209384714Y-114958240D01*
X209390212Y-114963814D01*
X209390307Y-114963931D01*
X209390414Y-114964020D01*
X209392185Y-114965815D01*
X211297185Y-116870815D01*
X211351599Y-116915512D01*
X211405495Y-116960736D01*
X211409002Y-116962664D01*
X211412103Y-116965211D01*
X211474203Y-116998509D01*
X211535816Y-117032381D01*
X211539631Y-117033591D01*
X211543167Y-117035487D01*
X211610551Y-117056088D01*
X211677571Y-117077348D01*
X211681548Y-117077794D01*
X211685385Y-117078967D01*
X211755422Y-117086080D01*
X211825361Y-117093926D01*
X211833197Y-117093980D01*
X211833340Y-117093995D01*
X211833473Y-117093982D01*
X211836000Y-117094000D01*
X212550013Y-117094000D01*
X212580637Y-117152578D01*
X212763903Y-117380515D01*
X212987952Y-117568515D01*
X213244251Y-117709416D01*
X213523036Y-117797852D01*
X213813688Y-117830454D01*
X213834612Y-117830600D01*
X214155388Y-117830600D01*
X214446468Y-117802059D01*
X214726460Y-117717525D01*
X214984701Y-117580216D01*
X215211353Y-117395363D01*
X215397784Y-117170006D01*
X215536892Y-116912731D01*
X215623379Y-116633335D01*
X215653951Y-116342462D01*
X215627444Y-116051190D01*
X215544866Y-115770615D01*
X215409363Y-115511422D01*
X215226097Y-115283485D01*
X215002048Y-115095485D01*
X214942413Y-115062700D01*
X214984701Y-115040216D01*
X215211353Y-114855363D01*
X215397784Y-114630006D01*
X215536892Y-114372731D01*
X215623379Y-114093335D01*
X215653951Y-113802462D01*
X215627444Y-113511190D01*
X215544866Y-113230615D01*
X215409363Y-112971422D01*
X215226097Y-112743485D01*
X215002048Y-112555485D01*
X214940127Y-112521444D01*
X215146729Y-112370486D01*
X215345733Y-112154035D01*
X215498686Y-111902919D01*
X215599709Y-111626789D01*
X215602358Y-111611026D01*
X215481217Y-111379000D01*
X214122000Y-111379000D01*
X214122000Y-111399000D01*
X213868000Y-111399000D01*
X213868000Y-111379000D01*
X212508783Y-111379000D01*
X212387642Y-111611026D01*
X212390291Y-111626789D01*
X212491314Y-111902919D01*
X212644267Y-112154035D01*
X212843271Y-112370486D01*
X213048794Y-112520656D01*
X213005299Y-112543784D01*
X212778647Y-112728637D01*
X212592216Y-112953994D01*
X212453108Y-113211269D01*
X212366621Y-113490665D01*
X212336049Y-113781538D01*
X212362556Y-114072810D01*
X212445134Y-114353385D01*
X212580637Y-114612578D01*
X212763903Y-114840515D01*
X212987952Y-115028515D01*
X213047586Y-115061299D01*
X213005299Y-115083784D01*
X212778647Y-115268637D01*
X212592216Y-115493994D01*
X212551119Y-115570000D01*
X212151630Y-115570000D01*
X210693000Y-114111370D01*
X210693000Y-95349508D01*
X210761777Y-95377997D01*
X210884458Y-95402400D01*
X211009542Y-95402400D01*
X211330500Y-95402400D01*
X211330500Y-96018974D01*
X211249263Y-96100211D01*
X211179770Y-96204215D01*
X211131903Y-96319777D01*
X211107500Y-96442458D01*
X211107500Y-96567542D01*
X211107500Y-97867542D01*
X211131903Y-97990223D01*
X211179770Y-98105785D01*
X211249263Y-98209789D01*
X211330500Y-98291026D01*
X211330500Y-99443500D01*
X211337374Y-99513613D01*
X211343504Y-99583670D01*
X211344620Y-99587512D01*
X211345012Y-99591507D01*
X211365377Y-99658959D01*
X211384994Y-99726482D01*
X211386837Y-99730037D01*
X211387996Y-99733876D01*
X211421056Y-99796053D01*
X211453433Y-99858514D01*
X211455931Y-99861644D01*
X211457814Y-99865184D01*
X211502300Y-99919730D01*
X211546214Y-99974740D01*
X211551712Y-99980314D01*
X211551807Y-99980431D01*
X211551914Y-99980520D01*
X211553685Y-99982315D01*
X212440184Y-100868815D01*
X212494597Y-100913510D01*
X212548495Y-100958736D01*
X212552006Y-100960666D01*
X212555103Y-100963210D01*
X212617129Y-100996468D01*
X212678816Y-101030381D01*
X212682636Y-101031592D01*
X212686167Y-101033486D01*
X212753464Y-101054060D01*
X212820571Y-101075348D01*
X212824554Y-101075794D01*
X212828385Y-101076966D01*
X212898372Y-101084075D01*
X212968361Y-101091926D01*
X212976197Y-101091980D01*
X212976340Y-101091995D01*
X212976473Y-101091982D01*
X212979000Y-101092000D01*
X214441370Y-101092000D01*
X214884000Y-101534630D01*
X214884000Y-102330587D01*
X214745749Y-102254584D01*
X214466964Y-102166148D01*
X214176312Y-102133546D01*
X214155388Y-102133400D01*
X213834612Y-102133400D01*
X213543532Y-102161941D01*
X213263540Y-102246475D01*
X213005299Y-102383784D01*
X212778647Y-102568637D01*
X212592216Y-102793994D01*
X212453108Y-103051269D01*
X212366621Y-103330665D01*
X212336049Y-103621538D01*
X212362556Y-103912810D01*
X212445134Y-104193385D01*
X212580637Y-104452578D01*
X212763903Y-104680515D01*
X212987952Y-104868515D01*
X213047586Y-104901299D01*
X213005299Y-104923784D01*
X212778647Y-105108637D01*
X212592216Y-105333994D01*
X212453108Y-105591269D01*
X212366621Y-105870665D01*
X212336049Y-106161538D01*
X212362556Y-106452810D01*
X212445134Y-106733385D01*
X212580637Y-106992578D01*
X212763903Y-107220515D01*
X212987952Y-107408515D01*
X213047586Y-107441299D01*
X213005299Y-107463784D01*
X212778647Y-107648637D01*
X212592216Y-107873994D01*
X212453108Y-108131269D01*
X212366621Y-108410665D01*
X212336049Y-108701538D01*
X212362556Y-108992810D01*
X212445134Y-109273385D01*
X212580637Y-109532578D01*
X212763903Y-109760515D01*
X212987952Y-109948515D01*
X213049872Y-109982555D01*
X212843271Y-110133514D01*
X212644267Y-110349965D01*
X212491314Y-110601081D01*
X212390291Y-110877211D01*
X212387642Y-110892974D01*
X212508783Y-111125000D01*
X213868000Y-111125000D01*
X213868000Y-111105000D01*
X214122000Y-111105000D01*
X214122000Y-111125000D01*
X215481217Y-111125000D01*
X215602358Y-110892974D01*
X215599709Y-110877211D01*
X215498686Y-110601081D01*
X215345733Y-110349965D01*
X215146729Y-110133514D01*
X214941205Y-109983343D01*
X214984701Y-109960216D01*
X215211353Y-109775363D01*
X215397784Y-109550006D01*
X215453305Y-109447321D01*
X215480459Y-109439122D01*
X215547982Y-109419506D01*
X215551537Y-109417662D01*
X215555376Y-109416504D01*
X215617553Y-109383443D01*
X215680014Y-109351067D01*
X215683144Y-109348568D01*
X215686684Y-109346686D01*
X215741230Y-109302199D01*
X215796240Y-109258286D01*
X215801814Y-109252787D01*
X215801931Y-109252693D01*
X215802020Y-109252585D01*
X215803815Y-109250815D01*
X216184815Y-108869816D01*
X216229510Y-108815402D01*
X216274736Y-108761505D01*
X216276666Y-108757993D01*
X216279210Y-108754897D01*
X216312468Y-108692870D01*
X216346381Y-108631184D01*
X216347592Y-108627363D01*
X216349486Y-108623833D01*
X216370060Y-108556535D01*
X216391348Y-108489429D01*
X216391794Y-108485445D01*
X216392966Y-108481615D01*
X216400075Y-108411627D01*
X216407926Y-108341639D01*
X216407980Y-108333802D01*
X216407995Y-108333660D01*
X216407982Y-108333526D01*
X216408000Y-108331000D01*
X216408000Y-107877026D01*
X216481211Y-107950237D01*
X216585215Y-108019730D01*
X216700777Y-108067597D01*
X216823458Y-108092000D01*
X216950250Y-108092000D01*
X217109000Y-107933250D01*
X217109000Y-106934000D01*
X217089000Y-106934000D01*
X217089000Y-106680000D01*
X217109000Y-106680000D01*
X217109000Y-105680750D01*
X216950250Y-105522000D01*
X216823458Y-105522000D01*
X216700777Y-105546403D01*
X216585215Y-105594270D01*
X216481211Y-105663763D01*
X216408000Y-105736974D01*
X216408000Y-103505000D01*
X216408000Y-103058630D01*
X217012185Y-103662815D01*
X217066599Y-103707512D01*
X217120495Y-103752736D01*
X217124002Y-103754664D01*
X217127103Y-103757211D01*
X217189203Y-103790509D01*
X217250816Y-103824381D01*
X217254631Y-103825591D01*
X217258167Y-103827487D01*
X217325551Y-103848088D01*
X217392571Y-103869348D01*
X217396548Y-103869794D01*
X217400385Y-103870967D01*
X217470422Y-103878080D01*
X217540361Y-103885926D01*
X217548197Y-103885980D01*
X217548340Y-103885995D01*
X217548473Y-103885982D01*
X217551000Y-103886000D01*
X219521369Y-103886000D01*
X221047909Y-105412540D01*
X220445018Y-105412540D01*
X220322337Y-105436943D01*
X220206775Y-105484810D01*
X220102771Y-105554303D01*
X220014323Y-105642751D01*
X219956426Y-105729400D01*
X219890789Y-105663763D01*
X219786785Y-105594270D01*
X219671223Y-105546403D01*
X219548542Y-105522000D01*
X219423458Y-105522000D01*
X218723458Y-105522000D01*
X218600777Y-105546403D01*
X218485215Y-105594270D01*
X218381211Y-105663763D01*
X218292763Y-105752211D01*
X218223270Y-105856215D01*
X218186000Y-105946193D01*
X218148730Y-105856215D01*
X218079237Y-105752211D01*
X217990789Y-105663763D01*
X217886785Y-105594270D01*
X217771223Y-105546403D01*
X217648542Y-105522000D01*
X217521750Y-105522000D01*
X217363000Y-105680750D01*
X217363000Y-106680000D01*
X217383000Y-106680000D01*
X217383000Y-106934000D01*
X217363000Y-106934000D01*
X217363000Y-107933250D01*
X217521750Y-108092000D01*
X217648542Y-108092000D01*
X217771223Y-108067597D01*
X217886785Y-108019730D01*
X217990789Y-107950237D01*
X218079237Y-107861789D01*
X218148730Y-107757785D01*
X218186000Y-107667806D01*
X218223270Y-107757785D01*
X218292763Y-107861789D01*
X218365406Y-107934432D01*
X218191452Y-108004715D01*
X218014308Y-108120634D01*
X217863054Y-108268753D01*
X217743450Y-108443431D01*
X217660052Y-108638012D01*
X217616037Y-108845087D01*
X217614319Y-108968049D01*
X217459185Y-109123185D01*
X217414487Y-109177599D01*
X217369264Y-109231495D01*
X217367335Y-109235002D01*
X217364789Y-109238103D01*
X217331510Y-109300168D01*
X217297619Y-109361816D01*
X217296407Y-109365636D01*
X217294514Y-109369167D01*
X217273939Y-109436464D01*
X217252652Y-109503571D01*
X217252205Y-109507554D01*
X217251034Y-109511385D01*
X217243924Y-109581372D01*
X217236074Y-109651361D01*
X217236019Y-109659197D01*
X217236005Y-109659340D01*
X217236017Y-109659473D01*
X217236000Y-109662000D01*
X217236000Y-109988974D01*
X217154763Y-110070211D01*
X217085270Y-110174215D01*
X217037403Y-110289777D01*
X217013000Y-110412458D01*
X217013000Y-110537542D01*
X217013000Y-111837542D01*
X217037403Y-111960223D01*
X217085270Y-112075785D01*
X217154763Y-112179789D01*
X217243211Y-112268237D01*
X217347215Y-112337730D01*
X217462777Y-112385597D01*
X217585458Y-112410000D01*
X217710542Y-112410000D01*
X218410542Y-112410000D01*
X218533223Y-112385597D01*
X218648785Y-112337730D01*
X218752789Y-112268237D01*
X218841237Y-112179789D01*
X218910730Y-112075785D01*
X218948000Y-111985806D01*
X218985270Y-112075785D01*
X219054763Y-112179789D01*
X219143211Y-112268237D01*
X219247215Y-112337730D01*
X219362777Y-112385597D01*
X219485458Y-112410000D01*
X219610542Y-112410000D01*
X220310542Y-112410000D01*
X220433223Y-112385597D01*
X220472000Y-112369535D01*
X220472000Y-112674464D01*
X220433223Y-112658403D01*
X220310542Y-112634000D01*
X220185458Y-112634000D01*
X219485458Y-112634000D01*
X219362777Y-112658403D01*
X219247215Y-112706270D01*
X219143211Y-112775763D01*
X219054763Y-112864211D01*
X218985270Y-112968215D01*
X218948000Y-113058193D01*
X218910730Y-112968215D01*
X218841237Y-112864211D01*
X218752789Y-112775763D01*
X218648785Y-112706270D01*
X218533223Y-112658403D01*
X218410542Y-112634000D01*
X218283750Y-112634000D01*
X218125000Y-112792750D01*
X218125000Y-113792000D01*
X218145000Y-113792000D01*
X218145000Y-114046000D01*
X218125000Y-114046000D01*
X218125000Y-115045250D01*
X218283750Y-115204000D01*
X218410542Y-115204000D01*
X218533223Y-115179597D01*
X218648785Y-115131730D01*
X218752789Y-115062237D01*
X218841237Y-114973789D01*
X218910730Y-114869785D01*
X218948000Y-114779806D01*
X218985270Y-114869785D01*
X219054763Y-114973789D01*
X219143211Y-115062237D01*
X219247215Y-115131730D01*
X219362777Y-115179597D01*
X219485458Y-115204000D01*
X219610542Y-115204000D01*
X220310542Y-115204000D01*
X220433223Y-115179597D01*
X220500217Y-115151847D01*
X220599000Y-115250630D01*
X220599000Y-115660822D01*
X220548785Y-115627270D01*
X220433223Y-115579403D01*
X220310542Y-115555000D01*
X220185458Y-115555000D01*
X219485458Y-115555000D01*
X219362777Y-115579403D01*
X219247215Y-115627270D01*
X219143211Y-115696763D01*
X219054763Y-115785211D01*
X218985270Y-115889215D01*
X218948000Y-115979193D01*
X218910730Y-115889215D01*
X218841237Y-115785211D01*
X218752789Y-115696763D01*
X218648785Y-115627270D01*
X218533223Y-115579403D01*
X218410542Y-115555000D01*
X218285458Y-115555000D01*
X217871000Y-115555000D01*
X217871000Y-115045250D01*
X217871000Y-114046000D01*
X217871000Y-113792000D01*
X217871000Y-112792750D01*
X217712250Y-112634000D01*
X217585458Y-112634000D01*
X217462777Y-112658403D01*
X217347215Y-112706270D01*
X217243211Y-112775763D01*
X217154763Y-112864211D01*
X217085270Y-112968215D01*
X217037403Y-113083777D01*
X217013000Y-113206458D01*
X217013000Y-113331542D01*
X217013000Y-113633250D01*
X217171750Y-113792000D01*
X217871000Y-113792000D01*
X217871000Y-114046000D01*
X217171750Y-114046000D01*
X217013000Y-114204750D01*
X217013000Y-114506458D01*
X217013000Y-114631542D01*
X217037403Y-114754223D01*
X217085270Y-114869785D01*
X217154763Y-114973789D01*
X217243211Y-115062237D01*
X217347215Y-115131730D01*
X217462777Y-115179597D01*
X217585458Y-115204000D01*
X217712250Y-115204000D01*
X217871000Y-115045250D01*
X217871000Y-115555000D01*
X217585458Y-115555000D01*
X217462777Y-115579403D01*
X217347215Y-115627270D01*
X217243211Y-115696763D01*
X217154763Y-115785211D01*
X217085270Y-115889215D01*
X217037403Y-116004777D01*
X217013000Y-116127458D01*
X217013000Y-116252542D01*
X217013000Y-117552542D01*
X217037403Y-117675223D01*
X217085270Y-117790785D01*
X217154763Y-117894789D01*
X217236000Y-117976026D01*
X217236000Y-118202031D01*
X217143642Y-118183660D01*
X217018558Y-118183660D01*
X216566750Y-118183660D01*
X216408000Y-118342410D01*
X216408000Y-119992140D01*
X217557350Y-119992140D01*
X217716100Y-119833390D01*
X217716100Y-119479730D01*
X217868376Y-119632006D01*
X217867081Y-119724767D01*
X217905297Y-119932990D01*
X217983230Y-120129825D01*
X218097910Y-120307773D01*
X218244969Y-120460058D01*
X218418807Y-120580879D01*
X218612802Y-120665633D01*
X218819564Y-120711093D01*
X219031219Y-120715526D01*
X219239704Y-120678765D01*
X219437077Y-120602208D01*
X219615822Y-120488773D01*
X219769130Y-120342780D01*
X219891161Y-120169790D01*
X219977268Y-119976392D01*
X220024170Y-119769952D01*
X220027546Y-119528150D01*
X219990518Y-119341148D01*
X220441185Y-119791815D01*
X220495599Y-119836512D01*
X220549495Y-119881736D01*
X220553002Y-119883664D01*
X220556103Y-119886211D01*
X220618168Y-119919489D01*
X220679816Y-119953381D01*
X220683636Y-119954592D01*
X220687167Y-119956486D01*
X220754464Y-119977060D01*
X220821571Y-119998348D01*
X220825554Y-119998794D01*
X220829385Y-119999966D01*
X220899372Y-120007075D01*
X220969361Y-120014926D01*
X220977197Y-120014980D01*
X220977340Y-120014995D01*
X220977473Y-120014982D01*
X220980000Y-120015000D01*
X222075013Y-120015000D01*
X222105637Y-120073578D01*
X222288903Y-120301515D01*
X222512952Y-120489515D01*
X222769251Y-120630416D01*
X223048036Y-120718852D01*
X223338688Y-120751454D01*
X223359612Y-120751600D01*
X223680388Y-120751600D01*
X223971468Y-120723059D01*
X224251460Y-120638525D01*
X224509701Y-120501216D01*
X224736353Y-120316363D01*
X224922784Y-120091006D01*
X225061892Y-119833731D01*
X225148379Y-119554335D01*
X225178951Y-119263462D01*
X225152444Y-118972190D01*
X225069866Y-118691615D01*
X224934363Y-118432422D01*
X224751097Y-118204485D01*
X224527048Y-118016485D01*
X224467413Y-117983700D01*
X224509701Y-117961216D01*
X224736353Y-117776363D01*
X224922784Y-117551006D01*
X225061892Y-117293731D01*
X225148379Y-117014335D01*
X225178951Y-116723462D01*
X225152444Y-116432190D01*
X225069866Y-116151615D01*
X224934363Y-115892422D01*
X224751097Y-115664485D01*
X224527048Y-115476485D01*
X224467413Y-115443700D01*
X224509701Y-115421216D01*
X224736353Y-115236363D01*
X224922784Y-115011006D01*
X225061892Y-114753731D01*
X225148379Y-114474335D01*
X225178951Y-114183462D01*
X225152444Y-113892190D01*
X225069866Y-113611615D01*
X224934363Y-113352422D01*
X224751097Y-113124485D01*
X224527048Y-112936485D01*
X224270749Y-112795584D01*
X223991964Y-112707148D01*
X223701312Y-112674546D01*
X223680388Y-112674400D01*
X223359612Y-112674400D01*
X223068532Y-112702941D01*
X222788540Y-112787475D01*
X222530299Y-112924784D01*
X222303647Y-113109637D01*
X222170823Y-113270193D01*
X221996000Y-113095369D01*
X221996000Y-111887000D01*
X221989130Y-111816936D01*
X221982997Y-111746830D01*
X221981879Y-111742982D01*
X221981488Y-111738993D01*
X221961135Y-111671581D01*
X221941506Y-111604018D01*
X221939662Y-111600462D01*
X221938504Y-111596624D01*
X221905443Y-111534446D01*
X221873067Y-111471986D01*
X221870568Y-111468855D01*
X221868686Y-111465316D01*
X221824199Y-111410769D01*
X221780286Y-111355760D01*
X221774784Y-111350181D01*
X221774693Y-111350069D01*
X221774589Y-111349983D01*
X221772816Y-111348185D01*
X221010815Y-110586185D01*
X220956400Y-110541487D01*
X220902505Y-110496264D01*
X220898997Y-110494335D01*
X220895897Y-110491789D01*
X220883000Y-110484873D01*
X220883000Y-110412458D01*
X220858597Y-110289777D01*
X220810730Y-110174215D01*
X220741237Y-110070211D01*
X220652789Y-109981763D01*
X220649342Y-109979460D01*
X221768982Y-109979460D01*
X221891663Y-109955057D01*
X222007225Y-109907190D01*
X222111229Y-109837697D01*
X222199677Y-109749249D01*
X222269170Y-109645245D01*
X222317037Y-109529683D01*
X222321544Y-109507020D01*
X222856389Y-109507020D01*
X222883495Y-109534125D01*
X222732509Y-109632928D01*
X222517432Y-109843547D01*
X222347361Y-110091930D01*
X222228773Y-110368617D01*
X222166186Y-110663067D01*
X222161983Y-110964067D01*
X222216324Y-111260150D01*
X222327140Y-111540040D01*
X222490210Y-111793075D01*
X222699322Y-112009617D01*
X222946512Y-112181419D01*
X223222364Y-112301935D01*
X223516371Y-112366577D01*
X223817334Y-112372881D01*
X224113789Y-112320608D01*
X224394446Y-112211748D01*
X224648613Y-112050449D01*
X224866610Y-111842854D01*
X225040132Y-111596869D01*
X225162572Y-111321866D01*
X225229265Y-111028317D01*
X225234066Y-110684486D01*
X225175595Y-110389190D01*
X225060882Y-110110874D01*
X224894295Y-109860141D01*
X224682180Y-109646540D01*
X224461000Y-109497351D01*
X224461000Y-109272000D01*
X224454125Y-109201890D01*
X224447996Y-109131829D01*
X224446879Y-109127985D01*
X224446488Y-109123993D01*
X224426126Y-109056552D01*
X224406506Y-108989018D01*
X224404662Y-108985462D01*
X224403504Y-108981624D01*
X224370454Y-108919467D01*
X224338067Y-108856985D01*
X224335566Y-108853852D01*
X224333686Y-108850316D01*
X224289216Y-108795791D01*
X224245286Y-108740760D01*
X224239784Y-108735181D01*
X224239693Y-108735069D01*
X224239589Y-108734983D01*
X224237815Y-108733184D01*
X223710835Y-108206205D01*
X223656420Y-108161507D01*
X223602525Y-108116284D01*
X223599017Y-108114355D01*
X223595917Y-108111809D01*
X223533851Y-108078530D01*
X223472204Y-108044639D01*
X223468383Y-108043427D01*
X223464853Y-108041534D01*
X223397555Y-108020959D01*
X223330449Y-107999672D01*
X223326465Y-107999225D01*
X223322635Y-107998054D01*
X223252647Y-107990944D01*
X223182659Y-107983094D01*
X223174822Y-107983039D01*
X223174680Y-107983025D01*
X223174546Y-107983037D01*
X223172020Y-107983020D01*
X222321544Y-107983020D01*
X222317037Y-107960357D01*
X222269170Y-107844795D01*
X222199677Y-107740791D01*
X222154886Y-107696000D01*
X222199677Y-107651209D01*
X222269170Y-107547205D01*
X222317037Y-107431643D01*
X222341440Y-107308962D01*
X222341440Y-107183878D01*
X222341440Y-107062229D01*
X222490210Y-107293075D01*
X222699322Y-107509617D01*
X222946512Y-107681419D01*
X223222364Y-107801935D01*
X223516371Y-107866577D01*
X223817334Y-107872881D01*
X224113789Y-107820608D01*
X224394446Y-107711748D01*
X224648613Y-107550449D01*
X224866610Y-107342854D01*
X225040039Y-107097000D01*
X228863848Y-107097000D01*
X228990210Y-107293075D01*
X229199322Y-107509617D01*
X229446512Y-107681419D01*
X229722364Y-107801935D01*
X230016371Y-107866577D01*
X230317334Y-107872881D01*
X230613789Y-107820608D01*
X230894446Y-107711748D01*
X231148613Y-107550449D01*
X231366610Y-107342854D01*
X231540132Y-107096869D01*
X231662572Y-106821866D01*
X231729265Y-106528317D01*
X231734066Y-106184486D01*
X231675595Y-105889190D01*
X231560882Y-105610874D01*
X231394295Y-105360141D01*
X231182180Y-105146540D01*
X230932616Y-104978206D01*
X230655108Y-104861553D01*
X230360228Y-104801023D01*
X230059206Y-104798921D01*
X229763509Y-104855328D01*
X229484400Y-104968096D01*
X229232509Y-105132928D01*
X229017432Y-105343547D01*
X228860322Y-105573000D01*
X225035718Y-105573000D01*
X224894295Y-105360141D01*
X224682180Y-105146540D01*
X224432616Y-104978206D01*
X224155108Y-104861553D01*
X223860228Y-104801023D01*
X223559206Y-104798921D01*
X223263509Y-104855328D01*
X222984400Y-104968096D01*
X222847990Y-105057359D01*
X220375815Y-102585185D01*
X220321400Y-102540487D01*
X220267505Y-102495264D01*
X220263997Y-102493335D01*
X220260897Y-102490789D01*
X220198831Y-102457510D01*
X220137184Y-102423619D01*
X220133363Y-102422407D01*
X220129833Y-102420514D01*
X220062535Y-102399939D01*
X219995429Y-102378652D01*
X219991445Y-102378205D01*
X219987615Y-102377034D01*
X219917627Y-102369924D01*
X219847639Y-102362074D01*
X219839802Y-102362019D01*
X219839660Y-102362005D01*
X219839526Y-102362017D01*
X219837000Y-102362000D01*
X217866630Y-102362000D01*
X216184815Y-100680185D01*
X215295815Y-99791185D01*
X215241400Y-99746487D01*
X215187505Y-99701264D01*
X215183997Y-99699335D01*
X215180897Y-99696789D01*
X215118831Y-99663510D01*
X215057184Y-99629619D01*
X215053363Y-99628407D01*
X215049833Y-99626514D01*
X214982535Y-99605939D01*
X214977500Y-99604341D01*
X214977500Y-97867542D01*
X214977500Y-97742458D01*
X214977500Y-97440750D01*
X214977500Y-96869250D01*
X214977500Y-96567542D01*
X214977500Y-96442458D01*
X214953097Y-96319777D01*
X214905230Y-96204215D01*
X214835737Y-96100211D01*
X214747289Y-96011763D01*
X214643285Y-95942270D01*
X214527723Y-95894403D01*
X214405042Y-95870000D01*
X214278250Y-95870000D01*
X214119500Y-96028750D01*
X214119500Y-97028000D01*
X214818750Y-97028000D01*
X214977500Y-96869250D01*
X214977500Y-97440750D01*
X214818750Y-97282000D01*
X214119500Y-97282000D01*
X214119500Y-98281250D01*
X214278250Y-98440000D01*
X214405042Y-98440000D01*
X214527723Y-98415597D01*
X214643285Y-98367730D01*
X214747289Y-98298237D01*
X214835737Y-98209789D01*
X214905230Y-98105785D01*
X214953097Y-97990223D01*
X214977500Y-97867542D01*
X214977500Y-99604341D01*
X214915429Y-99584652D01*
X214911445Y-99584205D01*
X214907615Y-99583034D01*
X214837627Y-99575924D01*
X214767639Y-99568074D01*
X214759802Y-99568019D01*
X214759660Y-99568005D01*
X214759526Y-99568017D01*
X214757000Y-99568000D01*
X213294630Y-99568000D01*
X212854500Y-99127869D01*
X212854500Y-98291026D01*
X212935737Y-98209789D01*
X213005230Y-98105785D01*
X213042500Y-98015806D01*
X213079770Y-98105785D01*
X213149263Y-98209789D01*
X213237711Y-98298237D01*
X213341715Y-98367730D01*
X213457277Y-98415597D01*
X213579958Y-98440000D01*
X213706750Y-98440000D01*
X213865500Y-98281250D01*
X213865500Y-97282000D01*
X213845500Y-97282000D01*
X213845500Y-97028000D01*
X213865500Y-97028000D01*
X213865500Y-96028750D01*
X213706750Y-95870000D01*
X213579958Y-95870000D01*
X213457277Y-95894403D01*
X213341715Y-95942270D01*
X213237711Y-96011763D01*
X213149263Y-96100211D01*
X213079770Y-96204215D01*
X213042500Y-96294193D01*
X213005230Y-96204215D01*
X212935737Y-96100211D01*
X212854500Y-96018974D01*
X212854500Y-95402400D01*
X213295542Y-95402400D01*
X213418223Y-95377997D01*
X213533785Y-95330130D01*
X213637789Y-95260637D01*
X213726237Y-95172189D01*
X213795730Y-95068185D01*
X213843597Y-94952623D01*
X213868000Y-94829942D01*
X213868000Y-94704858D01*
X213868000Y-93130058D01*
X213843597Y-93007377D01*
X213815108Y-92938600D01*
X215708542Y-92938600D01*
X215831223Y-92914197D01*
X215946785Y-92866330D01*
X216050789Y-92796837D01*
X216139237Y-92708389D01*
X216208730Y-92604385D01*
X216256597Y-92488823D01*
X216281000Y-92366142D01*
X216281000Y-92241058D01*
X216281000Y-90513858D01*
X216256597Y-90391177D01*
X216208730Y-90275615D01*
X216139237Y-90171611D01*
X216050789Y-90083163D01*
X215946785Y-90013670D01*
X215839272Y-89969137D01*
X215846353Y-89963363D01*
X216032784Y-89738006D01*
X216171892Y-89480731D01*
X216258379Y-89201335D01*
X216288951Y-88910462D01*
X216262444Y-88619190D01*
X216179866Y-88338615D01*
X216044363Y-88079422D01*
X215861097Y-87851485D01*
X215637048Y-87663485D01*
X215577413Y-87630700D01*
X215619701Y-87608216D01*
X215846353Y-87423363D01*
X216032784Y-87198006D01*
X216171892Y-86940731D01*
X216258379Y-86661335D01*
X216288951Y-86370462D01*
X216262444Y-86079190D01*
X216179866Y-85798615D01*
X216044363Y-85539422D01*
X215861097Y-85311485D01*
X215637048Y-85123485D01*
X215577413Y-85090700D01*
X215619701Y-85068216D01*
X215846353Y-84883363D01*
X216032784Y-84658006D01*
X216171892Y-84400731D01*
X216258379Y-84121335D01*
X216288951Y-83830462D01*
X216262444Y-83539190D01*
X216179866Y-83258615D01*
X216044363Y-82999422D01*
X215861097Y-82771485D01*
X215637048Y-82583485D01*
X215577413Y-82550700D01*
X215619701Y-82528216D01*
X215846353Y-82343363D01*
X216032784Y-82118006D01*
X216171892Y-81860731D01*
X216258379Y-81581335D01*
X216288951Y-81290462D01*
X216262444Y-80999190D01*
X216179866Y-80718615D01*
X216044363Y-80459422D01*
X215861097Y-80231485D01*
X215637048Y-80043485D01*
X215575127Y-80009444D01*
X215781729Y-79858486D01*
X215980733Y-79642035D01*
X216133686Y-79390919D01*
X216234709Y-79114789D01*
X216237358Y-79099026D01*
X216116217Y-78867000D01*
X214757000Y-78867000D01*
X214757000Y-78887000D01*
X214503000Y-78887000D01*
X214503000Y-78867000D01*
X213702852Y-78867000D01*
X213143783Y-78867000D01*
X212217000Y-78867000D01*
X212217000Y-78887000D01*
X211963000Y-78887000D01*
X211963000Y-78867000D01*
X210477148Y-78867000D01*
X210354990Y-79087060D01*
X210371672Y-79166996D01*
X210481159Y-79424646D01*
X210638808Y-79655986D01*
X210838560Y-79852125D01*
X211072738Y-80005526D01*
X211092446Y-80013479D01*
X210938653Y-80095253D01*
X210723525Y-80270707D01*
X210546574Y-80484604D01*
X210528516Y-80518000D01*
X208153000Y-80518000D01*
X208082936Y-80524869D01*
X208012830Y-80531003D01*
X208008982Y-80532120D01*
X208004993Y-80532512D01*
X207937581Y-80552864D01*
X207870018Y-80572494D01*
X207866462Y-80574337D01*
X207862624Y-80575496D01*
X207800446Y-80608556D01*
X207737986Y-80640933D01*
X207734855Y-80643431D01*
X207731316Y-80645314D01*
X207676769Y-80689800D01*
X207621760Y-80733714D01*
X207616181Y-80739215D01*
X207616069Y-80739307D01*
X207615983Y-80739410D01*
X207614185Y-80741184D01*
X206852185Y-81503185D01*
X206807487Y-81557599D01*
X206762264Y-81611495D01*
X206760335Y-81615002D01*
X206757789Y-81618103D01*
X206724510Y-81680168D01*
X206690619Y-81741816D01*
X206689407Y-81745636D01*
X206687514Y-81749167D01*
X206666939Y-81816464D01*
X206645652Y-81883571D01*
X206645205Y-81887554D01*
X206644034Y-81891385D01*
X206636924Y-81961372D01*
X206629074Y-82031361D01*
X206629019Y-82039197D01*
X206629005Y-82039340D01*
X206629017Y-82039473D01*
X206629000Y-82042000D01*
X206629000Y-90875872D01*
X206605400Y-90856487D01*
X206551505Y-90811264D01*
X206547997Y-90809335D01*
X206544897Y-90806789D01*
X206482831Y-90773510D01*
X206421184Y-90739619D01*
X206417363Y-90738407D01*
X206413833Y-90736514D01*
X206346535Y-90715939D01*
X206279429Y-90694652D01*
X206275445Y-90694205D01*
X206271615Y-90693034D01*
X206201627Y-90685924D01*
X206131639Y-90678074D01*
X206123802Y-90678019D01*
X206123660Y-90678005D01*
X206123526Y-90678017D01*
X206121000Y-90678000D01*
X206033227Y-90678000D01*
X206024417Y-90661146D01*
X205850469Y-90444799D01*
X205637812Y-90266359D01*
X205461785Y-90169587D01*
X205621347Y-90084747D01*
X205836475Y-89909293D01*
X206013426Y-89695396D01*
X206145461Y-89451202D01*
X206227551Y-89186013D01*
X206256568Y-88909930D01*
X206231408Y-88633469D01*
X206153029Y-88367160D01*
X206024417Y-88121146D01*
X205850469Y-87904799D01*
X205637812Y-87726359D01*
X205461785Y-87629587D01*
X205621347Y-87544747D01*
X205836475Y-87369293D01*
X206013426Y-87155396D01*
X206145461Y-86911202D01*
X206227551Y-86646013D01*
X206256568Y-86369930D01*
X206231408Y-86093469D01*
X206153029Y-85827160D01*
X206024417Y-85581146D01*
X205850469Y-85364799D01*
X205637812Y-85186359D01*
X205461785Y-85089587D01*
X205621347Y-85004747D01*
X205836475Y-84829293D01*
X206013426Y-84615396D01*
X206145461Y-84371202D01*
X206227551Y-84106013D01*
X206256568Y-83829930D01*
X206231408Y-83553469D01*
X206153029Y-83287160D01*
X206024417Y-83041146D01*
X205850469Y-82824799D01*
X205637812Y-82646359D01*
X205461785Y-82549587D01*
X205621347Y-82464747D01*
X205836475Y-82289293D01*
X206013426Y-82075396D01*
X206145461Y-81831202D01*
X206227551Y-81566013D01*
X206256568Y-81289930D01*
X206231408Y-81013469D01*
X206153029Y-80747160D01*
X206024417Y-80501146D01*
X205850469Y-80284799D01*
X205637812Y-80106359D01*
X205461785Y-80009587D01*
X205621347Y-79924747D01*
X205836475Y-79749293D01*
X206013426Y-79535396D01*
X206145461Y-79291202D01*
X206227551Y-79026013D01*
X206256568Y-78749930D01*
X206249572Y-78673057D01*
X207548815Y-77373815D01*
X207593512Y-77319400D01*
X207638736Y-77265505D01*
X207640664Y-77261997D01*
X207643211Y-77258897D01*
X207676509Y-77196796D01*
X207710381Y-77135184D01*
X207711591Y-77131368D01*
X207713487Y-77127833D01*
X207734088Y-77060448D01*
X207755348Y-76993429D01*
X207755794Y-76989451D01*
X207756967Y-76985615D01*
X207764080Y-76915577D01*
X207771926Y-76845639D01*
X207771980Y-76837802D01*
X207771995Y-76837660D01*
X207771982Y-76837526D01*
X207772000Y-76835000D01*
X207772000Y-76707809D01*
X207893723Y-76683597D01*
X208009285Y-76635730D01*
X208113289Y-76566237D01*
X208153000Y-76526526D01*
X208192711Y-76566237D01*
X208296715Y-76635730D01*
X208412277Y-76683597D01*
X208534958Y-76708000D01*
X208660042Y-76708000D01*
X209297870Y-76708000D01*
X209328685Y-76738815D01*
X209383099Y-76783512D01*
X209436995Y-76828736D01*
X209440502Y-76830664D01*
X209443603Y-76833211D01*
X209505668Y-76866489D01*
X209567316Y-76900381D01*
X209571136Y-76901592D01*
X209574667Y-76903486D01*
X209641964Y-76924060D01*
X209709071Y-76945348D01*
X209713054Y-76945794D01*
X209716885Y-76946966D01*
X209786872Y-76954075D01*
X209856861Y-76961926D01*
X209864697Y-76961980D01*
X209864840Y-76961995D01*
X209864973Y-76961982D01*
X209867500Y-76962000D01*
X210526772Y-76962000D01*
X210535583Y-76978854D01*
X210709531Y-77195201D01*
X210922188Y-77373641D01*
X211091689Y-77466825D01*
X211072738Y-77474474D01*
X210838560Y-77627875D01*
X210638808Y-77824014D01*
X210481159Y-78055354D01*
X210371672Y-78313004D01*
X210354990Y-78392940D01*
X210477148Y-78613000D01*
X211963000Y-78613000D01*
X211963000Y-78593000D01*
X212217000Y-78593000D01*
X212217000Y-78613000D01*
X213143783Y-78613000D01*
X213702852Y-78613000D01*
X214503000Y-78613000D01*
X214503000Y-78593000D01*
X214757000Y-78593000D01*
X214757000Y-78613000D01*
X216116217Y-78613000D01*
X216237358Y-78380974D01*
X216234709Y-78365211D01*
X216133686Y-78089081D01*
X215980733Y-77837965D01*
X215781729Y-77621514D01*
X215576205Y-77471343D01*
X215619701Y-77448216D01*
X215846353Y-77263363D01*
X216032784Y-77038006D01*
X216171892Y-76780731D01*
X216258379Y-76501335D01*
X216288951Y-76210462D01*
X216262444Y-75919190D01*
X216179866Y-75638615D01*
X216044363Y-75379422D01*
X215935126Y-75243559D01*
X215946785Y-75238730D01*
X216050789Y-75169237D01*
X216139237Y-75080789D01*
X216208730Y-74976785D01*
X216256597Y-74861223D01*
X216281000Y-74738542D01*
X216281000Y-74613458D01*
X216281000Y-72581458D01*
X216256597Y-72458777D01*
X216208730Y-72343215D01*
X216139237Y-72239211D01*
X216050789Y-72150763D01*
X215964891Y-72093368D01*
X215992262Y-72060749D01*
X216147492Y-71778386D01*
X216244922Y-71471250D01*
X216280839Y-71151040D01*
X216281000Y-71127988D01*
X216281000Y-71112012D01*
X216249557Y-70791331D01*
X216156426Y-70482865D01*
X216005153Y-70198363D01*
X215873344Y-70036749D01*
X215946785Y-70006330D01*
X216050789Y-69936837D01*
X216139237Y-69848389D01*
X216208730Y-69744385D01*
X216256597Y-69628823D01*
X216281000Y-69506142D01*
X216281000Y-69381058D01*
X216281000Y-67653858D01*
X216256597Y-67531177D01*
X216208730Y-67415615D01*
X216139237Y-67311611D01*
X216050789Y-67223163D01*
X215946785Y-67153670D01*
X215839272Y-67109137D01*
X215846353Y-67103363D01*
X216032784Y-66878006D01*
X216171892Y-66620731D01*
X216258379Y-66341335D01*
X216288951Y-66050462D01*
X216262444Y-65759190D01*
X216179866Y-65478615D01*
X216044363Y-65219422D01*
X215861097Y-64991485D01*
X215637048Y-64803485D01*
X215577413Y-64770700D01*
X215619701Y-64748216D01*
X215846353Y-64563363D01*
X216032784Y-64338006D01*
X216171892Y-64080731D01*
X216258379Y-63801335D01*
X216288951Y-63510462D01*
X216262444Y-63219190D01*
X216179866Y-62938615D01*
X216044363Y-62679422D01*
X215861097Y-62451485D01*
X215637048Y-62263485D01*
X215577413Y-62230700D01*
X215619701Y-62208216D01*
X215846353Y-62023363D01*
X216032784Y-61798006D01*
X216171892Y-61540731D01*
X216258379Y-61261335D01*
X216288951Y-60970462D01*
X216262444Y-60679190D01*
X216179866Y-60398615D01*
X216044363Y-60139422D01*
X215861097Y-59911485D01*
X215637048Y-59723485D01*
X215380749Y-59582584D01*
X215101964Y-59494148D01*
X214811312Y-59461546D01*
X214790388Y-59461400D01*
X214469612Y-59461400D01*
X214178532Y-59489941D01*
X213898540Y-59574475D01*
X213640299Y-59711784D01*
X213413647Y-59896637D01*
X213403645Y-59908727D01*
X213257812Y-59786359D01*
X213014546Y-59652622D01*
X212749937Y-59568683D01*
X212474063Y-59537739D01*
X212454203Y-59537600D01*
X211725797Y-59537600D01*
X211449518Y-59564689D01*
X211183762Y-59644926D01*
X210938653Y-59775253D01*
X210723525Y-59950707D01*
X210546574Y-60164604D01*
X210414539Y-60408798D01*
X210332449Y-60673987D01*
X210303432Y-60950070D01*
X210328592Y-61226531D01*
X210406971Y-61492840D01*
X210535583Y-61738854D01*
X210709531Y-61955201D01*
X210922188Y-62133641D01*
X211098214Y-62230412D01*
X210938653Y-62315253D01*
X210723525Y-62490707D01*
X210546574Y-62704604D01*
X210414539Y-62948798D01*
X210332449Y-63213987D01*
X210303432Y-63490070D01*
X210328592Y-63766531D01*
X210406971Y-64032840D01*
X210535583Y-64278854D01*
X210709531Y-64495201D01*
X210922188Y-64673641D01*
X211098214Y-64770412D01*
X210938653Y-64855253D01*
X210723525Y-65030707D01*
X210546574Y-65244604D01*
X210414539Y-65488798D01*
X210392631Y-65559570D01*
X210380754Y-65530753D01*
X210263600Y-65354423D01*
X210114428Y-65204207D01*
X209938921Y-65085825D01*
X209743761Y-65003788D01*
X209536384Y-64961219D01*
X209324689Y-64959741D01*
X209116738Y-64999410D01*
X208920452Y-65078715D01*
X208743308Y-65194634D01*
X208592054Y-65342753D01*
X208472450Y-65517431D01*
X208389052Y-65712012D01*
X208345037Y-65919087D01*
X208342081Y-66130767D01*
X208380297Y-66338990D01*
X208458230Y-66535825D01*
X208572910Y-66713773D01*
X208661000Y-66804993D01*
X208661000Y-68072000D01*
X208534958Y-68072000D01*
X208412277Y-68096403D01*
X208296715Y-68144270D01*
X208192711Y-68213763D01*
X208104263Y-68302211D01*
X208034770Y-68406215D01*
X208012707Y-68459478D01*
X208018080Y-68406577D01*
X208025926Y-68336639D01*
X208025980Y-68328802D01*
X208025995Y-68328660D01*
X208025982Y-68328526D01*
X208026000Y-68326000D01*
X208026000Y-56090217D01*
X208269538Y-56115814D01*
X208560810Y-56089307D01*
X208841385Y-56006729D01*
X209100578Y-55871226D01*
X209328515Y-55687960D01*
X209516515Y-55463911D01*
X209549299Y-55404276D01*
X209571784Y-55446564D01*
X209756637Y-55673216D01*
X209981994Y-55859647D01*
X210239269Y-55998755D01*
X210518665Y-56085242D01*
X210809538Y-56115814D01*
X211100810Y-56089307D01*
X211381385Y-56006729D01*
X211640578Y-55871226D01*
X211868515Y-55687960D01*
X212056515Y-55463911D01*
X212107043Y-55372000D01*
X213171370Y-55372000D01*
X213550376Y-55751006D01*
X213549081Y-55843767D01*
X213587297Y-56051990D01*
X213665230Y-56248825D01*
X213779910Y-56426773D01*
X213926969Y-56579058D01*
X214100807Y-56699879D01*
X214294802Y-56784633D01*
X214501564Y-56830093D01*
X214713219Y-56834526D01*
X214921704Y-56797765D01*
X215119077Y-56721208D01*
X215297822Y-56607773D01*
X215451130Y-56461780D01*
X215573161Y-56288790D01*
X215659268Y-56095392D01*
X215706170Y-55888952D01*
X215709546Y-55647150D01*
X215668426Y-55439481D01*
X215587754Y-55243753D01*
X215470600Y-55067423D01*
X215321428Y-54917207D01*
X215145921Y-54798825D01*
X214950761Y-54716788D01*
X214743384Y-54674219D01*
X214628043Y-54673413D01*
X214025815Y-54071185D01*
X213971400Y-54026487D01*
X213917505Y-53981264D01*
X213913997Y-53979335D01*
X213910897Y-53976789D01*
X213848831Y-53943510D01*
X213787184Y-53909619D01*
X213783363Y-53908407D01*
X213779833Y-53906514D01*
X213712535Y-53885939D01*
X213645429Y-53864652D01*
X213641445Y-53864205D01*
X213637615Y-53863034D01*
X213567627Y-53855924D01*
X213497639Y-53848074D01*
X213489802Y-53848019D01*
X213489660Y-53848005D01*
X213489526Y-53848017D01*
X213487000Y-53848000D01*
X212107862Y-53848000D01*
X212068216Y-53773436D01*
X211883363Y-53546784D01*
X211658006Y-53360353D01*
X211622050Y-53340911D01*
X211640578Y-53331226D01*
X211868515Y-53147960D01*
X212056515Y-52923911D01*
X212197416Y-52667612D01*
X212285852Y-52388827D01*
X212318454Y-52098175D01*
X212318600Y-52077251D01*
X212318600Y-52062749D01*
X212290059Y-51771669D01*
X212205525Y-51491677D01*
X212068216Y-51233436D01*
X211883363Y-51006784D01*
X211658006Y-50820353D01*
X211400731Y-50681245D01*
X211121335Y-50594758D01*
X210830462Y-50564186D01*
X210539190Y-50590693D01*
X210258615Y-50673271D01*
X209999422Y-50808774D01*
X209771485Y-50992040D01*
X209583485Y-51216089D01*
X209550700Y-51275723D01*
X209528216Y-51233436D01*
X209343363Y-51006784D01*
X209118006Y-50820353D01*
X208860731Y-50681245D01*
X208581335Y-50594758D01*
X208290462Y-50564186D01*
X207999190Y-50590693D01*
X207905807Y-50618177D01*
X206913815Y-49626185D01*
X206859400Y-49581487D01*
X206805505Y-49536264D01*
X206801997Y-49534335D01*
X206798897Y-49531789D01*
X206736831Y-49498510D01*
X206675184Y-49464619D01*
X206671363Y-49463407D01*
X206667833Y-49461514D01*
X206600535Y-49440939D01*
X206533429Y-49419652D01*
X206529445Y-49419205D01*
X206525615Y-49418034D01*
X206455627Y-49410924D01*
X206385639Y-49403074D01*
X206377802Y-49403019D01*
X206377660Y-49403005D01*
X206377526Y-49403017D01*
X206375000Y-49403000D01*
X203835000Y-49403000D01*
X203764936Y-49409869D01*
X203694830Y-49416003D01*
X203690982Y-49417120D01*
X203686993Y-49417512D01*
X203619627Y-49437850D01*
X203552018Y-49457493D01*
X203548457Y-49459338D01*
X203544624Y-49460496D01*
X203482482Y-49493537D01*
X203419986Y-49525933D01*
X203416855Y-49528431D01*
X203413316Y-49530314D01*
X203358769Y-49574800D01*
X203303760Y-49618714D01*
X203298181Y-49624215D01*
X203298069Y-49624307D01*
X203297983Y-49624410D01*
X203296185Y-49626184D01*
X199486185Y-53436185D01*
X199441487Y-53490599D01*
X199440000Y-53492372D01*
X199440000Y-48437000D01*
X217120000Y-48437000D01*
X217120000Y-96925000D01*
X217120011Y-96925121D01*
X217120004Y-96927420D01*
X217120041Y-96937892D01*
X217123064Y-96967648D01*
X217122856Y-96997554D01*
X217123789Y-97007073D01*
X217154389Y-97298218D01*
X217166877Y-97359054D01*
X217178507Y-97420021D01*
X217181271Y-97429177D01*
X217267839Y-97708833D01*
X217291896Y-97766062D01*
X217315156Y-97823632D01*
X217319646Y-97832077D01*
X217458885Y-98089593D01*
X217493604Y-98141065D01*
X217527597Y-98193012D01*
X217533642Y-98200424D01*
X217533644Y-98200426D01*
X217720247Y-98425991D01*
X217764300Y-98469738D01*
X217807739Y-98514096D01*
X217815109Y-98520193D01*
X218041973Y-98705219D01*
X218093690Y-98739580D01*
X218144912Y-98774652D01*
X218153325Y-98779201D01*
X218411806Y-98916638D01*
X218469241Y-98940311D01*
X218526270Y-98964754D01*
X218535407Y-98967583D01*
X218815661Y-99052197D01*
X218876576Y-99064258D01*
X218937293Y-99077164D01*
X218946804Y-99078164D01*
X219238156Y-99106731D01*
X219266887Y-99106730D01*
X219295436Y-99109933D01*
X219305000Y-99110000D01*
X231511496Y-99110000D01*
X231702663Y-99128743D01*
X231854321Y-99174532D01*
X231994195Y-99248904D01*
X232116961Y-99349030D01*
X232217940Y-99471093D01*
X232293290Y-99610449D01*
X232340135Y-99761780D01*
X232360000Y-99950782D01*
X232360000Y-104106495D01*
X232360000Y-104106495D01*
G37*
X232360000Y-104106495D02*
X231898177Y-108816525D01*
X231524103Y-110055518D01*
X231394295Y-109860141D01*
X231182180Y-109646540D01*
X230932616Y-109478206D01*
X230655108Y-109361553D01*
X230360228Y-109301023D01*
X230059206Y-109298921D01*
X229763509Y-109355328D01*
X229484400Y-109468096D01*
X229232509Y-109632928D01*
X229017432Y-109843547D01*
X228847361Y-110091930D01*
X228728773Y-110368617D01*
X228666186Y-110663067D01*
X228661983Y-110964067D01*
X228716324Y-111260150D01*
X228827140Y-111540040D01*
X228990210Y-111793075D01*
X229199322Y-112009617D01*
X229446512Y-112181419D01*
X229722364Y-112301935D01*
X230016371Y-112366577D01*
X230317334Y-112372881D01*
X230613789Y-112320608D01*
X230870268Y-112221125D01*
X230540031Y-113314924D01*
X228334008Y-117463850D01*
X225364132Y-121105276D01*
X221743527Y-124100501D01*
X217610103Y-126335435D01*
X215817197Y-126890432D01*
X216819815Y-125887816D01*
X216864510Y-125833402D01*
X216909736Y-125779505D01*
X216911666Y-125775993D01*
X216914210Y-125772897D01*
X216947468Y-125710870D01*
X216977446Y-125656340D01*
X217143642Y-125656340D01*
X217266323Y-125631937D01*
X217381885Y-125584070D01*
X217485889Y-125514577D01*
X217574337Y-125426129D01*
X217643830Y-125322125D01*
X217691697Y-125206563D01*
X217716100Y-125083882D01*
X217716100Y-124958798D01*
X217716100Y-124456285D01*
X217743599Y-124447982D01*
X217811122Y-124428366D01*
X217814677Y-124426522D01*
X217818516Y-124425364D01*
X217880693Y-124392303D01*
X217943154Y-124359927D01*
X217946284Y-124357428D01*
X217949824Y-124355546D01*
X218004370Y-124311059D01*
X218059380Y-124267146D01*
X218064954Y-124261647D01*
X218065071Y-124261553D01*
X218065160Y-124261445D01*
X218066955Y-124259675D01*
X218945891Y-123380738D01*
X219031219Y-123382526D01*
X219239704Y-123345765D01*
X219437077Y-123269208D01*
X219615822Y-123155773D01*
X219769130Y-123009780D01*
X219891161Y-122836790D01*
X219977268Y-122643392D01*
X220024170Y-122436952D01*
X220027546Y-122195150D01*
X219986426Y-121987481D01*
X219905754Y-121791753D01*
X219788600Y-121615423D01*
X219639428Y-121465207D01*
X219463921Y-121346825D01*
X219268761Y-121264788D01*
X219061384Y-121222219D01*
X218849689Y-121220741D01*
X218641738Y-121260410D01*
X218445452Y-121339715D01*
X218268308Y-121455634D01*
X218117054Y-121603753D01*
X217997450Y-121778431D01*
X217914052Y-121973012D01*
X217870037Y-122180087D01*
X217868319Y-122303049D01*
X217716100Y-122455269D01*
X217716100Y-122357838D01*
X217691697Y-122235157D01*
X217643830Y-122119595D01*
X217574337Y-122015591D01*
X217485889Y-121927143D01*
X217475198Y-121920000D01*
X217485889Y-121912857D01*
X217574337Y-121824409D01*
X217643830Y-121720405D01*
X217691697Y-121604843D01*
X217716100Y-121482162D01*
X217716100Y-120404890D01*
X217557350Y-120246140D01*
X216408000Y-120246140D01*
X216408000Y-120266140D01*
X216154000Y-120266140D01*
X216154000Y-120246140D01*
X216154000Y-119992140D01*
X216154000Y-118342410D01*
X215995250Y-118183660D01*
X215543442Y-118183660D01*
X215418358Y-118183660D01*
X215295677Y-118208063D01*
X215180115Y-118255930D01*
X215076111Y-118325423D01*
X214987663Y-118413871D01*
X214918170Y-118517875D01*
X214870303Y-118633437D01*
X214845900Y-118756118D01*
X214845900Y-119833390D01*
X215004650Y-119992140D01*
X216154000Y-119992140D01*
X216154000Y-120246140D01*
X215004650Y-120246140D01*
X214845900Y-120404890D01*
X214845900Y-121482162D01*
X214870303Y-121604843D01*
X214918170Y-121720405D01*
X214987663Y-121824409D01*
X215076111Y-121912857D01*
X215086801Y-121920000D01*
X215076111Y-121927143D01*
X214987663Y-122015591D01*
X214918170Y-122119595D01*
X214870303Y-122235157D01*
X214845900Y-122357838D01*
X214845900Y-122482922D01*
X214845900Y-124507631D01*
X214825754Y-124458753D01*
X214708600Y-124282423D01*
X214559428Y-124132207D01*
X214383921Y-124013825D01*
X214188761Y-123931788D01*
X213981384Y-123889219D01*
X213858858Y-123888363D01*
X213844400Y-123876487D01*
X213790505Y-123831264D01*
X213786997Y-123829335D01*
X213783897Y-123826789D01*
X213721831Y-123793510D01*
X213660184Y-123759619D01*
X213656363Y-123758407D01*
X213652833Y-123756514D01*
X213585535Y-123735939D01*
X213518429Y-123714652D01*
X213514445Y-123714205D01*
X213510615Y-123713034D01*
X213440627Y-123705924D01*
X213370639Y-123698074D01*
X213362802Y-123698019D01*
X213362660Y-123698005D01*
X213362526Y-123698017D01*
X213360000Y-123698000D01*
X213180108Y-123698000D01*
X213160730Y-123651215D01*
X213091237Y-123547211D01*
X213002789Y-123458763D01*
X212898785Y-123389270D01*
X212783223Y-123341403D01*
X212660542Y-123317000D01*
X212783223Y-123292597D01*
X212898785Y-123244730D01*
X213002789Y-123175237D01*
X213091237Y-123086789D01*
X213160730Y-122982785D01*
X213208597Y-122867223D01*
X213233000Y-122744542D01*
X213233000Y-122459750D01*
X213074250Y-122301000D01*
X211709000Y-122301000D01*
X211709000Y-122321000D01*
X211455000Y-122321000D01*
X211455000Y-122301000D01*
X210089750Y-122301000D01*
X209931000Y-122459750D01*
X209931000Y-122744542D01*
X209955403Y-122867223D01*
X210003270Y-122982785D01*
X210072763Y-123086789D01*
X210161211Y-123175237D01*
X210265215Y-123244730D01*
X210380777Y-123292597D01*
X210503458Y-123317000D01*
X210380777Y-123341403D01*
X210265215Y-123389270D01*
X210161211Y-123458763D01*
X210072763Y-123547211D01*
X210003270Y-123651215D01*
X209955403Y-123766777D01*
X209931000Y-123889458D01*
X209931000Y-124014542D01*
X209931000Y-125030542D01*
X209955403Y-125153223D01*
X210003270Y-125268785D01*
X210072763Y-125372789D01*
X210161211Y-125461237D01*
X210265215Y-125530730D01*
X210380777Y-125578597D01*
X210503458Y-125603000D01*
X210628542Y-125603000D01*
X212660542Y-125603000D01*
X212783223Y-125578597D01*
X212898785Y-125530730D01*
X212932031Y-125508515D01*
X213017910Y-125641773D01*
X213164969Y-125794058D01*
X213255530Y-125857000D01*
X206629000Y-125857000D01*
X206629000Y-124065342D01*
X206629000Y-122459750D01*
X206470250Y-122301000D01*
X205105000Y-122301000D01*
X205105000Y-124479050D01*
X205263750Y-124637800D01*
X205931458Y-124637800D01*
X206056542Y-124637800D01*
X206179223Y-124613397D01*
X206294785Y-124565530D01*
X206398789Y-124496037D01*
X206487237Y-124407589D01*
X206556730Y-124303585D01*
X206604597Y-124188023D01*
X206629000Y-124065342D01*
X206629000Y-125857000D01*
X204851000Y-125857000D01*
X204851000Y-124479050D01*
X204851000Y-122301000D01*
X203485750Y-122301000D01*
X203327000Y-122459750D01*
X203327000Y-124065342D01*
X203351403Y-124188023D01*
X203399270Y-124303585D01*
X203468763Y-124407589D01*
X203557211Y-124496037D01*
X203661215Y-124565530D01*
X203776777Y-124613397D01*
X203899458Y-124637800D01*
X204024542Y-124637800D01*
X204692250Y-124637800D01*
X204851000Y-124479050D01*
X204851000Y-125857000D01*
X202626630Y-125857000D01*
X201587100Y-124817470D01*
X201587100Y-122611838D01*
X201562697Y-122489157D01*
X201514830Y-122373595D01*
X201445337Y-122269591D01*
X201356889Y-122181143D01*
X201346198Y-122174000D01*
X201356889Y-122166857D01*
X201445337Y-122078409D01*
X201514830Y-121974405D01*
X201562697Y-121858843D01*
X201587100Y-121736162D01*
X201587100Y-121611078D01*
X201587100Y-120925812D01*
X201595100Y-120919426D01*
X201600674Y-120913927D01*
X201600791Y-120913833D01*
X201600880Y-120913725D01*
X201602675Y-120911955D01*
X202626630Y-119888000D01*
X203521174Y-119888000D01*
X203468763Y-119940411D01*
X203399270Y-120044415D01*
X203351403Y-120159977D01*
X203327000Y-120282658D01*
X203327000Y-121888250D01*
X203485750Y-122047000D01*
X204851000Y-122047000D01*
X204851000Y-122027000D01*
X205105000Y-122027000D01*
X205105000Y-122047000D01*
X206470250Y-122047000D01*
X206629000Y-121888250D01*
X206629000Y-120282658D01*
X206604597Y-120159977D01*
X206556730Y-120044415D01*
X206487237Y-119940411D01*
X206434826Y-119888000D01*
X208154869Y-119888000D01*
X208693685Y-120426816D01*
X208748129Y-120471537D01*
X208801995Y-120516736D01*
X208805502Y-120518664D01*
X208808603Y-120521211D01*
X208870703Y-120554509D01*
X208932316Y-120588381D01*
X208936131Y-120589591D01*
X208939667Y-120591487D01*
X209007051Y-120612088D01*
X209074071Y-120633348D01*
X209078048Y-120633794D01*
X209081885Y-120634967D01*
X209151922Y-120642080D01*
X209221861Y-120649926D01*
X209229697Y-120649980D01*
X209229840Y-120649995D01*
X209229973Y-120649982D01*
X209232500Y-120650000D01*
X209983891Y-120650000D01*
X210003270Y-120696785D01*
X210072763Y-120800789D01*
X210161211Y-120889237D01*
X210265215Y-120958730D01*
X210380777Y-121006597D01*
X210503458Y-121031000D01*
X210380777Y-121055403D01*
X210265215Y-121103270D01*
X210161211Y-121172763D01*
X210072763Y-121261211D01*
X210003270Y-121365215D01*
X209955403Y-121480777D01*
X209931000Y-121603458D01*
X209931000Y-121888250D01*
X210089750Y-122047000D01*
X211455000Y-122047000D01*
X211455000Y-121189750D01*
X211296250Y-121031000D01*
X211867750Y-121031000D01*
X211709000Y-121189750D01*
X211709000Y-122047000D01*
X213074250Y-122047000D01*
X213233000Y-121888250D01*
X213233000Y-121603458D01*
X213208597Y-121480777D01*
X213160730Y-121365215D01*
X213091237Y-121261211D01*
X213002789Y-121172763D01*
X212898785Y-121103270D01*
X212783223Y-121055403D01*
X212660542Y-121031000D01*
X212783223Y-121006597D01*
X212898785Y-120958730D01*
X213002789Y-120889237D01*
X213091237Y-120800789D01*
X213160730Y-120696785D01*
X213208597Y-120581223D01*
X213233000Y-120458542D01*
X213233000Y-120333458D01*
X213233000Y-119317458D01*
X213208597Y-119194777D01*
X213160730Y-119079215D01*
X213091237Y-118975211D01*
X213002789Y-118886763D01*
X212898785Y-118817270D01*
X212783223Y-118769403D01*
X212660542Y-118745000D01*
X212535458Y-118745000D01*
X210503458Y-118745000D01*
X210380777Y-118769403D01*
X210265215Y-118817270D01*
X210161211Y-118886763D01*
X210072763Y-118975211D01*
X210003270Y-119079215D01*
X209983891Y-119126000D01*
X209548130Y-119126000D01*
X209009315Y-118587185D01*
X208954900Y-118542487D01*
X208901005Y-118497264D01*
X208897497Y-118495335D01*
X208894397Y-118492789D01*
X208832331Y-118459510D01*
X208770684Y-118425619D01*
X208766863Y-118424407D01*
X208763333Y-118422514D01*
X208696035Y-118401939D01*
X208628929Y-118380652D01*
X208624945Y-118380205D01*
X208621115Y-118379034D01*
X208551127Y-118371924D01*
X208481139Y-118364074D01*
X208473302Y-118364019D01*
X208473160Y-118364005D01*
X208473026Y-118364017D01*
X208470500Y-118364000D01*
X202311000Y-118364000D01*
X202240894Y-118370873D01*
X202170829Y-118377004D01*
X202166985Y-118378120D01*
X202162993Y-118378512D01*
X202095552Y-118398873D01*
X202028018Y-118418494D01*
X202024462Y-118420337D01*
X202020624Y-118421496D01*
X201958467Y-118454545D01*
X201895985Y-118486933D01*
X201892852Y-118489433D01*
X201889316Y-118491314D01*
X201834791Y-118535783D01*
X201779760Y-118579714D01*
X201774181Y-118585215D01*
X201774069Y-118585307D01*
X201773983Y-118585410D01*
X201772184Y-118587185D01*
X201536112Y-118823256D01*
X201514830Y-118771875D01*
X201445337Y-118667871D01*
X201356889Y-118579423D01*
X201252885Y-118509930D01*
X201137323Y-118462063D01*
X201014642Y-118437660D01*
X200889558Y-118437660D01*
X199289358Y-118437660D01*
X199166677Y-118462063D01*
X199051115Y-118509930D01*
X198947111Y-118579423D01*
X198858663Y-118667871D01*
X198789170Y-118771875D01*
X198741303Y-118887437D01*
X198716900Y-119010118D01*
X198716900Y-119135202D01*
X198716900Y-119611140D01*
X198666770Y-119611140D01*
X197395000Y-118339369D01*
X197395000Y-115202458D01*
X197370597Y-115079777D01*
X197322730Y-114964215D01*
X197253237Y-114860211D01*
X197164789Y-114771763D01*
X197060785Y-114702270D01*
X196945223Y-114654403D01*
X196822542Y-114630000D01*
X196697458Y-114630000D01*
X194997458Y-114630000D01*
X194874777Y-114654403D01*
X194759215Y-114702270D01*
X194655211Y-114771763D01*
X194566763Y-114860211D01*
X194497270Y-114964215D01*
X194449403Y-115079777D01*
X194425000Y-115202458D01*
X194425000Y-115327542D01*
X194425000Y-118477542D01*
X194449403Y-118600223D01*
X194497270Y-118715785D01*
X194566763Y-118819789D01*
X194655211Y-118908237D01*
X194759215Y-118977730D01*
X194874777Y-119025597D01*
X194997458Y-119050000D01*
X195122542Y-119050000D01*
X195950369Y-119050000D01*
X197812324Y-120911955D01*
X197866737Y-120956650D01*
X197920635Y-121001876D01*
X197924146Y-121003806D01*
X197927243Y-121006350D01*
X197989269Y-121039608D01*
X198050956Y-121073521D01*
X198054776Y-121074732D01*
X198058307Y-121076626D01*
X198125604Y-121097200D01*
X198192711Y-121118488D01*
X198196694Y-121118934D01*
X198200525Y-121120106D01*
X198270512Y-121127215D01*
X198340501Y-121135066D01*
X198348337Y-121135120D01*
X198348480Y-121135135D01*
X198348613Y-121135122D01*
X198351140Y-121135140D01*
X198716900Y-121135140D01*
X198716900Y-121736162D01*
X198741303Y-121858843D01*
X198789170Y-121974405D01*
X198858663Y-122078409D01*
X198947111Y-122166857D01*
X198957801Y-122174000D01*
X198947111Y-122181143D01*
X198858663Y-122269591D01*
X198789170Y-122373595D01*
X198741303Y-122489157D01*
X198716900Y-122611838D01*
X198716900Y-122736922D01*
X198716900Y-125337882D01*
X198741303Y-125460563D01*
X198789170Y-125576125D01*
X198858663Y-125680129D01*
X198947111Y-125768577D01*
X199051115Y-125838070D01*
X199166677Y-125885937D01*
X199289358Y-125910340D01*
X199414442Y-125910340D01*
X200524710Y-125910340D01*
X201772185Y-127157815D01*
X201826599Y-127202512D01*
X201856360Y-127227484D01*
X199260702Y-126463541D01*
X195096477Y-124286536D01*
X194295000Y-123642131D01*
X194295000Y-118477542D01*
X194295000Y-118352458D01*
X194295000Y-115202458D01*
X194270597Y-115079777D01*
X194222730Y-114964215D01*
X194153237Y-114860211D01*
X194064789Y-114771763D01*
X193960785Y-114702270D01*
X193845223Y-114654403D01*
X193722542Y-114630000D01*
X193597458Y-114630000D01*
X191897458Y-114630000D01*
X191774777Y-114654403D01*
X191659215Y-114702270D01*
X191555211Y-114771763D01*
X191466763Y-114860211D01*
X191397270Y-114964215D01*
X191349403Y-115079777D01*
X191325000Y-115202458D01*
X191325000Y-115327542D01*
X191325000Y-116078000D01*
X191196630Y-116078000D01*
X191008000Y-115889369D01*
X191008000Y-113601309D01*
X191129723Y-113577097D01*
X191245285Y-113529230D01*
X191349289Y-113459737D01*
X191437737Y-113371289D01*
X191507230Y-113267285D01*
X191555097Y-113151723D01*
X191579500Y-113029042D01*
X191579500Y-112903958D01*
X191579500Y-111506958D01*
X191555097Y-111384277D01*
X191507230Y-111268715D01*
X191437737Y-111164711D01*
X191349289Y-111076263D01*
X191245285Y-111006770D01*
X191129723Y-110958903D01*
X191007042Y-110934500D01*
X190881958Y-110934500D01*
X189484958Y-110934500D01*
X189362277Y-110958903D01*
X189246715Y-111006770D01*
X189142711Y-111076263D01*
X189054263Y-111164711D01*
X188984770Y-111268715D01*
X188936903Y-111384277D01*
X188912500Y-111506958D01*
X188912500Y-111632042D01*
X188912500Y-113029042D01*
X188936903Y-113151723D01*
X188984770Y-113267285D01*
X189054263Y-113371289D01*
X189142711Y-113459737D01*
X189246715Y-113529230D01*
X189362277Y-113577097D01*
X189484000Y-113601309D01*
X189484000Y-116205000D01*
X189490874Y-116275113D01*
X189497004Y-116345170D01*
X189498120Y-116349012D01*
X189498512Y-116353007D01*
X189518877Y-116420459D01*
X189538494Y-116487982D01*
X189540337Y-116491537D01*
X189541496Y-116495376D01*
X189574556Y-116557553D01*
X189606933Y-116620014D01*
X189609431Y-116623144D01*
X189611314Y-116626684D01*
X189655800Y-116681230D01*
X189699714Y-116736240D01*
X189705212Y-116741814D01*
X189705307Y-116741931D01*
X189705414Y-116742020D01*
X189707185Y-116743815D01*
X190342185Y-117378816D01*
X190396629Y-117423537D01*
X190450495Y-117468736D01*
X190454002Y-117470664D01*
X190457103Y-117473211D01*
X190519184Y-117506498D01*
X190580816Y-117540381D01*
X190584634Y-117541592D01*
X190588168Y-117543487D01*
X190655537Y-117564083D01*
X190722571Y-117585348D01*
X190726549Y-117585794D01*
X190730385Y-117586967D01*
X190800466Y-117594085D01*
X190870361Y-117601926D01*
X190878186Y-117601980D01*
X190878340Y-117601996D01*
X190878482Y-117601982D01*
X190881000Y-117602000D01*
X191325000Y-117602000D01*
X191325000Y-118477542D01*
X191349403Y-118600223D01*
X191397270Y-118715785D01*
X191466763Y-118819789D01*
X191555211Y-118908237D01*
X191659215Y-118977730D01*
X191774777Y-119025597D01*
X191897458Y-119050000D01*
X192022542Y-119050000D01*
X193722542Y-119050000D01*
X193845223Y-119025597D01*
X193960785Y-118977730D01*
X194064789Y-118908237D01*
X194153237Y-118819789D01*
X194222730Y-118715785D01*
X194270597Y-118600223D01*
X194295000Y-118477542D01*
X194295000Y-123642131D01*
X191434403Y-121342153D01*
X188413976Y-117742549D01*
X186150239Y-113624826D01*
X184729419Y-109145829D01*
X184202146Y-104445089D01*
X184200000Y-104137653D01*
X184200000Y-99958503D01*
X184218743Y-99767336D01*
X184264532Y-99615678D01*
X184338904Y-99475804D01*
X184439030Y-99353038D01*
X184561093Y-99252059D01*
X184700449Y-99176709D01*
X184851780Y-99129864D01*
X185040782Y-99110000D01*
X197255000Y-99110000D01*
X197255121Y-99109988D01*
X197257420Y-99109996D01*
X197267892Y-99109959D01*
X197297648Y-99106935D01*
X197327554Y-99107144D01*
X197337073Y-99106211D01*
X197628218Y-99075611D01*
X197689054Y-99063122D01*
X197750021Y-99051493D01*
X197759177Y-99048729D01*
X198038833Y-98962161D01*
X198096062Y-98938103D01*
X198153632Y-98914844D01*
X198162076Y-98910354D01*
X198162077Y-98910354D01*
X198419593Y-98771115D01*
X198471065Y-98736395D01*
X198523012Y-98702403D01*
X198530424Y-98696358D01*
X198530426Y-98696356D01*
X198755991Y-98509753D01*
X198799738Y-98465699D01*
X198844096Y-98422261D01*
X198850193Y-98414891D01*
X199035219Y-98188027D01*
X199069580Y-98136309D01*
X199104652Y-98085088D01*
X199109201Y-98076675D01*
X199246638Y-97818194D01*
X199270311Y-97760758D01*
X199294754Y-97703730D01*
X199297583Y-97694593D01*
X199382197Y-97414339D01*
X199394258Y-97353423D01*
X199407164Y-97292707D01*
X199408164Y-97283196D01*
X199436731Y-96991844D01*
X199436730Y-96963112D01*
X199439933Y-96934564D01*
X199440000Y-96925000D01*
X199440000Y-64617743D01*
X199478714Y-64666240D01*
X199484212Y-64671814D01*
X199484307Y-64671931D01*
X199484414Y-64672020D01*
X199486185Y-64673815D01*
X200360577Y-65548207D01*
X200301621Y-65738665D01*
X200271049Y-66029538D01*
X200297556Y-66320810D01*
X200380134Y-66601385D01*
X200515637Y-66860578D01*
X200698903Y-67088515D01*
X200922952Y-67276515D01*
X200982586Y-67309299D01*
X200940299Y-67331784D01*
X200713647Y-67516637D01*
X200527216Y-67741994D01*
X200388108Y-67999269D01*
X200301621Y-68278665D01*
X200271049Y-68569538D01*
X200297556Y-68860810D01*
X200380134Y-69141385D01*
X200515637Y-69400578D01*
X200698903Y-69628515D01*
X200922952Y-69816515D01*
X200982586Y-69849299D01*
X200940299Y-69871784D01*
X200713647Y-70056637D01*
X200527216Y-70281994D01*
X200388108Y-70539269D01*
X200301621Y-70818665D01*
X200271049Y-71109538D01*
X200297556Y-71400810D01*
X200380134Y-71681385D01*
X200515637Y-71940578D01*
X200698903Y-72168515D01*
X200922952Y-72356515D01*
X201179251Y-72497416D01*
X201458036Y-72585852D01*
X201748688Y-72618454D01*
X201769612Y-72618600D01*
X202090388Y-72618600D01*
X202381468Y-72590059D01*
X202661460Y-72505525D01*
X202919701Y-72368216D01*
X203146353Y-72183363D01*
X203156354Y-72171272D01*
X203302188Y-72293641D01*
X203471689Y-72386825D01*
X203452738Y-72394474D01*
X203218560Y-72547875D01*
X203018808Y-72744014D01*
X202861159Y-72975354D01*
X202751672Y-73233004D01*
X202734990Y-73312940D01*
X202857148Y-73533000D01*
X204343000Y-73533000D01*
X204343000Y-73513000D01*
X204597000Y-73513000D01*
X204597000Y-73533000D01*
X205771750Y-73533000D01*
X205835250Y-73596500D01*
X206883000Y-73596500D01*
X206883000Y-72802750D01*
X206724250Y-72644000D01*
X206374042Y-72644000D01*
X206248958Y-72644000D01*
X206126277Y-72668403D01*
X206010715Y-72716270D01*
X205936210Y-72766052D01*
X205921192Y-72744014D01*
X205721440Y-72547875D01*
X205487262Y-72394474D01*
X205467553Y-72386520D01*
X205621347Y-72304747D01*
X205836475Y-72129293D01*
X206013426Y-71915396D01*
X206145461Y-71671202D01*
X206227551Y-71406013D01*
X206256568Y-71129930D01*
X206231408Y-70853469D01*
X206153029Y-70587160D01*
X206128119Y-70539511D01*
X207802816Y-68864815D01*
X207847537Y-68810370D01*
X207892736Y-68756505D01*
X207894664Y-68752997D01*
X207897211Y-68749897D01*
X207930509Y-68687796D01*
X207964381Y-68626184D01*
X207965591Y-68622368D01*
X207967487Y-68618833D01*
X207967802Y-68617801D01*
X207962500Y-68644458D01*
X207962500Y-68769542D01*
X207962500Y-69658542D01*
X207986903Y-69781223D01*
X208034770Y-69896785D01*
X208104263Y-70000789D01*
X208192711Y-70089237D01*
X208214805Y-70104000D01*
X208192711Y-70118763D01*
X208104263Y-70207211D01*
X208034770Y-70311215D01*
X207986903Y-70426777D01*
X207962500Y-70549458D01*
X207962500Y-70674542D01*
X207962500Y-71563542D01*
X207986903Y-71686223D01*
X208034770Y-71801785D01*
X208104263Y-71905789D01*
X208192711Y-71994237D01*
X208296715Y-72063730D01*
X208412277Y-72111597D01*
X208534958Y-72136000D01*
X208660042Y-72136000D01*
X210057042Y-72136000D01*
X210179723Y-72111597D01*
X210295285Y-72063730D01*
X210399289Y-71994237D01*
X210487737Y-71905789D01*
X210516614Y-71862570D01*
X210535583Y-71898854D01*
X210709531Y-72115201D01*
X210922188Y-72293641D01*
X211098214Y-72390412D01*
X210938653Y-72475253D01*
X210723525Y-72650707D01*
X210546574Y-72864604D01*
X210517386Y-72918584D01*
X210487737Y-72874211D01*
X210399289Y-72785763D01*
X210295285Y-72716270D01*
X210179723Y-72668403D01*
X210057042Y-72644000D01*
X209931958Y-72644000D01*
X208534958Y-72644000D01*
X208412277Y-72668403D01*
X208296715Y-72716270D01*
X208192711Y-72785763D01*
X208153000Y-72825474D01*
X208113289Y-72785763D01*
X208009285Y-72716270D01*
X207893723Y-72668403D01*
X207771042Y-72644000D01*
X207645958Y-72644000D01*
X207295750Y-72644000D01*
X207137000Y-72802750D01*
X207137000Y-73596500D01*
X207157000Y-73596500D01*
X207157000Y-73850500D01*
X207137000Y-73850500D01*
X207137000Y-73870500D01*
X206883000Y-73870500D01*
X206883000Y-73850500D01*
X206118101Y-73850500D01*
X206082852Y-73787000D01*
X204597000Y-73787000D01*
X204597000Y-73807000D01*
X204343000Y-73807000D01*
X204343000Y-73787000D01*
X202857148Y-73787000D01*
X202734990Y-74007060D01*
X202751672Y-74086996D01*
X202861159Y-74344646D01*
X203018808Y-74575986D01*
X203200687Y-74754576D01*
X203131223Y-74725803D01*
X203008542Y-74701400D01*
X202883458Y-74701400D01*
X200851458Y-74701400D01*
X200728777Y-74725803D01*
X200613215Y-74773670D01*
X200509211Y-74843163D01*
X200420763Y-74931611D01*
X200351270Y-75035615D01*
X200303403Y-75151177D01*
X200279000Y-75273858D01*
X200279000Y-75398942D01*
X200279000Y-77126142D01*
X200303403Y-77248823D01*
X200351270Y-77364385D01*
X200420763Y-77468389D01*
X200509211Y-77556837D01*
X200613215Y-77626330D01*
X200720727Y-77670862D01*
X200713647Y-77676637D01*
X200527216Y-77901994D01*
X200388108Y-78159269D01*
X200301621Y-78438665D01*
X200271049Y-78729538D01*
X200297556Y-79020810D01*
X200380134Y-79301385D01*
X200515637Y-79560578D01*
X200698903Y-79788515D01*
X200922952Y-79976515D01*
X200982586Y-80009299D01*
X200940299Y-80031784D01*
X200713647Y-80216637D01*
X200527216Y-80441994D01*
X200388108Y-80699269D01*
X200301621Y-80978665D01*
X200271049Y-81269538D01*
X200297556Y-81560810D01*
X200380134Y-81841385D01*
X200515637Y-82100578D01*
X200698903Y-82328515D01*
X200922952Y-82516515D01*
X200982586Y-82549299D01*
X200940299Y-82571784D01*
X200713647Y-82756637D01*
X200527216Y-82981994D01*
X200388108Y-83239269D01*
X200301621Y-83518665D01*
X200271049Y-83809538D01*
X200297556Y-84100810D01*
X200380134Y-84381385D01*
X200515637Y-84640578D01*
X200698903Y-84868515D01*
X200922952Y-85056515D01*
X200982586Y-85089299D01*
X200940299Y-85111784D01*
X200713647Y-85296637D01*
X200527216Y-85521994D01*
X200388108Y-85779269D01*
X200301621Y-86058665D01*
X200271049Y-86349538D01*
X200297556Y-86640810D01*
X200380134Y-86921385D01*
X200515637Y-87180578D01*
X200698903Y-87408515D01*
X200922952Y-87596515D01*
X200982586Y-87629299D01*
X200940299Y-87651784D01*
X200713647Y-87836637D01*
X200527216Y-88061994D01*
X200388108Y-88319269D01*
X200301621Y-88598665D01*
X200271049Y-88889538D01*
X200297556Y-89180810D01*
X200380134Y-89461385D01*
X200515637Y-89720578D01*
X200698903Y-89948515D01*
X200922952Y-90136515D01*
X200982586Y-90169299D01*
X200940299Y-90191784D01*
X200713647Y-90376637D01*
X200527216Y-90601994D01*
X200388108Y-90859269D01*
X200301621Y-91138665D01*
X200271049Y-91429538D01*
X200297556Y-91720810D01*
X200380134Y-92001385D01*
X200515637Y-92260578D01*
X200698903Y-92488515D01*
X200922952Y-92676515D01*
X200982586Y-92709299D01*
X200940299Y-92731784D01*
X200713647Y-92916637D01*
X200527216Y-93141994D01*
X200388108Y-93399269D01*
X200301621Y-93678665D01*
X200271049Y-93969538D01*
X200297556Y-94260810D01*
X200380134Y-94541385D01*
X200515637Y-94800578D01*
X200698903Y-95028515D01*
X200922952Y-95216515D01*
X201179251Y-95357416D01*
X201458036Y-95445852D01*
X201748688Y-95478454D01*
X201769612Y-95478600D01*
X202090388Y-95478600D01*
X202381468Y-95450059D01*
X202661460Y-95365525D01*
X202919701Y-95228216D01*
X203146353Y-95043363D01*
X203156354Y-95031272D01*
X203302188Y-95153641D01*
X203545454Y-95287378D01*
X203810063Y-95371317D01*
X204085937Y-95402261D01*
X204105797Y-95402400D01*
X204834203Y-95402400D01*
X204897141Y-95396228D01*
X204820185Y-95473185D01*
X204775487Y-95527599D01*
X204730264Y-95581495D01*
X204728335Y-95585002D01*
X204725789Y-95588103D01*
X204692510Y-95650168D01*
X204658619Y-95711816D01*
X204657407Y-95715636D01*
X204655514Y-95719167D01*
X204634939Y-95786464D01*
X204613652Y-95853571D01*
X204613205Y-95857554D01*
X204612034Y-95861385D01*
X204604924Y-95931372D01*
X204597074Y-96001361D01*
X204597019Y-96009197D01*
X204597005Y-96009340D01*
X204597017Y-96009473D01*
X204597000Y-96012000D01*
X204597000Y-96806574D01*
X200161536Y-100642651D01*
X200145260Y-100659775D01*
X200126857Y-100674572D01*
X200094150Y-100713550D01*
X200059082Y-100750447D01*
X200046443Y-100770404D01*
X200031264Y-100788495D01*
X200006747Y-100833089D01*
X199979518Y-100876089D01*
X199970998Y-100898117D01*
X199959619Y-100918816D01*
X199944229Y-100967328D01*
X199925873Y-101014792D01*
X199921794Y-101038056D01*
X199914652Y-101060571D01*
X199908978Y-101111148D01*
X199900190Y-101161274D01*
X199900707Y-101184884D01*
X199898074Y-101208361D01*
X199898000Y-101219000D01*
X199898000Y-101224868D01*
X199818006Y-101144314D01*
X199348955Y-100827935D01*
X198827386Y-100608687D01*
X198273164Y-100494922D01*
X197707400Y-100490972D01*
X197151644Y-100596988D01*
X196627064Y-100808932D01*
X196153641Y-101118731D01*
X195749409Y-101514585D01*
X195429763Y-101981416D01*
X195206879Y-102501442D01*
X195089248Y-103054856D01*
X195081348Y-103620579D01*
X195183482Y-104177061D01*
X195391758Y-104703108D01*
X195698245Y-105178682D01*
X195821631Y-105306452D01*
X195273424Y-105193922D01*
X194707660Y-105189972D01*
X194151904Y-105295988D01*
X194131609Y-105304187D01*
X194165158Y-105272240D01*
X194491290Y-104809917D01*
X194721413Y-104293054D01*
X194846760Y-103741336D01*
X194855783Y-103095111D01*
X194745890Y-102540109D01*
X194530289Y-102017021D01*
X194217192Y-101545773D01*
X193818526Y-101144314D01*
X193349475Y-100827935D01*
X192827906Y-100608687D01*
X192273684Y-100494922D01*
X191707920Y-100490972D01*
X191152164Y-100596988D01*
X190627584Y-100808932D01*
X190154161Y-101118731D01*
X189749929Y-101514585D01*
X189430283Y-101981416D01*
X189207399Y-102501442D01*
X189089768Y-103054856D01*
X189081868Y-103620579D01*
X189184002Y-104177061D01*
X189392278Y-104703108D01*
X189698765Y-105178682D01*
X190091787Y-105585668D01*
X190556375Y-105908565D01*
X191074832Y-106135074D01*
X191627412Y-106256566D01*
X192193065Y-106268415D01*
X192750248Y-106170169D01*
X192822701Y-106142066D01*
X192749669Y-106213585D01*
X192430023Y-106680416D01*
X192207139Y-107200442D01*
X192089508Y-107753856D01*
X192081608Y-108319579D01*
X192183742Y-108876061D01*
X192392018Y-109402108D01*
X192698505Y-109877682D01*
X193091527Y-110284668D01*
X193556115Y-110607565D01*
X194074572Y-110834074D01*
X194627152Y-110955566D01*
X195192805Y-110967415D01*
X195749988Y-110869169D01*
X196277476Y-110664570D01*
X196755177Y-110361411D01*
X197164898Y-109971240D01*
X197208140Y-109909940D01*
X197208140Y-111104785D01*
X197026381Y-111223725D01*
X196839537Y-111406695D01*
X196691791Y-111622473D01*
X196588770Y-111862839D01*
X196534399Y-112118637D01*
X196530747Y-112380124D01*
X196577955Y-112637341D01*
X196674225Y-112880489D01*
X196815888Y-113100308D01*
X196997550Y-113288425D01*
X197212291Y-113437674D01*
X197451932Y-113542370D01*
X197707344Y-113598526D01*
X197968800Y-113604003D01*
X198226340Y-113558592D01*
X198470154Y-113464022D01*
X198690957Y-113323897D01*
X198880337Y-113143552D01*
X199031081Y-112929858D01*
X199137448Y-112690955D01*
X199195386Y-112435941D01*
X199199557Y-112137244D01*
X199148762Y-111880711D01*
X199049107Y-111638931D01*
X198904388Y-111421111D01*
X198732140Y-111247655D01*
X198732140Y-106173270D01*
X198749728Y-106170169D01*
X199277216Y-105965570D01*
X199754917Y-105662411D01*
X199898000Y-105526155D01*
X199898000Y-113157000D01*
X199902307Y-113200927D01*
X199903104Y-113245044D01*
X199909545Y-113274747D01*
X199912512Y-113305007D01*
X199925269Y-113347261D01*
X199934620Y-113390382D01*
X199946708Y-113418270D01*
X199955496Y-113447376D01*
X199976214Y-113486342D01*
X199993765Y-113526831D01*
X200011042Y-113551844D01*
X200025314Y-113578684D01*
X200053204Y-113612881D01*
X200078287Y-113649193D01*
X200100093Y-113670373D01*
X200119307Y-113693931D01*
X200153312Y-113722062D01*
X200184967Y-113752808D01*
X200210468Y-113769346D01*
X200233895Y-113788727D01*
X200272721Y-113809720D01*
X200309741Y-113833729D01*
X200319223Y-113838554D01*
X200957544Y-114157714D01*
X201015134Y-114353385D01*
X201150637Y-114612578D01*
X201333903Y-114840515D01*
X201557952Y-115028515D01*
X201617586Y-115061299D01*
X201575299Y-115083784D01*
X201348647Y-115268637D01*
X201162216Y-115493994D01*
X201023108Y-115751269D01*
X200936621Y-116030665D01*
X200906049Y-116321538D01*
X200932556Y-116612810D01*
X201015134Y-116893385D01*
X201150637Y-117152578D01*
X201333903Y-117380515D01*
X201557952Y-117568515D01*
X201814251Y-117709416D01*
X202093036Y-117797852D01*
X202383688Y-117830454D01*
X202404612Y-117830600D01*
X202725388Y-117830600D01*
X203016468Y-117802059D01*
X203296460Y-117717525D01*
X203554701Y-117580216D01*
X203781353Y-117395363D01*
X203967784Y-117170006D01*
X204008880Y-117094000D01*
X206375000Y-117094000D01*
X206445113Y-117087125D01*
X206515170Y-117080996D01*
X206519012Y-117079879D01*
X206523007Y-117079488D01*
X206590459Y-117059122D01*
X206657982Y-117039506D01*
X206661537Y-117037662D01*
X206665376Y-117036504D01*
X206727553Y-117003443D01*
X206790014Y-116971067D01*
X206793144Y-116968568D01*
X206796684Y-116966686D01*
X206851230Y-116922199D01*
X206906240Y-116878286D01*
X206911814Y-116872787D01*
X206911931Y-116872693D01*
X206912020Y-116872585D01*
X206913815Y-116870815D01*
X209189567Y-114595063D01*
X209203877Y-114642459D01*
X209223494Y-114709982D01*
X209225337Y-114713537D01*
X209226496Y-114717376D01*
X209259556Y-114779553D01*
X209291933Y-114842014D01*
X209294431Y-114845144D01*
X209296314Y-114848684D01*
X209340800Y-114903230D01*
X209384714Y-114958240D01*
X209390212Y-114963814D01*
X209390307Y-114963931D01*
X209390414Y-114964020D01*
X209392185Y-114965815D01*
X211297185Y-116870815D01*
X211351599Y-116915512D01*
X211405495Y-116960736D01*
X211409002Y-116962664D01*
X211412103Y-116965211D01*
X211474203Y-116998509D01*
X211535816Y-117032381D01*
X211539631Y-117033591D01*
X211543167Y-117035487D01*
X211610551Y-117056088D01*
X211677571Y-117077348D01*
X211681548Y-117077794D01*
X211685385Y-117078967D01*
X211755422Y-117086080D01*
X211825361Y-117093926D01*
X211833197Y-117093980D01*
X211833340Y-117093995D01*
X211833473Y-117093982D01*
X211836000Y-117094000D01*
X212550013Y-117094000D01*
X212580637Y-117152578D01*
X212763903Y-117380515D01*
X212987952Y-117568515D01*
X213244251Y-117709416D01*
X213523036Y-117797852D01*
X213813688Y-117830454D01*
X213834612Y-117830600D01*
X214155388Y-117830600D01*
X214446468Y-117802059D01*
X214726460Y-117717525D01*
X214984701Y-117580216D01*
X215211353Y-117395363D01*
X215397784Y-117170006D01*
X215536892Y-116912731D01*
X215623379Y-116633335D01*
X215653951Y-116342462D01*
X215627444Y-116051190D01*
X215544866Y-115770615D01*
X215409363Y-115511422D01*
X215226097Y-115283485D01*
X215002048Y-115095485D01*
X214942413Y-115062700D01*
X214984701Y-115040216D01*
X215211353Y-114855363D01*
X215397784Y-114630006D01*
X215536892Y-114372731D01*
X215623379Y-114093335D01*
X215653951Y-113802462D01*
X215627444Y-113511190D01*
X215544866Y-113230615D01*
X215409363Y-112971422D01*
X215226097Y-112743485D01*
X215002048Y-112555485D01*
X214940127Y-112521444D01*
X215146729Y-112370486D01*
X215345733Y-112154035D01*
X215498686Y-111902919D01*
X215599709Y-111626789D01*
X215602358Y-111611026D01*
X215481217Y-111379000D01*
X214122000Y-111379000D01*
X214122000Y-111399000D01*
X213868000Y-111399000D01*
X213868000Y-111379000D01*
X212508783Y-111379000D01*
X212387642Y-111611026D01*
X212390291Y-111626789D01*
X212491314Y-111902919D01*
X212644267Y-112154035D01*
X212843271Y-112370486D01*
X213048794Y-112520656D01*
X213005299Y-112543784D01*
X212778647Y-112728637D01*
X212592216Y-112953994D01*
X212453108Y-113211269D01*
X212366621Y-113490665D01*
X212336049Y-113781538D01*
X212362556Y-114072810D01*
X212445134Y-114353385D01*
X212580637Y-114612578D01*
X212763903Y-114840515D01*
X212987952Y-115028515D01*
X213047586Y-115061299D01*
X213005299Y-115083784D01*
X212778647Y-115268637D01*
X212592216Y-115493994D01*
X212551119Y-115570000D01*
X212151630Y-115570000D01*
X210693000Y-114111370D01*
X210693000Y-95349508D01*
X210761777Y-95377997D01*
X210884458Y-95402400D01*
X211009542Y-95402400D01*
X211330500Y-95402400D01*
X211330500Y-96018974D01*
X211249263Y-96100211D01*
X211179770Y-96204215D01*
X211131903Y-96319777D01*
X211107500Y-96442458D01*
X211107500Y-96567542D01*
X211107500Y-97867542D01*
X211131903Y-97990223D01*
X211179770Y-98105785D01*
X211249263Y-98209789D01*
X211330500Y-98291026D01*
X211330500Y-99443500D01*
X211337374Y-99513613D01*
X211343504Y-99583670D01*
X211344620Y-99587512D01*
X211345012Y-99591507D01*
X211365377Y-99658959D01*
X211384994Y-99726482D01*
X211386837Y-99730037D01*
X211387996Y-99733876D01*
X211421056Y-99796053D01*
X211453433Y-99858514D01*
X211455931Y-99861644D01*
X211457814Y-99865184D01*
X211502300Y-99919730D01*
X211546214Y-99974740D01*
X211551712Y-99980314D01*
X211551807Y-99980431D01*
X211551914Y-99980520D01*
X211553685Y-99982315D01*
X212440184Y-100868815D01*
X212494597Y-100913510D01*
X212548495Y-100958736D01*
X212552006Y-100960666D01*
X212555103Y-100963210D01*
X212617129Y-100996468D01*
X212678816Y-101030381D01*
X212682636Y-101031592D01*
X212686167Y-101033486D01*
X212753464Y-101054060D01*
X212820571Y-101075348D01*
X212824554Y-101075794D01*
X212828385Y-101076966D01*
X212898372Y-101084075D01*
X212968361Y-101091926D01*
X212976197Y-101091980D01*
X212976340Y-101091995D01*
X212976473Y-101091982D01*
X212979000Y-101092000D01*
X214441370Y-101092000D01*
X214884000Y-101534630D01*
X214884000Y-102330587D01*
X214745749Y-102254584D01*
X214466964Y-102166148D01*
X214176312Y-102133546D01*
X214155388Y-102133400D01*
X213834612Y-102133400D01*
X213543532Y-102161941D01*
X213263540Y-102246475D01*
X213005299Y-102383784D01*
X212778647Y-102568637D01*
X212592216Y-102793994D01*
X212453108Y-103051269D01*
X212366621Y-103330665D01*
X212336049Y-103621538D01*
X212362556Y-103912810D01*
X212445134Y-104193385D01*
X212580637Y-104452578D01*
X212763903Y-104680515D01*
X212987952Y-104868515D01*
X213047586Y-104901299D01*
X213005299Y-104923784D01*
X212778647Y-105108637D01*
X212592216Y-105333994D01*
X212453108Y-105591269D01*
X212366621Y-105870665D01*
X212336049Y-106161538D01*
X212362556Y-106452810D01*
X212445134Y-106733385D01*
X212580637Y-106992578D01*
X212763903Y-107220515D01*
X212987952Y-107408515D01*
X213047586Y-107441299D01*
X213005299Y-107463784D01*
X212778647Y-107648637D01*
X212592216Y-107873994D01*
X212453108Y-108131269D01*
X212366621Y-108410665D01*
X212336049Y-108701538D01*
X212362556Y-108992810D01*
X212445134Y-109273385D01*
X212580637Y-109532578D01*
X212763903Y-109760515D01*
X212987952Y-109948515D01*
X213049872Y-109982555D01*
X212843271Y-110133514D01*
X212644267Y-110349965D01*
X212491314Y-110601081D01*
X212390291Y-110877211D01*
X212387642Y-110892974D01*
X212508783Y-111125000D01*
X213868000Y-111125000D01*
X213868000Y-111105000D01*
X214122000Y-111105000D01*
X214122000Y-111125000D01*
X215481217Y-111125000D01*
X215602358Y-110892974D01*
X215599709Y-110877211D01*
X215498686Y-110601081D01*
X215345733Y-110349965D01*
X215146729Y-110133514D01*
X214941205Y-109983343D01*
X214984701Y-109960216D01*
X215211353Y-109775363D01*
X215397784Y-109550006D01*
X215453305Y-109447321D01*
X215480459Y-109439122D01*
X215547982Y-109419506D01*
X215551537Y-109417662D01*
X215555376Y-109416504D01*
X215617553Y-109383443D01*
X215680014Y-109351067D01*
X215683144Y-109348568D01*
X215686684Y-109346686D01*
X215741230Y-109302199D01*
X215796240Y-109258286D01*
X215801814Y-109252787D01*
X215801931Y-109252693D01*
X215802020Y-109252585D01*
X215803815Y-109250815D01*
X216184815Y-108869816D01*
X216229510Y-108815402D01*
X216274736Y-108761505D01*
X216276666Y-108757993D01*
X216279210Y-108754897D01*
X216312468Y-108692870D01*
X216346381Y-108631184D01*
X216347592Y-108627363D01*
X216349486Y-108623833D01*
X216370060Y-108556535D01*
X216391348Y-108489429D01*
X216391794Y-108485445D01*
X216392966Y-108481615D01*
X216400075Y-108411627D01*
X216407926Y-108341639D01*
X216407980Y-108333802D01*
X216407995Y-108333660D01*
X216407982Y-108333526D01*
X216408000Y-108331000D01*
X216408000Y-107877026D01*
X216481211Y-107950237D01*
X216585215Y-108019730D01*
X216700777Y-108067597D01*
X216823458Y-108092000D01*
X216950250Y-108092000D01*
X217109000Y-107933250D01*
X217109000Y-106934000D01*
X217089000Y-106934000D01*
X217089000Y-106680000D01*
X217109000Y-106680000D01*
X217109000Y-105680750D01*
X216950250Y-105522000D01*
X216823458Y-105522000D01*
X216700777Y-105546403D01*
X216585215Y-105594270D01*
X216481211Y-105663763D01*
X216408000Y-105736974D01*
X216408000Y-103505000D01*
X216408000Y-103058630D01*
X217012185Y-103662815D01*
X217066599Y-103707512D01*
X217120495Y-103752736D01*
X217124002Y-103754664D01*
X217127103Y-103757211D01*
X217189203Y-103790509D01*
X217250816Y-103824381D01*
X217254631Y-103825591D01*
X217258167Y-103827487D01*
X217325551Y-103848088D01*
X217392571Y-103869348D01*
X217396548Y-103869794D01*
X217400385Y-103870967D01*
X217470422Y-103878080D01*
X217540361Y-103885926D01*
X217548197Y-103885980D01*
X217548340Y-103885995D01*
X217548473Y-103885982D01*
X217551000Y-103886000D01*
X219521369Y-103886000D01*
X221047909Y-105412540D01*
X220445018Y-105412540D01*
X220322337Y-105436943D01*
X220206775Y-105484810D01*
X220102771Y-105554303D01*
X220014323Y-105642751D01*
X219956426Y-105729400D01*
X219890789Y-105663763D01*
X219786785Y-105594270D01*
X219671223Y-105546403D01*
X219548542Y-105522000D01*
X219423458Y-105522000D01*
X218723458Y-105522000D01*
X218600777Y-105546403D01*
X218485215Y-105594270D01*
X218381211Y-105663763D01*
X218292763Y-105752211D01*
X218223270Y-105856215D01*
X218186000Y-105946193D01*
X218148730Y-105856215D01*
X218079237Y-105752211D01*
X217990789Y-105663763D01*
X217886785Y-105594270D01*
X217771223Y-105546403D01*
X217648542Y-105522000D01*
X217521750Y-105522000D01*
X217363000Y-105680750D01*
X217363000Y-106680000D01*
X217383000Y-106680000D01*
X217383000Y-106934000D01*
X217363000Y-106934000D01*
X217363000Y-107933250D01*
X217521750Y-108092000D01*
X217648542Y-108092000D01*
X217771223Y-108067597D01*
X217886785Y-108019730D01*
X217990789Y-107950237D01*
X218079237Y-107861789D01*
X218148730Y-107757785D01*
X218186000Y-107667806D01*
X218223270Y-107757785D01*
X218292763Y-107861789D01*
X218365406Y-107934432D01*
X218191452Y-108004715D01*
X218014308Y-108120634D01*
X217863054Y-108268753D01*
X217743450Y-108443431D01*
X217660052Y-108638012D01*
X217616037Y-108845087D01*
X217614319Y-108968049D01*
X217459185Y-109123185D01*
X217414487Y-109177599D01*
X217369264Y-109231495D01*
X217367335Y-109235002D01*
X217364789Y-109238103D01*
X217331510Y-109300168D01*
X217297619Y-109361816D01*
X217296407Y-109365636D01*
X217294514Y-109369167D01*
X217273939Y-109436464D01*
X217252652Y-109503571D01*
X217252205Y-109507554D01*
X217251034Y-109511385D01*
X217243924Y-109581372D01*
X217236074Y-109651361D01*
X217236019Y-109659197D01*
X217236005Y-109659340D01*
X217236017Y-109659473D01*
X217236000Y-109662000D01*
X217236000Y-109988974D01*
X217154763Y-110070211D01*
X217085270Y-110174215D01*
X217037403Y-110289777D01*
X217013000Y-110412458D01*
X217013000Y-110537542D01*
X217013000Y-111837542D01*
X217037403Y-111960223D01*
X217085270Y-112075785D01*
X217154763Y-112179789D01*
X217243211Y-112268237D01*
X217347215Y-112337730D01*
X217462777Y-112385597D01*
X217585458Y-112410000D01*
X217710542Y-112410000D01*
X218410542Y-112410000D01*
X218533223Y-112385597D01*
X218648785Y-112337730D01*
X218752789Y-112268237D01*
X218841237Y-112179789D01*
X218910730Y-112075785D01*
X218948000Y-111985806D01*
X218985270Y-112075785D01*
X219054763Y-112179789D01*
X219143211Y-112268237D01*
X219247215Y-112337730D01*
X219362777Y-112385597D01*
X219485458Y-112410000D01*
X219610542Y-112410000D01*
X220310542Y-112410000D01*
X220433223Y-112385597D01*
X220472000Y-112369535D01*
X220472000Y-112674464D01*
X220433223Y-112658403D01*
X220310542Y-112634000D01*
X220185458Y-112634000D01*
X219485458Y-112634000D01*
X219362777Y-112658403D01*
X219247215Y-112706270D01*
X219143211Y-112775763D01*
X219054763Y-112864211D01*
X218985270Y-112968215D01*
X218948000Y-113058193D01*
X218910730Y-112968215D01*
X218841237Y-112864211D01*
X218752789Y-112775763D01*
X218648785Y-112706270D01*
X218533223Y-112658403D01*
X218410542Y-112634000D01*
X218283750Y-112634000D01*
X218125000Y-112792750D01*
X218125000Y-113792000D01*
X218145000Y-113792000D01*
X218145000Y-114046000D01*
X218125000Y-114046000D01*
X218125000Y-115045250D01*
X218283750Y-115204000D01*
X218410542Y-115204000D01*
X218533223Y-115179597D01*
X218648785Y-115131730D01*
X218752789Y-115062237D01*
X218841237Y-114973789D01*
X218910730Y-114869785D01*
X218948000Y-114779806D01*
X218985270Y-114869785D01*
X219054763Y-114973789D01*
X219143211Y-115062237D01*
X219247215Y-115131730D01*
X219362777Y-115179597D01*
X219485458Y-115204000D01*
X219610542Y-115204000D01*
X220310542Y-115204000D01*
X220433223Y-115179597D01*
X220500217Y-115151847D01*
X220599000Y-115250630D01*
X220599000Y-115660822D01*
X220548785Y-115627270D01*
X220433223Y-115579403D01*
X220310542Y-115555000D01*
X220185458Y-115555000D01*
X219485458Y-115555000D01*
X219362777Y-115579403D01*
X219247215Y-115627270D01*
X219143211Y-115696763D01*
X219054763Y-115785211D01*
X218985270Y-115889215D01*
X218948000Y-115979193D01*
X218910730Y-115889215D01*
X218841237Y-115785211D01*
X218752789Y-115696763D01*
X218648785Y-115627270D01*
X218533223Y-115579403D01*
X218410542Y-115555000D01*
X218285458Y-115555000D01*
X217871000Y-115555000D01*
X217871000Y-115045250D01*
X217871000Y-114046000D01*
X217871000Y-113792000D01*
X217871000Y-112792750D01*
X217712250Y-112634000D01*
X217585458Y-112634000D01*
X217462777Y-112658403D01*
X217347215Y-112706270D01*
X217243211Y-112775763D01*
X217154763Y-112864211D01*
X217085270Y-112968215D01*
X217037403Y-113083777D01*
X217013000Y-113206458D01*
X217013000Y-113331542D01*
X217013000Y-113633250D01*
X217171750Y-113792000D01*
X217871000Y-113792000D01*
X217871000Y-114046000D01*
X217171750Y-114046000D01*
X217013000Y-114204750D01*
X217013000Y-114506458D01*
X217013000Y-114631542D01*
X217037403Y-114754223D01*
X217085270Y-114869785D01*
X217154763Y-114973789D01*
X217243211Y-115062237D01*
X217347215Y-115131730D01*
X217462777Y-115179597D01*
X217585458Y-115204000D01*
X217712250Y-115204000D01*
X217871000Y-115045250D01*
X217871000Y-115555000D01*
X217585458Y-115555000D01*
X217462777Y-115579403D01*
X217347215Y-115627270D01*
X217243211Y-115696763D01*
X217154763Y-115785211D01*
X217085270Y-115889215D01*
X217037403Y-116004777D01*
X217013000Y-116127458D01*
X217013000Y-116252542D01*
X217013000Y-117552542D01*
X217037403Y-117675223D01*
X217085270Y-117790785D01*
X217154763Y-117894789D01*
X217236000Y-117976026D01*
X217236000Y-118202031D01*
X217143642Y-118183660D01*
X217018558Y-118183660D01*
X216566750Y-118183660D01*
X216408000Y-118342410D01*
X216408000Y-119992140D01*
X217557350Y-119992140D01*
X217716100Y-119833390D01*
X217716100Y-119479730D01*
X217868376Y-119632006D01*
X217867081Y-119724767D01*
X217905297Y-119932990D01*
X217983230Y-120129825D01*
X218097910Y-120307773D01*
X218244969Y-120460058D01*
X218418807Y-120580879D01*
X218612802Y-120665633D01*
X218819564Y-120711093D01*
X219031219Y-120715526D01*
X219239704Y-120678765D01*
X219437077Y-120602208D01*
X219615822Y-120488773D01*
X219769130Y-120342780D01*
X219891161Y-120169790D01*
X219977268Y-119976392D01*
X220024170Y-119769952D01*
X220027546Y-119528150D01*
X219990518Y-119341148D01*
X220441185Y-119791815D01*
X220495599Y-119836512D01*
X220549495Y-119881736D01*
X220553002Y-119883664D01*
X220556103Y-119886211D01*
X220618168Y-119919489D01*
X220679816Y-119953381D01*
X220683636Y-119954592D01*
X220687167Y-119956486D01*
X220754464Y-119977060D01*
X220821571Y-119998348D01*
X220825554Y-119998794D01*
X220829385Y-119999966D01*
X220899372Y-120007075D01*
X220969361Y-120014926D01*
X220977197Y-120014980D01*
X220977340Y-120014995D01*
X220977473Y-120014982D01*
X220980000Y-120015000D01*
X222075013Y-120015000D01*
X222105637Y-120073578D01*
X222288903Y-120301515D01*
X222512952Y-120489515D01*
X222769251Y-120630416D01*
X223048036Y-120718852D01*
X223338688Y-120751454D01*
X223359612Y-120751600D01*
X223680388Y-120751600D01*
X223971468Y-120723059D01*
X224251460Y-120638525D01*
X224509701Y-120501216D01*
X224736353Y-120316363D01*
X224922784Y-120091006D01*
X225061892Y-119833731D01*
X225148379Y-119554335D01*
X225178951Y-119263462D01*
X225152444Y-118972190D01*
X225069866Y-118691615D01*
X224934363Y-118432422D01*
X224751097Y-118204485D01*
X224527048Y-118016485D01*
X224467413Y-117983700D01*
X224509701Y-117961216D01*
X224736353Y-117776363D01*
X224922784Y-117551006D01*
X225061892Y-117293731D01*
X225148379Y-117014335D01*
X225178951Y-116723462D01*
X225152444Y-116432190D01*
X225069866Y-116151615D01*
X224934363Y-115892422D01*
X224751097Y-115664485D01*
X224527048Y-115476485D01*
X224467413Y-115443700D01*
X224509701Y-115421216D01*
X224736353Y-115236363D01*
X224922784Y-115011006D01*
X225061892Y-114753731D01*
X225148379Y-114474335D01*
X225178951Y-114183462D01*
X225152444Y-113892190D01*
X225069866Y-113611615D01*
X224934363Y-113352422D01*
X224751097Y-113124485D01*
X224527048Y-112936485D01*
X224270749Y-112795584D01*
X223991964Y-112707148D01*
X223701312Y-112674546D01*
X223680388Y-112674400D01*
X223359612Y-112674400D01*
X223068532Y-112702941D01*
X222788540Y-112787475D01*
X222530299Y-112924784D01*
X222303647Y-113109637D01*
X222170823Y-113270193D01*
X221996000Y-113095369D01*
X221996000Y-111887000D01*
X221989130Y-111816936D01*
X221982997Y-111746830D01*
X221981879Y-111742982D01*
X221981488Y-111738993D01*
X221961135Y-111671581D01*
X221941506Y-111604018D01*
X221939662Y-111600462D01*
X221938504Y-111596624D01*
X221905443Y-111534446D01*
X221873067Y-111471986D01*
X221870568Y-111468855D01*
X221868686Y-111465316D01*
X221824199Y-111410769D01*
X221780286Y-111355760D01*
X221774784Y-111350181D01*
X221774693Y-111350069D01*
X221774589Y-111349983D01*
X221772816Y-111348185D01*
X221010815Y-110586185D01*
X220956400Y-110541487D01*
X220902505Y-110496264D01*
X220898997Y-110494335D01*
X220895897Y-110491789D01*
X220883000Y-110484873D01*
X220883000Y-110412458D01*
X220858597Y-110289777D01*
X220810730Y-110174215D01*
X220741237Y-110070211D01*
X220652789Y-109981763D01*
X220649342Y-109979460D01*
X221768982Y-109979460D01*
X221891663Y-109955057D01*
X222007225Y-109907190D01*
X222111229Y-109837697D01*
X222199677Y-109749249D01*
X222269170Y-109645245D01*
X222317037Y-109529683D01*
X222321544Y-109507020D01*
X222856389Y-109507020D01*
X222883495Y-109534125D01*
X222732509Y-109632928D01*
X222517432Y-109843547D01*
X222347361Y-110091930D01*
X222228773Y-110368617D01*
X222166186Y-110663067D01*
X222161983Y-110964067D01*
X222216324Y-111260150D01*
X222327140Y-111540040D01*
X222490210Y-111793075D01*
X222699322Y-112009617D01*
X222946512Y-112181419D01*
X223222364Y-112301935D01*
X223516371Y-112366577D01*
X223817334Y-112372881D01*
X224113789Y-112320608D01*
X224394446Y-112211748D01*
X224648613Y-112050449D01*
X224866610Y-111842854D01*
X225040132Y-111596869D01*
X225162572Y-111321866D01*
X225229265Y-111028317D01*
X225234066Y-110684486D01*
X225175595Y-110389190D01*
X225060882Y-110110874D01*
X224894295Y-109860141D01*
X224682180Y-109646540D01*
X224461000Y-109497351D01*
X224461000Y-109272000D01*
X224454125Y-109201890D01*
X224447996Y-109131829D01*
X224446879Y-109127985D01*
X224446488Y-109123993D01*
X224426126Y-109056552D01*
X224406506Y-108989018D01*
X224404662Y-108985462D01*
X224403504Y-108981624D01*
X224370454Y-108919467D01*
X224338067Y-108856985D01*
X224335566Y-108853852D01*
X224333686Y-108850316D01*
X224289216Y-108795791D01*
X224245286Y-108740760D01*
X224239784Y-108735181D01*
X224239693Y-108735069D01*
X224239589Y-108734983D01*
X224237815Y-108733184D01*
X223710835Y-108206205D01*
X223656420Y-108161507D01*
X223602525Y-108116284D01*
X223599017Y-108114355D01*
X223595917Y-108111809D01*
X223533851Y-108078530D01*
X223472204Y-108044639D01*
X223468383Y-108043427D01*
X223464853Y-108041534D01*
X223397555Y-108020959D01*
X223330449Y-107999672D01*
X223326465Y-107999225D01*
X223322635Y-107998054D01*
X223252647Y-107990944D01*
X223182659Y-107983094D01*
X223174822Y-107983039D01*
X223174680Y-107983025D01*
X223174546Y-107983037D01*
X223172020Y-107983020D01*
X222321544Y-107983020D01*
X222317037Y-107960357D01*
X222269170Y-107844795D01*
X222199677Y-107740791D01*
X222154886Y-107696000D01*
X222199677Y-107651209D01*
X222269170Y-107547205D01*
X222317037Y-107431643D01*
X222341440Y-107308962D01*
X222341440Y-107183878D01*
X222341440Y-107062229D01*
X222490210Y-107293075D01*
X222699322Y-107509617D01*
X222946512Y-107681419D01*
X223222364Y-107801935D01*
X223516371Y-107866577D01*
X223817334Y-107872881D01*
X224113789Y-107820608D01*
X224394446Y-107711748D01*
X224648613Y-107550449D01*
X224866610Y-107342854D01*
X225040039Y-107097000D01*
X228863848Y-107097000D01*
X228990210Y-107293075D01*
X229199322Y-107509617D01*
X229446512Y-107681419D01*
X229722364Y-107801935D01*
X230016371Y-107866577D01*
X230317334Y-107872881D01*
X230613789Y-107820608D01*
X230894446Y-107711748D01*
X231148613Y-107550449D01*
X231366610Y-107342854D01*
X231540132Y-107096869D01*
X231662572Y-106821866D01*
X231729265Y-106528317D01*
X231734066Y-106184486D01*
X231675595Y-105889190D01*
X231560882Y-105610874D01*
X231394295Y-105360141D01*
X231182180Y-105146540D01*
X230932616Y-104978206D01*
X230655108Y-104861553D01*
X230360228Y-104801023D01*
X230059206Y-104798921D01*
X229763509Y-104855328D01*
X229484400Y-104968096D01*
X229232509Y-105132928D01*
X229017432Y-105343547D01*
X228860322Y-105573000D01*
X225035718Y-105573000D01*
X224894295Y-105360141D01*
X224682180Y-105146540D01*
X224432616Y-104978206D01*
X224155108Y-104861553D01*
X223860228Y-104801023D01*
X223559206Y-104798921D01*
X223263509Y-104855328D01*
X222984400Y-104968096D01*
X222847990Y-105057359D01*
X220375815Y-102585185D01*
X220321400Y-102540487D01*
X220267505Y-102495264D01*
X220263997Y-102493335D01*
X220260897Y-102490789D01*
X220198831Y-102457510D01*
X220137184Y-102423619D01*
X220133363Y-102422407D01*
X220129833Y-102420514D01*
X220062535Y-102399939D01*
X219995429Y-102378652D01*
X219991445Y-102378205D01*
X219987615Y-102377034D01*
X219917627Y-102369924D01*
X219847639Y-102362074D01*
X219839802Y-102362019D01*
X219839660Y-102362005D01*
X219839526Y-102362017D01*
X219837000Y-102362000D01*
X217866630Y-102362000D01*
X216184815Y-100680185D01*
X215295815Y-99791185D01*
X215241400Y-99746487D01*
X215187505Y-99701264D01*
X215183997Y-99699335D01*
X215180897Y-99696789D01*
X215118831Y-99663510D01*
X215057184Y-99629619D01*
X215053363Y-99628407D01*
X215049833Y-99626514D01*
X214982535Y-99605939D01*
X214977500Y-99604341D01*
X214977500Y-97867542D01*
X214977500Y-97742458D01*
X214977500Y-97440750D01*
X214977500Y-96869250D01*
X214977500Y-96567542D01*
X214977500Y-96442458D01*
X214953097Y-96319777D01*
X214905230Y-96204215D01*
X214835737Y-96100211D01*
X214747289Y-96011763D01*
X214643285Y-95942270D01*
X214527723Y-95894403D01*
X214405042Y-95870000D01*
X214278250Y-95870000D01*
X214119500Y-96028750D01*
X214119500Y-97028000D01*
X214818750Y-97028000D01*
X214977500Y-96869250D01*
X214977500Y-97440750D01*
X214818750Y-97282000D01*
X214119500Y-97282000D01*
X214119500Y-98281250D01*
X214278250Y-98440000D01*
X214405042Y-98440000D01*
X214527723Y-98415597D01*
X214643285Y-98367730D01*
X214747289Y-98298237D01*
X214835737Y-98209789D01*
X214905230Y-98105785D01*
X214953097Y-97990223D01*
X214977500Y-97867542D01*
X214977500Y-99604341D01*
X214915429Y-99584652D01*
X214911445Y-99584205D01*
X214907615Y-99583034D01*
X214837627Y-99575924D01*
X214767639Y-99568074D01*
X214759802Y-99568019D01*
X214759660Y-99568005D01*
X214759526Y-99568017D01*
X214757000Y-99568000D01*
X213294630Y-99568000D01*
X212854500Y-99127869D01*
X212854500Y-98291026D01*
X212935737Y-98209789D01*
X213005230Y-98105785D01*
X213042500Y-98015806D01*
X213079770Y-98105785D01*
X213149263Y-98209789D01*
X213237711Y-98298237D01*
X213341715Y-98367730D01*
X213457277Y-98415597D01*
X213579958Y-98440000D01*
X213706750Y-98440000D01*
X213865500Y-98281250D01*
X213865500Y-97282000D01*
X213845500Y-97282000D01*
X213845500Y-97028000D01*
X213865500Y-97028000D01*
X213865500Y-96028750D01*
X213706750Y-95870000D01*
X213579958Y-95870000D01*
X213457277Y-95894403D01*
X213341715Y-95942270D01*
X213237711Y-96011763D01*
X213149263Y-96100211D01*
X213079770Y-96204215D01*
X213042500Y-96294193D01*
X213005230Y-96204215D01*
X212935737Y-96100211D01*
X212854500Y-96018974D01*
X212854500Y-95402400D01*
X213295542Y-95402400D01*
X213418223Y-95377997D01*
X213533785Y-95330130D01*
X213637789Y-95260637D01*
X213726237Y-95172189D01*
X213795730Y-95068185D01*
X213843597Y-94952623D01*
X213868000Y-94829942D01*
X213868000Y-94704858D01*
X213868000Y-93130058D01*
X213843597Y-93007377D01*
X213815108Y-92938600D01*
X215708542Y-92938600D01*
X215831223Y-92914197D01*
X215946785Y-92866330D01*
X216050789Y-92796837D01*
X216139237Y-92708389D01*
X216208730Y-92604385D01*
X216256597Y-92488823D01*
X216281000Y-92366142D01*
X216281000Y-92241058D01*
X216281000Y-90513858D01*
X216256597Y-90391177D01*
X216208730Y-90275615D01*
X216139237Y-90171611D01*
X216050789Y-90083163D01*
X215946785Y-90013670D01*
X215839272Y-89969137D01*
X215846353Y-89963363D01*
X216032784Y-89738006D01*
X216171892Y-89480731D01*
X216258379Y-89201335D01*
X216288951Y-88910462D01*
X216262444Y-88619190D01*
X216179866Y-88338615D01*
X216044363Y-88079422D01*
X215861097Y-87851485D01*
X215637048Y-87663485D01*
X215577413Y-87630700D01*
X215619701Y-87608216D01*
X215846353Y-87423363D01*
X216032784Y-87198006D01*
X216171892Y-86940731D01*
X216258379Y-86661335D01*
X216288951Y-86370462D01*
X216262444Y-86079190D01*
X216179866Y-85798615D01*
X216044363Y-85539422D01*
X215861097Y-85311485D01*
X215637048Y-85123485D01*
X215577413Y-85090700D01*
X215619701Y-85068216D01*
X215846353Y-84883363D01*
X216032784Y-84658006D01*
X216171892Y-84400731D01*
X216258379Y-84121335D01*
X216288951Y-83830462D01*
X216262444Y-83539190D01*
X216179866Y-83258615D01*
X216044363Y-82999422D01*
X215861097Y-82771485D01*
X215637048Y-82583485D01*
X215577413Y-82550700D01*
X215619701Y-82528216D01*
X215846353Y-82343363D01*
X216032784Y-82118006D01*
X216171892Y-81860731D01*
X216258379Y-81581335D01*
X216288951Y-81290462D01*
X216262444Y-80999190D01*
X216179866Y-80718615D01*
X216044363Y-80459422D01*
X215861097Y-80231485D01*
X215637048Y-80043485D01*
X215575127Y-80009444D01*
X215781729Y-79858486D01*
X215980733Y-79642035D01*
X216133686Y-79390919D01*
X216234709Y-79114789D01*
X216237358Y-79099026D01*
X216116217Y-78867000D01*
X214757000Y-78867000D01*
X214757000Y-78887000D01*
X214503000Y-78887000D01*
X214503000Y-78867000D01*
X213702852Y-78867000D01*
X213143783Y-78867000D01*
X212217000Y-78867000D01*
X212217000Y-78887000D01*
X211963000Y-78887000D01*
X211963000Y-78867000D01*
X210477148Y-78867000D01*
X210354990Y-79087060D01*
X210371672Y-79166996D01*
X210481159Y-79424646D01*
X210638808Y-79655986D01*
X210838560Y-79852125D01*
X211072738Y-80005526D01*
X211092446Y-80013479D01*
X210938653Y-80095253D01*
X210723525Y-80270707D01*
X210546574Y-80484604D01*
X210528516Y-80518000D01*
X208153000Y-80518000D01*
X208082936Y-80524869D01*
X208012830Y-80531003D01*
X208008982Y-80532120D01*
X208004993Y-80532512D01*
X207937581Y-80552864D01*
X207870018Y-80572494D01*
X207866462Y-80574337D01*
X207862624Y-80575496D01*
X207800446Y-80608556D01*
X207737986Y-80640933D01*
X207734855Y-80643431D01*
X207731316Y-80645314D01*
X207676769Y-80689800D01*
X207621760Y-80733714D01*
X207616181Y-80739215D01*
X207616069Y-80739307D01*
X207615983Y-80739410D01*
X207614185Y-80741184D01*
X206852185Y-81503185D01*
X206807487Y-81557599D01*
X206762264Y-81611495D01*
X206760335Y-81615002D01*
X206757789Y-81618103D01*
X206724510Y-81680168D01*
X206690619Y-81741816D01*
X206689407Y-81745636D01*
X206687514Y-81749167D01*
X206666939Y-81816464D01*
X206645652Y-81883571D01*
X206645205Y-81887554D01*
X206644034Y-81891385D01*
X206636924Y-81961372D01*
X206629074Y-82031361D01*
X206629019Y-82039197D01*
X206629005Y-82039340D01*
X206629017Y-82039473D01*
X206629000Y-82042000D01*
X206629000Y-90875872D01*
X206605400Y-90856487D01*
X206551505Y-90811264D01*
X206547997Y-90809335D01*
X206544897Y-90806789D01*
X206482831Y-90773510D01*
X206421184Y-90739619D01*
X206417363Y-90738407D01*
X206413833Y-90736514D01*
X206346535Y-90715939D01*
X206279429Y-90694652D01*
X206275445Y-90694205D01*
X206271615Y-90693034D01*
X206201627Y-90685924D01*
X206131639Y-90678074D01*
X206123802Y-90678019D01*
X206123660Y-90678005D01*
X206123526Y-90678017D01*
X206121000Y-90678000D01*
X206033227Y-90678000D01*
X206024417Y-90661146D01*
X205850469Y-90444799D01*
X205637812Y-90266359D01*
X205461785Y-90169587D01*
X205621347Y-90084747D01*
X205836475Y-89909293D01*
X206013426Y-89695396D01*
X206145461Y-89451202D01*
X206227551Y-89186013D01*
X206256568Y-88909930D01*
X206231408Y-88633469D01*
X206153029Y-88367160D01*
X206024417Y-88121146D01*
X205850469Y-87904799D01*
X205637812Y-87726359D01*
X205461785Y-87629587D01*
X205621347Y-87544747D01*
X205836475Y-87369293D01*
X206013426Y-87155396D01*
X206145461Y-86911202D01*
X206227551Y-86646013D01*
X206256568Y-86369930D01*
X206231408Y-86093469D01*
X206153029Y-85827160D01*
X206024417Y-85581146D01*
X205850469Y-85364799D01*
X205637812Y-85186359D01*
X205461785Y-85089587D01*
X205621347Y-85004747D01*
X205836475Y-84829293D01*
X206013426Y-84615396D01*
X206145461Y-84371202D01*
X206227551Y-84106013D01*
X206256568Y-83829930D01*
X206231408Y-83553469D01*
X206153029Y-83287160D01*
X206024417Y-83041146D01*
X205850469Y-82824799D01*
X205637812Y-82646359D01*
X205461785Y-82549587D01*
X205621347Y-82464747D01*
X205836475Y-82289293D01*
X206013426Y-82075396D01*
X206145461Y-81831202D01*
X206227551Y-81566013D01*
X206256568Y-81289930D01*
X206231408Y-81013469D01*
X206153029Y-80747160D01*
X206024417Y-80501146D01*
X205850469Y-80284799D01*
X205637812Y-80106359D01*
X205461785Y-80009587D01*
X205621347Y-79924747D01*
X205836475Y-79749293D01*
X206013426Y-79535396D01*
X206145461Y-79291202D01*
X206227551Y-79026013D01*
X206256568Y-78749930D01*
X206249572Y-78673057D01*
X207548815Y-77373815D01*
X207593512Y-77319400D01*
X207638736Y-77265505D01*
X207640664Y-77261997D01*
X207643211Y-77258897D01*
X207676509Y-77196796D01*
X207710381Y-77135184D01*
X207711591Y-77131368D01*
X207713487Y-77127833D01*
X207734088Y-77060448D01*
X207755348Y-76993429D01*
X207755794Y-76989451D01*
X207756967Y-76985615D01*
X207764080Y-76915577D01*
X207771926Y-76845639D01*
X207771980Y-76837802D01*
X207771995Y-76837660D01*
X207771982Y-76837526D01*
X207772000Y-76835000D01*
X207772000Y-76707809D01*
X207893723Y-76683597D01*
X208009285Y-76635730D01*
X208113289Y-76566237D01*
X208153000Y-76526526D01*
X208192711Y-76566237D01*
X208296715Y-76635730D01*
X208412277Y-76683597D01*
X208534958Y-76708000D01*
X208660042Y-76708000D01*
X209297870Y-76708000D01*
X209328685Y-76738815D01*
X209383099Y-76783512D01*
X209436995Y-76828736D01*
X209440502Y-76830664D01*
X209443603Y-76833211D01*
X209505668Y-76866489D01*
X209567316Y-76900381D01*
X209571136Y-76901592D01*
X209574667Y-76903486D01*
X209641964Y-76924060D01*
X209709071Y-76945348D01*
X209713054Y-76945794D01*
X209716885Y-76946966D01*
X209786872Y-76954075D01*
X209856861Y-76961926D01*
X209864697Y-76961980D01*
X209864840Y-76961995D01*
X209864973Y-76961982D01*
X209867500Y-76962000D01*
X210526772Y-76962000D01*
X210535583Y-76978854D01*
X210709531Y-77195201D01*
X210922188Y-77373641D01*
X211091689Y-77466825D01*
X211072738Y-77474474D01*
X210838560Y-77627875D01*
X210638808Y-77824014D01*
X210481159Y-78055354D01*
X210371672Y-78313004D01*
X210354990Y-78392940D01*
X210477148Y-78613000D01*
X211963000Y-78613000D01*
X211963000Y-78593000D01*
X212217000Y-78593000D01*
X212217000Y-78613000D01*
X213143783Y-78613000D01*
X213702852Y-78613000D01*
X214503000Y-78613000D01*
X214503000Y-78593000D01*
X214757000Y-78593000D01*
X214757000Y-78613000D01*
X216116217Y-78613000D01*
X216237358Y-78380974D01*
X216234709Y-78365211D01*
X216133686Y-78089081D01*
X215980733Y-77837965D01*
X215781729Y-77621514D01*
X215576205Y-77471343D01*
X215619701Y-77448216D01*
X215846353Y-77263363D01*
X216032784Y-77038006D01*
X216171892Y-76780731D01*
X216258379Y-76501335D01*
X216288951Y-76210462D01*
X216262444Y-75919190D01*
X216179866Y-75638615D01*
X216044363Y-75379422D01*
X215935126Y-75243559D01*
X215946785Y-75238730D01*
X216050789Y-75169237D01*
X216139237Y-75080789D01*
X216208730Y-74976785D01*
X216256597Y-74861223D01*
X216281000Y-74738542D01*
X216281000Y-74613458D01*
X216281000Y-72581458D01*
X216256597Y-72458777D01*
X216208730Y-72343215D01*
X216139237Y-72239211D01*
X216050789Y-72150763D01*
X215964891Y-72093368D01*
X215992262Y-72060749D01*
X216147492Y-71778386D01*
X216244922Y-71471250D01*
X216280839Y-71151040D01*
X216281000Y-71127988D01*
X216281000Y-71112012D01*
X216249557Y-70791331D01*
X216156426Y-70482865D01*
X216005153Y-70198363D01*
X215873344Y-70036749D01*
X215946785Y-70006330D01*
X216050789Y-69936837D01*
X216139237Y-69848389D01*
X216208730Y-69744385D01*
X216256597Y-69628823D01*
X216281000Y-69506142D01*
X216281000Y-69381058D01*
X216281000Y-67653858D01*
X216256597Y-67531177D01*
X216208730Y-67415615D01*
X216139237Y-67311611D01*
X216050789Y-67223163D01*
X215946785Y-67153670D01*
X215839272Y-67109137D01*
X215846353Y-67103363D01*
X216032784Y-66878006D01*
X216171892Y-66620731D01*
X216258379Y-66341335D01*
X216288951Y-66050462D01*
X216262444Y-65759190D01*
X216179866Y-65478615D01*
X216044363Y-65219422D01*
X215861097Y-64991485D01*
X215637048Y-64803485D01*
X215577413Y-64770700D01*
X215619701Y-64748216D01*
X215846353Y-64563363D01*
X216032784Y-64338006D01*
X216171892Y-64080731D01*
X216258379Y-63801335D01*
X216288951Y-63510462D01*
X216262444Y-63219190D01*
X216179866Y-62938615D01*
X216044363Y-62679422D01*
X215861097Y-62451485D01*
X215637048Y-62263485D01*
X215577413Y-62230700D01*
X215619701Y-62208216D01*
X215846353Y-62023363D01*
X216032784Y-61798006D01*
X216171892Y-61540731D01*
X216258379Y-61261335D01*
X216288951Y-60970462D01*
X216262444Y-60679190D01*
X216179866Y-60398615D01*
X216044363Y-60139422D01*
X215861097Y-59911485D01*
X215637048Y-59723485D01*
X215380749Y-59582584D01*
X215101964Y-59494148D01*
X214811312Y-59461546D01*
X214790388Y-59461400D01*
X214469612Y-59461400D01*
X214178532Y-59489941D01*
X213898540Y-59574475D01*
X213640299Y-59711784D01*
X213413647Y-59896637D01*
X213403645Y-59908727D01*
X213257812Y-59786359D01*
X213014546Y-59652622D01*
X212749937Y-59568683D01*
X212474063Y-59537739D01*
X212454203Y-59537600D01*
X211725797Y-59537600D01*
X211449518Y-59564689D01*
X211183762Y-59644926D01*
X210938653Y-59775253D01*
X210723525Y-59950707D01*
X210546574Y-60164604D01*
X210414539Y-60408798D01*
X210332449Y-60673987D01*
X210303432Y-60950070D01*
X210328592Y-61226531D01*
X210406971Y-61492840D01*
X210535583Y-61738854D01*
X210709531Y-61955201D01*
X210922188Y-62133641D01*
X211098214Y-62230412D01*
X210938653Y-62315253D01*
X210723525Y-62490707D01*
X210546574Y-62704604D01*
X210414539Y-62948798D01*
X210332449Y-63213987D01*
X210303432Y-63490070D01*
X210328592Y-63766531D01*
X210406971Y-64032840D01*
X210535583Y-64278854D01*
X210709531Y-64495201D01*
X210922188Y-64673641D01*
X211098214Y-64770412D01*
X210938653Y-64855253D01*
X210723525Y-65030707D01*
X210546574Y-65244604D01*
X210414539Y-65488798D01*
X210392631Y-65559570D01*
X210380754Y-65530753D01*
X210263600Y-65354423D01*
X210114428Y-65204207D01*
X209938921Y-65085825D01*
X209743761Y-65003788D01*
X209536384Y-64961219D01*
X209324689Y-64959741D01*
X209116738Y-64999410D01*
X208920452Y-65078715D01*
X208743308Y-65194634D01*
X208592054Y-65342753D01*
X208472450Y-65517431D01*
X208389052Y-65712012D01*
X208345037Y-65919087D01*
X208342081Y-66130767D01*
X208380297Y-66338990D01*
X208458230Y-66535825D01*
X208572910Y-66713773D01*
X208661000Y-66804993D01*
X208661000Y-68072000D01*
X208534958Y-68072000D01*
X208412277Y-68096403D01*
X208296715Y-68144270D01*
X208192711Y-68213763D01*
X208104263Y-68302211D01*
X208034770Y-68406215D01*
X208012707Y-68459478D01*
X208018080Y-68406577D01*
X208025926Y-68336639D01*
X208025980Y-68328802D01*
X208025995Y-68328660D01*
X208025982Y-68328526D01*
X208026000Y-68326000D01*
X208026000Y-56090217D01*
X208269538Y-56115814D01*
X208560810Y-56089307D01*
X208841385Y-56006729D01*
X209100578Y-55871226D01*
X209328515Y-55687960D01*
X209516515Y-55463911D01*
X209549299Y-55404276D01*
X209571784Y-55446564D01*
X209756637Y-55673216D01*
X209981994Y-55859647D01*
X210239269Y-55998755D01*
X210518665Y-56085242D01*
X210809538Y-56115814D01*
X211100810Y-56089307D01*
X211381385Y-56006729D01*
X211640578Y-55871226D01*
X211868515Y-55687960D01*
X212056515Y-55463911D01*
X212107043Y-55372000D01*
X213171370Y-55372000D01*
X213550376Y-55751006D01*
X213549081Y-55843767D01*
X213587297Y-56051990D01*
X213665230Y-56248825D01*
X213779910Y-56426773D01*
X213926969Y-56579058D01*
X214100807Y-56699879D01*
X214294802Y-56784633D01*
X214501564Y-56830093D01*
X214713219Y-56834526D01*
X214921704Y-56797765D01*
X215119077Y-56721208D01*
X215297822Y-56607773D01*
X215451130Y-56461780D01*
X215573161Y-56288790D01*
X215659268Y-56095392D01*
X215706170Y-55888952D01*
X215709546Y-55647150D01*
X215668426Y-55439481D01*
X215587754Y-55243753D01*
X215470600Y-55067423D01*
X215321428Y-54917207D01*
X215145921Y-54798825D01*
X214950761Y-54716788D01*
X214743384Y-54674219D01*
X214628043Y-54673413D01*
X214025815Y-54071185D01*
X213971400Y-54026487D01*
X213917505Y-53981264D01*
X213913997Y-53979335D01*
X213910897Y-53976789D01*
X213848831Y-53943510D01*
X213787184Y-53909619D01*
X213783363Y-53908407D01*
X213779833Y-53906514D01*
X213712535Y-53885939D01*
X213645429Y-53864652D01*
X213641445Y-53864205D01*
X213637615Y-53863034D01*
X213567627Y-53855924D01*
X213497639Y-53848074D01*
X213489802Y-53848019D01*
X213489660Y-53848005D01*
X213489526Y-53848017D01*
X213487000Y-53848000D01*
X212107862Y-53848000D01*
X212068216Y-53773436D01*
X211883363Y-53546784D01*
X211658006Y-53360353D01*
X211622050Y-53340911D01*
X211640578Y-53331226D01*
X211868515Y-53147960D01*
X212056515Y-52923911D01*
X212197416Y-52667612D01*
X212285852Y-52388827D01*
X212318454Y-52098175D01*
X212318600Y-52077251D01*
X212318600Y-52062749D01*
X212290059Y-51771669D01*
X212205525Y-51491677D01*
X212068216Y-51233436D01*
X211883363Y-51006784D01*
X211658006Y-50820353D01*
X211400731Y-50681245D01*
X211121335Y-50594758D01*
X210830462Y-50564186D01*
X210539190Y-50590693D01*
X210258615Y-50673271D01*
X209999422Y-50808774D01*
X209771485Y-50992040D01*
X209583485Y-51216089D01*
X209550700Y-51275723D01*
X209528216Y-51233436D01*
X209343363Y-51006784D01*
X209118006Y-50820353D01*
X208860731Y-50681245D01*
X208581335Y-50594758D01*
X208290462Y-50564186D01*
X207999190Y-50590693D01*
X207905807Y-50618177D01*
X206913815Y-49626185D01*
X206859400Y-49581487D01*
X206805505Y-49536264D01*
X206801997Y-49534335D01*
X206798897Y-49531789D01*
X206736831Y-49498510D01*
X206675184Y-49464619D01*
X206671363Y-49463407D01*
X206667833Y-49461514D01*
X206600535Y-49440939D01*
X206533429Y-49419652D01*
X206529445Y-49419205D01*
X206525615Y-49418034D01*
X206455627Y-49410924D01*
X206385639Y-49403074D01*
X206377802Y-49403019D01*
X206377660Y-49403005D01*
X206377526Y-49403017D01*
X206375000Y-49403000D01*
X203835000Y-49403000D01*
X203764936Y-49409869D01*
X203694830Y-49416003D01*
X203690982Y-49417120D01*
X203686993Y-49417512D01*
X203619627Y-49437850D01*
X203552018Y-49457493D01*
X203548457Y-49459338D01*
X203544624Y-49460496D01*
X203482482Y-49493537D01*
X203419986Y-49525933D01*
X203416855Y-49528431D01*
X203413316Y-49530314D01*
X203358769Y-49574800D01*
X203303760Y-49618714D01*
X203298181Y-49624215D01*
X203298069Y-49624307D01*
X203297983Y-49624410D01*
X203296185Y-49626184D01*
X199486185Y-53436185D01*
X199441487Y-53490599D01*
X199440000Y-53492372D01*
X199440000Y-48437000D01*
X217120000Y-48437000D01*
X217120000Y-96925000D01*
X217120011Y-96925121D01*
X217120004Y-96927420D01*
X217120041Y-96937892D01*
X217123064Y-96967648D01*
X217122856Y-96997554D01*
X217123789Y-97007073D01*
X217154389Y-97298218D01*
X217166877Y-97359054D01*
X217178507Y-97420021D01*
X217181271Y-97429177D01*
X217267839Y-97708833D01*
X217291896Y-97766062D01*
X217315156Y-97823632D01*
X217319646Y-97832077D01*
X217458885Y-98089593D01*
X217493604Y-98141065D01*
X217527597Y-98193012D01*
X217533642Y-98200424D01*
X217533644Y-98200426D01*
X217720247Y-98425991D01*
X217764300Y-98469738D01*
X217807739Y-98514096D01*
X217815109Y-98520193D01*
X218041973Y-98705219D01*
X218093690Y-98739580D01*
X218144912Y-98774652D01*
X218153325Y-98779201D01*
X218411806Y-98916638D01*
X218469241Y-98940311D01*
X218526270Y-98964754D01*
X218535407Y-98967583D01*
X218815661Y-99052197D01*
X218876576Y-99064258D01*
X218937293Y-99077164D01*
X218946804Y-99078164D01*
X219238156Y-99106731D01*
X219266887Y-99106730D01*
X219295436Y-99109933D01*
X219305000Y-99110000D01*
X231511496Y-99110000D01*
X231702663Y-99128743D01*
X231854321Y-99174532D01*
X231994195Y-99248904D01*
X232116961Y-99349030D01*
X232217940Y-99471093D01*
X232293290Y-99610449D01*
X232340135Y-99761780D01*
X232360000Y-99950782D01*
X232360000Y-104106495D01*
M02*
