%FSLAX46Y46*%
G04 Gerber Fmt 4.6, Leading zero omitted, Abs format (unit mm)*
G04 Created by KiCad (PCBNEW (2014-10-27 BZR 5228)-product) date 02/12/2014 21:19:55*
%MOMM*%
G01*
G04 APERTURE LIST*
%ADD10C,0.100000*%
%ADD11R,1.397000X1.397000*%
%ADD12C,1.397000*%
%ADD13O,2.286000X1.574800*%
%ADD14R,2.286000X1.574800*%
%ADD15R,1.727200X2.032000*%
%ADD16O,1.727200X2.032000*%
%ADD17R,1.727200X1.727200*%
%ADD18O,1.727200X1.727200*%
%ADD19R,2.032000X1.727200*%
%ADD20O,2.032000X1.727200*%
%ADD21R,2.032000X2.032000*%
%ADD22O,2.032000X2.032000*%
%ADD23C,1.800000*%
%ADD24C,4.500000*%
G04 APERTURE END LIST*
D10*
D11*
X190500000Y-112776000D03*
D12*
X198120000Y-112776000D03*
D13*
X212090000Y-91440000D03*
X212090000Y-88900000D03*
X212090000Y-86360000D03*
X212090000Y-83820000D03*
X212090000Y-81280000D03*
X212090000Y-78740000D03*
X212090000Y-76200000D03*
X212090000Y-73660000D03*
X212090000Y-71120000D03*
X212090000Y-68580000D03*
X212090000Y-66040000D03*
X212090000Y-63500000D03*
X212090000Y-60960000D03*
D14*
X212090000Y-93980000D03*
D13*
X204470000Y-60960000D03*
X204470000Y-63500000D03*
X204470000Y-66040000D03*
X204470000Y-68580000D03*
X204470000Y-71120000D03*
X204470000Y-73660000D03*
X204470000Y-76200000D03*
X204470000Y-78740000D03*
X204470000Y-81280000D03*
X204470000Y-83820000D03*
X204470000Y-86360000D03*
X204470000Y-88900000D03*
X204470000Y-91440000D03*
X204470000Y-93980000D03*
D15*
X216408000Y-120142000D03*
D16*
X218948000Y-120142000D03*
X221488000Y-120142000D03*
D17*
X205740000Y-54610000D03*
D18*
X205740000Y-52070000D03*
X208280000Y-54610000D03*
X208280000Y-52070000D03*
X210820000Y-54610000D03*
X210820000Y-52070000D03*
D19*
X214630000Y-91440000D03*
D20*
X214630000Y-88900000D03*
X214630000Y-86360000D03*
X214630000Y-83820000D03*
X214630000Y-81280000D03*
X214630000Y-78740000D03*
X214630000Y-76200000D03*
D19*
X201930000Y-76200000D03*
D20*
X201930000Y-78740000D03*
X201930000Y-81280000D03*
X201930000Y-83820000D03*
X201930000Y-86360000D03*
X201930000Y-88900000D03*
X201930000Y-91440000D03*
X201930000Y-93980000D03*
D21*
X214630000Y-73660000D03*
D22*
X214630000Y-71120000D03*
D19*
X201930000Y-60960000D03*
D20*
X201930000Y-63500000D03*
X201930000Y-66040000D03*
X201930000Y-68580000D03*
X201930000Y-71120000D03*
D19*
X214630000Y-68580000D03*
D20*
X214630000Y-66040000D03*
X214630000Y-63500000D03*
X214630000Y-60960000D03*
D23*
X228818000Y-112597000D03*
X224318000Y-112597000D03*
X228818000Y-106097000D03*
X224318000Y-106097000D03*
D17*
X209550000Y-103124000D03*
D18*
X207010000Y-103124000D03*
X209550000Y-105664000D03*
X207010000Y-105664000D03*
X209550000Y-108204000D03*
X207010000Y-108204000D03*
X209550000Y-110744000D03*
X207010000Y-110744000D03*
X209550000Y-113284000D03*
X207010000Y-113284000D03*
X209550000Y-115824000D03*
X207010000Y-115824000D03*
D24*
X197716140Y-103327200D03*
X191716660Y-103327200D03*
X194716400Y-108026200D03*
M02*
