M48
;DRILL file {kicad (2014-10-27 BZR 5228)-product} date 05/01/2015 12:46:01
;FORMAT={-:-/ absolute / inch / decimal}
FMAT,2
INCH,TZ
T1C0.025
T2C0.032
T3C0.040
T4C0.118
%
G90
G05
M72
T1
X7.9Y-4.43
X8.075Y-3.885
X8.0925Y-2.28
X8.17Y-3.3
X8.195Y-2.385
X8.245Y-2.6
X8.435Y-3.8925
X8.4925Y-3.83
T2
X7.5Y-4.44
X7.8Y-4.44
X8.05Y-2.4
X8.05Y-2.5
X8.05Y-2.6
X8.05Y-2.7
X8.05Y-2.8
X8.05Y-2.9
X8.05Y-3.
X8.05Y-3.1
X8.05Y-3.2
X8.05Y-3.3
X8.05Y-3.4
X8.05Y-3.5
X8.05Y-3.6
X8.05Y-3.7
X8.35Y-2.4
X8.35Y-2.5
X8.35Y-2.6
X8.35Y-2.7
X8.35Y-2.8
X8.35Y-2.9
X8.35Y-3.
X8.35Y-3.1
X8.35Y-3.2
X8.35Y-3.3
X8.35Y-3.4
X8.35Y-3.5
X8.35Y-3.6
X8.35Y-3.7
X8.8314Y-4.177
X8.8314Y-4.433
X9.0086Y-4.177
X9.0086Y-4.433
T3
X7.95Y-2.4
X7.95Y-2.5
X7.95Y-2.6
X7.95Y-2.7
X7.95Y-2.8
X7.95Y-3.
X7.95Y-3.1
X7.95Y-3.2
X7.95Y-3.3
X7.95Y-3.4
X7.95Y-3.5
X7.95Y-3.6
X7.95Y-3.7
X8.1Y-2.05
X8.1Y-2.15
X8.15Y-4.06
X8.15Y-4.16
X8.15Y-4.26
X8.15Y-4.36
X8.15Y-4.46
X8.15Y-4.56
X8.2Y-2.05
X8.2Y-2.15
X8.25Y-4.06
X8.25Y-4.16
X8.25Y-4.26
X8.25Y-4.36
X8.25Y-4.46
X8.25Y-4.56
X8.3Y-2.05
X8.3Y-2.15
X8.45Y-2.4
X8.45Y-2.5
X8.45Y-2.6
X8.45Y-2.7
X8.45Y-2.8
X8.45Y-2.9
X8.45Y-3.
X8.45Y-3.1
X8.45Y-3.2
X8.45Y-3.3
X8.45Y-3.4
X8.45Y-3.5
X8.45Y-3.6
X8.52Y-4.73
X8.62Y-4.73
X8.72Y-4.73
T4
X7.5579Y-4.07
X7.676Y-4.255
X7.7941Y-4.07
T0
M30
