M48
;DRILL file {kicad (2015-04-22 BZR 5620)-product} date 26/04/2015 16:39:07
;FORMAT={3:3/ absolute / metric / keep zeros}
FMAT,2
METRIC,TZ
T1C0.635
T2C0.813
T3C1.016
T4C3.000
%
G90
G05
M71
T1
X205105Y-099187
X205549Y-057912
X206502Y-096647
X208153Y-060579
X209423Y-066040
X213868Y-124968
X214630Y-055753
X218694Y-108966
X218948Y-119634
X218948Y-122301
T2
X190246Y-112268
X197866Y-112268
X204470Y-060960
X204470Y-063500
X204470Y-066040
X204470Y-068580
X204470Y-071120
X204470Y-073660
X204470Y-076200
X204470Y-078740
X204470Y-081280
X204470Y-083820
X204470Y-086360
X204470Y-088900
X204470Y-091440
X204470Y-093980
X212090Y-060960
X212090Y-063500
X212090Y-066040
X212090Y-068580
X212090Y-071120
X212090Y-073660
X212090Y-076200
X212090Y-078740
X212090Y-081280
X212090Y-083820
X212090Y-086360
X212090Y-088900
X212090Y-091440
X212090Y-093980
T3
X201930Y-060960
X201930Y-063500
X201930Y-066040
X201930Y-068580
X201930Y-071120
X201930Y-076200
X201930Y-078740
X201930Y-081280
X201930Y-083820
X201930Y-086360
X201930Y-088900
X201930Y-091440
X201930Y-093980
X202565Y-103632
X202565Y-106172
X202565Y-108712
X202565Y-111252
X202565Y-113792
X202565Y-116332
X205740Y-052070
X205740Y-054610
X208280Y-052070
X208280Y-054610
X210820Y-052070
X210820Y-054610
X213995Y-103632
X213995Y-106172
X213995Y-108712
X213995Y-111252
X213995Y-113792
X213995Y-116332
X214630Y-060960
X214630Y-063500
X214630Y-066040
X214630Y-068580
X214630Y-071120
X214630Y-073660
X214630Y-076200
X214630Y-078740
X214630Y-081280
X214630Y-083820
X214630Y-086360
X214630Y-088900
X214630Y-091440
X223520Y-114173
X223520Y-116713
X223520Y-119253
T4
X191971Y-103378
X194970Y-108077
X197970Y-103378
T0
M30
