%FSLAX46Y46*%
G04 Gerber Fmt 4.6, Leading zero omitted, Abs format (unit mm)*
G04 Created by KiCad (PCBNEW (2014-10-27 BZR 5228)-product) date 02/12/2014 21:19:55*
%MOMM*%
G01*
G04 APERTURE LIST*
%ADD10C,0.100000*%
%ADD11R,2.032000X1.524000*%
%ADD12R,1.524000X2.032000*%
%ADD13R,1.397000X0.889000*%
%ADD14R,1.397000X1.397000*%
%ADD15C,1.397000*%
%ADD16R,1.198880X1.198880*%
%ADD17R,1.700000X3.150000*%
%ADD18O,2.286000X1.574800*%
%ADD19R,2.286000X1.574800*%
%ADD20R,1.727200X2.032000*%
%ADD21O,1.727200X2.032000*%
%ADD22R,1.727200X1.727200*%
%ADD23O,1.727200X1.727200*%
%ADD24R,2.032000X1.727200*%
%ADD25O,2.032000X1.727200*%
%ADD26R,2.032000X2.032000*%
%ADD27O,2.032000X2.032000*%
%ADD28R,1.500000X1.300000*%
%ADD29R,1.300000X1.500000*%
%ADD30C,1.800000*%
%ADD31R,2.032000X3.657600*%
%ADD32R,2.032000X1.016000*%
%ADD33C,4.500000*%
G04 APERTURE END LIST*
D10*
D11*
X200914000Y-117983000D03*
X200914000Y-114681000D03*
D12*
X213741000Y-108966000D03*
X217043000Y-108966000D03*
D13*
X209296000Y-75628500D03*
X209296000Y-73723500D03*
X209296000Y-69151500D03*
X209296000Y-71056500D03*
X207010000Y-73723500D03*
X207010000Y-75628500D03*
D14*
X190500000Y-112776000D03*
D15*
X198120000Y-112776000D03*
D16*
X226156520Y-115951000D03*
X224058480Y-115951000D03*
D17*
X196164000Y-117094000D03*
X193064000Y-117094000D03*
D18*
X212090000Y-91440000D03*
X212090000Y-88900000D03*
X212090000Y-86360000D03*
X212090000Y-83820000D03*
X212090000Y-81280000D03*
X212090000Y-78740000D03*
X212090000Y-76200000D03*
X212090000Y-73660000D03*
X212090000Y-71120000D03*
X212090000Y-68580000D03*
X212090000Y-66040000D03*
X212090000Y-63500000D03*
X212090000Y-60960000D03*
D19*
X212090000Y-93980000D03*
D18*
X204470000Y-60960000D03*
X204470000Y-63500000D03*
X204470000Y-66040000D03*
X204470000Y-68580000D03*
X204470000Y-71120000D03*
X204470000Y-73660000D03*
X204470000Y-76200000D03*
X204470000Y-78740000D03*
X204470000Y-81280000D03*
X204470000Y-83820000D03*
X204470000Y-86360000D03*
X204470000Y-88900000D03*
X204470000Y-91440000D03*
X204470000Y-93980000D03*
D20*
X216408000Y-120142000D03*
D21*
X218948000Y-120142000D03*
X221488000Y-120142000D03*
D22*
X205740000Y-54610000D03*
D23*
X205740000Y-52070000D03*
X208280000Y-54610000D03*
X208280000Y-52070000D03*
X210820000Y-54610000D03*
X210820000Y-52070000D03*
D24*
X214630000Y-91440000D03*
D25*
X214630000Y-88900000D03*
X214630000Y-86360000D03*
X214630000Y-83820000D03*
X214630000Y-81280000D03*
X214630000Y-78740000D03*
X214630000Y-76200000D03*
D24*
X201930000Y-76200000D03*
D25*
X201930000Y-78740000D03*
X201930000Y-81280000D03*
X201930000Y-83820000D03*
X201930000Y-86360000D03*
X201930000Y-88900000D03*
X201930000Y-91440000D03*
X201930000Y-93980000D03*
D26*
X214630000Y-73660000D03*
D27*
X214630000Y-71120000D03*
D24*
X201930000Y-60960000D03*
D25*
X201930000Y-63500000D03*
X201930000Y-66040000D03*
X201930000Y-68580000D03*
X201930000Y-71120000D03*
D24*
X214630000Y-68580000D03*
D25*
X214630000Y-66040000D03*
X214630000Y-63500000D03*
X214630000Y-60960000D03*
D28*
X221949000Y-110236000D03*
X219249000Y-110236000D03*
D29*
X218948000Y-115650000D03*
X218948000Y-112950000D03*
X216408000Y-112950000D03*
X216408000Y-115650000D03*
X221488000Y-112950000D03*
X221488000Y-115650000D03*
X217043000Y-102028000D03*
X217043000Y-104728000D03*
D30*
X228818000Y-112597000D03*
X224318000Y-112597000D03*
X228818000Y-106097000D03*
X224318000Y-106097000D03*
D31*
X204724000Y-121666000D03*
D32*
X211328000Y-121666000D03*
X211328000Y-119380000D03*
X211328000Y-123952000D03*
D22*
X209550000Y-103124000D03*
D23*
X207010000Y-103124000D03*
X209550000Y-105664000D03*
X207010000Y-105664000D03*
X209550000Y-108204000D03*
X207010000Y-108204000D03*
X209550000Y-110744000D03*
X207010000Y-110744000D03*
X209550000Y-113284000D03*
X207010000Y-113284000D03*
X209550000Y-115824000D03*
X207010000Y-115824000D03*
D33*
X197716140Y-103327200D03*
X191716660Y-103327200D03*
X194716400Y-108026200D03*
M02*
